<svg width="24" height="24" viewBox="0 0 24 24" fill="none" xmlns="http://www.w3.org/2000/svg">
<path d="M22.2545 14.6819H1.30907C0.829068 14.6819 0.43634 14.2892 0.43634 13.8092C0.43634 13.3292 0.829068 12.9364 1.30907 12.9364H22.2545C22.7345 12.9364 23.1273 13.3292 23.1273 13.8092C23.1273 14.2892 22.7345 14.6819 22.2545 14.6819Z" fill="#B85133"/>
<path d="M21.8182 11.191H0.872727C0.392727 11.191 0 10.7983 0 10.3183C0 9.83825 0.392727 9.44553 0.872727 9.44553H21.8182C22.2982 9.44553 22.6909 9.83825 22.6909 10.3183C22.6909 10.7983 22.2982 11.191 21.8182 11.191Z" fill="#B85133"/>
<path d="M23.1273 12.9364H1.74547C1.26547 12.9364 0.872742 12.5437 0.872742 12.0637C0.872742 11.5837 1.26547 11.191 1.74547 11.191H23.1273C23.6073 11.191 24 11.5837 24 12.0637C24 12.5437 23.6073 12.9364 23.1273 12.9364Z" fill="#6A3311"/>
<path d="M2.37555 7.57265V9.17148V9.17236C2.37555 9.83519 2.91271 10.3724 3.57555 10.3724C4.13322 10.3724 4.60188 9.99185 4.73671 9.4765C4.74806 9.43374 4.80348 9.43374 4.81439 9.4765C4.94922 9.99185 5.41788 10.3724 5.97555 10.3724C6.53322 10.3724 7.00188 9.99185 7.13671 9.4765C7.14806 9.43374 7.20348 9.43374 7.21439 9.4765C7.34922 9.99185 7.81788 10.3724 8.37555 10.3724C8.93322 10.3724 9.40188 9.99185 9.53671 9.4765C9.54806 9.43374 9.60348 9.43374 9.61439 9.4765C9.74922 9.99185 10.2179 10.3724 10.7755 10.3724C11.3332 10.3724 11.8019 9.99185 11.9367 9.4765C11.9481 9.43374 12.0035 9.43374 12.0144 9.4765C12.1492 9.99185 12.6179 10.3724 13.1756 10.3724C13.7332 10.3724 14.2019 9.99185 14.3367 9.4765C14.3481 9.43374 14.4035 9.43374 14.4144 9.4765C14.5492 9.99185 15.0179 10.3724 15.5756 10.3724C16.1332 10.3724 16.6019 9.99185 16.7367 9.4765C16.7481 9.43374 16.8035 9.43374 16.8144 9.4765C16.9492 9.99185 17.4179 10.3724 17.9756 10.3724C18.5332 10.3724 19.0019 9.99185 19.1367 9.4765C19.1481 9.43374 19.2035 9.43374 19.2144 9.4765C19.3492 9.99185 19.8179 10.3724 20.3756 10.3724C21.0384 10.3724 21.5756 9.83519 21.5756 9.17236V9.17148V7.57265H2.37555Z" fill="#88C057"/>
<path d="M21.3818 16.4273V14.8285V14.8276C21.3818 14.1648 20.8447 13.6276 20.1818 13.6276C19.6242 13.6276 19.1555 14.0081 19.0207 14.5235C19.0093 14.5663 18.9539 14.5663 18.943 14.5235C18.8082 14.0081 18.3395 13.6276 17.7818 13.6276C17.2242 13.6276 16.7555 14.0081 16.6207 14.5235C16.6093 14.5663 16.5539 14.5663 16.543 14.5235C16.4082 14.0081 15.9395 13.6276 15.3818 13.6276C14.8242 13.6276 14.3555 14.0081 14.2207 14.5235C14.2093 14.5663 14.1539 14.5663 14.143 14.5235C14.0082 14.0081 13.5395 13.6276 12.9818 13.6276C12.4242 13.6276 11.9555 14.0081 11.8207 14.5235C11.8093 14.5663 11.7539 14.5663 11.743 14.5235C11.6082 14.0081 11.1395 13.6276 10.5818 13.6276C10.0242 13.6276 9.5555 14.0081 9.42066 14.5235C9.40932 14.5663 9.3539 14.5663 9.34299 14.5235C9.20815 14.0081 8.7395 13.6276 8.18182 13.6276C7.62415 13.6276 7.1555 14.0081 7.02066 14.5235C7.00932 14.5663 6.9539 14.5663 6.94299 14.5235C6.80815 14.0081 6.3395 13.6276 5.78182 13.6276C5.22415 13.6276 4.7555 14.0081 4.62066 14.5235C4.60931 14.5663 4.5539 14.5663 4.54299 14.5235C4.40815 14.0081 3.9395 13.6276 3.38182 13.6276C2.71899 13.6276 2.18182 14.1648 2.18182 14.8276V14.8285V16.4273H21.3818Z" fill="#659C35"/>
<path d="M11.9755 3.20901H16.7755C20.3694 3.20901 21.9866 5.82545 22.587 7.19476C22.8986 7.9056 22.4832 8.76305 21.7147 8.8704C21.6606 8.87781 21.6091 8.88174 21.5611 8.88174H11.9755H2.39037C2.34237 8.88174 2.29088 8.87781 2.23677 8.8704C1.46834 8.76305 1.05292 7.9056 1.36448 7.19476C1.96448 5.82545 3.58165 3.20901 7.17597 3.20901H11.9755Z" fill="#D99F4C"/>
<path d="M16.3388 7.57265C16.2559 7.57265 16.1716 7.54865 16.097 7.49934L14.7879 6.62661C14.5876 6.49265 14.5335 6.2221 14.6671 6.02137C14.8006 5.82065 15.0716 5.76697 15.2723 5.9005L16.5814 6.77323C16.7817 6.90719 16.8358 7.17774 16.7023 7.37846C16.618 7.50457 16.4797 7.57265 16.3388 7.57265Z" fill="#EFDFA0"/>
<path d="M10.2297 5.8272C10.1642 5.8272 10.0975 5.81237 10.0351 5.78139C9.8195 5.6736 9.73223 5.41135 9.84001 5.19579L10.2764 4.32306C10.3842 4.10749 10.6455 4.02022 10.862 4.128C11.0775 4.23579 11.1648 4.49804 11.057 4.7136L10.6207 5.58633C10.5439 5.73906 10.3898 5.8272 10.2297 5.8272Z" fill="#EFDFA0"/>
<path d="M5.42969 7.13628C5.36424 7.13628 5.29748 7.12145 5.23508 7.09046C5.01951 6.98268 4.93224 6.72043 5.04002 6.50486L5.47639 5.63214C5.58417 5.41701 5.84599 5.33017 6.06199 5.43708C6.27755 5.54486 6.36482 5.80712 6.25704 6.02268L5.82068 6.89541C5.74388 7.04814 5.58984 7.13628 5.42969 7.13628Z" fill="#EFDFA0"/>
<path d="M21.3818 15.1183H19.6512H17.9057H11.7966H2.21147C1.73147 15.1183 1.33875 15.511 1.33875 15.991C1.33875 15.991 2.12856 20.791 6.99664 20.791H11.7966H16.5966C21.4647 20.791 22.2545 15.991 22.2545 15.991C22.2545 15.511 21.8618 15.1183 21.3818 15.1183Z" fill="#D99F4C"/>
<path d="M6.55984 18.1728C6.47693 18.1728 6.39272 18.1488 6.3181 18.0995L5.00901 17.2268C4.80872 17.0928 4.75461 16.8222 4.88813 16.6215C5.02166 16.4212 5.29221 16.3667 5.49337 16.5006L6.80246 17.3734C7.00275 17.5073 7.05686 17.7779 6.92333 17.9786C6.83912 18.1047 6.70079 18.1728 6.55984 18.1728Z" fill="#EFDFA0"/>
<path d="M11.3607 19.0455C11.2006 19.0455 11.0465 18.9574 10.9697 18.8042L10.5334 17.9315C10.4256 17.7159 10.5129 17.4537 10.7284 17.3459C10.9444 17.2381 11.2062 17.3254 11.314 17.5409L11.7504 18.4137C11.8582 18.6292 11.7709 18.8915 11.5553 18.9993C11.4929 19.0307 11.4262 19.0455 11.3607 19.0455Z" fill="#EFDFA0"/>
<path d="M14.4144 18.1724C14.3489 18.1724 14.2822 18.1575 14.2198 18.1265C14.0042 18.0188 13.9169 17.7565 14.0247 17.5409L14.4611 16.6682C14.5688 16.4531 14.8302 16.3662 15.0467 16.4732C15.2622 16.5809 15.3495 16.8432 15.2417 17.0588L14.8054 17.9315C14.7286 18.0842 14.5745 18.1724 14.4144 18.1724Z" fill="#EFDFA0"/>
</svg>
