<svg width="24" height="24" viewBox="0 0 24 24" fill="none" xmlns="http://www.w3.org/2000/svg">
<g clip-path="url(#clip0_23_273)">
<path d="M3.75736 8.69048C2.22168 7.15479 2.0441 4.84671 3.36053 3.53028L3.75736 3.13345C5.07379 1.81702 7.38187 1.9946 8.91756 3.53028C10.3425 4.95525 10.3425 7.26551 8.91756 8.69048C7.49259 10.1154 5.18233 10.1154 3.75736 8.69048Z" fill="#F75B57"/>
<path d="M5.64215 4.8554C5.1715 4.8554 4.70128 4.67652 4.34265 4.31832C4.17289 4.14856 4.17289 3.87416 4.34265 3.70439C4.51198 3.53463 4.78682 3.53463 4.95658 3.70439C5.33431 4.08169 5.94954 4.08169 6.32728 3.70439C6.49704 3.53463 6.77187 3.53463 6.94164 3.70439C7.11097 3.87416 7.11097 4.14899 6.94164 4.31832C6.58301 4.67652 6.11236 4.8554 5.64215 4.8554Z" fill="#F98282"/>
<path d="M2.97412 14.7542L4.92792 19.5671C6.21742 21.9377 7.25511 22.5598 9.77464 23.5259C11.4215 24.1576 14.541 24.1576 16.1753 23.5259C18.6683 22.5624 19.7229 21.9559 20.9998 19.6083L22.9758 14.7542C21.8704 13.6596 20.0811 14.8805 18.9753 15.9751C17.8755 14.8805 16.0949 15.6599 14.9952 16.7545C13.8954 15.6599 12.1148 15.6599 11.0151 16.7545C9.90402 15.6599 8.10566 14.8805 6.9946 15.9751C5.88354 14.8805 4.08518 13.6601 2.97412 14.7542Z" fill="#A46F3E"/>
<path d="M8.57455 21.3137C8.4113 21.3137 8.255 21.2213 8.18119 21.0636L6.98113 18.5003C6.87953 18.2832 6.97288 18.0244 7.1904 17.9232C7.40792 17.8221 7.66626 17.9146 7.76785 18.1321L8.96792 20.6955C9.06952 20.9126 8.97617 21.1713 8.75865 21.2725C8.69873 21.3007 8.63621 21.3137 8.57455 21.3137Z" fill="#C18B5F"/>
<path d="M17.3749 21.3137C17.3132 21.3137 17.2503 21.3007 17.1912 21.2725C16.9742 21.1713 16.8804 20.9126 16.982 20.6955L18.182 18.1321C18.2832 17.9146 18.5428 17.8199 18.7595 17.9233C18.9766 18.0244 19.0704 18.2832 18.9688 18.5003L17.7687 21.0637C17.6945 21.2213 17.5382 21.3137 17.3749 21.3137Z" fill="#C18B5F"/>
<path d="M14.5753 22.2238C14.5532 22.2238 14.5302 22.222 14.5076 22.2186C14.271 22.1817 14.1086 21.9594 14.1455 21.7223L14.5454 19.1589C14.5823 18.9219 14.8041 18.7612 15.0416 18.7968C15.2783 18.8337 15.4406 19.056 15.4037 19.2931L15.0039 21.8565C14.9704 22.0705 14.7855 22.2238 14.5753 22.2238Z" fill="#C18B5F"/>
<path d="M11.3742 22.2238C11.164 22.2238 10.9791 22.0705 10.9456 21.8565L10.5458 19.2931C10.5089 19.056 10.6712 18.8337 10.9079 18.7968C11.1449 18.7612 11.3668 18.9219 11.4041 19.1589L11.804 21.7223C11.8409 21.9594 11.6785 22.1817 11.4419 22.2186C11.4189 22.222 11.3963 22.2238 11.3742 22.2238Z" fill="#C18B5F"/>
<path d="M21.6316 10.9664C21.695 10.7506 21.7288 10.5296 21.7288 10.3047C21.7288 9.096 20.7754 8.00013 19.2293 7.1956C19.2293 7.1956 19.2701 0.243997 13.6015 0.805822C13.6015 0.805822 15.4293 3.76561 12.8681 3.79253C11.6199 3.80555 10.458 3.97141 9.46983 4.24754C10.3043 5.6482 10.1228 7.48563 8.91712 8.69134C7.66669 9.94177 5.73417 10.0942 4.31658 9.1494C4.12034 9.51845 4.00702 9.90487 4.00702 10.3052C4.00702 10.5301 4.04088 10.7511 4.10427 10.9669C3.07614 11.7275 2.47784 12.6302 2.47784 13.5993C2.47784 14.2623 2.75832 14.8944 3.2637 15.471L2.97411 14.7542C4.08517 13.6596 5.88353 14.8805 6.99459 15.9751C8.10565 14.8805 9.90401 15.6599 11.0151 16.7544C12.1148 15.6599 13.8954 15.6599 14.9952 16.7544C16.0949 15.6599 17.8755 14.8805 18.9753 15.9751C20.0785 14.8831 21.8621 13.6661 22.968 14.7481C23.156 14.3791 23.258 13.9948 23.258 13.5984C23.258 12.6293 22.6597 11.7271 21.6316 10.9664Z" fill="#FFF5BB"/>
<path d="M5.51754 3.55397C5.29481 3.55397 5.10551 3.38334 5.08554 3.158C5.08336 3.13499 4.97352 2.10947 4.12948 1.45082C3.45433 0.924163 2.48264 0.754834 1.24177 0.943701C1.00731 0.980606 0.783276 0.817789 0.746805 0.580295C0.710334 0.343234 0.873151 0.121804 1.11021 0.0853329C2.60378 -0.144347 3.80385 0.0883721 4.67524 0.775674C5.81973 1.67746 5.94521 3.02645 5.95042 3.08289C5.97039 3.32212 5.79324 3.53183 5.55401 3.5518C5.54186 3.55354 5.5297 3.55397 5.51754 3.55397Z" fill="#6A3311"/>
<path d="M12.9758 8.74692C12.7361 8.74692 12.5416 8.55284 12.5416 8.31274C12.5416 8.07264 12.7361 7.87856 12.9758 7.87856C14.7698 7.87856 16.4718 7.65149 17.8972 7.22079C18.126 7.15175 18.3691 7.28157 18.4386 7.51082C18.5077 7.7405 18.3778 7.98277 18.1486 8.0518C16.6424 8.50638 14.8536 8.74692 12.9758 8.74692Z" fill="#F9DA49"/>
<path d="M6.53569 12.6363C6.48619 12.6363 6.43626 12.6276 6.3872 12.6098C5.90483 12.4344 5.44026 12.2299 5.00608 12.0028C4.79377 11.8917 4.71128 11.6299 4.82243 11.4167C4.93357 11.2044 5.19582 11.1214 5.40856 11.2335C5.80888 11.4423 6.23828 11.6312 6.68461 11.794C6.90995 11.876 7.02587 12.1253 6.94381 12.3506C6.87956 12.5269 6.71283 12.6363 6.53569 12.6363Z" fill="#F9DA49"/>
<path d="M12.8673 13.6553C11.9807 13.6553 11.0989 13.6019 10.2275 13.4947C9.98956 13.4656 9.82023 13.2493 9.84932 13.011C9.87885 12.7731 10.099 12.6037 10.3334 12.6332C12.0753 12.8473 13.8607 12.8382 15.6399 12.6068C15.8787 12.572 16.0954 12.7431 16.1267 12.981C16.1579 13.219 15.9899 13.4369 15.752 13.4673C14.7894 13.5928 13.8255 13.6553 12.8673 13.6553Z" fill="#F9DA49"/>
<path d="M18.1096 12.9953C17.9185 12.9953 17.7435 12.8686 17.691 12.6754C17.6281 12.4444 17.7644 12.2056 17.9958 12.1422C18.8946 11.8973 19.6952 11.5903 20.3751 11.2313C20.587 11.1201 20.8501 11.2009 20.9617 11.4128C21.0737 11.6246 20.9925 11.8873 20.7806 11.9998C20.0447 12.3884 19.1846 12.7179 18.2246 12.9801C18.186 12.9906 18.1473 12.9953 18.1096 12.9953Z" fill="#F9DA49"/>
</g>
<defs>
<clipPath id="clip0_23_273">
<rect width="24" height="24" fill="white"/>
</clipPath>
</defs>
</svg>
