<svg width="24" height="24" viewBox="0 0 24 24" fill="none" xmlns="http://www.w3.org/2000/svg">
<path d="M20.5385 9.33784H17.7692V11.184H19.6154C20.1231 11.184 20.5385 11.5994 20.5385 12.1071V16.7225C20.5385 17.2302 20.1231 17.6455 19.6154 17.6455H17.7692V19.4917H20.5385C21.5538 19.4917 22.3846 18.6609 22.3846 17.6455V11.184C22.3846 10.1686 21.5538 9.33784 20.5385 9.33784Z" fill="#E6E6E6"/>
<path d="M15 1.84615C14.3617 1.84615 13.7755 2.064 13.3075 2.42677C12.8478 1.53462 11.9192 0.923077 10.8462 0.923077C10.4543 0.923077 10.0823 1.00523 9.74446 1.152C9.19569 0.451846 8.34369 0 7.38462 0C5.94231 0 4.73908 1.01769 4.45108 2.37415C4.28077 2.334 4.10539 2.30769 3.92308 2.30769C2.64877 2.30769 1.61539 3.34108 1.61539 4.61539V8.30769C1.61539 8.81538 2.03077 9.23077 2.53846 9.23077H3C3.50769 9.23077 3.92308 8.81538 3.92308 8.30769V7.57108C4.20277 7.74231 4.52723 7.84615 4.87754 7.84615H5.78539C6.37385 7.84615 6.894 7.56231 7.23277 7.13031C7.73539 7.84062 8.56154 8.30769 9.49293 8.30769C11.016 8.30769 12.2622 7.06154 12.2622 5.53846H17.6082C17.7106 5.24954 17.7692 4.93938 17.7692 4.61539C17.7692 3.08585 16.5295 1.84615 15 1.84615Z" fill="#E6E6E6"/>
<path d="M12.2621 5.53847C12.2621 7.06154 11.016 8.3077 9.49291 8.3077C8.56153 8.3077 7.73537 7.84062 7.23276 7.13031C6.89399 7.56231 6.37383 7.84616 5.78537 7.84616H4.87753C4.52768 7.84616 4.20276 7.74231 3.92307 7.57108V21.6923C3.92307 22.9615 4.96153 24 6.23076 24H15.4615C16.7308 24 17.7692 22.9615 17.7692 21.6923V5.53847H12.2621Z" fill="#F4C44E"/>
<path d="M6.6923 11.5385C6.6923 10.7769 6.06922 10.1538 5.30768 10.1538C4.54614 10.1538 3.92307 10.7769 3.92307 11.5385V21.2308H6.6923V11.5385Z" fill="#F9DA49"/>
<path d="M9.46155 11.5385C9.46155 10.7769 8.83848 10.1538 8.07694 10.1538C7.3154 10.1538 6.69232 10.7769 6.69232 11.5385V21.2308H9.46155V11.5385Z" fill="#EEAF4B"/>
<path d="M12.2308 11.5385C12.2308 10.7769 11.6077 10.1538 10.8462 10.1538C10.0846 10.1538 9.46155 10.7769 9.46155 11.5385V21.2308H12.2308V11.5385Z" fill="#F9DA49"/>
<path d="M15 11.5385C15 10.7769 14.3769 10.1538 13.6154 10.1538C12.8539 10.1538 12.2308 10.7769 12.2308 11.5385V21.2308H15V11.5385Z" fill="#EEAF4B"/>
<path d="M17.7692 11.5385C17.7692 10.7769 17.1462 10.1538 16.3846 10.1538C15.6231 10.1538 15 10.7769 15 11.5385V21.2308H17.7692V11.5385Z" fill="#F9DA49"/>
</svg>
