<svg width="24" height="24" viewBox="0 0 24 24" fill="none" xmlns="http://www.w3.org/2000/svg">
<g clip-path="url(#clip0_23_275)">
<path d="M18.9255 6.09474C18.5781 6.13348 18.2447 6.29811 18.0059 6.58737C17.0649 7.72885 15.7444 8.46695 14.296 8.77011C13.5129 8.9339 12.779 9.35664 12.2329 10.0257C11.027 11.5032 11.1916 13.7276 12.6055 15.0072C14.1512 16.4063 16.5335 16.219 17.8447 14.6282C18.3339 14.0345 18.603 13.3318 18.6611 12.6194C18.7836 11.1179 19.4169 9.70316 20.3752 8.54064C20.3752 8.54064 21.4114 6.51832 18.9255 6.09474Z" fill="#DC9628"/>
<path d="M5.47369 10.0366C6.11453 9.05433 6.87706 7.62611 6.81053 6.47117C6.78317 5.99875 7.28885 5.6859 7.69559 5.92759C9.44253 6.96506 11.7133 9.41559 7.1579 14.1461C5.30485 16.0703 3.93811 15.0455 3.78948 13.7015C3.64717 12.4164 4.76717 11.1196 5.47369 10.0366Z" fill="#F1B501"/>
<path d="M20.1964 21.8438H2.9619C2.19348 21.8438 1.47222 21.4724 1.02548 20.8472L0.0739022 19.5145C-0.11094 19.2556 0.0739022 18.896 0.392218 18.896H22.7665C23.0844 18.896 23.2697 19.2556 23.0849 19.5145L22.1333 20.8472C21.6861 21.4728 20.9648 21.8438 20.1964 21.8438Z" fill="#E6E6E6"/>
<path d="M19.9962 9.04126C20.1167 8.87031 20.2417 8.70231 20.3752 8.54063C20.3752 8.54063 21.4114 6.51831 18.9255 6.09431C18.5781 6.13305 18.2447 6.29768 18.0059 6.58695C17.8038 6.832 17.5811 7.05474 17.3466 7.26231C15.5764 6.68968 13.4143 7.02821 11.0623 9.04421C10.8021 9.26737 10.3609 9.73895 9.74739 9.96968C9.51287 11.1061 8.75708 12.4851 7.15792 14.1457C5.30487 16.0699 3.93813 15.0451 3.7895 13.7011C3.64718 12.416 4.76718 11.1192 5.47371 10.0362C5.78908 9.55242 6.1335 8.96084 6.39413 8.34695C6.14234 8.18695 5.86234 8.08252 5.53181 8.08252C2.87539 8.08295 1.68423 9.91326 1.68423 12.1709C1.68423 12.4051 1.70781 12.6345 1.75287 12.8573C1.88129 13.4956 1.9196 14.1465 1.78697 14.784C1.7196 15.1082 1.68423 15.44 1.68423 15.7777C1.68423 16.5326 1.9196 17.1575 2.33392 17.6766C2.74487 17.3848 3.24676 17.2122 3.7895 17.2122C4.88887 17.2122 5.82192 17.9158 6.16887 18.8964H6.46276C6.81013 17.9158 7.74276 17.2122 8.84213 17.2122C9.9415 17.2122 10.8745 17.9158 11.2215 18.8964H11.5154C11.8628 17.9158 12.7954 17.2122 13.8948 17.2122C14.9941 17.2122 15.9272 17.9158 16.2741 18.8964H16.568C16.9154 17.9158 17.848 17.2122 18.9474 17.2122C19.7007 17.2122 20.3701 17.5474 20.8324 18.0703C22.0354 17.2501 22.8733 16.1726 23.1579 14.816C23.5221 13.0804 21.4964 10.7133 19.9962 9.04126Z" fill="#F4C44E"/>
<path d="M23.7769 3.336C23.624 3.14779 23.4274 3.03621 23.2202 2.9899C23.0905 2.96085 22.9865 2.87495 22.9331 2.75327C22.848 2.55874 22.7006 2.38695 22.4867 2.27285C22.1061 2.06948 21.6181 2.13769 21.3086 2.43874C21.0623 2.67832 20.9676 3.00211 21.0118 3.30779C21.0619 3.65264 20.9945 4.00422 20.7726 4.27327L19.2164 6.16127C20.1187 6.38906 20.4636 6.85685 20.5571 7.32127L22.1402 5.40085C22.3621 5.13179 22.6943 4.99832 23.0425 4.98148C23.3512 4.96674 23.651 4.81179 23.8392 4.52421C24.075 4.16253 24.0493 3.67116 23.7769 3.336Z" fill="#D2D5D7"/>
<path d="M18.9255 6.09474C18.5781 6.13348 18.2447 6.29811 18.0059 6.58737C17.0649 7.72885 15.7444 8.46695 14.296 8.77011C13.5129 8.9339 12.779 9.35664 12.2329 10.0257C11.027 11.5032 11.1916 13.7276 12.6055 15.0072C14.1512 16.4063 16.5335 16.219 17.8447 14.6282C18.3339 14.0345 18.603 13.3318 18.6611 12.6194C18.7836 11.1179 19.4169 9.70316 20.3752 8.54064C20.3752 8.54064 21.4114 6.51832 18.9255 6.09474Z" fill="#DC9628"/>
<path d="M20.1964 21.8438H2.9619C2.19348 21.8438 1.47222 21.4724 1.02548 20.8472L0.0739022 19.5145C-0.11094 19.2556 0.0739022 18.896 0.392218 18.896H22.7665C23.0844 18.896 23.2697 19.2556 23.0849 19.5145L22.1333 20.8472C21.6861 21.4728 20.9648 21.8438 20.1964 21.8438Z" fill="#E6E6E6"/>
<path d="M20.1964 21.8438H2.9619C2.19348 21.8438 1.47222 21.4724 1.02548 20.8472L0.0739022 19.5145C-0.11094 19.2556 0.0739022 18.896 0.392218 18.896H22.7665C23.0844 18.896 23.2697 19.2556 23.0849 19.5145L22.1333 20.8472C21.6861 21.4728 20.9648 21.8438 20.1964 21.8438Z" fill="#E6E6E6"/>
<path d="M20.1964 21.8438H2.9619C2.19348 21.8438 1.47222 21.4724 1.02548 20.8472L0.0739022 19.5145C-0.11094 19.2556 0.0739022 18.896 0.392218 18.896H22.7665C23.0844 18.896 23.2697 19.2556 23.0849 19.5145L22.1333 20.8472C21.6861 21.4728 20.9648 21.8438 20.1964 21.8438Z" fill="#E6E6E6"/>
<path d="M11.2215 18.8964C10.8741 17.9158 9.94151 17.2122 8.84214 17.2122C7.74277 17.2122 6.80972 17.9158 6.46277 18.8964H11.2215Z" fill="#659C35"/>
<path d="M6.16886 18.8964C5.82149 17.9158 4.88886 17.2122 3.78949 17.2122C2.69013 17.2122 1.75707 17.9158 1.41013 18.8964H6.16886Z" fill="#ED3F32"/>
<path d="M16.2741 18.8964C15.9267 17.9158 14.9941 17.2122 13.8947 17.2122C12.7954 17.2122 11.8623 17.9158 11.5154 18.8964H16.2741Z" fill="#ED3F32"/>
<path d="M21.3268 18.8964C20.9794 17.9158 20.0468 17.2122 18.9474 17.2122C17.848 17.2122 16.915 17.9158 16.568 18.8964H21.3268Z" fill="#659C35"/>
<path d="M20.1964 21.8438H2.9619C2.19348 21.8438 1.47222 21.4724 1.02548 20.8472L0.0739022 19.5145C-0.11094 19.2556 0.0739022 18.896 0.392218 18.896H22.7665C23.0844 18.896 23.2697 19.2556 23.0849 19.5145L22.1333 20.8472C21.6861 21.4728 20.9648 21.8438 20.1964 21.8438Z" fill="#E6E6E6"/>
<path d="M20.1964 21.8438H2.9619C2.19348 21.8438 1.47222 21.4724 1.02548 20.8472L0.0739022 19.5145C-0.11094 19.2556 0.0739022 18.896 0.392218 18.896H22.7665C23.0844 18.896 23.2697 19.2556 23.0849 19.5145L22.1333 20.8472C21.6861 21.4728 20.9648 21.8438 20.1964 21.8438Z" fill="#E6E6E6"/>
</g>
<defs>
<clipPath id="clip0_23_275">
<rect width="24" height="24" fill="white"/>
</clipPath>
</defs>
</svg>
