<svg width="24" height="24" viewBox="0 0 24 24" fill="none" xmlns="http://www.w3.org/2000/svg">
<g clip-path="url(#clip0_23_276)">
<path d="M12.1851 22.4877H16.7804C17.1966 22.4877 17.4533 22.0334 17.2385 21.6772L17.2343 21.6701C16.9369 21.1763 16.879 20.5554 17.1441 20.0436C17.3757 19.5964 17.752 19.2273 18.226 19.0007C21.4642 17.4544 23.7606 15.7269 23.9993 12.2022C24.0219 11.8683 23.7593 11.5809 23.4246 11.5809H12.1855H0.576942C0.242175 11.5809 -0.020436 11.8683 0.00221735 12.2022C0.240917 15.7265 2.53688 17.4544 5.77547 19.0007C6.2491 19.2269 6.62582 19.5964 6.85738 20.0436C7.12251 20.5554 7.06462 21.1763 6.76719 21.6701L6.76299 21.6772C6.54821 22.0338 6.80494 22.4877 7.2211 22.4877H12.1851Z" fill="#E6E6E6"/>
<path d="M15.1023 19.9706H11.4496C11.2181 19.9706 11.0301 19.7831 11.0301 19.5511C11.0301 19.3191 11.2181 19.1316 11.4496 19.1316H15.1023C15.3338 19.1316 15.5218 19.3191 15.5218 19.5511C15.5218 19.7831 15.3338 19.9706 15.1023 19.9706Z" fill="white"/>
<path d="M10.2301 19.9706H8.80967C8.57811 19.9706 8.39017 19.7831 8.39017 19.5511C8.39017 19.3191 8.57811 19.1316 8.80967 19.1316H10.2301C10.4617 19.1316 10.6496 19.3191 10.6496 19.5511C10.6496 19.7831 10.4617 19.9706 10.2301 19.9706Z" fill="white"/>
<path d="M15.1023 21.2292H8.80967C8.57811 21.2292 8.39017 21.0416 8.39017 20.8097C8.39017 20.5777 8.57811 20.3902 8.80967 20.3902H15.1023C15.3338 20.3902 15.5218 20.5777 15.5218 20.8097C15.5218 21.0416 15.3338 21.2292 15.1023 21.2292Z" fill="white"/>
<path d="M17.1998 1.51233C15.1144 1.51233 13.4243 3.20252 13.4243 5.28789C13.4243 5.58281 13.4616 5.86849 13.5254 6.14411C13.738 6.36267 14.0627 6.43776 14.3472 6.30604L14.5116 6.23011C14.9693 6.01825 15.4983 6.32366 15.5436 6.82581L15.56 7.00619C15.5918 7.3569 15.8696 7.63504 16.2207 7.6665L16.4011 7.68286C16.9032 7.72817 17.2086 8.25758 16.9968 8.71485L16.9208 8.87929C16.8957 8.93341 16.8877 8.99046 16.8768 9.0471C16.9838 9.05633 17.0912 9.06346 17.2002 9.06346C19.2856 9.06346 20.9758 7.37284 20.9758 5.28789C20.9754 3.20252 19.2852 1.51233 17.1998 1.51233Z" fill="#D13834"/>
<path d="M20.9644 5.50352C20.852 7.48779 19.2122 9.06346 17.1998 9.06346C17.0907 9.06346 16.9825 9.05843 16.8755 9.0492C16.8222 9.32523 16.9233 9.61344 17.1616 9.78124L17.3101 9.88612C17.7221 10.1764 17.7221 10.7876 17.3097 11.0775L17.1616 11.182C17.027 11.2768 16.9376 11.4119 16.891 11.5599C16.8969 11.5667 16.9019 11.5738 16.9078 11.5805H22.5246C23.1241 10.9122 23.4916 10.0317 23.4916 9.06346C23.4924 7.41606 22.4357 6.0191 20.9644 5.50352Z" fill="#436B1C"/>
<path d="M16.6066 5.11421C16.4992 5.11421 16.3918 5.0731 16.31 4.9913L15.1232 3.80493C14.9592 3.64091 14.9592 3.37578 15.1232 3.21175C15.2873 3.04772 15.5524 3.04772 15.7164 3.21175L16.9032 4.39812C17.0672 4.56214 17.0672 4.82727 16.9032 4.9913C16.8214 5.0731 16.714 5.11421 16.6066 5.11421Z" fill="#ED3F32"/>
<path d="M18.9798 7.48696C18.8724 7.48696 18.765 7.44585 18.6832 7.36404L17.4964 6.17767C17.3324 6.01365 17.3324 5.74852 17.4964 5.58449C17.6604 5.42046 17.9256 5.42046 18.0896 5.58449L19.2764 6.77086C19.44 6.93489 19.4404 7.20001 19.2764 7.36404C19.1941 7.44626 19.0872 7.48696 18.9798 7.48696Z" fill="#ED3F32"/>
<path d="M17.793 5.11421C17.6856 5.11421 17.5782 5.0731 17.4964 4.9913C17.3324 4.82727 17.3324 4.56214 17.4964 4.39812L18.6832 3.21175C18.8472 3.04772 19.1123 3.04772 19.2764 3.21175C19.4404 3.37578 19.44 3.64091 19.2764 3.80493L18.0896 4.9913C18.0078 5.0731 17.9004 5.11421 17.793 5.11421Z" fill="#ED3F32"/>
<path d="M15.6296 7.2772C15.5222 7.2772 15.4148 7.23609 15.333 7.15429C15.169 6.99026 15.169 6.72513 15.333 6.5611L16.31 5.58449C16.474 5.42046 16.7392 5.42046 16.9032 5.58449C17.0672 5.74852 17.0672 6.01365 16.9032 6.17767L15.9262 7.15429C15.8444 7.23651 15.737 7.2772 15.6296 7.2772Z" fill="#ED3F32"/>
<path d="M22.2339 9.06346H20.5559C20.3239 9.06346 20.1364 8.87594 20.1364 8.64395C20.1364 8.41196 20.3239 8.22444 20.5559 8.22444H22.2339C22.4659 8.22444 22.6534 8.41196 22.6534 8.64395C22.6534 8.87594 22.4659 9.06346 22.2339 9.06346Z" fill="#659C35"/>
<path d="M19.7168 11.5805C19.4849 11.5805 19.2973 11.393 19.2973 11.161V9.48297C19.2973 9.25098 19.4849 9.06346 19.7168 9.06346C19.9488 9.06346 20.1363 9.25098 20.1363 9.48297V11.161C20.1363 11.393 19.9488 11.5805 19.7168 11.5805Z" fill="#659C35"/>
<path d="M9.84208 7.71347C10.2498 7.84059 10.4734 8.30666 10.2842 8.71526L10.2083 8.8797C10.0602 9.19937 10.1622 9.57902 10.4499 9.78165L10.5985 9.88652C11.0104 10.1768 11.0104 10.788 10.598 11.0779L10.4499 11.1824C10.3086 11.2818 10.2138 11.4244 10.1693 11.5813H12.1846H16.8814C16.9255 11.4244 17.0207 11.2822 17.1621 11.1824L17.3101 11.0779C17.7221 10.7876 17.7225 10.1768 17.3106 9.88652L17.1621 9.78165C16.8743 9.57902 16.7728 9.19937 16.9204 8.8797L16.9964 8.71526C17.2082 8.25758 16.9028 7.72858 16.4007 7.68327L16.2203 7.66691C15.8696 7.63503 15.5914 7.35731 15.5595 7.00661L15.5432 6.82622C15.4979 6.32407 14.9685 6.01867 14.5112 6.23052L14.3472 6.30603C14.0275 6.45411 13.6479 6.35217 13.4452 6.06439L13.3408 5.91631C13.0505 5.50393 12.4393 5.50393 12.149 5.91631L12.0445 6.06439C11.8419 6.35217 11.4622 6.45411 11.1426 6.30603L10.9781 6.22968C10.5204 6.01783 9.99143 6.32365 9.94612 6.82538L9.92976 7.00577C9.91298 7.19119 9.82908 7.39884 9.76489 7.53435C9.73133 7.60608 9.76699 7.68998 9.84208 7.71347Z" fill="#88C057"/>
<path d="M5.26272 5.82277L7.67908 2.3933C8.07761 1.82738 8.86712 1.69062 9.43262 2.08958C9.99853 2.48811 10.1353 3.27762 9.73634 3.84312L7.31998 7.27259C6.92145 7.8385 6.13194 7.97526 5.56644 7.57631C5.00053 7.17778 4.86377 6.38868 5.26272 5.82277Z" fill="#A46F3E"/>
<path d="M10.598 9.88568L10.4499 9.78123C10.1622 9.57861 10.0602 9.19895 10.2083 8.87929L10.2842 8.71484C10.4961 8.25716 10.1903 7.72816 9.68853 7.68285L9.50815 7.66649C9.15744 7.63461 8.8793 7.3569 8.84784 7.00619L8.83148 6.8258C8.79582 6.4323 8.46231 6.1634 8.09986 6.16592L7.32042 7.27215C6.92188 7.83807 6.13237 7.97483 5.56688 7.57588C5.14443 7.27803 4.96153 6.76287 5.06179 6.28506C4.8684 6.3828 4.63893 6.40168 4.43085 6.30561L4.2664 6.22926C3.80872 6.01741 3.27972 6.32323 3.23442 6.82496L3.21806 7.00535C3.18617 7.35606 2.90846 7.63419 2.55775 7.66565L2.37736 7.68201C1.87521 7.72732 1.56981 8.25674 1.78166 8.714L1.85759 8.87845C2.00568 9.19811 1.90374 9.57777 1.61596 9.78039L1.46787 9.88485C1.05592 10.1751 1.05592 10.7864 1.46787 11.0767L1.61596 11.1811C1.75733 11.2805 1.85214 11.4232 1.89619 11.5797H10.1697C10.2138 11.4228 10.309 11.2805 10.4499 11.1811L10.598 11.0767C11.0104 10.7872 11.0104 10.176 10.598 9.88568Z" fill="#FBD490"/>
<path d="M12.3755 8.85371C12.2681 8.85371 12.1607 8.8126 12.0789 8.73079C11.9149 8.56677 11.9149 8.30164 12.0789 8.13761L12.7082 7.50835C12.8722 7.34432 13.1373 7.34432 13.3013 7.50835C13.4654 7.67238 13.4654 7.93751 13.3013 8.10153L12.6721 8.73079C12.5903 8.8126 12.4829 8.85371 12.3755 8.85371Z" fill="#436B1C"/>
<path d="M14.6827 9.90247C14.5754 9.90247 14.468 9.86136 14.3862 9.77955L13.9666 9.36005C13.8026 9.19602 13.8026 8.93089 13.9666 8.76687C14.1307 8.60284 14.3958 8.60284 14.5598 8.76687L14.9793 9.18637C15.1434 9.3504 15.1434 9.61553 14.9793 9.77955C14.8975 9.86136 14.7901 9.90247 14.6827 9.90247Z" fill="#436B1C"/>
<path d="M12.5852 10.7415C12.4778 10.7415 12.3704 10.7004 12.2886 10.6186C12.1246 10.4545 12.1246 10.1894 12.2886 10.0254L12.7081 9.60588C12.8722 9.44186 13.1373 9.44186 13.3013 9.60588C13.4654 9.76991 13.4654 10.035 13.3013 10.1991L12.8818 10.6186C12.8 10.7004 12.6926 10.7415 12.5852 10.7415Z" fill="#436B1C"/>
</g>
<defs>
<clipPath id="clip0_23_276">
<rect width="24" height="24" fill="white"/>
</clipPath>
</defs>
</svg>
