<svg width="24" height="24" viewBox="0 0 24 24" fill="none" xmlns="http://www.w3.org/2000/svg">
<path d="M17.8667 1.43123C14.4793 1.43123 11.7335 4.17708 11.7335 7.56449C11.7335 8.57432 11.982 9.52427 12.4142 10.3644C13.0877 10.11 13.8143 9.96458 14.577 9.96458C16.9546 9.96458 19.0121 11.3202 20.0295 13.298C22.3482 12.4228 24 10.1892 24 7.56449C24 4.17708 21.2537 1.43123 17.8667 1.43123Z" fill="#436B1C"/>
<path d="M18.1472 5.21303C17.4012 5.21303 16.7966 4.78983 16.7966 4.26758C16.7966 3.74533 17.4012 3.32213 18.1472 3.32213C18.8932 3.32213 19.4979 3.74533 19.4979 4.26758" fill="#D13834"/>
<path d="M18.1472 5.66324C17.1374 5.66324 16.3464 5.0505 16.3464 4.26758C16.3464 3.48466 17.1374 2.87192 18.1472 2.87192C19.1571 2.87192 19.9481 3.48511 19.9481 4.26758C19.9481 4.5161 19.7468 4.71779 19.4979 4.71779C19.2489 4.71779 19.0477 4.5161 19.0477 4.26758C19.0477 4.03347 18.6627 3.77235 18.1472 3.77235C17.6317 3.77235 17.2468 4.03392 17.2468 4.26758C17.2468 4.50124 17.6317 4.76282 18.1472 4.76282C18.3962 4.76282 18.5974 4.96451 18.5974 5.21303C18.5974 5.46155 18.3957 5.66324 18.1472 5.66324Z" fill="#659C35"/>
<path d="M8.44331 16.0978C8.44331 13.5532 9.9934 11.3711 12.2003 10.4427C11.783 7.4614 9.22983 5.16486 6.13371 5.16486C2.74585 5.16441 0 7.91026 0 11.2977C0 14.6851 2.74585 17.4309 6.13326 17.4309C6.97606 17.4309 7.7788 17.2603 8.50994 16.9528C8.47032 16.6728 8.44331 16.3887 8.44331 16.0978Z" fill="#659C35"/>
<path d="M6.44168 9.44504C5.69567 9.44504 5.09103 9.02184 5.09103 8.49959C5.09103 7.97734 5.69567 7.55414 6.44168 7.55414C7.18768 7.55414 7.79232 7.97734 7.79232 8.49959" fill="#ED3F32"/>
<path d="M6.44166 9.89525C5.43183 9.89525 4.64081 9.28206 4.64081 8.49959C4.64081 7.71712 5.43183 7.10393 6.44166 7.10393C7.45149 7.10393 8.24252 7.71712 8.24252 8.49959C8.24252 8.74811 8.04127 8.9498 7.79231 8.9498C7.54334 8.9498 7.34209 8.74811 7.34209 8.49959C7.34209 8.26548 6.95716 8.00435 6.44166 8.00435C5.92617 8.00435 5.54124 8.26593 5.54124 8.49959C5.54124 8.73325 5.92617 8.99483 6.44166 8.99483C6.69063 8.99483 6.89188 9.19652 6.89188 9.44504C6.89188 9.69356 6.69018 9.89525 6.44166 9.89525Z" fill="#436B1C"/>
<path d="M14.6666 22.5688C18.2404 22.5688 21.1375 19.6716 21.1375 16.0978C21.1375 12.5241 18.2404 9.62692 14.6666 9.62692C11.0928 9.62692 8.19568 12.5241 8.19568 16.0978C8.19568 19.6716 11.0928 22.5688 14.6666 22.5688Z" fill="#88C057"/>
<path d="M10.63 18.1062C10.4445 18.1062 10.2707 17.9905 10.2059 17.8059C10.0245 17.2927 9.93262 16.7556 9.93262 16.2086C9.93262 15.9601 10.1339 15.7584 10.3828 15.7584C10.6318 15.7584 10.833 15.9601 10.833 16.2086C10.833 16.653 10.9078 17.0897 11.0546 17.5061C11.1378 17.7407 11.0145 17.9977 10.7804 18.0806C10.7304 18.0981 10.68 18.1062 10.63 18.1062Z" fill="#A4E869"/>
<path d="M14.7143 20.9912C13.3313 20.9912 12.0162 20.392 11.1059 19.3466C10.9424 19.1589 10.9623 18.8748 11.1495 18.7113C11.3364 18.5484 11.6218 18.5668 11.7848 18.755C12.5241 19.6037 13.592 20.0904 14.7143 20.0904C14.9633 20.0904 15.1655 20.292 15.1655 20.5406C15.1655 20.7891 14.9642 20.9908 14.7152 20.9908C14.7152 20.9912 14.7148 20.9912 14.7143 20.9912Z" fill="#A4E869"/>
<path d="M14.9957 13.7671C14.2497 13.7671 13.6451 13.3439 13.6451 12.8216C13.6451 12.2994 14.2497 11.8762 14.9957 11.8762C15.7417 11.8762 16.3464 12.2994 16.3464 12.8216" fill="#ED3F32"/>
<path d="M14.9957 14.2173C13.9859 14.2173 13.1949 13.6046 13.1949 12.8216C13.1949 12.0387 13.9859 11.426 14.9957 11.426C16.0055 11.426 16.7966 12.0392 16.7966 12.8216C16.7966 13.0702 16.5953 13.2719 16.3464 13.2719C16.0974 13.2719 15.8961 13.0702 15.8961 12.8216C15.8961 12.5875 15.5112 12.3264 14.9957 12.3264C14.4802 12.3264 14.0953 12.588 14.0953 12.8216C14.0953 13.0553 14.4802 13.3169 14.9957 13.3169C15.2447 13.3169 15.4459 13.5186 15.4459 13.7671C15.4459 14.0156 15.2442 14.2173 14.9957 14.2173Z" fill="#659C35"/>
</svg>
