<svg viewBox="0 0 24 24" fill="none" xmlns="http://www.w3.org/2000/svg">
<path fill-rule="evenodd" clip-rule="evenodd" d="M9 7.5V11.24C7.78998 10.43 7 9.06 7 7.5C7 5.01001 9.01001 3 11.5 3C13.99 3 16 5.01001 16 7.5C16 9.06 15.21 10.43 14 11.24V7.5C14 6.12 12.88 5 11.5 5C10.12 5 9 6.12 9 7.5ZM14.3 13.61L18.84 15.87C19.37 16.09 19.75 16.63 19.75 17.25C19.75 17.31 19.74 17.38 19.73 17.45L18.98 22.72C18.87 23.45 18.29 24 17.54 24H10.75C10.34 24 9.96002 23.83 9.69 23.56L4.75 18.62L5.53998 17.82C5.73999 17.62 6.02002 17.49 6.33002 17.49C6.39001 17.49 6.4411 17.4989 6.49219 17.5078C6.51776 17.5122 6.54333 17.5167 6.57001 17.52L10 18.24V7.5C10 6.66998 10.67 6 11.5 6C12.33 6 13 6.66998 13 7.5V13.5H13.76C13.95 13.5 14.13 13.54 14.3 13.61Z" />
</svg>
