<svg viewBox="0 0 25 24" fill="none" xmlns="http://www.w3.org/2000/svg">
<path fill-rule="evenodd" clip-rule="evenodd" d="M20.5 6H18.32C18.43 5.69 18.5 5.35 18.5 5C18.5 3.34 17.16 2 15.5 2C14.45 2 13.54 2.54 13 3.35L12.5 4.02L12 3.34C11.46 2.54 10.55 2 9.5 2C7.84 2 6.5 3.34 6.5 5C6.5 5.35 6.57 5.69 6.68 6H4.5C3.39 6 2.51 6.89 2.51 8L2.5 19C2.5 20.11 3.39 21 4.5 21H20.5C21.61 21 22.5 20.11 22.5 19V8C22.5 6.89 21.61 6 20.5 6ZM15.5 4C16.05 4 16.5 4.45 16.5 5C16.5 5.55 16.05 6 15.5 6C14.95 6 14.5 5.55 14.5 5C14.5 4.45 14.95 4 15.5 4ZM10.5 5C10.5 4.45 10.05 4 9.5 4C8.95 4 8.5 4.45 8.5 5C8.5 5.55 8.95 6 9.5 6C10.05 6 10.5 5.55 10.5 5ZM4.5 19V17H20.5V19H4.5ZM4.5 8V14H20.5V8H15.42L17.5 10.83L15.88 12L12.5 7.4L9.12 12L7.5 10.83L9.58 8H4.5Z" />
</svg>
