<svg viewBox="0 0 32 33" fill="none" xmlns="http://www.w3.org/2000/svg">
<path d="M29.1441 13.0404C25.3233 9.5468 20.778 7.7 16 7.7C11.222 7.7 6.67665 9.5468 2.8558 13.0404C2.61392 13.2618 2.45394 13.5911 2.41121 13.9562C2.36877 14.3213 2.44682 14.6922 2.62846 14.9871L8.6447 24.7452C8.8687 25.1085 9.21062 25.2998 9.5567 25.2998C9.79446 25.2998 10.0345 25.2094 10.2396 25.022C11.9141 23.491 13.9058 22.6816 16 22.6816C18.0938 22.6816 20.0859 23.491 21.7604 25.022C22.2634 25.4822 22.9772 25.3582 23.355 24.7452L29.3712 14.9871C29.5532 14.6922 29.6312 14.3213 29.5885 13.9562C29.5461 13.5914 29.3861 13.2618 29.1441 13.0404ZM22.1851 22.018C20.6477 20.871 18.9346 20.1762 17.1397 19.9693V15.7343C17.1397 14.9668 16.6295 14.3448 16 14.3448C15.3705 14.3448 14.8603 14.9668 14.8603 15.7343V19.9693C13.0653 20.1762 11.3523 20.871 9.81494 22.018L5.15562 14.4606C8.3755 11.8514 12.1013 10.479 16 10.479C19.8986 10.479 23.6245 11.8514 26.8444 14.4606L22.1851 22.018Z" />
</svg>
