<svg width="479" height="363" viewBox="0 0 479 363" fill="none" xmlns="http://www.w3.org/2000/svg">
<path d="M262.638 18.4426C262.638 18.4426 271.337 5.16517 275.916 4.93719C280.493 4.70791 297.205 15.4672 303.156 29.6605C309.108 43.8538 305.903 53.6959 297.89 58.0457C289.878 62.3956 285.758 64.4552 281.637 62.6236C277.517 60.7919 274.999 58.0457 274.999 58.0457C274.999 58.0457 278.203 65.8296 282.095 66.9734C285.986 68.1185 288.047 71.0939 282.781 71.0939C277.515 71.0939 270.419 63.5394 271.335 55.9861C272.252 48.4316 262.638 18.4426 262.638 18.4426Z" fill="#263238" stroke="#263238" stroke-miterlimit="10"/>
<path d="M159.197 287.403C159.197 287.403 116.38 334.441 113.969 337.155C111.556 339.868 107.938 342.582 107.938 342.582C107.938 342.582 76.8812 333.838 70.8508 333.235C64.8205 332.632 49.1408 346.502 45.5231 351.326C41.9054 356.15 41 359.769 41 359.769C44.0158 360.673 78.3898 360.673 85.9274 360.673C93.465 360.673 119.095 357.055 121.205 356.15C123.316 355.246 171.56 329.314 171.56 329.314L170.354 288.607C170.354 288.61 164.022 286.197 159.197 287.403Z" fill="#FFBF9D" stroke="#263238" stroke-miterlimit="10"/>
<path d="M77.1823 338.964C77.1823 338.964 63.312 349.217 60.5984 352.231C57.8849 355.247 54.2659 360.071 54.2659 360.071" stroke="#263238" stroke-miterlimit="10"/>
<path d="M67.5339 336.552C67.5339 336.552 52.4573 347.105 50.6478 351.025C48.8383 354.945 46.427 360.372 46.427 360.372" stroke="#263238" stroke-miterlimit="10"/>
<path d="M85.6251 344.694C85.6251 344.694 84.721 347.407 83.5146 349.217C82.3083 351.026 72.0571 353.74 66.9308 356.755C61.8046 359.769 66.9308 362.484 74.7707 361.881C82.6105 361.278 93.4649 361.881 98.2903 359.468C103.114 357.055 108.844 350.724 108.844 350.724" fill="#FFBF9D"/>
<path d="M85.6251 344.694C85.6251 344.694 84.721 347.407 83.5146 349.217C82.3083 351.026 72.0571 353.74 66.9308 356.755C61.8046 359.769 66.9308 362.484 74.7707 361.881C82.6105 361.278 93.4649 361.881 98.2903 359.468C103.114 357.055 108.844 350.724 108.844 350.724" stroke="#263238" stroke-miterlimit="10"/>
<path d="M165.227 266.9C165.227 266.9 157.991 265.09 157.387 267.804C156.784 270.518 152.563 286.498 154.372 288.609C156.181 290.719 167.036 294.639 168.543 294.338C170.053 294.037 165.227 266.9 165.227 266.9Z" fill="#E84C4F" stroke="#263238" stroke-miterlimit="10"/>
<path d="M206.489 137.523C206.489 137.523 193.409 146.815 181.019 154.388C168.629 161.961 163.81 162.993 163.81 167.811C163.81 172.63 162.777 249.729 162.777 249.729C162.777 249.729 161.4 263.496 165.186 276.232C168.971 288.967 170.004 359.526 170.004 359.526H310.434L305.615 312.716C305.615 312.716 322.136 169.188 318.695 163.338C315.253 157.487 274.639 136.147 274.639 136.147L206.489 137.523Z" fill="#E84C4F" stroke="#263238" stroke-miterlimit="10"/>
<path d="M170.004 359.526H310.434L305.615 312.716C305.615 312.716 306.849 301.993 308.571 286.304L262.247 286.902C262.247 286.902 252.955 234.929 255.364 216.687C257.772 198.445 271.885 136.491 271.885 136.491L263.968 137.524L240.563 213.245L184.116 208.083L206.144 140.622L203.735 140.278C203.735 140.278 178.953 192.938 171.725 215.999C167.749 228.685 164.713 240.843 162.783 249.222C162.78 249.554 162.777 249.731 162.777 249.731C162.777 249.731 161.4 263.498 165.186 276.234C168.971 288.966 170.004 359.526 170.004 359.526Z" fill="#263238" stroke="#263238" stroke-miterlimit="10"/>
<path d="M188.949 359.526C189.914 330.148 192.655 242.848 191.278 238.714C190.352 235.939 195.319 221.652 200.083 209.542L198.733 209.418C194.816 219.384 188.86 235.582 190.042 239.126C191.197 242.592 189.132 314.714 187.647 359.526H188.949Z" fill="#828282"/>
<path d="M202.543 240.525C202.543 235.978 207.579 219.317 210.354 210.481L209.022 210.36C206.207 219.32 201.24 235.802 201.24 240.525C201.24 245.274 198.559 321.262 197.199 359.524H198.503C199.864 321.242 202.543 245.29 202.543 240.525Z" fill="#828282"/>
<path d="M213.236 243.814C213.64 240.585 216.839 220.568 218.341 211.212L217.041 211.093C215.531 220.492 212.347 240.415 211.944 243.652C211.465 247.476 206.441 337.808 205.237 359.525H206.541C207.738 337.955 212.769 247.539 213.236 243.814Z" fill="#828282"/>
<path d="M229.261 212.211L227.962 212.092L217.666 359.526H218.973L229.261 212.211Z" fill="#828282"/>
<path d="M202.919 142.02C201.176 145.757 196.836 155.119 191.849 166.318C184.074 185.685 173.643 212.301 167.406 230.805C165.493 237.831 163.939 244.205 162.785 249.219C162.781 249.551 162.778 249.728 162.778 249.728C162.778 249.728 162.355 253.974 162.625 259.926C162.903 255.377 163.172 251.873 163.423 249.807C165.461 233.083 202.738 143.009 203.115 142.101L202.919 142.02Z" fill="#828282"/>
<path d="M182.744 236.887C183.09 234.812 187.017 223.316 192.131 208.815L190.791 208.692C185.709 223.111 181.815 234.539 181.458 236.674C180.631 241.641 178.266 321.585 177.184 359.524H178.489C179.572 321.679 181.939 241.711 182.744 236.887Z" fill="#828282"/>
<path d="M169.509 337.638C170.415 301.839 172.211 245.146 174.71 234.793C176.02 229.363 180.943 215.558 186.761 199.977L195.315 173.779C186.074 197.806 175.473 226.076 173.442 234.488C171.345 243.18 169.763 282.819 168.767 316.573C169.082 323.87 169.326 331.173 169.509 337.638Z" fill="#828282"/>
<path d="M278.421 286.692L277.118 286.709L280.951 359.526H282.255L278.421 286.692Z" fill="#828282"/>
<path d="M234.101 284.374C233.717 263.625 237.253 230.06 239.233 213.122L237.935 213.003C235.951 229.985 232.414 263.591 232.8 284.396C233.225 307.358 234.34 345.273 234.768 359.524H236.072C235.641 345.308 234.526 307.35 234.101 284.374Z" fill="#828282"/>
<path d="M289.407 286.551L288.097 286.567L295.309 359.526H296.619L289.407 286.551Z" fill="#828282"/>
<path d="M266.511 286.846L265.207 286.863L268.366 359.526H269.671L266.511 286.846Z" fill="#828282"/>
<path d="M254.427 236.231C254.364 233.381 254.569 229.64 254.971 225.271C254.937 221.97 255.051 219.045 255.363 216.686C255.886 212.731 256.959 206.719 258.318 199.73C261.765 177.614 266.708 152.095 269.782 136.765L268.418 136.943C263.179 163.106 252.723 217.855 253.123 236.261C253.59 257.811 257.388 340.248 258.283 359.527H259.586C258.698 340.36 254.894 257.789 254.427 236.231Z" fill="#828282"/>
<path d="M246.389 221.406C249.181 208.285 253.619 181.701 257.205 159.4L254.433 168.369C251.172 188.375 247.526 209.796 245.113 221.134C240.573 242.475 243.756 333.098 244.801 359.526H246.105C245.063 333.197 241.875 242.62 246.389 221.406Z" fill="#828282"/>
<path d="M234.809 157.695C234.809 157.695 241.512 181.156 243.341 180.242C245.168 179.327 277.466 138.5 277.771 135.757C278.075 133.015 267.411 119.913 267.411 119.913C267.411 119.913 262.841 118.086 260.404 118.086C257.966 118.086 210.74 126.617 209.522 128.14C208.304 129.663 204.952 137.89 202.514 141.851C200.077 145.812 182.71 163.485 184.843 163.788C186.975 164.093 209.826 156.171 209.826 156.171L217.67 179.799C217.67 179.799 228.717 169.881 230.545 167.444C232.372 165.008 234.809 157.695 234.809 157.695Z" fill="#E84C4F" stroke="#263238" stroke-miterlimit="10"/>
<path d="M208.87 123.145C208.87 123.145 211.334 133.702 213.093 147.074C214.853 160.447 217.668 179.802 217.668 179.802C217.668 179.802 238.429 149.186 239.838 148.131C241.246 147.076 262.359 122.442 262.359 122.442L263.768 86.8999C263.768 86.8999 253.562 104.846 243.709 112.94C233.855 121.033 208.87 123.145 208.87 123.145Z" fill="#FFBF9D" stroke="#263238" stroke-miterlimit="10"/>
<path d="M238.842 312.716L225.763 308.585L225.075 316.157L238.842 312.716Z" fill="#E84C4F" stroke="#263238" stroke-miterlimit="10"/>
<path d="M228.531 300.425L227.372 315.393L224.988 346.398L223.959 359.647H187.365L186.336 346.398L183.952 315.393L182.792 300.425H228.531Z" fill="#EDA345" stroke="#263238" stroke-miterlimit="10"/>
<path d="M231.743 293.374H178.724V303.208H231.743V293.374Z" fill="white" stroke="#263238" stroke-miterlimit="10"/>
<path d="M226.826 289.098H184.496V293.16H226.826V289.098Z" fill="white" stroke="#263238" stroke-miterlimit="10"/>
<path d="M227.372 315.393H183.951L186.335 346.398H224.988" fill="white"/>
<path d="M227.372 315.393H183.951L186.335 346.398H224.988" stroke="#263238" stroke-miterlimit="10"/>
<path d="M273.949 220.128L300.108 278.296H345.197C345.197 278.296 325.923 190.183 325.234 184.333C324.546 178.482 326.267 164.37 321.792 161.961C317.317 159.552 305.615 155.765 305.615 155.765" fill="#E84C4F"/>
<path d="M273.949 220.128L300.108 278.296H345.197C345.197 278.296 325.923 190.183 325.234 184.333C324.546 178.482 326.267 164.37 321.792 161.961C317.317 159.552 305.615 155.765 305.615 155.765" stroke="#263238" stroke-miterlimit="10"/>
<path d="M283.244 240.78C283.244 240.78 271.197 232.863 267.755 226.323Z" fill="#E84C4F"/>
<path d="M283.244 240.78C283.244 240.78 271.197 232.863 267.755 226.323" stroke="#263238" stroke-miterlimit="10"/>
<path d="M302.174 288.966C302.174 288.966 266.378 317.877 262.591 319.254C258.806 320.631 254.675 322.008 254.675 322.008C254.675 322.008 241.939 315.813 238.842 312.715C235.745 309.617 205.456 320.975 205.456 320.975L194.787 330.613C194.787 330.613 196.164 334.055 198.918 334.055C201.672 334.055 210.62 326.827 210.62 326.827L223.699 326.139L205.801 338.186L200.982 348.167C200.982 348.167 204.768 351.953 207.866 347.134C210.964 342.315 212.685 340.938 212.685 340.938L229.521 336.6C229.521 336.6 221.194 345.058 219.473 346.091C217.752 347.124 209.07 351.6 210.681 353.488C212 355.031 213.373 354.707 215.438 354.018C217.502 353.33 225.075 351.264 225.075 351.264C225.075 351.264 233.68 351.952 236.09 351.952C238.499 351.952 247.104 346.445 247.104 346.445L261.217 338.184C261.217 338.184 312.502 320.975 321.794 315.467C331.086 309.959 345.887 299.635 345.199 295.848C344.509 292.064 302.174 288.966 302.174 288.966Z" fill="#FFBF9D" stroke="#263238" stroke-miterlimit="10"/>
<path d="M225.075 351.265C225.075 351.265 235.744 347.48 239.531 343.349" stroke="#263238" stroke-miterlimit="10"/>
<path d="M295.29 277.263L298.044 282.77L299.765 289.998C299.765 289.998 310.09 292.062 319.384 293.783C328.676 295.504 348.985 300.323 348.985 300.323C348.985 300.323 352.426 297.225 351.739 292.062C351.051 286.9 351.739 274.164 349.674 270.722C347.606 267.283 304.927 268.659 295.29 277.263Z" fill="#EDA345" stroke="#263238" stroke-miterlimit="10"/>
<path d="M300.282 282.856C300.282 282.856 309.9 276.845 328.835 276.544" stroke="#263238" stroke-miterlimit="10"/>
<path d="M339.123 282.551C340.701 282.905 342.212 283.307 343.563 283.757" stroke="#263238" stroke-miterlimit="10"/>
<path d="M321.622 280.15C321.622 280.15 327.942 280.562 334.544 281.665" stroke="#263238" stroke-miterlimit="10"/>
<path d="M186.439 61.3338C186.439 61.3338 188.462 89.2527 190.08 97.3453C191.698 105.438 209.097 128.501 212.738 130.119C216.379 131.737 220.426 131.334 224.068 130.119C227.709 128.905 251.987 113.53 254.414 107.865C256.842 102.201 260.484 93.299 260.484 93.299C260.484 93.299 271.003 90.8707 272.217 84.8013C273.431 78.7318 272.622 71.0444 272.622 71.0444L273.837 56.4785C273.837 56.4785 267.767 32.2008 251.987 27.7506C236.207 23.2992 213.549 30.9879 204.242 39.0805C194.935 47.1731 186.439 61.3338 186.439 61.3338Z" fill="#FFBF9D" stroke="#263238" stroke-miterlimit="10"/>
<path d="M201.747 60.7917C201.747 60.7917 205.638 66.2854 206.554 70.1766" stroke="#263238" stroke-miterlimit="10"/>
<path d="M203.12 91.4661C203.12 91.4661 206.782 95.3573 212.734 94.9001" stroke="#263238" stroke-miterlimit="10"/>
<path d="M208.614 106.117C208.614 106.117 221.433 109.78 229.674 99.9365" stroke="#263238" stroke-miterlimit="10"/>
<path d="M218.229 59.8758C218.229 59.8758 228.759 55.0687 235.855 60.1051" stroke="#263238" stroke-miterlimit="10"/>
<path d="M199.915 59.648C199.915 59.648 193.735 56.9005 189.843 61.4796" stroke="#263238" stroke-miterlimit="10"/>
<path d="M227.614 75.673C228.626 75.673 229.446 74.0329 229.446 72.0097C229.446 69.9866 228.626 68.3464 227.614 68.3464C226.603 68.3464 225.782 69.9866 225.782 72.0097C225.782 74.0329 226.603 75.673 227.614 75.673Z" fill="#263238"/>
<path d="M198.313 70.6354C198.313 72.6585 197.494 74.2974 196.482 74.2974C195.469 74.2974 194.65 72.6572 194.65 70.6354C194.65 68.6122 195.469 66.9734 196.482 66.9734C197.494 66.9734 198.313 68.6122 198.313 70.6354Z" fill="#263238"/>
<path d="M237.016 37.0572L186.439 61.335C186.439 61.335 170.253 49.6012 170.253 38.2714C170.253 26.9415 196.958 3.06889 221.64 1.45089C246.321 -0.167102 253.2 5.09203 260.078 10.3525C266.957 15.6129 288.806 33.8199 285.974 47.1729C283.142 60.5247 272.621 71.0455 272.621 71.0455C272.621 71.0455 272.216 63.3581 267.766 65.3812C263.314 67.4044 264.124 73.4738 260.887 73.0687C257.65 72.6635 255.627 66.5941 255.627 66.5941C255.627 66.5941 235.397 48.7909 237.016 37.0572Z" fill="#263238" stroke="#263238" stroke-miterlimit="10"/>
<path d="M437 241.309H267.191V359.618H437V241.309Z" fill="#6E6E6E" stroke="#263238" stroke-miterlimit="10" stroke-linecap="round" stroke-linejoin="round"/>
<path d="M428.399 257.175H275.793V359.619H428.399V257.175Z" fill="#ABABAB" stroke="#263238" stroke-miterlimit="10" stroke-linecap="round" stroke-linejoin="round"/>
<path d="M376.91 308.397H327.281V359.619H376.91V308.397Z" fill="#6E6E6E" stroke="#263238" stroke-miterlimit="10" stroke-linecap="round" stroke-linejoin="round"/>
<path d="M275.793 257.175L267.191 241.309H437L428.398 257.175H275.793Z" fill="#D1D1D1" stroke="#263238" stroke-miterlimit="10" stroke-linecap="round" stroke-linejoin="round"/>
<path d="M0 360.777H478.669" stroke="#263238" stroke-miterlimit="10"/>
</svg>
