<svg width="388" height="400" viewBox="0 0 388 400" fill="none" xmlns="http://www.w3.org/2000/svg">
<g opacity="0.1">
<path d="M368.312 215.468H336.852C335.942 215.468 335.204 214.73 335.204 213.82V203.048C335.204 202.138 335.942 201.4 336.852 201.4H368.312C369.222 201.4 369.96 202.138 369.96 203.048V213.82C369.96 214.73 369.222 215.468 368.312 215.468Z" fill="black"/>
<path d="M368.312 249.974H336.852C335.942 249.974 335.204 249.236 335.204 248.326V237.554C335.204 236.644 335.942 235.906 336.852 235.906H368.312C369.222 235.906 369.96 236.644 369.96 237.554V248.326C369.96 249.236 369.222 249.974 368.312 249.974Z" fill="black"/>
<path d="M386.322 232.472H354.862C353.952 232.472 353.214 231.734 353.214 230.824V220.052C353.214 219.142 353.952 218.404 354.862 218.404H386.322C387.232 218.404 387.97 219.142 387.97 220.052V230.824C387.97 231.734 387.232 232.472 386.322 232.472Z" fill="black"/>
<path d="M349.294 232.472H317.834C316.924 232.472 316.186 231.734 316.186 230.824V220.052C316.186 219.142 316.924 218.404 317.834 218.404H349.294C350.204 218.404 350.942 219.142 350.942 220.052V230.824C350.942 231.734 350.204 232.472 349.294 232.472Z" fill="black"/>
<path d="M130.985 121.817H99.5249C98.6149 121.817 97.877 121.079 97.877 120.169V109.397C97.877 108.487 98.6149 107.749 99.5249 107.749H130.985C131.895 107.749 132.633 108.487 132.633 109.397V120.169C132.633 121.079 131.895 121.817 130.985 121.817Z" fill="black"/>
<path d="M130.985 156.321H99.5249C98.6149 156.321 97.877 155.583 97.877 154.673V143.901C97.877 142.991 98.6149 142.253 99.5249 142.253H130.985C131.895 142.253 132.633 142.991 132.633 143.901V154.673C132.633 155.583 131.895 156.321 130.985 156.321Z" fill="black"/>
<path d="M148.995 138.82H117.535C116.625 138.82 115.887 138.082 115.887 137.172V126.4C115.887 125.49 116.625 124.752 117.535 124.752H148.995C149.905 124.752 150.643 125.49 150.643 126.4V137.172C150.643 138.082 149.905 138.82 148.995 138.82Z" fill="black"/>
<path d="M111.967 138.82H80.5069C79.5969 138.82 78.8589 138.082 78.8589 137.172V126.4C78.8589 125.49 79.5969 124.752 80.5069 124.752H111.967C112.877 124.752 113.615 125.49 113.615 126.4V137.172C113.615 138.082 112.877 138.82 111.967 138.82Z" fill="black"/>
<path d="M52.1261 121.817H20.6661C19.7561 121.817 19.0181 121.079 19.0181 120.169V109.397C19.0181 108.487 19.7561 107.749 20.6661 107.749H52.1261C53.0361 107.749 53.7741 108.487 53.7741 109.397V120.169C53.7741 121.079 53.0361 121.817 52.1261 121.817Z" fill="black"/>
<path d="M52.1261 156.321H20.6661C19.7561 156.321 19.0181 155.583 19.0181 154.673V143.901C19.0181 142.991 19.7561 142.253 20.6661 142.253H52.1261C53.0361 142.253 53.7741 142.991 53.7741 143.901V154.673C53.7741 155.583 53.0361 156.321 52.1261 156.321Z" fill="black"/>
<path d="M70.1361 138.82H38.6761C37.7661 138.82 37.0281 138.082 37.0281 137.172V126.4C37.0281 125.49 37.7661 124.752 38.6761 124.752H70.1361C71.0461 124.752 71.7841 125.49 71.7841 126.4V137.172C71.7851 138.082 71.0471 138.82 70.1361 138.82Z" fill="black"/>
<path d="M33.108 138.82H1.648C0.737999 138.82 0 138.082 0 137.172V126.4C0 125.49 0.737999 124.752 1.648 124.752H33.108C34.018 124.752 34.756 125.49 34.756 126.4V137.172C34.756 138.082 34.018 138.82 33.108 138.82Z" fill="black"/>
<path d="M228.619 167.904H197.159C196.249 167.904 195.511 167.166 195.511 166.256V155.484C195.511 154.574 196.249 153.836 197.159 153.836H228.619C229.529 153.836 230.267 154.574 230.267 155.484V166.256C230.268 167.166 229.53 167.904 228.619 167.904Z" fill="black"/>
<path d="M228.619 202.41H197.159C196.249 202.41 195.511 201.672 195.511 200.762V189.99C195.511 189.08 196.249 188.342 197.159 188.342H228.619C229.529 188.342 230.267 189.08 230.267 189.99V200.762C230.268 201.672 229.53 202.41 228.619 202.41Z" fill="black"/>
<path d="M246.63 184.909H215.17C214.26 184.909 213.522 184.171 213.522 183.261V172.489C213.522 171.579 214.26 170.841 215.17 170.841H246.63C247.54 170.841 248.278 171.579 248.278 172.489V183.261C248.278 184.171 247.54 184.909 246.63 184.909Z" fill="black"/>
<path d="M209.601 184.909H178.141C177.231 184.909 176.493 184.171 176.493 183.261V172.489C176.493 171.579 177.231 170.841 178.141 170.841H209.601C210.511 170.841 211.249 171.579 211.249 172.489V183.261C211.249 184.171 210.512 184.909 209.601 184.909Z" fill="black"/>
<path d="M303.723 167.904H272.263C271.353 167.904 270.615 167.166 270.615 166.256V155.484C270.615 154.574 271.353 153.836 272.263 153.836H303.723C304.633 153.836 305.371 154.574 305.371 155.484V166.256C305.371 167.166 304.633 167.904 303.723 167.904Z" fill="black"/>
<path d="M266.908 167.904H235.448C234.538 167.904 233.8 167.166 233.8 166.256V155.484C233.8 154.574 234.538 153.836 235.448 153.836H266.908C267.818 153.836 268.556 154.574 268.556 155.484V166.256C268.556 167.166 267.818 167.904 266.908 167.904Z" fill="black"/>
<path d="M303.723 202.41H272.263C271.353 202.41 270.615 201.672 270.615 200.762V189.99C270.615 189.08 271.353 188.342 272.263 188.342H303.723C304.633 188.342 305.371 189.08 305.371 189.99V200.762C305.371 201.672 304.633 202.41 303.723 202.41Z" fill="black"/>
<path d="M321.733 184.909H290.273C289.363 184.909 288.625 184.171 288.625 183.261V172.489C288.625 171.579 289.363 170.841 290.273 170.841H321.733C322.643 170.841 323.381 171.579 323.381 172.489V183.261C323.382 184.171 322.643 184.909 321.733 184.909Z" fill="black"/>
<path d="M284.705 184.909H253.245C252.335 184.909 251.597 184.171 251.597 183.261V172.489C251.597 171.579 252.335 170.841 253.245 170.841H284.705C285.615 170.841 286.353 171.579 286.353 172.489V183.261C286.353 184.171 285.615 184.909 284.705 184.909Z" fill="black"/>
<path d="M329.258 285.817H297.798C296.888 285.817 296.15 285.079 296.15 284.169V273.397C296.15 272.487 296.888 271.749 297.798 271.749H329.258C330.168 271.749 330.906 272.487 330.906 273.397V284.169C330.906 285.079 330.168 285.817 329.258 285.817Z" fill="black"/>
<path d="M329.258 320.323H297.798C296.888 320.323 296.15 319.585 296.15 318.675V307.903C296.15 306.993 296.888 306.255 297.798 306.255H329.258C330.168 306.255 330.906 306.993 330.906 307.903V318.675C330.906 319.585 330.168 320.323 329.258 320.323Z" fill="black"/>
<path d="M347.268 302.82H315.808C314.898 302.82 314.16 302.082 314.16 301.172V290.4C314.16 289.49 314.898 288.752 315.808 288.752H347.268C348.178 288.752 348.916 289.49 348.916 290.4V301.172C348.917 302.082 348.179 302.82 347.268 302.82Z" fill="black"/>
<path d="M310.24 302.82H278.78C277.87 302.82 277.132 302.082 277.132 301.172V290.4C277.132 289.49 277.87 288.752 278.78 288.752H310.24C311.15 288.752 311.888 289.49 311.888 290.4V301.172C311.888 302.082 311.15 302.82 310.24 302.82Z" fill="black"/>
<path d="M270.947 360.169H239.487C238.577 360.169 237.839 359.431 237.839 358.521V347.749C237.839 346.839 238.577 346.101 239.487 346.101H270.947C271.857 346.101 272.595 346.839 272.595 347.749V358.521C272.595 359.432 271.857 360.169 270.947 360.169Z" fill="black"/>
<path d="M270.947 394.674H239.487C238.577 394.674 237.839 393.936 237.839 393.026V382.254C237.839 381.344 238.577 380.606 239.487 380.606H270.947C271.857 380.606 272.595 381.344 272.595 382.254V393.026C272.595 393.936 271.857 394.674 270.947 394.674Z" fill="black"/>
<path d="M288.957 377.173H257.497C256.587 377.173 255.849 376.435 255.849 375.525V364.753C255.849 363.843 256.587 363.105 257.497 363.105H288.957C289.867 363.105 290.605 363.843 290.605 364.753V375.525C290.605 376.435 289.867 377.173 288.957 377.173Z" fill="black"/>
<path d="M251.929 377.173H220.469C219.559 377.173 218.821 376.435 218.821 375.525V364.753C218.821 363.843 219.559 363.105 220.469 363.105H251.929C252.839 363.105 253.577 363.843 253.577 364.753V375.525C253.577 376.435 252.839 377.173 251.929 377.173Z" fill="black"/>
<path d="M163.007 47.7387H131.547C130.637 47.7387 129.899 47.0007 129.899 46.0907V35.3187C129.899 34.4087 130.637 33.6707 131.547 33.6707H163.007C163.917 33.6707 164.655 34.4087 164.655 35.3187V46.0907C164.656 47.0007 163.918 47.7387 163.007 47.7387Z" fill="black"/>
<path d="M163.007 82.2448H131.547C130.637 82.2448 129.899 81.5068 129.899 80.5968V69.8248C129.899 68.9148 130.637 68.1768 131.547 68.1768H163.007C163.917 68.1768 164.655 68.9148 164.655 69.8248V80.5968C164.656 81.5068 163.918 82.2448 163.007 82.2448Z" fill="black"/>
<path d="M181.018 64.7426H149.558C148.648 64.7426 147.91 64.0046 147.91 63.0946V52.3226C147.91 51.4126 148.648 50.6746 149.558 50.6746H181.018C181.928 50.6746 182.666 51.4126 182.666 52.3226V63.0946C182.666 64.0046 181.928 64.7426 181.018 64.7426Z" fill="black"/>
<path d="M143.989 64.7426H112.529C111.619 64.7426 110.881 64.0046 110.881 63.0946V52.3226C110.881 51.4126 111.619 50.6746 112.529 50.6746H143.989C144.899 50.6746 145.637 51.4126 145.637 52.3226V63.0946C145.638 64.0046 144.9 64.7426 143.989 64.7426Z" fill="black"/>
</g>
<path d="M291.924 398.554L270.668 262.161C270.668 262.161 310.204 291.744 313.521 290.914C316.839 290.085 325.133 274.326 325.133 274.326C325.133 274.326 328.174 264.097 325.409 252.208C322.644 240.32 314.35 204.655 314.35 204.655L292.785 202.443L291.679 211.843C291.679 211.843 268.732 167.331 267.349 164.843C265.967 162.355 250.208 165.396 244.402 165.396C238.596 165.396 222.284 160.419 222.284 160.419L162.566 159.59C162.566 159.59 125.795 165.119 123.86 168.714C121.925 172.308 118.883 186.961 118.607 188.067C118.331 189.173 86.26 227.603 78.242 239.491C70.224 251.379 70.501 282.344 77.413 285.385C84.325 288.426 100.913 283.45 105.337 278.473C109.76 273.496 120.267 262.161 124.137 255.249C128.008 248.337 129.114 241.978 131.325 239.214C133.537 236.449 139.619 228.432 139.619 228.432C139.619 228.432 147.034 271.367 145.256 314.34C144.074 342.909 138.679 394.962 139.215 399.383" fill="#E84C4F"/>
<path d="M291.924 398.554L270.668 262.161C270.668 262.161 310.204 291.744 313.521 290.914C316.839 290.085 325.133 274.326 325.133 274.326C325.133 274.326 328.174 264.097 325.409 252.208C322.644 240.32 314.35 204.655 314.35 204.655L292.785 202.443L291.679 211.843C291.679 211.843 268.732 167.331 267.349 164.843C265.967 162.355 250.208 165.396 244.402 165.396C238.596 165.396 222.284 160.419 222.284 160.419L162.566 159.59C162.566 159.59 125.795 165.119 123.86 168.714C121.925 172.308 118.883 186.961 118.607 188.067C118.331 189.173 86.26 227.603 78.242 239.491C70.224 251.379 70.501 282.344 77.413 285.385C84.325 288.426 100.913 283.45 105.337 278.473C109.76 273.496 120.267 262.161 124.137 255.249C128.008 248.337 129.114 241.978 131.325 239.214C133.537 236.449 139.619 228.432 139.619 228.432C139.619 228.432 147.034 271.367 145.256 314.34C144.074 342.909 138.679 394.962 139.215 399.383" stroke="#263238" stroke-miterlimit="10" stroke-linecap="round" stroke-linejoin="round"/>
<path d="M193.809 184.472C193.809 184.472 181.644 185.854 181.091 188.066C180.538 190.278 196.388 385.645 196.388 385.645" stroke="#263238" stroke-miterlimit="10" stroke-linecap="round" stroke-linejoin="round"/>
<path d="M192.019 197.231C193.276 197.231 194.295 196.212 194.295 194.955C194.295 193.698 193.276 192.679 192.019 192.679C190.762 192.679 189.743 193.698 189.743 194.955C189.743 196.212 190.762 197.231 192.019 197.231Z" fill="#263238"/>
<path d="M228.823 190.402C228.823 191.659 227.804 192.679 226.546 192.679C225.289 192.679 224.27 191.66 224.27 190.402C224.27 189.145 225.289 188.126 226.546 188.126C227.803 188.126 228.823 189.145 228.823 190.402Z" fill="#263238"/>
<path d="M196.192 227.586C196.192 228.843 195.173 229.862 193.915 229.862C192.658 229.862 191.638 228.843 191.638 227.586C191.638 226.329 192.657 225.309 193.915 225.309C195.173 225.309 196.192 226.328 196.192 227.586Z" fill="#263238"/>
<path d="M198.089 260.216C198.089 261.473 197.07 262.492 195.812 262.492C194.555 262.492 193.536 261.473 193.536 260.216C193.536 258.959 194.555 257.939 195.812 257.939C197.07 257.939 198.089 258.959 198.089 260.216Z" fill="#263238"/>
<path d="M199.986 292.846C199.986 294.103 198.967 295.122 197.709 295.122C196.452 295.122 195.432 294.103 195.432 292.846C195.432 291.589 196.451 290.569 197.709 290.569C198.967 290.57 199.986 291.589 199.986 292.846Z" fill="#263238"/>
<path d="M234.514 288.293C234.514 289.55 233.495 290.569 232.237 290.569C230.979 290.569 229.961 289.55 229.961 288.293C229.961 287.036 230.98 286.016 232.237 286.016C233.494 286.016 234.514 287.036 234.514 288.293Z" fill="#263238"/>
<path d="M201.884 325.477C201.884 326.734 200.865 327.754 199.608 327.754C198.351 327.754 197.331 326.735 197.331 325.477C197.331 324.219 198.35 323.201 199.608 323.201C200.864 323.2 201.884 324.219 201.884 325.477Z" fill="#263238"/>
<path d="M236.411 320.924C236.411 322.181 235.392 323.201 234.134 323.201C232.877 323.201 231.857 322.182 231.857 320.924C231.857 319.667 232.876 318.647 234.134 318.647C235.392 318.647 236.411 319.666 236.411 320.924Z" fill="#263238"/>
<path d="M96.458 253.708C96.458 253.708 103.051 259.359 105.248 270.347" stroke="#263238" stroke-miterlimit="10" stroke-linecap="round" stroke-linejoin="round"/>
<path d="M97.3989 250.569C97.3989 250.569 108.387 253.394 112.782 259.359" stroke="#263238" stroke-miterlimit="10" stroke-linecap="round" stroke-linejoin="round"/>
<path d="M80.214 224.428C80.214 224.428 70.251 235.781 64.922 242.269C59.593 248.757 54.264 252.464 55.422 256.866C56.581 261.268 54.495 276.56 67.239 282.816C79.982 289.072 87.3969 287.913 89.4819 286.523C91.5669 285.133 101.762 263.585 101.762 263.585C101.762 263.585 99.677 248.061 96.896 243.659C94.116 239.256 80.214 224.428 80.214 224.428Z" fill="#E84C4F" stroke="#263238" stroke-miterlimit="10" stroke-linecap="round" stroke-linejoin="round"/>
<path d="M80.2139 224.428C80.2139 224.428 70.2509 235.781 64.9219 242.269C63.4079 244.112 61.8989 245.726 60.5339 247.2C61.9269 251.531 65.2269 258.336 73.0169 264.896C79.9539 270.738 88.8479 274.231 95.5509 276.209C98.6749 270.109 101.761 263.586 101.761 263.586C101.761 263.586 99.6759 248.062 96.8949 243.66C94.1159 239.256 80.2139 224.428 80.2139 224.428Z" fill="#263238" stroke="#263238" stroke-miterlimit="10" stroke-linecap="round" stroke-linejoin="round"/>
<path d="M80.214 224.428L73.543 237.832C73.543 237.832 79.481 253.639 89.578 258.844C89.578 258.844 94.81 261.964 101.761 263.585C101.761 263.585 99.676 248.061 96.895 243.659C94.116 239.256 80.214 224.428 80.214 224.428Z" stroke="#263238" stroke-miterlimit="10" stroke-linecap="round" stroke-linejoin="round"/>
<path d="M68.211 175.055C68.211 175.055 65.979 177.287 65.483 180.263C64.987 183.239 72.675 190.183 72.675 190.183L75.899 187.207C75.899 187.207 70.691 183.487 69.451 180.511C68.211 177.535 71.187 173.815 71.187 173.815C71.187 173.815 69.451 173.319 68.211 175.055Z" fill="#263238" stroke="#263238" stroke-miterlimit="10" stroke-linecap="round" stroke-linejoin="round"/>
<path d="M68.2109 175.055C68.2109 175.055 152.533 239.289 155.758 241.769L160.966 242.017C160.966 242.017 72.6749 174.311 71.1869 173.815C69.6989 173.319 68.2109 175.055 68.2109 175.055Z" fill="#C4C4C4" stroke="#263238" stroke-miterlimit="10" stroke-linecap="round" stroke-linejoin="round"/>
<path d="M155.758 241.769C155.758 241.769 166.422 252.185 180.063 255.161C193.703 258.137 201.752 247.144 203.872 243.753C207.592 237.801 208.336 231.105 208.336 231.105L155.758 241.769Z" fill="#C4C4C4" stroke="#263238" stroke-miterlimit="10" stroke-linecap="round" stroke-linejoin="round"/>
<path d="M89.5789 195.255L89.0239 197.107L81.285 222.903L73.5439 237.833C73.5439 237.833 74.097 246.127 78.2439 251.104C82.3909 256.081 89.5789 258.845 89.5789 258.845L99.2559 239.768C99.2559 239.768 105.891 238.939 108.932 236.727C111.973 234.515 121.373 231.75 121.65 229.539C121.927 227.327 121.097 225.392 121.097 225.392C121.097 225.392 122.203 221.798 121.926 220.139C121.649 218.48 121.649 218.48 121.649 218.48C121.649 218.48 121.649 215.715 121.373 214.056C121.096 212.397 121.096 212.397 121.096 212.397C121.096 212.397 121.649 209.356 120.543 206.315C119.437 203.274 118.331 202.997 115.843 202.168C113.355 201.339 98.702 197.192 96.766 196.639C96.767 196.637 92.9789 193.196 89.5789 195.255Z" fill="#FFBF9D" stroke="#263238" stroke-miterlimit="10" stroke-linecap="round" stroke-linejoin="round"/>
<path d="M92.136 206.478C92.136 206.478 93.052 206.249 94.542 207.051C96.031 207.853 97.062 208.769 108.404 209.571C119.745 210.373 121.097 212.395 121.097 212.395" stroke="#263238" stroke-miterlimit="10" stroke-linecap="round" stroke-linejoin="round"/>
<path d="M98.3669 218.24C102.74 218.583 108.131 218.965 110.465 218.965C114.704 218.965 121.148 217.991 121.649 218.478" stroke="#263238" stroke-miterlimit="10" stroke-linecap="round" stroke-linejoin="round"/>
<path d="M91.907 217.705C91.907 217.705 93.264 217.824 95.267 217.99" stroke="#263238" stroke-miterlimit="10" stroke-linecap="round" stroke-linejoin="round"/>
<path d="M99.812 230.88L121.097 225.39" stroke="#263238" stroke-miterlimit="10" stroke-linecap="round" stroke-linejoin="round"/>
<path d="M91.334 236.264C93.282 236.837 97.52 238.555 97.52 238.555" stroke="#263238" stroke-miterlimit="10" stroke-linecap="round" stroke-linejoin="round"/>
<path d="M83.544 222.632C83.544 222.632 83.315 224.923 83.429 226.756C83.544 228.589 85.949 231.568 85.949 231.568C85.949 231.568 86.808 232.599 87.911 233.702" stroke="#263238" stroke-miterlimit="10" stroke-linecap="round" stroke-linejoin="round"/>
<path d="M96.7668 196.637C96.7668 196.637 97.6348 191.357 99.3528 190.784C101.071 190.211 105.539 189.524 105.998 190.555C106.456 191.586 110.466 197.2 110.81 198.574C111.154 199.949 110.81 200.522 110.81 200.522L96.7668 196.637Z" fill="#FFBF9D" stroke="#263238" stroke-miterlimit="10" stroke-linecap="round" stroke-linejoin="round"/>
<path d="M133.326 195.733L132.115 189.441" stroke="#263238" stroke-miterlimit="10" stroke-linecap="round" stroke-linejoin="round"/>
<path d="M139.62 228.431L134.478 201.718" stroke="#263238" stroke-miterlimit="10" stroke-linecap="round" stroke-linejoin="round"/>
<path d="M270.668 262.161C270.668 262.161 267.194 220.025 267.194 210.062C267.194 200.099 266.499 177.161 266.499 177.161" stroke="#263238" stroke-miterlimit="10" stroke-linecap="round" stroke-linejoin="round"/>
<path d="M273.689 213.288L269.048 226.745" stroke="#263238" stroke-miterlimit="10" stroke-linecap="round" stroke-linejoin="round"/>
<path d="M275.999 206.587L274.832 209.972" stroke="#263238" stroke-miterlimit="10" stroke-linecap="round" stroke-linejoin="round"/>
<path d="M280.93 255.037C280.263 259.046 280.056 261.923 280.633 262.658C283.182 265.902 288.279 268.45 288.279 268.45" stroke="#263238" stroke-miterlimit="10" stroke-linecap="round" stroke-linejoin="round"/>
<path d="M290.828 214.465C290.828 214.465 285.053 234.836 282.056 249.14" stroke="#263238" stroke-miterlimit="10" stroke-linecap="round" stroke-linejoin="round"/>
<path d="M278.78 263.585C278.78 263.585 286.194 273.085 290.828 273.78" stroke="#263238" stroke-miterlimit="10" stroke-linecap="round" stroke-linejoin="round"/>
<path d="M291.986 209.367C291.986 209.367 297.315 220.72 302.876 223.037C308.437 225.354 317.01 214.928 317.01 214.928L321.412 235.086C321.412 235.086 316.083 242.5 311.912 245.281C307.741 248.061 299.864 246.903 296.388 241.806C292.913 236.709 288.51 224.197 288.51 224.197L291.986 209.367Z" fill="#263238" stroke="#263238" stroke-miterlimit="10" stroke-linecap="round" stroke-linejoin="round"/>
<path d="M291.986 209.367C291.986 209.367 292.449 189.904 291.754 184.575C291.059 179.246 285.498 152.832 284.803 149.82C284.108 146.808 285.73 141.942 286.657 138.698C287.584 135.454 286.425 129.894 288.047 129.662C289.669 129.43 291.986 131.516 292.449 135.454C292.912 139.393 292.681 140.32 292.681 142.173C292.681 144.027 292.681 145.648 292.681 145.648L300.559 143.794C300.559 143.794 320.485 155.611 320.717 157.696C320.949 159.781 310.522 178.085 309.827 179.707C309.132 181.329 317.01 214.925 317.01 214.925C317.01 214.925 312.144 222.803 306.815 225.583C301.486 228.363 298.474 224.425 296.62 220.254C294.767 216.086 291.986 209.367 291.986 209.367Z" fill="#FFBF9D" stroke="#263238" stroke-miterlimit="10" stroke-linecap="round" stroke-linejoin="round"/>
<path d="M308.437 143.102C308.437 143.102 305.425 131.749 304.498 128.737C303.571 125.725 303.34 115.299 301.486 115.762C299.632 116.225 298.474 117.616 298.242 125.493C298.01 133.37 299.632 140.785 299.632 140.785L308.437 143.102Z" fill="#FFBF9D" stroke="#263238" stroke-miterlimit="10" stroke-linecap="round" stroke-linejoin="round"/>
<path d="M314.924 149.126C314.924 149.126 313.765 145.419 311.449 144.492C309.132 143.565 299.632 138.236 298.474 138.236C297.316 138.236 293.145 147.967 291.755 149.821C290.365 151.675 291.987 153.065 293.145 153.065C294.303 153.065 300.791 145.651 300.791 145.651L304.266 146.346L314.924 149.126Z" fill="#FFBF9D" stroke="#263238" stroke-miterlimit="10" stroke-linecap="round" stroke-linejoin="round"/>
<path d="M318.863 153.528C318.863 153.528 317.936 151.443 317.009 150.284C316.082 149.126 304.497 143.565 303.339 144.028C302.18 144.491 298.937 153.064 297.315 156.076C295.693 159.088 295.461 160.942 297.083 160.478C298.705 160.015 302.876 157.698 304.497 156.076C306.119 154.454 310.058 150.052 310.058 150.052L318.863 153.528Z" fill="#FFBF9D" stroke="#263238" stroke-miterlimit="10" stroke-linecap="round" stroke-linejoin="round"/>
<path d="M320.717 157.699C320.717 157.699 319.79 154.455 318.864 153.528C317.937 152.601 311.913 148.431 310.755 147.272C309.596 146.114 307.743 149.821 306.816 150.979C305.889 152.138 301.719 157.93 301.023 159.552C300.327 161.174 302.413 162.332 303.803 161.869C305.193 161.406 311.681 155.613 311.681 155.613" fill="#FFBF9D"/>
<path d="M320.717 157.699C320.717 157.699 319.79 154.455 318.864 153.528C317.937 152.601 311.913 148.431 310.755 147.272C309.596 146.114 307.743 149.821 306.816 150.979C305.889 152.138 301.719 157.93 301.023 159.552C300.327 161.174 302.413 162.332 303.803 161.869C305.193 161.406 311.681 155.613 311.681 155.613" stroke="#263238" stroke-miterlimit="10" stroke-linecap="round" stroke-linejoin="round"/>
<path d="M297.315 172.064C297.315 172.064 297.083 176.93 299.4 179.478C301.717 182.027 306.351 182.953 306.351 182.953" stroke="#263238" stroke-miterlimit="10" stroke-linecap="round" stroke-linejoin="round"/>
<path d="M243.298 61.1647C243.298 61.1647 255.186 55.0827 256.016 40.9817C256.845 26.8817 242.192 9.46373 222.286 3.65773C202.38 -2.14827 178.88 2.27573 166.439 10.0167C153.998 17.7577 139.898 29.6467 132.986 47.6167C126.074 65.5867 127.457 85.4937 137.686 89.6407C147.915 93.7877 165.333 95.9997 173.351 94.3407C181.369 92.6817 192.428 77.7527 205.698 73.8817C218.969 70.0107 231.133 67.7997 234.451 66.4167C237.768 65.0357 243.298 61.1647 243.298 61.1647Z" fill="#E84C4F" stroke="#263238" stroke-miterlimit="10" stroke-linecap="round" stroke-linejoin="round"/>
<path d="M156.265 75.3618C156.265 75.3618 146.624 84.4948 142.057 85.2568" stroke="#263238" stroke-miterlimit="10" stroke-linecap="round" stroke-linejoin="round"/>
<path d="M136.476 61.9158C136.476 61.9158 149.415 68.2588 155.504 66.7358" stroke="#263238" stroke-miterlimit="10" stroke-linecap="round" stroke-linejoin="round"/>
<path d="M150.937 40.0967C150.937 40.0967 162.354 48.2157 170.472 45.4247" stroke="#263238" stroke-miterlimit="10" stroke-linecap="round" stroke-linejoin="round"/>
<path d="M200.663 17.7708C200.663 17.7708 199.141 33.2468 193.813 35.5298" stroke="#263238" stroke-miterlimit="10" stroke-linecap="round" stroke-linejoin="round"/>
<path d="M217.915 36.7989C217.915 36.7989 227.809 31.9789 230.6 26.6509" stroke="#263238" stroke-miterlimit="10" stroke-linecap="round" stroke-linejoin="round"/>
<path d="M252.673 46.1858C252.673 46.1858 240.241 50.7528 234.406 48.4688" stroke="#263238" stroke-miterlimit="10" stroke-linecap="round" stroke-linejoin="round"/>
<path d="M163.674 95.1716C163.674 95.1716 162.015 101.531 161.186 106.784C160.357 112.037 176.116 119.502 176.116 119.502C176.116 119.502 183.304 121.99 168.928 127.243C154.552 132.496 142.94 138.855 136.857 150.19C130.775 161.525 134.922 175.072 143.216 180.049C143.216 180.049 142.387 176.178 143.216 173.414C144.045 170.649 145.151 168.714 145.151 168.714C145.151 168.714 145.428 179.22 152.616 183.644C159.804 188.067 168.651 197.468 165.887 201.062C163.122 204.656 163.122 204.656 163.122 204.656C163.122 204.656 172.246 206.315 178.604 200.785C184.963 195.256 184.963 182.538 182.198 173.414C179.433 164.29 173.904 157.379 177.221 148.532C180.539 139.685 190.768 128.073 190.215 121.438C189.662 114.803 166.715 84.3906 166.715 84.3906L163.674 95.1716Z" fill="#263238" stroke="#263238" stroke-miterlimit="10" stroke-linecap="round" stroke-linejoin="round"/>
<path d="M235.003 51.7648C235.003 51.7648 243.297 69.7358 243.85 76.3708C244.403 83.0058 242.468 85.4948 243.297 87.4298C244.126 89.3648 248.55 102.083 246.338 110.377C244.126 118.671 235.556 136.089 232.791 138.024C230.026 139.959 213.438 136.089 213.438 136.089C213.438 136.089 213.991 146.871 215.097 151.295C216.203 155.719 218.968 161.525 218.968 161.525C218.968 161.525 217.862 168.713 213.162 173.966C208.462 179.219 204.868 181.431 201.274 181.707C197.68 181.983 180.815 164.289 180.539 162.354C180.262 160.419 182.751 143.554 182.751 133.324C182.751 123.095 178.604 109.824 178.604 109.824C178.604 109.824 170.863 104.295 168.927 97.9358C166.992 91.5768 166.715 84.3888 166.715 84.3888L165.886 76.9238C165.886 76.9238 179.71 54.8058 202.104 49.8298C224.498 44.8538 235.003 51.7648 235.003 51.7648Z" fill="#FFBF9D" stroke="#263238" stroke-miterlimit="10" stroke-linecap="round" stroke-linejoin="round"/>
<path d="M227.815 72.2239C227.815 72.2239 223.391 75.8179 226.985 83.0059" stroke="#263238" stroke-miterlimit="10" stroke-linecap="round" stroke-linejoin="round"/>
<path d="M236.386 99.0417C236.386 99.0417 232.515 102.083 229.751 102.36" stroke="#263238" stroke-miterlimit="10" stroke-linecap="round" stroke-linejoin="round"/>
<path d="M236.109 107.06C236.109 107.06 226.985 112.037 214.821 105.678C214.821 105.678 221.18 115.631 226.709 115.631C232.239 115.631 236.109 107.06 236.109 107.06Z" stroke="#263238" stroke-miterlimit="10" stroke-linecap="round" stroke-linejoin="round"/>
<path d="M217.586 71.3947C217.586 71.3947 210.951 68.6297 205.145 69.7357C199.339 70.8417 197.127 75.8177 197.127 75.8177" stroke="#263238" stroke-miterlimit="10" stroke-linecap="round" stroke-linejoin="round"/>
<path d="M229.751 70.2887C229.751 70.2887 238.322 65.8647 241.086 72.2237" stroke="#263238" stroke-miterlimit="10" stroke-linecap="round" stroke-linejoin="round"/>
<path d="M209.005 84.8657C209.207 87.0707 208.323 88.9537 207.031 89.0727C205.739 89.1917 204.527 87.4997 204.325 85.2957C204.123 83.0907 205.007 81.2077 206.299 81.0887C207.591 80.9697 208.803 82.6607 209.005 84.8657Z" fill="#263238"/>
<path d="M233.888 83.2067C234.09 85.4117 233.207 87.2947 231.914 87.4137C230.622 87.5327 229.41 85.8407 229.208 83.6367C229.006 81.4317 229.889 79.5487 231.182 79.4297C232.474 79.3107 233.686 81.0017 233.888 83.2067Z" fill="#263238"/>
<path d="M172.244 78.0298C172.244 78.0298 179.709 89.3648 180.815 86.8768C181.921 84.3888 181.644 73.3298 181.644 72.4998C181.644 71.6708 176.668 73.3298 172.244 78.0298Z" fill="#263238" stroke="#263238" stroke-miterlimit="10" stroke-linecap="round" stroke-linejoin="round"/>
<path d="M213.439 136.09L199.339 132.495L213.439 143.831V136.09Z" fill="#263238" stroke="#263238" stroke-miterlimit="10" stroke-linecap="round" stroke-linejoin="round"/>
<path d="M178.603 109.825C178.603 109.825 181.644 111.207 183.026 107.613" stroke="#263238" stroke-miterlimit="10" stroke-linecap="round" stroke-linejoin="round"/>
<path d="M163.674 95.1716C163.674 95.1716 173.074 76.9246 194.362 66.1416C215.65 55.3586 238.972 61.6616 238.972 61.6616C238.972 61.6616 232.238 44.2996 230.579 41.8116C228.92 39.3236 209.844 30.7526 186.343 37.6646C162.843 44.5766 154.825 68.9056 155.102 71.1176C155.38 73.3296 163.674 95.1716 163.674 95.1716Z" fill="#E84C4F" stroke="#263238" stroke-miterlimit="10" stroke-linecap="round" stroke-linejoin="round"/>
<path d="M179.433 149.084C179.433 149.084 183.027 154.337 189.939 159.037C196.851 163.737 200.445 164.29 201.274 167.331C202.103 170.372 205.145 183.366 202.103 183.643C199.062 183.92 187.727 183.366 182.197 173.413C176.668 163.46 176.391 154.89 179.433 149.084Z" fill="#263238" stroke="#263238" stroke-miterlimit="10" stroke-linecap="round" stroke-linejoin="round"/>
<path d="M209.015 164.013C209.015 164.013 207.633 180.048 209.568 180.601C211.503 181.154 220.903 174.242 223.944 169.266C226.985 164.29 226.156 161.525 225.326 158.76C224.497 155.995 223.114 151.019 221.179 151.848C219.245 152.678 215.374 160.972 209.015 164.013Z" fill="#263238" stroke="#263238" stroke-miterlimit="10" stroke-linecap="round" stroke-linejoin="round"/>
<path d="M221.908 250.955C222.054 250.062 222.14 249.046 222.14 247.855C222.14 239.727 218.14 239.727 218.14 231.599C218.14 223.465 222.14 223.465 222.14 215.332C222.14 207.199 218.14 207.198 218.14 199.065" stroke="#263238" stroke-miterlimit="10"/>
<path d="M218.141 264.117C218.141 259.435 219.468 257.449 220.593 255.054" stroke="#263238" stroke-miterlimit="10"/>
<path d="M237.157 211.714C236.203 206.948 233.483 205.771 233.483 199.065" stroke="#263238" stroke-miterlimit="10"/>
<path d="M233.483 264.117C233.483 255.986 237.483 255.986 237.483 247.856C237.483 239.728 233.483 239.728 233.483 231.6C233.483 225.5 235.733 223.975 236.858 220.162" stroke="#263238" stroke-miterlimit="10"/>
<path d="M250.682 223.757C251.727 221.622 252.825 219.593 252.825 215.332C252.825 207.198 248.825 207.198 248.825 199.065" stroke="#263238" stroke-miterlimit="10"/>
<path d="M248.826 264.117C248.826 255.986 252.826 255.986 252.826 247.856C252.826 239.728 248.826 239.728 248.826 231.6C248.826 229.664 249.053 228.189 249.398 226.955" stroke="#263238" stroke-miterlimit="10"/>
<path d="M134.319 293.088C133.711 293.088 133.095 292.949 132.516 292.654L110.781 281.614C108.817 280.617 108.033 278.216 109.031 276.251C110.029 274.285 112.43 273.501 114.394 274.501L136.129 285.541C138.094 286.538 138.877 288.939 137.879 290.904C137.176 292.29 135.774 293.088 134.319 293.088Z" fill="#263238"/>
<path d="M270.518 293.088C271.126 293.088 271.742 292.949 272.321 292.654L294.056 281.614C296.021 280.617 296.804 278.216 295.806 276.251C294.807 274.285 292.407 273.501 290.443 274.501L268.708 285.541C266.743 286.538 265.96 288.939 266.958 290.904C267.661 292.29 269.063 293.088 270.518 293.088Z" fill="#263238"/>
<path d="M257.896 399.089H144.956C137.046 399.089 130.633 392.676 130.633 384.766V270.584H272.22V384.766C272.22 392.677 265.807 399.089 257.896 399.089Z" fill="#A6A6A6" stroke="#263238" stroke-miterlimit="10"/>
<path d="M150.715 382.764V270.584H137.552V382.764C137.552 391.78 144.861 399.089 153.877 399.089H167.04C158.024 399.089 150.715 391.78 150.715 382.764Z" fill="#263238" stroke="#263238" stroke-miterlimit="10"/>
<path d="M252.138 270.584V382.764C252.138 391.78 244.829 399.089 235.813 399.089H248.976C257.992 399.089 265.301 391.78 265.301 382.764V270.584H252.138Z" fill="#263238" stroke="#263238" stroke-miterlimit="10"/>
<path d="M234.631 372.211C231.233 370.686 229.153 367.194 229.082 363.47C228.785 347.965 232.183 284.199 235.406 278.924C239.201 272.714 246.791 339.122 245.756 354.647C244.928 367.067 241.199 375.159 234.631 372.211Z" fill="white"/>
<path d="M272.964 272.882H129.889C128.719 272.882 127.77 271.933 127.77 270.763V270.171C127.77 269.001 128.719 268.052 129.889 268.052H272.964C274.134 268.052 275.083 269.001 275.083 270.171V270.763C275.083 271.934 274.134 272.882 272.964 272.882Z" fill="#263238"/>
<path d="M0 399H387.97" stroke="#263238" stroke-miterlimit="10"/>
</svg>
