<svg width="242" height="271" viewBox="0 0 242 271" fill="none" xmlns="http://www.w3.org/2000/svg">
<path d="M154.949 12.8198C154.949 12.8198 182.551 39.4918 183.792 52.8278C185.033 66.1638 164.564 77.0188 170.456 81.3598C176.349 85.7018 192.476 97.1768 186.273 107.101C180.07 117.025 176.969 119.506 179.14 121.677C181.311 123.848 186.583 125.709 186.273 130.981C185.963 136.253 179.76 140.905 179.76 140.905H81.7573C81.7573 140.905 76.4853 141.215 77.1053 133.772C77.7253 126.329 88.2703 122.297 86.4093 116.715C84.5483 111.133 70.9023 106.791 70.9023 95.6258C70.9023 84.4608 87.0293 79.8088 89.5103 74.5368C91.9913 69.2648 81.4463 65.8528 79.2763 59.0298C77.1053 52.2068 88.2703 40.4218 95.0933 34.2188C101.916 28.0158 129.208 10.0278 140.063 9.40784C150.918 8.78784 154.949 12.8198 154.949 12.8198Z" fill="#263238"/>
<mask id="mask0_7_888" style="mask-type:luminance" maskUnits="userSpaceOnUse" x="70" y="9" width="118" height="132">
<path d="M154.949 12.8198C154.949 12.8198 182.551 39.4918 183.792 52.8278C185.033 66.1638 164.564 77.0188 170.456 81.3598C176.349 85.7018 192.476 97.1768 186.273 107.101C180.07 117.025 176.969 119.506 179.14 121.677C181.311 123.848 186.583 125.709 186.273 130.981C185.963 136.253 179.76 140.905 179.76 140.905H81.7573C81.7573 140.905 76.4853 141.215 77.1053 133.772C77.7253 126.329 88.2703 122.297 86.4093 116.715C84.5483 111.133 70.9023 106.791 70.9023 95.6258C70.9023 84.4608 87.0293 79.8088 89.5103 74.5368C91.9913 69.2648 81.4463 65.8528 79.2763 59.0298C77.1053 52.2068 88.2703 40.4218 95.0933 34.2188C101.916 28.0158 129.208 10.0278 140.063 9.40784C150.918 8.78784 154.949 12.8198 154.949 12.8198Z" fill="white"/>
</mask>
<g mask="url(#mask0_7_888)">
<path d="M162.346 20.0939C162.346 20.0939 177.32 46.2989 174.981 56.5939C172.641 66.8889 156.731 78.5869 162.814 86.5429C168.897 94.4979 177.788 97.7739 174.045 107.601C170.301 117.428 164.218 123.511 164.218 123.511" stroke="#858585" stroke-miterlimit="10" stroke-linecap="round" stroke-linejoin="round"/>
</g>
<mask id="mask1_7_888" style="mask-type:luminance" maskUnits="userSpaceOnUse" x="70" y="9" width="118" height="132">
<path d="M154.949 12.8198C154.949 12.8198 182.551 39.4918 183.792 52.8278C185.033 66.1638 164.564 77.0188 170.456 81.3598C176.349 85.7018 192.476 97.1768 186.273 107.101C180.07 117.025 176.969 119.506 179.14 121.677C181.311 123.848 186.583 125.709 186.273 130.981C185.963 136.253 179.76 140.905 179.76 140.905H81.7573C81.7573 140.905 76.4853 141.215 77.1053 133.772C77.7253 126.329 88.2703 122.297 86.4093 116.715C84.5483 111.133 70.9023 106.791 70.9023 95.6258C70.9023 84.4608 87.0293 79.8088 89.5103 74.5368C91.9913 69.2648 81.4463 65.8528 79.2763 59.0298C77.1053 52.2068 88.2703 40.4218 95.0933 34.2188C101.916 28.0158 129.208 10.0278 140.063 9.40784C150.918 8.78784 154.949 12.8198 154.949 12.8198Z" fill="white"/>
</mask>
<g mask="url(#mask1_7_888)">
<path d="M95.4293 56.1259C95.4293 56.1259 104.788 70.6319 102.448 74.8439C100.108 79.0559 86.5383 84.2029 88.4103 94.9659C90.2823 105.729 109.935 122.575 109.935 124.447" stroke="#858585" stroke-miterlimit="10" stroke-linecap="round" stroke-linejoin="round"/>
</g>
<path d="M154.949 12.8198C154.949 12.8198 182.551 39.4918 183.792 52.8278C185.033 66.1638 164.564 77.0188 170.456 81.3598C176.349 85.7018 192.476 97.1768 186.273 107.101C180.07 117.025 176.969 119.506 179.14 121.677C181.311 123.848 186.583 125.709 186.273 130.981C185.963 136.253 179.76 140.905 179.76 140.905H81.7573C81.7573 140.905 76.4853 141.215 77.1053 133.772C77.7253 126.329 88.2703 122.297 86.4093 116.715C84.5483 111.133 70.9023 106.791 70.9023 95.6258C70.9023 84.4608 87.0293 79.8088 89.5103 74.5368C91.9913 69.2648 81.4463 65.8528 79.2763 59.0298C77.1053 52.2068 88.2703 40.4218 95.0933 34.2188C101.916 28.0158 129.208 10.0278 140.063 9.40784C150.918 8.78784 154.949 12.8198 154.949 12.8198Z" stroke="#263238" stroke-miterlimit="10" stroke-linecap="round" stroke-linejoin="round"/>
<path d="M190.379 126.146C190.379 126.146 227.879 184.646 233.379 191.646C238.879 198.646 232.879 210.146 224.379 216.146C215.879 222.146 201.652 216.904 194.266 209.275C186.88 201.646 179.379 183.646 179.379 183.646L190.379 126.146Z" fill="white" stroke="#263238" stroke-miterlimit="10" stroke-linecap="round" stroke-linejoin="round"/>
<path d="M127.379 106.646C127.379 106.646 92.3792 117.146 81.3792 121.146C70.3792 125.146 67.3792 125.646 67.3792 129.646C67.3792 131.968 75.7272 177.285 74.8792 216.146C74.2662 244.225 64.3792 269.646 64.3792 269.646H191.879C191.879 269.646 181.422 245.792 181.379 217.146C181.319 176.988 191.546 127.897 190.379 126.146C188.379 123.146 131.879 106.146 127.379 106.646Z" fill="white" stroke="#263238" stroke-miterlimit="10" stroke-linecap="round" stroke-linejoin="round"/>
<path d="M181.763 226.578C177.181 223.009 171.233 217.138 168.379 209.146C163.947 196.736 160.694 130.115 160.012 115.143C157.638 114.417 155.255 113.702 152.916 113.013L153.88 175.646H109.38L105.485 113.331C103.124 114.064 100.732 114.81 98.3911 115.548C98.4351 128.201 98.4441 187.216 94.8801 204.147C92.1461 217.132 80.7751 225.91 73.8471 230.169C71.1771 252.155 64.3801 269.647 64.3801 269.647H191.88C191.879 269.646 183.643 250.841 181.763 226.578Z" fill="#263238"/>
<mask id="mask2_7_888" style="mask-type:luminance" maskUnits="userSpaceOnUse" x="64" y="113" width="128" height="157">
<path d="M181.763 226.578C177.181 223.009 171.233 217.138 168.379 209.146C163.947 196.736 160.694 130.115 160.012 115.143C157.638 114.417 155.255 113.702 152.916 113.013L153.88 175.646H109.38L105.485 113.331C103.124 114.064 100.732 114.81 98.3911 115.548C98.4351 128.201 98.4441 187.216 94.8801 204.147C92.1461 217.132 80.7751 225.91 73.8471 230.169C71.1771 252.155 64.3801 269.647 64.3801 269.647H191.88C191.879 269.646 183.643 250.841 181.763 226.578Z" fill="white"/>
</mask>
<g mask="url(#mask2_7_888)">
<path d="M99.8451 115.091C99.3601 115.243 98.8721 115.396 98.3911 115.547C98.4351 128.2 98.4441 187.215 94.8801 204.146C94.6831 205.079 94.4311 205.984 94.1501 206.874V269.646H99.8451V115.091Z" fill="#424242"/>
<path d="M123.891 175.646H118.196V269.646H123.891V175.646Z" fill="#424242"/>
<path d="M70.103 250.594V269.646H75.798V228.913C75.121 229.363 74.461 229.79 73.846 230.168C72.935 237.673 71.542 244.653 70.103 250.594Z" fill="#424242"/>
<path d="M87.822 218.252C86.036 220.436 84.088 222.383 82.127 224.094V269.646H87.822V218.252Z" fill="#424242"/>
<path d="M106.172 124.341V269.646H111.868V175.646H109.379L106.172 124.341Z" fill="#424242"/>
<path d="M166.288 199.043V269.646H171.983V216.242C170.559 214.103 169.305 211.738 168.379 209.146C167.648 207.098 166.949 203.567 166.288 199.043Z" fill="#424242"/>
<path d="M178.311 223.629V269.646H184.006V242.865C183.029 237.868 182.213 232.382 181.764 226.578C180.67 225.726 179.499 224.74 178.311 223.629Z" fill="#424242"/>
<path d="M159.96 115.128C158.056 114.546 156.152 113.975 154.265 113.415V269.646H159.96V115.128Z" fill="#424242"/>
<path d="M147.937 175.646H142.242V269.646H147.937V175.646Z" fill="#424242"/>
<path d="M135.914 175.646H130.219V269.646H135.914V175.646Z" fill="#424242"/>
</g>
<path d="M181.763 226.578C177.181 223.009 171.233 217.138 168.379 209.146C163.947 196.736 160.694 130.115 160.012 115.143C157.638 114.417 155.255 113.702 152.916 113.013L153.88 175.646H109.38L105.485 113.331C103.124 114.064 100.732 114.81 98.3911 115.548C98.4351 128.201 98.4441 187.216 94.8801 204.147C92.1461 217.132 80.7751 225.91 73.8471 230.169C71.1771 252.155 64.3801 269.647 64.3801 269.647H191.88C191.879 269.646 183.643 250.841 181.763 226.578Z" stroke="#263238" stroke-miterlimit="10" stroke-linecap="round" stroke-linejoin="round"/>
<path d="M123.316 97.4867C123.316 97.4867 110.29 102.139 107.809 107.411C105.328 112.683 106.568 133.462 104.397 139.665C102.226 145.868 96.9541 150.52 99.7451 150.83C102.536 151.14 110.91 138.425 115.252 139.975C119.594 141.525 131.379 157.653 132.309 157.653C133.239 157.653 142.233 146.798 144.094 143.387C145.955 139.976 152.778 145.248 155.879 153.001C158.98 160.754 159.911 157.963 159.911 155.172C159.911 152.381 156.189 140.286 156.81 138.115C157.43 135.944 156.5 125.089 156.5 114.235C156.5 103.38 148.437 97.4878 141.614 96.2468C134.791 95.0058 123.316 97.4867 123.316 97.4867Z" fill="white" stroke="#263238" stroke-miterlimit="10" stroke-linecap="round" stroke-linejoin="round"/>
<path d="M117.423 89.7328V124.778C117.423 124.778 128.898 162.614 132.93 159.823C136.962 157.032 146.266 126.328 146.266 126.328V90.0418C146.266 90.0418 131.999 96.2458 117.423 89.7328Z" fill="#FFBF9D" stroke="#263238" stroke-miterlimit="10" stroke-linecap="round" stroke-linejoin="round"/>
<path d="M117.423 89.7328V97.0248C123.217 100.353 130.046 102.602 136.194 102.602C139.765 102.602 143.17 101.644 146.265 100.107V90.0428C146.265 90.0428 132 96.2458 117.423 89.7328Z" fill="#263238" stroke="#263238" stroke-miterlimit="10" stroke-linecap="round" stroke-linejoin="round"/>
<path d="M105.638 51.5857C105.638 51.5857 98.8153 42.5917 94.7833 49.1047C90.7513 55.6177 101.296 67.7127 104.397 67.4027C107.499 67.0927 105.638 51.5857 105.638 51.5857Z" fill="#FFBF9D" stroke="#263238" stroke-miterlimit="10" stroke-linecap="round" stroke-linejoin="round"/>
<path d="M160.489 51.5857C160.489 51.5857 167.312 42.5917 171.344 49.1047C175.376 55.6177 164.831 67.7127 161.73 67.4027C158.629 67.0927 160.489 51.5857 160.489 51.5857Z" fill="#FFBF9D" stroke="#263238" stroke-miterlimit="10" stroke-linecap="round" stroke-linejoin="round"/>
<path d="M104.792 38.9897C104.792 38.9897 101.351 69.9617 104.362 78.9947C107.373 88.0287 123.289 97.9217 136.194 97.9217C149.099 97.9217 159.853 85.4467 161.574 78.1347C163.295 70.8217 159.423 23.9337 156.842 18.7717C154.261 13.6097 137.915 13.1797 121.569 21.3527C105.223 29.5257 104.792 38.9897 104.792 38.9897Z" fill="#FFBF9D" stroke="#263238" stroke-miterlimit="10" stroke-linecap="round" stroke-linejoin="round"/>
<path d="M136.962 43.8328C136.962 43.8328 134.171 51.2758 136.652 55.6178C139.133 59.9598 137.582 63.0608 134.791 63.0608C132 63.0608 130.759 58.4088 130.759 58.4088" stroke="#263238" stroke-miterlimit="10" stroke-linecap="round" stroke-linejoin="round"/>
<path d="M121.145 66.1627C121.145 66.1627 134.171 75.1567 145.646 66.1627" stroke="#263238" stroke-miterlimit="10" stroke-linecap="round" stroke-linejoin="round"/>
<path d="M139.753 39.4907C139.753 39.4907 145.336 33.2877 151.848 40.1107" stroke="#263238" stroke-miterlimit="10" stroke-linecap="round" stroke-linejoin="round"/>
<path d="M127.037 38.8707C127.037 38.8707 121.454 32.9777 114.632 38.2507" stroke="#263238" stroke-miterlimit="10" stroke-linecap="round" stroke-linejoin="round"/>
<path d="M145.025 52.5168C146.053 52.5168 146.886 50.8504 146.886 48.7948C146.886 46.7392 146.053 45.0728 145.025 45.0728C143.998 45.0728 143.164 46.7392 143.164 48.7948C143.164 50.8504 143.998 52.5168 145.025 52.5168Z" fill="#263238"/>
<path d="M121.765 52.5168C122.793 52.5168 123.626 50.8504 123.626 48.7948C123.626 46.7392 122.793 45.0728 121.765 45.0728C120.737 45.0728 119.904 46.7392 119.904 48.7948C119.904 50.8504 120.737 52.5168 121.765 52.5168Z" fill="#263238"/>
<path d="M112.771 54.0678C112.771 54.0678 118.043 53.1378 122.385 54.0678" stroke="#263238" stroke-miterlimit="10" stroke-linecap="round" stroke-linejoin="round"/>
<path d="M144.405 54.3777C144.405 54.3777 148.437 53.4477 153.709 54.3777" stroke="#263238" stroke-miterlimit="10" stroke-linecap="round" stroke-linejoin="round"/>
<path d="M89.8212 56.8588C89.8212 56.8588 138.512 36.6998 150.297 27.3958C162.082 18.0918 165.184 0.103783 137.582 1.03478C109.98 1.96478 80.8272 34.2198 78.3462 49.1058C75.8652 63.9928 85.7892 60.8908 85.7892 60.8908" fill="#263238"/>
<mask id="mask3_7_888" style="mask-type:luminance" maskUnits="userSpaceOnUse" x="77" y="1" width="82" height="61">
<path d="M89.8212 56.8588C89.8212 56.8588 138.512 36.6998 150.297 27.3958C162.082 18.0918 165.184 0.103783 137.582 1.03478C109.98 1.96478 80.8272 34.2198 78.3462 49.1058C75.8652 63.9928 85.7892 60.8908 85.7892 60.8908" fill="white"/>
</mask>
<g mask="url(#mask3_7_888)">
<path d="M156.262 1.84375C156.262 1.84375 141.756 21.0297 116.019 36.0037C90.2823 50.9777 73.9043 53.7857 73.9043 53.7857" stroke="#858585" stroke-miterlimit="10" stroke-linecap="round" stroke-linejoin="round"/>
</g>
<mask id="mask4_7_888" style="mask-type:luminance" maskUnits="userSpaceOnUse" x="77" y="1" width="82" height="61">
<path d="M89.8212 56.8588C89.8212 56.8588 138.512 36.6998 150.297 27.3958C162.082 18.0918 165.184 0.103783 137.582 1.03478C109.98 1.96478 80.8272 34.2198 78.3462 49.1058C75.8652 63.9928 85.7892 60.8908 85.7892 60.8908" fill="white"/>
</mask>
<g mask="url(#mask4_7_888)">
<path d="M138.012 -2.83521C138.012 -2.83521 115.083 33.1968 72.5002 47.2348" stroke="#858585" stroke-miterlimit="10" stroke-linecap="round" stroke-linejoin="round"/>
</g>
<path d="M89.8212 56.8588C89.8212 56.8588 138.512 36.6998 150.297 27.3958C162.082 18.0918 165.184 0.103783 137.582 1.03478C109.98 1.96478 80.8272 34.2198 78.3462 49.1058C75.8652 63.9928 85.7892 60.8908 85.7892 60.8908" stroke="#263238" stroke-miterlimit="10" stroke-linecap="round" stroke-linejoin="round"/>
<path d="M193.379 168.396C193.379 168.396 187.629 165.896 180.879 163.646C174.129 161.396 170.379 165.896 173.129 169.896C175.879 173.896 185.629 174.646 190.379 178.896C195.129 183.146 198.879 196.896 203.629 199.396C208.379 201.896 213.629 202.396 213.629 202.396V168.396H193.379Z" fill="#FFBF9D" stroke="#263238" stroke-miterlimit="10" stroke-linecap="round" stroke-linejoin="round"/>
<path d="M222.786 209.275H194.266L187.886 150.44H229.166L222.786 209.275Z" fill="#E84C4F" stroke="#263238" stroke-miterlimit="10" stroke-linecap="round" stroke-linejoin="round"/>
<path d="M230.152 141.217H186.9L183.129 149.146H234.379L230.152 141.217Z" fill="white" stroke="#263238" stroke-miterlimit="10" stroke-linecap="round" stroke-linejoin="round"/>
<path d="M188.505 151.699H229.435L233.004 149.146H184.504L188.505 151.699Z" fill="white" stroke="#263238" stroke-miterlimit="10" stroke-linecap="round" stroke-linejoin="round"/>
<path d="M224.535 193.146L228.195 159.396H188.857L192.517 193.146H224.535Z" fill="white" stroke="#263238" stroke-miterlimit="10" stroke-linecap="round" stroke-linejoin="round"/>
<path d="M233.879 169.646C233.879 169.646 220.629 169.896 218.129 172.396C215.629 174.896 216.379 177.896 221.129 178.396C225.879 178.896 232.879 179.896 236.629 178.896C240.379 177.896 240.379 169.646 233.879 169.646Z" fill="#FFBF9D" stroke="#263238" stroke-miterlimit="10" stroke-linecap="round" stroke-linejoin="round"/>
<path d="M230.835 196.396C230.835 196.396 220.323 196.594 218.34 198.578C216.357 200.561 216.952 202.941 220.72 203.338C224.488 203.735 230.042 204.528 233.017 203.735C235.991 202.941 235.991 196.396 230.835 196.396Z" fill="#FFBF9D" stroke="#263238" stroke-miterlimit="10" stroke-linecap="round" stroke-linejoin="round"/>
<path d="M236.379 179.896C236.379 179.896 219.129 179.896 214.879 180.646C210.629 181.396 209.129 185.646 215.379 186.896C221.629 188.146 234.379 188.896 238.379 188.396C242.379 187.896 242.629 179.646 236.379 179.896Z" fill="#FFBF9D" stroke="#263238" stroke-miterlimit="10" stroke-linecap="round" stroke-linejoin="round"/>
<path d="M235.379 188.896C235.379 188.896 221.629 188.396 216.879 190.146C212.129 191.896 213.879 194.396 218.379 195.396C222.879 196.396 232.879 197.646 236.629 196.396C240.379 195.146 240.379 188.396 235.379 188.896Z" fill="#FFBF9D" stroke="#263238" stroke-miterlimit="10" stroke-linecap="round" stroke-linejoin="round"/>
<path d="M22.8013 100.655C22.8013 100.655 20.1493 102.246 22.0053 110.201C23.8613 118.156 23.8613 118.156 23.8613 118.156L35.2632 116.035C35.2632 116.035 30.2252 107.019 28.1032 103.042C25.9832 99.0638 23.3313 99.5938 22.8013 100.655Z" fill="#FFBF9D" stroke="#263238" stroke-miterlimit="10" stroke-linecap="round" stroke-linejoin="round"/>
<path d="M13.7852 115.239C13.7852 115.239 50.1132 109.14 60.9852 105.428C71.8572 101.716 82.7292 99.5938 85.9112 98.7988C89.0932 98.0028 92.5402 98.0028 92.5402 98.0028C92.5402 98.0028 93.6012 98.0028 93.3362 102.511C93.0712 107.019 99.1702 165.621 104.738 183.652C110.306 201.683 113.754 210.169 113.754 210.169C113.754 210.169 81.1382 216.798 50.9092 216.798C20.6802 216.798 2.11821 212.555 1.05721 212.555C-0.00378678 212.555 14.0502 159.521 13.5202 141.49C12.9832 123.233 13.7852 115.239 13.7852 115.239Z" fill="#E84C4F" stroke="#263238" stroke-miterlimit="10" stroke-linecap="round" stroke-linejoin="round"/>
<path d="M104.737 183.652C99.1693 165.621 93.0703 107.019 93.3353 102.511C93.6003 98.0028 92.5393 98.0028 92.5393 98.0028C92.5393 98.0028 90.8863 98.0028 88.8133 98.2668C88.5883 100.108 88.8263 101.715 88.8263 101.715C88.8263 101.715 88.5613 130.618 87.7653 164.825C87.1053 193.201 87.5403 209.521 87.7073 214.265C102.795 212.393 113.751 210.169 113.751 210.169C113.751 210.169 110.306 201.684 104.737 183.652Z" fill="#E84C4F" stroke="#263238" stroke-miterlimit="10" stroke-linecap="round" stroke-linejoin="round"/>
<path d="M92.0091 99.3287C92.0091 99.3287 92.0091 108.345 92.0091 112.587C92.0091 116.829 92.8051 118.951 91.2131 118.951C89.6221 118.951 76.3642 121.338 54.8852 125.58C33.4062 129.823 15.1101 130.883 13.5191 130.883C11.9281 130.883 13.7841 115.238 13.7841 115.238C13.7841 115.238 54.0891 108.874 67.0831 104.631C80.0761 100.388 90.6831 98.5317 90.6831 98.5317" fill="#E84C4F"/>
<path d="M92.0091 99.3287C92.0091 99.3287 92.0091 108.345 92.0091 112.587C92.0091 116.829 92.8051 118.951 91.2131 118.951C89.6221 118.951 76.3642 121.338 54.8852 125.58C33.4062 129.823 15.1101 130.883 13.5191 130.883C11.9281 130.883 13.7841 115.238 13.7841 115.238C13.7841 115.238 54.0891 108.874 67.0831 104.631C80.0761 100.388 90.6831 98.5317 90.6831 98.5317" stroke="#263238" stroke-miterlimit="10" stroke-linecap="round" stroke-linejoin="round"/>
<path d="M45.6052 89.7828C45.6052 89.7828 48.2572 83.6838 55.4162 87.6618C62.5762 91.6398 67.3482 105.959 66.2882 108.875C65.2272 111.792 61.7802 112.587 58.8632 109.671C55.9462 106.754 48.5212 96.1468 46.6652 93.2308C44.8092 90.3128 45.6052 89.7828 45.6052 89.7828Z" fill="#FFBF9D" stroke="#263238" stroke-miterlimit="10" stroke-linecap="round" stroke-linejoin="round"/>
<path d="M37.6502 93.4949C37.6502 93.4949 51.0442 113.031 53.5602 114.708C55.9472 116.299 60.7382 117.346 59.3942 111.526C58.1192 106.003 53.0302 95.3509 49.5832 91.6379C46.1362 87.9259 43.7492 87.3949 40.8322 88.9859C37.9152 90.5779 37.1202 91.3739 37.6502 93.4949Z" fill="#FFBF9D" stroke="#263238" stroke-miterlimit="10" stroke-linecap="round" stroke-linejoin="round"/>
<path d="M38.7111 92.4348C38.7111 92.4348 51.1741 108.345 52.2351 112.057C53.2961 115.769 51.1741 121.868 45.6061 118.421C40.0381 114.974 34.9991 103.572 31.8171 99.5938C28.6341 95.6168 34.2031 89.5178 38.7111 92.4348Z" fill="#FFBF9D" stroke="#263238" stroke-miterlimit="10" stroke-linecap="round" stroke-linejoin="round"/>
<path d="M31.2862 96.4119C31.2862 96.4119 23.3312 97.4729 22.2702 101.715C21.2092 105.958 28.1042 115.239 33.6722 116.83C39.2402 118.421 40.8322 113.913 39.2402 110.201C37.6502 106.488 33.9382 97.2079 31.2862 96.4119Z" fill="#FFBF9D" stroke="#263238" stroke-miterlimit="10" stroke-linecap="round" stroke-linejoin="round"/>
</svg>
