<svg width="409" height="304" viewBox="0 0 409 304" fill="none" xmlns="http://www.w3.org/2000/svg">
<path d="M47.263 150.145L32.43 150.424L24.915 150.536C22.405 150.583 19.883 150.574 17.366 150.591L16.922 150.594L16.92 150.145L16.866 137.512L16.864 137.01L17.366 137.012L32.314 137.075C37.297 137.08 42.279 137.187 47.262 137.239L47.537 137.242L47.535 137.512C47.516 139.651 47.449 141.78 47.404 143.887L47.263 150.145ZM47.263 150.145L47.121 143.77C47.076 141.667 47.009 139.584 46.99 137.512L47.263 137.785C42.28 137.836 37.298 137.944 32.315 137.949L17.367 138.012L17.866 137.513L17.812 150.146L17.366 149.7C19.832 149.718 22.293 149.708 24.766 149.755L32.199 149.867L47.263 150.145Z" fill="#EBEBEB"/>
<path d="M30.585 166.075L15.752 166.354L8.23703 166.466C5.72703 166.513 3.20503 166.504 0.688034 166.521L0.244034 166.524L0.242035 166.075L0.188034 153.442L0.186035 152.94L0.688034 152.942L15.636 153.005C20.619 153.01 25.601 153.117 30.584 153.169L30.859 153.172L30.857 153.442C30.838 155.581 30.771 157.71 30.726 159.817L30.585 166.075ZM30.585 166.075L30.443 159.7C30.398 157.596 30.331 155.514 30.312 153.442L30.585 153.715C25.602 153.766 20.62 153.874 15.637 153.879L0.689034 153.942L1.18803 153.443L1.13403 166.076L0.688034 165.63C3.15403 165.648 5.61504 165.638 8.08804 165.685L15.521 165.797L30.585 166.075Z" fill="#EBEBEB"/>
<path d="M315.318 56.437L300.485 56.716L292.97 56.828C290.46 56.875 287.938 56.866 285.421 56.883L284.977 56.886L284.975 56.437L284.921 43.804L284.919 43.302L285.421 43.304L300.369 43.367C305.352 43.372 310.334 43.48 315.317 43.531L315.592 43.534L315.59 43.804C315.571 45.943 315.504 48.072 315.459 50.179L315.318 56.437ZM315.318 56.437L315.176 50.062C315.131 47.958 315.064 45.876 315.045 43.804L315.318 44.077C310.335 44.128 305.352 44.236 300.37 44.241L285.422 44.304L285.921 43.805L285.867 56.438L285.421 55.993C287.887 56.01 290.348 56.001 292.821 56.048L300.254 56.16L315.318 56.437Z" fill="#EBEBEB"/>
<path d="M298.64 72.3669L283.807 72.6459L276.292 72.7579C273.782 72.8049 271.26 72.7949 268.743 72.8129L268.299 72.8159L268.297 72.3669L268.243 59.7339L268.241 59.2319L268.743 59.2339L283.691 59.2969C288.674 59.3019 293.656 59.4099 298.639 59.4609L298.914 59.4639L298.912 59.7339C298.893 61.8729 298.826 64.0019 298.781 66.1089L298.64 72.3669ZM298.64 72.3669L298.498 65.9919C298.453 63.8889 298.386 61.8059 298.367 59.7339L298.64 60.0069C293.657 60.0579 288.675 60.1659 283.692 60.1709L268.744 60.2339L269.243 59.7349L269.189 72.3679L268.743 71.9219C271.209 71.9399 273.67 71.9299 276.143 71.9769L283.576 72.0889L298.64 72.3669Z" fill="#EBEBEB"/>
<path d="M282.029 56.437L267.196 56.716L259.681 56.828C257.171 56.875 254.649 56.866 252.132 56.883L251.688 56.886L251.686 56.437L251.632 43.804L251.63 43.302L252.132 43.304L267.08 43.367C272.063 43.372 277.045 43.48 282.028 43.531L282.303 43.534L282.301 43.804C282.282 45.943 282.215 48.072 282.17 50.179L282.029 56.437ZM282.029 56.437L281.887 50.062C281.842 47.958 281.775 45.876 281.756 43.804L282.029 44.077C277.046 44.128 272.063 44.236 267.081 44.241L252.133 44.304L252.632 43.805L252.578 56.438L252.132 55.993C254.598 56.01 257.059 56.001 259.532 56.048L266.965 56.16L282.029 56.437Z" fill="#EBEBEB"/>
<path d="M408.563 166.075L393.73 166.354L386.215 166.466C383.705 166.513 381.183 166.504 378.666 166.521L378.222 166.524L378.22 166.075L378.166 153.442L378.164 152.94L378.666 152.942L393.614 153.005C398.597 153.01 403.58 153.117 408.562 153.169L408.837 153.172L408.835 153.442C408.816 155.581 408.749 157.71 408.704 159.817L408.563 166.075ZM408.563 166.075L408.421 159.7C408.376 157.596 408.309 155.514 408.29 153.442L408.563 153.715C403.58 153.766 398.598 153.874 393.615 153.879L378.667 153.942L379.166 153.443L379.112 166.076L378.666 165.63C381.132 165.648 383.593 165.638 386.066 165.685L393.499 165.797L408.563 166.075Z" fill="#EBEBEB"/>
<path d="M355.375 122.946L361.262 113.455L358.355 111.655C357.5 111.125 357.037 110.159 357.123 109.157C357.17 108.603 357.188 108.046 357.176 107.487C357.154 106.484 357.678 105.551 358.562 105.077L361.575 103.461L356.295 93.6158L353.283 95.2318C352.399 95.7058 351.332 95.6258 350.509 95.0528C350.05 94.7338 349.576 94.4398 349.089 94.1728C348.207 93.6898 347.658 92.7688 347.69 91.7648L347.798 88.3468L336.635 87.9998L336.532 91.4298C336.502 92.4358 335.885 93.3108 334.975 93.7408C334.728 93.8578 334.483 93.9808 334.241 94.1108C333.998 94.2408 333.76 94.3768 333.527 94.5178C332.67 95.0358 331.605 95.0658 330.754 94.5388L327.826 92.7248L321.939 102.216L324.851 104.023C325.705 104.554 326.168 105.521 326.081 106.523C326.033 107.074 326.015 107.63 326.026 108.186C326.047 109.187 325.523 110.12 324.64 110.593L321.626 112.209L326.906 122.054L329.92 120.438C330.803 119.964 331.869 120.044 332.692 120.615C333.149 120.932 333.622 121.224 334.108 121.489C334.991 121.971 335.541 122.892 335.51 123.897L335.405 127.323L346.568 127.67L346.675 124.243C346.706 123.241 347.321 122.369 348.227 121.94C348.475 121.823 348.722 121.698 348.967 121.567C349.209 121.437 349.448 121.301 349.682 121.16C350.544 120.64 351.613 120.61 352.469 121.141L355.375 122.946ZM345.924 115.898C341.472 118.286 335.932 116.613 333.544 112.161C331.156 107.709 332.824 102.161 337.277 99.7728C341.729 97.3848 347.281 99.0608 349.669 103.513C352.056 107.966 350.376 113.511 345.924 115.898Z" fill="#EBEBEB"/>
<path d="M56.156 121.51L62.043 112.019L59.136 110.218C58.281 109.688 57.818 108.722 57.904 107.72C57.952 107.166 57.969 106.609 57.957 106.05C57.935 105.047 58.459 104.114 59.343 103.64L62.356 102.024L57.076 92.179L54.064 93.795C53.18 94.269 52.113 94.189 51.29 93.616C50.831 93.297 50.357 93.003 49.87 92.736C48.988 92.253 48.439 91.332 48.471 90.328L48.579 86.91L37.416 86.563L37.313 89.993C37.283 90.999 36.666 91.874 35.756 92.304C35.509 92.42 35.264 92.544 35.022 92.674C34.779 92.804 34.541 92.94 34.308 93.081C33.451 93.599 32.386 93.629 31.535 93.102L28.607 91.288L22.72 100.779L25.632 102.586C26.486 103.117 26.949 104.084 26.862 105.086C26.814 105.638 26.796 106.193 26.807 106.749C26.828 107.75 26.304 108.683 25.421 109.156L22.407 110.772L27.687 120.617L30.701 119.001C31.584 118.527 32.65 118.607 33.473 119.178C33.93 119.495 34.403 119.787 34.889 120.052C35.772 120.534 36.322 121.455 36.291 122.46L36.186 125.886L47.349 126.233L47.456 122.806C47.487 121.804 48.102 120.932 49.008 120.504C49.256 120.387 49.503 120.262 49.748 120.131C49.991 120.001 50.229 119.865 50.463 119.724C51.325 119.204 52.394 119.174 53.25 119.705L56.156 121.51ZM46.704 114.462C42.252 116.85 36.712 115.177 34.324 110.725C31.936 106.273 33.604 100.725 38.057 98.337C42.509 95.949 48.061 97.625 50.449 102.077C52.837 106.53 51.156 112.074 46.704 114.462Z" fill="#EBEBEB"/>
<path d="M204.626 303.115C286.948 303.115 353.683 293.68 353.683 282.04C353.683 270.401 286.948 260.965 204.626 260.965C122.304 260.965 55.5691 270.401 55.5691 282.04C55.5691 293.68 122.304 303.115 204.626 303.115Z" fill="#EBEBEB"/>
<path d="M225.227 146.845H189.715V149.754H225.227V146.845Z" fill="#37474F"/>
<path d="M225.227 150.634H189.715V153.543H225.227V150.634Z" fill="#37474F"/>
<path d="M225.227 154.424H189.715V157.333H225.227V154.424Z" fill="#37474F"/>
<path d="M225.227 158.213H189.715V161.122H225.227V158.213Z" fill="#37474F"/>
<path d="M225.227 162.002H189.715V164.911H225.227V162.002Z" fill="#37474F"/>
<path d="M240.6 237.594H173.084V240.503H240.6V237.594Z" fill="#37474F"/>
<path d="M240.6 241.383H173.084V244.292H240.6V241.383Z" fill="#37474F"/>
<path d="M240.6 245.172H173.084V248.081H240.6V245.172Z" fill="#37474F"/>
<path d="M240.6 248.961H173.084V251.87H240.6V248.961Z" fill="#37474F"/>
<path d="M240.6 252.751H173.084V255.66H240.6V252.751Z" fill="#37474F"/>
<path d="M143.46 122.798C143.493 122.405 128.683 117.444 128.683 117.444L129.558 66.558L149.197 62.344L143.46 122.798Z" fill="#E84C4F"/>
<path opacity="0.2" d="M143.46 122.798C143.493 122.405 128.683 117.444 128.683 117.444L129.558 66.558L149.197 62.344L143.46 122.798Z" fill="black"/>
<path d="M279.115 142.772C279.219 142.391 294.833 142.83 294.833 142.83L311.523 94.7511L294.534 84.0361L279.115 142.772Z" fill="#E84C4F"/>
<path opacity="0.2" d="M279.115 142.772C279.219 142.391 294.833 142.83 294.833 142.83L311.523 94.7511L294.534 84.0361L279.115 142.772Z" fill="black"/>
<path d="M140.609 141.536C140.609 141.536 146.1 59.238 150.916 32.165C150.916 32.165 250.333 39.6841 304.002 60.1971C304.002 60.1971 276.333 156.325 274.901 161.095C274.901 161.095 204.893 147.304 140.609 141.536Z" fill="#E84C4F"/>
<path opacity="0.1" d="M229.348 43.155C227.732 53.064 226.096 62.97 224.403 72.866L219.279 102.545L219.003 102.126L252.314 110.039L268.952 114.071L285.571 118.183L268.864 114.444L252.176 110.626L218.835 102.838L218.498 102.759L218.559 102.418L223.864 72.771C225.647 62.891 227.488 53.021 229.348 43.155Z" fill="black"/>
<path opacity="0.1" d="M225.693 48.8029C225.711 49.7109 224.987 50.6439 223.947 50.7349C223.443 50.7829 222.895 50.6219 222.485 50.2649C222.075 49.9079 221.83 49.3579 221.827 48.8029C221.83 48.2479 222.073 47.6969 222.484 47.3399C222.893 46.9799 223.443 46.8219 223.947 46.8689C224.988 46.9599 225.711 47.8949 225.693 48.8029ZM225.693 48.8029C225.689 48.3449 225.486 47.8949 225.145 47.6059C224.803 47.3169 224.355 47.1989 223.948 47.2459C223.109 47.3429 222.565 48.0959 222.577 48.8029C222.564 49.5099 223.107 50.2669 223.948 50.3619C224.355 50.4079 224.804 50.2899 225.146 50.0009C225.486 49.7109 225.689 49.2609 225.693 48.8029Z" fill="black"/>
<path opacity="0.1" d="M223.947 61.048C223.965 61.956 223.241 62.89 222.201 62.98C221.697 63.028 221.149 62.867 220.739 62.51C220.329 62.153 220.084 61.603 220.081 61.048C220.084 60.493 220.327 59.9421 220.738 59.5851C221.147 59.2251 221.697 59.067 222.201 59.114C223.243 59.206 223.966 60.141 223.947 61.048ZM223.947 61.048C223.943 60.59 223.74 60.14 223.399 59.851C223.057 59.562 222.609 59.444 222.202 59.491C221.363 59.588 220.819 60.341 220.831 61.048C220.818 61.755 221.361 62.512 222.202 62.607C222.609 62.653 223.058 62.535 223.4 62.245C223.741 61.957 223.943 61.506 223.947 61.048Z" fill="black"/>
<path opacity="0.1" d="M221.797 73.987C221.815 74.895 221.091 75.829 220.051 75.919C219.547 75.967 218.999 75.807 218.589 75.449C218.179 75.092 217.934 74.542 217.931 73.987C217.934 73.432 218.177 72.881 218.588 72.524C218.997 72.164 219.547 72.006 220.051 72.053C221.093 72.145 221.816 73.079 221.797 73.987ZM221.797 73.987C221.793 73.529 221.59 73.079 221.249 72.79C220.907 72.501 220.459 72.383 220.052 72.43C219.213 72.527 218.669 73.28 218.681 73.987C218.668 74.694 219.211 75.451 220.052 75.546C220.459 75.593 220.908 75.474 221.25 75.185C221.59 74.895 221.793 74.445 221.797 73.987Z" fill="black"/>
<path opacity="0.1" d="M219.647 86.926C219.666 87.834 218.941 88.767 217.901 88.858C217.397 88.905 216.849 88.745 216.439 88.388C216.029 88.031 215.784 87.481 215.781 86.926C215.783 86.371 216.028 85.82 216.438 85.463C216.847 85.103 217.397 84.945 217.901 84.992C218.943 85.083 219.666 86.018 219.647 86.926ZM219.647 86.926C219.643 86.468 219.44 86.018 219.098 85.729C218.756 85.44 218.308 85.322 217.901 85.369C217.062 85.466 216.518 86.219 216.53 86.926C216.517 87.633 217.06 88.39 217.901 88.485C218.308 88.531 218.757 88.413 219.099 88.124C219.44 87.834 219.643 87.384 219.647 86.926Z" fill="black"/>
<path opacity="0.1" d="M226.973 107.561C226.992 108.469 226.267 109.402 225.227 109.493C224.723 109.54 224.175 109.38 223.765 109.023C223.355 108.666 223.11 108.116 223.107 107.561C223.109 107.006 223.353 106.455 223.764 106.098C224.173 105.738 224.723 105.58 225.227 105.627C226.268 105.718 226.991 106.653 226.973 107.561ZM226.973 107.561C226.969 107.103 226.766 106.653 226.424 106.364C226.082 106.075 225.634 105.957 225.227 106.004C224.388 106.101 223.844 106.854 223.856 107.561C223.843 108.268 224.386 109.025 225.227 109.12C225.634 109.167 226.083 109.048 226.425 108.758C226.766 108.469 226.968 108.019 226.973 107.561Z" fill="black"/>
<path opacity="0.1" d="M239.186 110.54C239.205 111.448 238.48 112.382 237.44 112.472C236.936 112.519 236.388 112.359 235.978 112.002C235.568 111.645 235.323 111.095 235.32 110.54C235.323 109.985 235.567 109.434 235.977 109.077C236.386 108.717 236.936 108.559 237.44 108.606C238.482 108.698 239.205 109.632 239.186 110.54ZM239.186 110.54C239.182 110.082 238.979 109.632 238.638 109.343C238.296 109.054 237.848 108.936 237.441 108.983C236.602 109.08 236.058 109.833 236.07 110.54C236.057 111.247 236.6 112.004 237.441 112.099C237.848 112.145 238.297 112.027 238.639 111.737C238.979 111.448 239.182 110.998 239.186 110.54Z" fill="black"/>
<path opacity="0.1" d="M251.4 113.52C251.418 114.428 250.694 115.361 249.654 115.452C249.15 115.499 248.602 115.339 248.192 114.982C247.782 114.625 247.537 114.075 247.534 113.52C247.537 112.965 247.78 112.414 248.191 112.057C248.6 111.697 249.15 111.539 249.654 111.586C250.695 111.677 251.418 112.612 251.4 113.52ZM251.4 113.52C251.396 113.062 251.193 112.612 250.852 112.323C250.51 112.034 250.062 111.916 249.655 111.963C248.816 112.06 248.272 112.813 248.284 113.52C248.271 114.227 248.814 114.984 249.655 115.079C250.062 115.125 250.511 115.007 250.853 114.717C251.193 114.428 251.395 113.977 251.4 113.52Z" fill="black"/>
<path opacity="0.1" d="M263.613 116.499C263.632 117.407 262.907 118.34 261.867 118.431C261.363 118.478 260.815 118.319 260.405 117.961C259.995 117.604 259.75 117.054 259.747 116.499C259.75 115.944 259.993 115.393 260.404 115.036C260.813 114.676 261.363 114.518 261.867 114.565C262.909 114.656 263.631 115.591 263.613 116.499ZM263.613 116.499C263.609 116.041 263.406 115.591 263.065 115.302C262.723 115.013 262.275 114.895 261.868 114.942C261.029 115.039 260.485 115.792 260.497 116.499C260.484 117.206 261.027 117.963 261.868 118.058C262.275 118.104 262.724 117.986 263.066 117.697C263.406 117.407 263.609 116.957 263.613 116.499Z" fill="black"/>
<path opacity="0.1" d="M275.821 119.612C275.77 120.519 274.976 121.394 273.932 121.404C273.426 121.413 272.892 121.211 272.51 120.823C272.128 120.435 271.926 119.869 271.966 119.315C272.011 118.762 272.297 118.232 272.734 117.907C273.17 117.58 273.73 117.464 274.229 117.55C275.261 117.721 275.909 118.709 275.821 119.612ZM275.821 119.612C275.852 119.155 275.684 118.691 275.366 118.376C275.047 118.061 274.609 117.909 274.2 117.925C273.356 117.957 272.755 118.666 272.713 119.372C272.645 120.076 273.129 120.872 273.96 121.032C274.362 121.11 274.819 121.027 275.182 120.764C275.545 120.502 275.782 120.069 275.821 119.612Z" fill="black"/>
<path opacity="0.1" d="M217.497 99.865C217.515 100.773 216.791 101.707 215.751 101.797C215.247 101.845 214.699 101.685 214.289 101.327C213.879 100.97 213.634 100.42 213.631 99.865C213.634 99.31 213.878 98.759 214.288 98.402C214.697 98.042 215.247 97.883 215.751 97.931C216.793 98.022 217.516 98.957 217.497 99.865ZM217.497 99.865C217.493 99.407 217.29 98.957 216.948 98.668C216.606 98.379 216.158 98.261 215.751 98.308C214.912 98.405 214.368 99.158 214.38 99.865C214.367 100.572 214.91 101.329 215.751 101.424C216.158 101.47 216.607 101.352 216.948 101.062C217.291 100.773 217.493 100.323 217.497 99.865Z" fill="black"/>
<path opacity="0.2" d="M196.929 121.304C208.523 110.879 209.471 93.03 199.046 81.4362C188.622 69.8423 170.772 68.8943 159.179 79.3188C147.585 89.7434 146.637 107.593 157.061 119.187C167.486 130.781 185.335 131.729 196.929 121.304Z" fill="black"/>
<path d="M199.219 108.327C203.646 96.6332 197.754 83.5649 186.06 79.1384C174.366 74.7119 161.298 80.6033 156.872 92.2973C152.445 103.991 158.337 117.06 170.031 121.486C181.725 125.913 194.793 120.021 199.219 108.327Z" fill="#263238"/>
<path d="M176.689 91.988L171.396 91.1306L170.539 96.4234L175.832 97.2808L176.689 91.988Z" fill="#E84C4F"/>
<path d="M172.253 85.8381L166.96 84.9807L166.103 90.2735L171.396 91.1309L172.253 85.8381Z" fill="#E84C4F"/>
<path d="M193.425 89.2675L188.132 88.4102L187.274 93.703L192.567 94.5604L193.425 89.2675Z" fill="#E84C4F"/>
<path d="M168.843 106.889L163.55 106.032L162.693 111.325L167.985 112.182L168.843 106.889Z" fill="#E84C4F"/>
<path d="M190.014 110.319L184.721 109.461L183.864 114.754L189.157 115.612L190.014 110.319Z" fill="#E84C4F"/>
<path d="M174.994 102.455L169.701 101.597L168.843 106.89L174.136 107.747L174.994 102.455Z" fill="#E84C4F"/>
<path d="M181.134 98.0786L175.841 97.2212L174.984 102.514L180.277 103.371L181.134 98.0786Z" fill="#E84C4F"/>
<path d="M187.275 93.7026L181.982 92.8452L181.125 98.138L186.418 98.9954L187.275 93.7026Z" fill="#E84C4F"/>
<path d="M185.585 104.166L180.292 103.309L179.435 108.601L184.727 109.459L185.585 104.166Z" fill="#E84C4F"/>
<path d="M275.654 130.021C285.536 117.961 283.77 100.173 271.71 90.2912C259.65 80.4093 241.862 82.175 231.981 94.2351C222.099 106.295 223.864 124.083 235.924 133.965C247.985 143.847 265.772 142.081 275.654 130.021Z" fill="#E84C4F"/>
<path opacity="0.2" d="M275.654 130.021C285.536 117.961 283.77 100.173 271.71 90.2912C259.65 80.4093 241.862 82.175 231.981 94.2351C222.099 106.295 223.864 124.083 235.924 133.965C247.985 143.847 265.772 142.081 275.654 130.021Z" fill="black"/>
<path opacity="0.2" d="M281.286 118.672C281.156 119.228 281.008 119.765 280.841 120.302L225.813 108.565C225.943 107.583 226.119 106.601 226.35 105.61C229.954 90.445 245.174 81.07 260.349 84.673C275.515 88.277 284.89 103.497 281.286 118.672Z" fill="black"/>
<path d="M262.541 133.035C274.079 128.215 279.524 114.954 274.704 103.416C269.884 91.8786 256.623 86.4332 245.085 91.2536C233.547 96.074 228.102 109.335 232.922 120.873C237.743 132.41 251.003 137.856 262.541 133.035Z" fill="#263238"/>
<path d="M259.517 99.7705L254.3 98.5308L248.129 124.496L253.346 125.736L259.517 99.7705Z" fill="#E84C4F"/>
<path d="M282.924 118.141L225.123 104.404C228.916 88.4461 244.932 78.5861 260.89 82.3781C276.849 86.1721 286.717 102.183 282.924 118.141Z" fill="#E84C4F"/>
<path opacity="0.2" d="M282.924 118.141L225.123 104.404C228.916 88.4461 244.932 78.5861 260.89 82.3781C276.849 86.1721 286.717 102.183 282.924 118.141Z" fill="black"/>
<path opacity="0.1" d="M204.697 128.922C204.843 126.665 205.672 124.376 207.309 122.566C208.116 121.654 209.193 120.938 210.379 120.502C211.571 120.064 212.859 119.987 214.08 120.091C215.323 120.236 216.592 120.674 217.628 121.458C218.644 122.258 219.423 123.301 219.881 124.424C220.824 126.662 220.927 129.054 220.47 131.272C220.094 129.055 219.521 126.902 218.48 125.135C217.447 123.354 215.813 122.247 213.866 122.075C211.88 121.828 209.942 122.361 208.381 123.68C206.82 124.995 205.628 126.878 204.697 128.922Z" fill="black"/>
<path d="M148.342 71.34C148.576 68.324 148.915 65.322 149.201 62.313C149.522 59.309 149.852 56.306 150.217 53.309C150.564 50.309 150.955 47.315 151.339 44.319C151.715 41.323 152.149 38.335 152.551 35.342L152.658 34.543L153.468 34.594C159.982 35.004 166.482 35.53 172.973 36.198C176.218 36.531 179.459 36.908 182.696 37.324C185.927 37.788 189.163 38.216 192.375 38.804L172.858 37.596L153.361 36.335L154.278 35.587C153.835 38.574 153.423 41.565 152.954 44.548C152.492 47.532 152.037 50.517 151.539 53.496C151.059 56.477 150.544 59.454 150.019 62.429C149.46 65.399 148.953 68.377 148.342 71.34Z" fill="white"/>
<path d="M153.037 94.1559C153.692 90.5299 155.34 87.0749 157.554 84.0659C158.105 83.3089 158.732 82.6099 159.335 81.8899C159.988 81.2159 160.667 80.5639 161.337 79.9029C162.068 79.3089 162.806 78.7199 163.556 78.1489C164.353 77.6439 165.14 77.1169 165.95 76.6319C166.803 76.2219 167.651 75.7999 168.512 75.4099L171.194 74.4819L173.97 73.9089C174.902 73.7729 175.849 73.7439 176.784 73.6739C180.548 73.5769 184.253 74.3799 187.653 75.7569C184.034 75.0789 180.428 74.7029 176.873 75.0419C173.327 75.3719 169.881 76.4319 166.8 78.1679C163.695 79.8629 160.945 82.2009 158.622 84.9169C156.309 87.6469 154.394 90.7389 153.037 94.1559Z" fill="white"/>
<path d="M230.913 101.782C232.063 98.281 234.172 95.087 236.78 92.412C237.43 91.739 238.148 91.133 238.845 90.503C239.584 89.926 240.347 89.374 241.102 88.811C241.908 88.323 242.72 87.842 243.542 87.38C244.401 86.99 245.253 86.576 246.123 86.208C247.025 85.92 247.923 85.619 248.829 85.352L251.614 84.803L254.443 84.619C255.385 84.612 256.326 84.715 257.262 84.774C261.004 85.198 264.561 86.505 267.739 88.338C264.248 87.167 260.729 86.296 257.161 86.142C253.603 85.98 250.044 86.554 246.753 87.848C243.444 89.098 240.397 91.034 237.721 93.403C235.051 95.788 232.728 98.585 230.913 101.782Z" fill="white"/>
<path d="M143.767 192.252C136.535 192.252 120.703 190.626 110.515 177.527C97.4811 160.769 102.192 128.613 102.398 127.252L108.057 128.111C108.01 128.42 103.513 159.201 115.033 174.013C126.296 188.494 146.725 186.415 146.93 186.39L147.574 192.077C147.351 192.104 145.95 192.252 143.767 192.252Z" fill="#E84C4F"/>
<path opacity="0.4" d="M143.767 192.252C136.535 192.252 120.703 190.626 110.515 177.527C97.4811 160.769 102.192 128.613 102.398 127.252L108.057 128.111C108.01 128.42 103.513 159.201 115.033 174.013C126.296 188.494 146.725 186.415 146.93 186.39L147.574 192.077C147.351 192.104 145.95 192.252 143.767 192.252Z" fill="white"/>
<path d="M109.723 132.005C108.691 132.005 107.637 131.919 106.564 131.745C97.0181 130.199 92.792 124.487 90.927 119.967C89.058 115.437 88.626 109.957 89.643 103.681L101.749 105.643C101.119 109.531 101.302 112.958 102.264 115.29C102.95 116.954 104.282 118.952 108.525 119.639C110.463 119.953 112.558 119.787 114.752 116.478C116.445 113.924 117.463 110.448 117.819 108.246L129.925 110.207C129.645 111.939 128.458 117.999 124.973 123.255C121.183 128.972 115.848 132.005 109.723 132.005Z" fill="#E84C4F"/>
<path d="M155.726 208.633C155.705 208.372 145.47 206.737 145.47 206.737L140.502 173.332L152.899 168.435L155.726 208.633Z" fill="#E84C4F"/>
<path opacity="0.2" d="M155.726 208.633C155.705 208.372 145.47 206.737 145.47 206.737L140.502 173.332L152.899 168.435L155.726 208.633Z" fill="black"/>
<path d="M256.922 208.695C256.949 208.435 267.218 207.026 267.218 207.026L272.923 173.739L260.637 168.569L256.922 208.695Z" fill="#E84C4F"/>
<path opacity="0.2" d="M256.922 208.695C256.949 208.435 267.218 207.026 267.218 207.026L272.923 173.739L260.637 168.569L256.922 208.695Z" fill="black"/>
<path d="M151.467 160.955C151.467 160.955 234.253 157.415 262.218 162.076C262.218 162.076 254.006 242.182 253.562 243.736C253.562 243.736 171.211 243.514 158.338 243.736C158.338 243.736 151.361 190.469 151.467 160.955Z" fill="#E84C4F"/>
<path opacity="0.2" d="M176.613 182.906C176.613 182.906 221.806 181.121 237.073 183.471C237.073 183.471 232.59 223.865 232.348 224.648C232.348 224.648 187.392 224.536 180.365 224.648C180.363 224.648 177.275 197.002 176.613 182.906Z" fill="black"/>
<path opacity="0.2" d="M182.79 224.631C181.755 224.631 180.935 224.644 180.361 224.651C180.361 224.651 177.277 197 176.61 182.904C176.61 182.904 177.638 182.864 179.433 182.804L182.79 224.631Z" fill="black"/>
<path d="M196.12 192.873C193.587 192.075 190.888 193.481 190.09 196.012C189.291 198.548 190.699 201.244 193.232 202.042C195.763 202.84 198.459 201.435 199.257 198.902C200.055 196.372 198.651 193.671 196.12 192.873ZM198.7 198.726C197.999 200.952 195.63 202.186 193.407 201.485C191.184 200.784 189.949 198.416 190.651 196.19C191.352 193.967 193.721 192.732 195.946 193.434C198.166 194.134 199.401 196.503 198.7 198.726ZM196.12 192.873C193.587 192.075 190.888 193.481 190.09 196.012C189.291 198.548 190.699 201.244 193.232 202.042C195.763 202.84 198.459 201.435 199.257 198.902C200.055 196.372 198.651 193.671 196.12 192.873ZM198.7 198.726C197.999 200.952 195.63 202.186 193.407 201.485C191.184 200.784 189.949 198.416 190.651 196.19C191.352 193.967 193.721 192.732 195.946 193.434C198.166 194.134 199.401 196.503 198.7 198.726ZM196.12 192.873C193.587 192.075 190.888 193.481 190.09 196.012C189.291 198.548 190.699 201.244 193.232 202.042C195.763 202.84 198.459 201.435 199.257 198.902C200.055 196.372 198.651 193.671 196.12 192.873ZM198.7 198.726C197.999 200.952 195.63 202.186 193.407 201.485C191.184 200.784 189.949 198.416 190.651 196.19C191.352 193.967 193.721 192.732 195.946 193.434C198.166 194.134 199.401 196.503 198.7 198.726ZM197.722 187.795C192.381 186.113 186.694 189.08 185.011 194.413C183.33 199.749 186.291 205.44 191.63 207.121C196.963 208.801 202.655 205.838 204.336 200.502C206.019 195.169 203.056 189.475 197.722 187.795ZM199.972 199.126C199.051 202.049 195.927 203.677 193.007 202.756C190.087 201.836 188.459 198.712 189.379 195.789C190.3 192.866 193.426 191.241 196.346 192.161C199.264 193.082 200.892 196.206 199.972 199.126ZM199.257 198.903C200.055 196.372 198.651 193.672 196.12 192.874C193.587 192.076 190.888 193.482 190.09 196.013C189.291 198.549 190.699 201.245 193.232 202.043C195.763 202.841 198.459 201.436 199.257 198.903ZM198.7 198.726C197.999 200.952 195.63 202.186 193.407 201.485C191.184 200.784 189.949 198.416 190.651 196.19C191.352 193.967 193.721 192.732 195.946 193.434C198.166 194.134 199.401 196.503 198.7 198.726ZM196.12 192.873C193.587 192.075 190.888 193.481 190.09 196.012C189.291 198.548 190.699 201.244 193.232 202.042C195.763 202.84 198.459 201.435 199.257 198.902C200.055 196.372 198.651 193.671 196.12 192.873ZM198.7 198.726C197.999 200.952 195.63 202.186 193.407 201.485C191.184 200.784 189.949 198.416 190.651 196.19C191.352 193.967 193.721 192.732 195.946 193.434C198.166 194.134 199.401 196.503 198.7 198.726ZM196.12 192.873C193.587 192.075 190.888 193.481 190.09 196.012C189.291 198.548 190.699 201.244 193.232 202.042C195.763 202.84 198.459 201.435 199.257 198.902C200.055 196.372 198.651 193.671 196.12 192.873ZM198.7 198.726C197.999 200.952 195.63 202.186 193.407 201.485C191.184 200.784 189.949 198.416 190.651 196.19C191.352 193.967 193.721 192.732 195.946 193.434C198.166 194.134 199.401 196.503 198.7 198.726Z" fill="#E84C4F"/>
<path d="M193.614 207.305L189.899 206.134L189.275 208.829L192.58 209.87L193.614 207.305Z" fill="#E84C4F"/>
<path d="M186.937 203.825L185.137 200.37L182.791 201.835L184.391 204.908L186.937 203.825Z" fill="#E84C4F"/>
<path d="M184.676 196.642L185.846 192.927L183.152 192.304L182.11 195.608L184.676 196.642Z" fill="#E84C4F"/>
<path d="M188.156 189.965L191.611 188.166L190.146 185.819L187.073 187.42L188.156 189.965Z" fill="#E84C4F"/>
<path d="M195.338 187.704L199.054 188.875L199.677 186.18L196.373 185.139L195.338 187.704Z" fill="#E84C4F"/>
<path d="M202.016 191.184L203.815 194.639L206.162 193.175L204.561 190.102L202.016 191.184Z" fill="#E84C4F"/>
<path d="M204.277 198.367L203.106 202.082L205.801 202.706L206.842 199.401L204.277 198.367Z" fill="#E84C4F"/>
<path d="M200.797 205.044L197.341 206.844L198.806 209.19L201.879 207.59L200.797 205.044Z" fill="#E84C4F"/>
<path d="M212.461 207.012C210.963 206.036 208.958 206.461 207.983 207.957C207.006 209.457 207.432 211.46 208.93 212.436C210.427 213.411 212.429 212.987 213.405 211.489C214.38 209.993 213.958 207.987 212.461 207.012ZM213.076 211.274C212.219 212.591 210.459 212.963 209.144 212.106C207.829 211.25 207.457 209.49 208.314 208.174C209.17 206.859 210.93 206.487 212.246 207.344C213.56 208.2 213.932 209.959 213.076 211.274ZM212.461 207.012C210.963 206.036 208.958 206.461 207.983 207.957C207.006 209.457 207.432 211.46 208.93 212.436C210.427 213.411 212.429 212.987 213.405 211.489C214.38 209.993 213.958 207.987 212.461 207.012ZM213.076 211.274C212.219 212.591 210.459 212.963 209.144 212.106C207.829 211.25 207.457 209.49 208.314 208.174C209.17 206.859 210.93 206.487 212.246 207.344C213.56 208.2 213.932 209.959 213.076 211.274ZM212.461 207.012C210.963 206.036 208.958 206.461 207.983 207.957C207.006 209.457 207.432 211.46 208.93 212.436C210.427 213.411 212.429 212.987 213.405 211.489C214.38 209.993 213.958 207.987 212.461 207.012ZM213.076 211.274C212.219 212.591 210.459 212.963 209.144 212.106C207.829 211.25 207.457 209.49 208.314 208.174C209.17 206.859 210.93 206.487 212.246 207.344C213.56 208.2 213.932 209.959 213.076 211.274ZM214.418 204.009C211.258 201.953 207.034 202.848 204.978 206.003C202.923 209.16 203.814 213.386 206.972 215.441C210.127 217.495 214.354 216.602 216.409 213.446C218.465 210.291 217.573 206.063 214.418 204.009ZM213.828 211.764C212.702 213.493 210.382 213.984 208.655 212.859C206.928 211.734 206.436 209.414 207.562 207.685C208.688 205.956 211.009 205.467 212.736 206.592C214.462 207.716 214.953 210.036 213.828 211.764ZM213.405 211.489C214.38 209.992 213.958 207.988 212.461 207.013C210.963 206.037 208.958 206.462 207.983 207.958C207.006 209.458 207.432 211.461 208.93 212.437C210.427 213.412 212.429 212.987 213.405 211.489ZM213.076 211.274C212.219 212.591 210.459 212.963 209.144 212.106C207.829 211.25 207.457 209.49 208.314 208.174C209.17 206.859 210.93 206.487 212.246 207.344C213.56 208.2 213.932 209.959 213.076 211.274ZM212.461 207.012C210.963 206.036 208.958 206.461 207.983 207.957C207.006 209.457 207.432 211.46 208.93 212.436C210.427 213.411 212.429 212.987 213.405 211.489C214.38 209.993 213.958 207.987 212.461 207.012ZM213.076 211.274C212.219 212.591 210.459 212.963 209.144 212.106C207.829 211.25 207.457 209.49 208.314 208.174C209.17 206.859 210.93 206.487 212.246 207.344C213.56 208.2 213.932 209.959 213.076 211.274ZM212.461 207.012C210.963 206.036 208.958 206.461 207.983 207.957C207.006 209.457 207.432 211.46 208.93 212.436C210.427 213.411 212.429 212.987 213.405 211.489C214.38 209.993 213.958 207.987 212.461 207.012ZM213.076 211.274C212.219 212.591 210.459 212.963 209.144 212.106C207.829 211.25 207.457 209.49 208.314 208.174C209.17 206.859 210.93 206.487 212.246 207.344C213.56 208.2 213.932 209.959 213.076 211.274Z" fill="#DBDBDB"/>
<path d="M208.226 215.918L206.028 214.487L205.137 216.122L207.092 217.395L208.226 215.918Z" fill="#DBDBDB"/>
<path d="M204.525 212.454L203.983 209.888L202.196 210.414L202.679 212.696L204.525 212.454Z" fill="#DBDBDB"/>
<path d="M204.358 207.387L205.789 205.189L204.154 204.298L202.881 206.253L204.358 207.387Z" fill="#DBDBDB"/>
<path d="M207.822 203.686L210.388 203.144L209.862 201.358L207.58 201.84L207.822 203.686Z" fill="#DBDBDB"/>
<path d="M212.889 203.519L215.086 204.95L215.978 203.315L214.023 202.042L212.889 203.519Z" fill="#DBDBDB"/>
<path d="M216.59 206.983L217.132 209.549L218.918 209.023L218.436 206.741L216.59 206.983Z" fill="#DBDBDB"/>
<path d="M216.757 212.05L215.326 214.248L216.961 215.139L218.234 213.184L216.757 212.05Z" fill="#DBDBDB"/>
<path d="M213.293 215.751L210.727 216.293L211.252 218.079L213.535 217.597L213.293 215.751Z" fill="#DBDBDB"/>
<path d="M260.22 234.414L263.402 235.006L272.501 173.379L268.876 172.713L260.22 234.414Z" fill="#E84C4F"/>
<path d="M232.347 224.648L237.072 183.471L268.876 172.713C268.876 172.713 260.22 235.08 260.22 234.414L232.347 224.648Z" fill="#E84C4F"/>
<path opacity="0.4" d="M232.347 224.648L237.072 183.471L268.876 172.713C268.876 172.713 260.22 235.08 260.22 234.414L232.347 224.648Z" fill="white"/>
<path d="M155.266 185.139C154.748 181.728 154.468 178.289 154.255 174.847C154.157 173.125 154.113 171.401 154.075 169.677C154.041 167.953 154.011 166.227 154.062 164.502L154.076 164.049L154.517 164.025C160.835 163.686 167.149 163.271 173.471 162.995C179.791 162.683 186.111 162.4 192.436 162.202C186.131 162.773 179.823 163.259 173.513 163.717C167.205 164.21 160.89 164.564 154.579 164.994L155.033 164.517L155.007 169.667L155.067 174.819C155.076 176.538 155.107 178.256 155.157 179.975L155.266 185.139Z" fill="white"/>
<path d="M241.508 184.075C243.478 183.139 245.479 182.269 247.504 181.466C249.523 180.644 251.56 179.866 253.621 179.152C255.685 178.447 257.756 177.757 259.862 177.172C261.964 176.58 264.086 176.033 266.254 175.678L266.787 175.591L266.692 176.1C266.193 178.766 265.671 181.428 265.054 184.075C265.285 181.367 265.611 178.673 265.96 175.984L266.398 176.406C264.297 176.907 262.213 177.493 260.135 178.107C258.059 178.728 255.989 179.382 253.925 180.054L241.508 184.075Z" fill="white"/>
<path opacity="0.1" d="M169.029 161.122L169.565 171.421L170.023 181.723L170.817 202.331L171.438 222.945L171.686 233.254L171.856 243.566L171.319 233.267L170.861 222.965L170.068 202.357L169.449 181.743L169.2 171.434L169.029 161.122Z" fill="black"/>
<path opacity="0.1" d="M166.079 167.33C166.277 168.217 165.751 169.275 164.75 169.569C164.265 169.715 163.697 169.667 163.224 169.397C162.751 169.128 162.402 168.638 162.29 168.094C162.183 167.549 162.313 166.961 162.645 166.53C162.975 166.097 163.483 165.832 163.986 165.779C165.024 165.663 165.918 166.437 166.079 167.33ZM166.079 167.33C165.984 166.882 165.696 166.481 165.305 166.265C164.913 166.049 164.45 166.022 164.06 166.149C163.257 166.41 162.872 167.255 163.024 167.947C163.151 168.642 163.833 169.277 164.676 169.204C165.084 169.169 165.501 168.965 165.778 168.613C166.056 168.262 166.165 167.78 166.079 167.33Z" fill="black"/>
<path opacity="0.1" d="M166.788 179.679C166.986 180.566 166.46 181.624 165.459 181.918C164.974 182.064 164.406 182.016 163.933 181.746C163.46 181.477 163.111 180.987 162.999 180.443C162.892 179.898 163.022 179.31 163.354 178.879C163.684 178.446 164.192 178.181 164.695 178.128C165.733 178.012 166.627 178.786 166.788 179.679ZM166.788 179.679C166.693 179.231 166.405 178.83 166.014 178.614C165.622 178.398 165.159 178.371 164.769 178.498C163.966 178.759 163.581 179.605 163.733 180.296C163.86 180.991 164.542 181.626 165.385 181.553C165.793 181.518 166.21 181.313 166.488 180.962C166.765 180.611 166.875 180.129 166.788 179.679Z" fill="black"/>
<path opacity="0.1" d="M167.238 192.788C167.436 193.675 166.91 194.733 165.909 195.027C165.424 195.173 164.856 195.125 164.383 194.855C163.91 194.586 163.561 194.096 163.449 193.552C163.342 193.008 163.472 192.419 163.804 191.988C164.134 191.554 164.642 191.29 165.145 191.237C166.183 191.121 167.077 191.895 167.238 192.788ZM167.238 192.788C167.143 192.34 166.855 191.939 166.464 191.723C166.072 191.507 165.609 191.48 165.219 191.607C164.416 191.868 164.031 192.713 164.183 193.404C164.31 194.1 164.992 194.734 165.835 194.661C166.243 194.626 166.66 194.422 166.937 194.07C167.215 193.719 167.324 193.238 167.238 192.788Z" fill="black"/>
<path opacity="0.1" d="M167.688 205.896C167.886 206.783 167.36 207.841 166.359 208.135C165.874 208.281 165.306 208.233 164.833 207.963C164.36 207.694 164.011 207.204 163.899 206.66C163.792 206.115 163.922 205.527 164.254 205.096C164.584 204.663 165.091 204.398 165.595 204.345C166.633 204.229 167.527 205.003 167.688 205.896ZM167.688 205.896C167.593 205.448 167.306 205.047 166.914 204.831C166.522 204.615 166.059 204.588 165.669 204.715C164.866 204.976 164.481 205.821 164.633 206.513C164.76 207.208 165.442 207.843 166.285 207.77C166.693 207.735 167.11 207.531 167.387 207.179C167.665 206.828 167.774 206.346 167.688 205.896Z" fill="black"/>
<path opacity="0.1" d="M168.138 219.005C168.336 219.892 167.81 220.95 166.809 221.244C166.324 221.39 165.756 221.342 165.283 221.072C164.81 220.803 164.461 220.313 164.349 219.769C164.242 219.224 164.372 218.636 164.704 218.205C165.034 217.772 165.542 217.507 166.045 217.454C167.083 217.338 167.977 218.111 168.138 219.005ZM168.138 219.005C168.043 218.557 167.755 218.156 167.364 217.94C166.972 217.724 166.509 217.697 166.119 217.824C165.316 218.085 164.931 218.93 165.083 219.622C165.21 220.318 165.892 220.952 166.735 220.879C167.143 220.844 167.56 220.64 167.838 220.288C168.115 219.936 168.224 219.454 168.138 219.005Z" fill="black"/>
<path opacity="0.1" d="M168.588 232.113C168.786 233 168.26 234.058 167.259 234.352C166.774 234.498 166.206 234.45 165.733 234.18C165.26 233.911 164.911 233.421 164.799 232.877C164.692 232.333 164.822 231.744 165.154 231.313C165.484 230.879 165.991 230.615 166.495 230.562C167.533 230.446 168.426 231.22 168.588 232.113ZM168.588 232.113C168.493 231.665 168.205 231.264 167.814 231.048C167.422 230.832 166.959 230.805 166.569 230.932C165.766 231.193 165.381 232.038 165.533 232.73C165.66 233.426 166.342 234.06 167.185 233.987C167.593 233.952 168.01 233.747 168.287 233.396C168.565 233.044 168.674 232.563 168.588 232.113Z" fill="black"/>
<path d="M172.635 252.158L125.76 266.362L127.419 271.839L174.294 257.635L172.635 252.158Z" fill="#E84C4F"/>
<path opacity="0.4" d="M172.635 252.158L125.76 266.362L127.419 271.839L174.294 257.635L172.635 252.158Z" fill="white"/>
<path d="M150.207 257.094L144.753 258.829L147.33 266.931L152.784 265.196L150.207 257.094Z" fill="#E84C4F"/>
<path d="M127.053 279.863L114.957 227.484L78.447 236.14L96.425 287.187L127.053 279.863Z" fill="#E84C4F"/>
<path d="M135.154 277.2L127.053 279.863L114.957 227.484L126.609 230.258L135.154 277.2Z" fill="#E84C4F"/>
<path opacity="0.2" d="M135.154 277.2L127.053 279.863L114.957 227.484L126.609 230.258L135.154 277.2Z" fill="black"/>
<path d="M173.485 261.108C176.917 261.108 179.699 258.326 179.699 254.894C179.699 251.462 176.917 248.68 173.485 248.68C170.053 248.68 167.271 251.462 167.271 254.894C167.271 258.326 170.053 261.108 173.485 261.108Z" fill="#E84C4F"/>
<path d="M237.428 252.006L235.757 257.48L282.602 271.782L284.274 266.309L237.428 252.006Z" fill="#E84C4F"/>
<path opacity="0.4" d="M237.428 252.006L235.757 257.48L282.602 271.782L284.274 266.309L237.428 252.006Z" fill="white"/>
<path d="M259.888 256.967L257.294 265.063L262.744 266.809L265.338 258.714L259.888 256.967Z" fill="#E84C4F"/>
<path d="M282.983 279.818L295.191 227.464L331.682 236.198L313.596 287.207L282.983 279.818Z" fill="#E84C4F"/>
<path d="M274.888 277.137L282.983 279.818L295.191 227.464L283.533 230.214L274.888 277.137Z" fill="#E84C4F"/>
<path opacity="0.2" d="M274.888 277.137L282.983 279.818L295.191 227.464L283.533 230.214L274.888 277.137Z" fill="black"/>
<path d="M230.39 254.737C230.383 258.169 233.159 260.957 236.591 260.965C240.023 260.972 242.811 258.196 242.819 254.764C242.826 251.332 240.05 248.544 236.618 248.536C233.185 248.528 230.397 251.305 230.39 254.737Z" fill="#E84C4F"/>
<path d="M277.289 190.132C277.436 189.994 292.492 176.029 310.204 180.806C328.316 185.693 343.27 212.973 343.418 213.249L348.452 210.528C347.798 209.317 332.201 180.804 311.693 175.282C290.836 169.657 274.051 185.316 273.346 185.986L277.289 190.132Z" fill="#E84C4F"/>
<path opacity="0.4" d="M277.289 190.132C277.436 189.994 292.492 176.029 310.204 180.806C328.316 185.693 343.27 212.973 343.418 213.249L348.452 210.528C347.798 209.317 332.201 180.804 311.693 175.282C290.836 169.657 274.051 185.316 273.346 185.986L277.289 190.132Z" fill="white"/>
<path d="M336.744 240.712L347.59 234.986C346.549 233.015 345.267 229.627 345.081 226.568C344.84 222.604 346.413 221.21 348.148 220.293C351.948 218.286 354.216 219.082 355.765 219.994C357.938 221.277 360.148 223.902 361.987 227.386L372.833 221.66C369.865 216.038 366.22 211.924 361.999 209.432C357.788 206.95 350.974 204.933 342.422 209.447C335.756 212.966 332.353 219.311 332.84 227.312C333.222 233.608 335.925 239.16 336.744 240.712Z" fill="#E84C4F"/>
<path d="M279.575 171.022C281.926 169.398 284.332 167.868 286.747 166.352C289.156 164.827 291.605 163.369 294.054 161.911C296.515 160.474 298.977 159.039 301.479 157.67L305.233 155.62C306.503 154.968 307.755 154.287 309.041 153.661C307.871 154.482 306.668 155.247 305.482 156.042L301.87 158.332C299.46 159.857 297.012 161.315 294.562 162.771C292.1 164.207 289.638 165.642 287.136 167.01C284.64 168.39 282.135 169.753 279.575 171.022Z" fill="#263238"/>
<path d="M273.346 194.423C276.712 196.341 279.903 198.506 283.051 200.731C286.181 202.981 289.267 205.292 292.175 207.852C288.807 205.936 285.617 203.771 282.47 201.544C279.342 199.293 276.256 196.982 273.346 194.423Z" fill="#263238"/>
<path d="M278.875 191.545C281.473 192.334 284.031 193.226 286.582 194.133C289.138 195.029 291.666 195.999 294.193 196.969C296.712 197.961 299.23 198.955 301.72 200.021L305.454 201.623C306.685 202.191 307.929 202.727 309.149 203.324C307.847 202.939 306.567 202.493 305.276 202.08L301.441 200.738C298.885 199.841 296.357 198.872 293.831 197.901C291.313 196.908 288.794 195.914 286.305 194.847C283.811 193.79 281.324 192.719 278.875 191.545Z" fill="#263238"/>
<path d="M286.256 173.217C288.746 172.57 291.254 172.031 293.766 171.508C296.275 170.974 298.799 170.518 301.322 170.061C303.849 169.628 306.377 169.197 308.918 168.842L312.73 168.313C314.007 168.173 315.278 167.999 316.561 167.889C315.318 168.223 314.064 168.493 312.815 168.796L309.051 169.599C306.541 170.132 304.018 170.589 301.495 171.044C298.967 171.475 296.44 171.907 293.899 172.261C291.36 172.628 288.817 172.977 286.256 173.217Z" fill="#263238"/>
<path d="M226.248 188.787C226.67 186.764 227.349 184.792 228.227 182.912C229.106 181.034 230.182 179.233 231.532 177.632C232.886 176.048 234.552 174.651 236.557 173.878C238.562 173.131 240.857 173.137 242.868 173.94C244.903 174.733 246.508 176.443 247.373 178.409C247.822 179.391 248.103 180.444 248.219 181.521C248.32 182.596 248.277 183.714 247.849 184.788C247.631 185.316 247.29 185.849 246.744 186.204C246.48 186.388 246.157 186.493 245.84 186.542C245.528 186.587 245.208 186.573 244.844 186.447C244.175 186.162 243.84 185.624 243.552 185.139C243.295 184.635 243.097 184.119 242.962 183.598C242.4 181.511 242.343 179.388 242.442 177.289C242.74 173.108 243.838 168.926 246.091 165.328C247.228 163.55 248.654 161.913 250.427 160.717C252.177 159.513 254.226 158.684 256.318 158.444C257.347 158.195 258.41 158.218 259.461 158.167C259.988 158.111 260.511 158.239 261.036 158.266C261.557 158.335 262.091 158.326 262.598 158.477C264.676 158.85 266.629 159.684 268.453 160.693C270.266 161.738 271.881 163.08 273.355 164.536C274.816 166.007 276.145 167.616 277.213 169.388C274.848 166.013 271.803 163.083 268.213 161.121C266.406 160.182 264.497 159.411 262.486 159.099C261.995 158.962 261.48 158.986 260.978 158.93C260.473 158.915 259.97 158.8 259.464 158.868C258.455 158.942 257.439 158.937 256.454 159.202C254.438 159.486 252.568 160.297 250.922 161.427C249.268 162.559 247.934 164.112 246.862 165.812C244.739 169.251 243.699 173.313 243.44 177.349C243.327 179.366 243.378 181.428 243.882 183.344C244.123 184.26 244.556 185.292 245.187 185.581C245.268 185.589 245.322 185.632 245.42 185.635C245.518 185.627 245.623 185.649 245.716 185.625C245.906 185.594 246.091 185.543 246.25 185.429C246.578 185.223 246.838 184.857 247.013 184.437C247.364 183.587 247.428 182.579 247.34 181.608C247.242 180.631 246.992 179.661 246.588 178.761C245.797 176.962 244.394 175.408 242.576 174.646C240.768 173.878 238.651 173.816 236.774 174.469C234.888 175.146 233.259 176.446 231.901 177.953C229.176 181.003 227.339 184.818 226.248 188.787Z" fill="#263238"/>
<path d="M133.843 214.703C134.808 212.884 136.227 211.31 137.884 210.066C139.539 208.822 141.439 207.857 143.484 207.384C145.518 206.897 147.703 206.889 149.738 207.507C151.774 208.116 153.608 209.31 155.076 210.831C156.554 212.351 157.659 214.197 158.418 216.16C159.163 218.127 159.61 220.234 159.452 222.389C159.345 223.449 159.13 224.594 158.291 225.511C157.875 225.962 157.233 226.26 156.606 226.27C156.004 226.264 155.435 226.175 154.883 225.88C154.334 225.597 153.894 225.105 153.643 224.561C153.388 224.016 153.293 223.439 153.267 222.881C153.227 221.761 153.469 220.697 153.798 219.685C154.469 217.658 155.571 215.832 156.859 214.177C158.154 212.524 159.678 211.052 161.386 209.826C164.774 207.366 169.09 205.999 173.3 206.55C175.378 206.831 177.44 207.431 179.259 208.491C181.094 209.516 182.685 210.939 183.982 212.565C185.278 214.198 186.288 216.033 187.066 217.945C187.844 219.858 188.418 221.855 188.7 223.893C187.86 219.886 186.212 215.994 183.587 212.888C182.287 211.336 180.72 210.004 178.942 209.065C177.179 208.092 175.201 207.57 173.21 207.347C169.21 206.912 165.152 208.187 161.925 210.575C158.702 212.946 156.065 216.255 154.732 219.998C154.418 220.931 154.199 221.907 154.228 222.847C154.25 223.78 154.578 224.676 155.327 225.054C155.68 225.257 156.159 225.336 156.577 225.343C156.982 225.332 157.342 225.171 157.631 224.872C158.215 224.263 158.465 223.267 158.554 222.311C158.711 220.357 158.307 218.336 157.608 216.469C156.9 214.597 155.848 212.851 154.488 211.39C153.131 209.931 151.421 208.793 149.529 208.174C147.64 207.545 145.569 207.493 143.601 207.91C139.664 208.747 136.016 211.209 133.843 214.703Z" fill="#263238"/>
<path d="M125.758 63.45C125.645 59.335 124.772 55.192 122.857 51.582C121.898 49.794 120.626 48.142 118.956 47.035C117.289 45.953 115.219 45.508 113.28 45.822C111.333 46.128 109.6 47.303 108.402 48.86C107.795 49.638 107.32 50.519 106.992 51.445C106.674 52.367 106.496 53.361 106.634 54.27C106.703 54.719 106.868 55.136 107.138 55.415C107.266 55.564 107.433 55.657 107.61 55.733C107.695 55.778 107.802 55.782 107.895 55.813C107.991 55.833 108.053 55.804 108.134 55.816C108.815 55.686 109.483 54.787 109.935 53.955C110.882 52.215 111.424 50.224 111.795 48.239C112.506 44.258 112.466 40.065 111.225 36.219C110.591 34.312 109.665 32.485 108.329 30.992C107 29.502 105.378 28.268 103.488 27.511C102.595 27.019 101.607 26.782 100.645 26.468C100.17 26.282 99.654 26.274 99.16 26.167C98.659 26.102 98.1649 25.956 97.6549 25.971C95.6279 25.794 93.5899 26.087 91.6109 26.568C87.6559 27.617 83.9999 29.735 80.8979 32.448C82.3579 30.983 84.0319 29.737 85.8019 28.657C87.5809 27.595 89.469 26.678 91.479 26.095C93.49 25.55 95.5869 25.206 97.6929 25.34C98.2219 25.314 98.7369 25.451 99.2599 25.508C99.7759 25.606 100.315 25.607 100.813 25.787C101.821 26.088 102.86 26.319 103.799 26.806C105.773 27.538 107.565 28.832 108.977 30.419C110.413 32.003 111.407 33.933 112.087 35.931C113.416 39.962 113.484 44.286 112.775 48.417C112.371 50.479 111.808 52.527 110.765 54.42C110.509 54.894 110.193 55.348 109.824 55.776C109.429 56.178 108.975 56.621 108.258 56.738C107.874 56.773 107.561 56.71 107.268 56.592C106.972 56.468 106.683 56.29 106.471 56.048C106.026 55.573 105.821 54.974 105.736 54.41C105.576 53.266 105.801 52.17 106.156 51.149C106.525 50.13 107.05 49.175 107.72 48.329C109.029 46.627 110.996 45.349 113.161 45.065C115.306 44.765 117.536 45.307 119.305 46.512C121.067 47.741 122.352 49.496 123.289 51.357C124.218 53.234 124.832 55.24 125.238 57.273C125.642 59.307 125.831 61.384 125.758 63.45Z" fill="#263238"/>
<path d="M308.396 25.3711C304.368 24.5211 300.135 24.4031 296.178 25.4231C294.216 25.9391 292.313 26.7901 290.846 28.1551C289.405 29.5231 288.489 31.4331 288.342 33.3921C288.185 35.3561 288.923 37.3161 290.158 38.8441C290.772 39.6161 291.519 40.2831 292.342 40.8181C293.164 41.3421 294.09 41.7481 295.006 41.8261C295.459 41.8631 295.903 41.8001 296.237 41.6031C296.411 41.5141 296.541 41.3731 296.656 41.2191C296.72 41.1471 296.749 41.0441 296.801 40.9611C296.843 40.8731 296.829 40.8051 296.86 40.7301C296.893 40.0371 296.174 39.1781 295.471 38.5451C294 37.2191 292.19 36.2271 290.347 35.4031C286.642 33.7831 282.555 32.8431 278.525 33.1521C276.523 33.3241 274.53 33.7981 272.766 34.7481C271.007 35.6921 269.429 36.9821 268.252 38.6431C267.565 39.3971 267.104 40.3021 266.575 41.1641C266.283 41.5831 266.155 42.0821 265.936 42.5381C265.755 43.0101 265.498 43.4561 265.395 43.9551C264.75 45.8851 264.559 47.9351 264.565 49.9711C264.662 54.0611 265.869 58.1111 267.783 61.7611C266.699 60.0001 265.878 58.0811 265.241 56.1081C264.624 54.1301 264.172 52.0801 264.075 49.9891C264.015 47.9061 264.169 45.7871 264.791 43.7701C264.889 43.2501 265.142 42.7801 265.32 42.2851C265.536 41.8061 265.663 41.2821 265.954 40.8401C266.482 39.9301 266.949 38.9741 267.642 38.1741C268.815 36.4251 270.491 34.9851 272.363 33.9821C274.239 32.9551 276.347 32.4391 278.449 32.2441C282.679 31.8931 286.9 32.8351 290.751 34.4881C292.662 35.3621 294.522 36.3871 296.119 37.8441C296.52 38.2031 296.888 38.6161 297.218 39.0761C297.517 39.5531 297.841 40.0981 297.788 40.8231C297.733 41.2041 297.598 41.4951 297.415 41.7521C297.226 42.0111 296.984 42.2501 296.7 42.4001C296.135 42.7221 295.504 42.7811 294.935 42.7321C293.785 42.6201 292.772 42.1461 291.862 41.5631C290.958 40.9661 290.151 40.2331 289.484 39.3841C288.134 37.7141 287.351 35.5031 287.579 33.3321C287.788 31.1771 288.836 29.1341 290.419 27.6951C292.025 26.2681 294.031 25.4291 296.06 24.9521C298.102 24.4871 300.196 24.3571 302.268 24.4371C304.341 24.5171 306.404 24.8181 308.396 25.3711Z" fill="#263238"/>
<path d="M172.243 47.058C171.559 44.689 171.467 42.155 171.852 39.708C172.235 37.261 173.064 34.854 174.418 32.746C175.752 30.636 177.613 28.811 179.864 27.648C182.109 26.476 184.667 25.967 187.185 26.044C189.71 26.112 192.192 26.766 194.477 27.808C196.752 28.865 198.89 30.293 200.545 32.257C201.334 33.246 202.096 34.399 202.142 35.847C202.162 36.562 201.872 37.326 201.359 37.844C200.851 38.33 200.296 38.725 199.597 38.928C198.909 39.139 198.144 39.087 197.489 38.837C196.83 38.589 196.275 38.182 195.794 37.732C194.835 36.818 194.156 35.712 193.595 34.576C192.481 32.291 191.895 29.813 191.613 27.326C191.338 24.835 191.409 22.306 191.842 19.835C192.678 14.907 195.218 10.148 199.263 7.1C201.268 5.603 203.525 4.391 205.961 3.774C208.381 3.113 210.927 2.99601 213.395 3.29701C215.868 3.60301 218.268 4.32001 220.537 5.29901C222.806 6.27901 224.972 7.501 226.927 9.001C222.865 6.253 218.196 4.285 213.339 3.805C210.922 3.559 208.456 3.724 206.136 4.407C203.801 5.047 201.658 6.256 199.756 7.734C197.876 9.239 196.276 11.09 195.107 13.195C193.928 15.295 193.158 17.616 192.751 19.994C191.972 24.742 192.475 29.799 194.48 34.146C194.997 35.215 195.63 36.242 196.456 37.035C197.266 37.825 198.335 38.343 199.336 38.026C199.828 37.898 200.312 37.559 200.69 37.201C201.044 36.838 201.228 36.368 201.222 35.851C201.209 34.801 200.576 33.73 199.846 32.829C198.331 31.009 196.284 29.614 194.112 28.596C191.928 27.583 189.554 26.964 187.155 26.855C184.759 26.745 182.329 27.206 180.18 28.271C178.026 29.325 176.204 31.026 174.868 33.04C172.2 37.074 171.154 42.251 172.243 47.058Z" fill="#263238"/>
<path d="M130.5 214.922C128.259 214.216 125.872 215.46 125.166 217.699C124.459 219.942 125.704 222.327 127.945 223.034C130.184 223.74 132.569 222.497 133.275 220.256C133.981 218.017 132.739 215.627 130.5 214.922ZM132.782 220.099C132.162 222.068 130.066 223.16 128.1 222.54C126.133 221.92 125.041 219.825 125.662 217.856C126.282 215.889 128.377 214.797 130.346 215.418C132.31 216.037 133.402 218.132 132.782 220.099ZM130.5 214.922C128.259 214.216 125.872 215.46 125.166 217.699C124.459 219.942 125.704 222.327 127.945 223.034C130.184 223.74 132.569 222.497 133.275 220.256C133.981 218.017 132.739 215.627 130.5 214.922ZM132.782 220.099C132.162 222.068 130.066 223.16 128.1 222.54C126.133 221.92 125.041 219.825 125.662 217.856C126.282 215.889 128.377 214.797 130.346 215.418C132.31 216.037 133.402 218.132 132.782 220.099ZM130.5 214.922C128.259 214.216 125.872 215.46 125.166 217.699C124.459 219.942 125.704 222.327 127.945 223.034C130.184 223.74 132.569 222.497 133.275 220.256C133.981 218.017 132.739 215.627 130.5 214.922ZM132.782 220.099C132.162 222.068 130.066 223.16 128.1 222.54C126.133 221.92 125.041 219.825 125.662 217.856C126.282 215.889 128.377 214.797 130.346 215.418C132.31 216.037 133.402 218.132 132.782 220.099ZM131.917 210.429C127.192 208.941 122.161 211.566 120.673 216.284C119.186 221.004 121.806 226.039 126.528 227.526C131.246 229.012 136.281 226.391 137.768 221.67C139.257 216.953 136.636 211.915 131.917 210.429ZM133.907 220.453C133.092 223.039 130.329 224.479 127.746 223.665C125.163 222.851 123.722 220.087 124.537 217.502C125.352 214.917 128.117 213.479 130.7 214.293C133.281 215.106 134.721 217.87 133.907 220.453ZM133.275 220.255C133.981 218.016 132.739 215.627 130.5 214.921C128.259 214.215 125.872 215.459 125.166 217.698C124.459 219.941 125.704 222.326 127.945 223.033C130.184 223.739 132.569 222.496 133.275 220.255ZM132.782 220.099C132.162 222.068 130.066 223.16 128.1 222.54C126.133 221.92 125.041 219.825 125.662 217.856C126.282 215.889 128.377 214.797 130.346 215.418C132.31 216.037 133.402 218.132 132.782 220.099ZM130.5 214.922C128.259 214.216 125.872 215.46 125.166 217.699C124.459 219.942 125.704 222.327 127.945 223.034C130.184 223.74 132.569 222.497 133.275 220.256C133.981 218.017 132.739 215.627 130.5 214.922ZM132.782 220.099C132.162 222.068 130.066 223.16 128.1 222.54C126.133 221.92 125.041 219.825 125.662 217.856C126.282 215.889 128.377 214.797 130.346 215.418C132.31 216.037 133.402 218.132 132.782 220.099ZM130.5 214.922C128.259 214.216 125.872 215.46 125.166 217.699C124.459 219.942 125.704 222.327 127.945 223.034C130.184 223.74 132.569 222.497 133.275 220.256C133.981 218.017 132.739 215.627 130.5 214.922ZM132.782 220.099C132.162 222.068 130.066 223.16 128.1 222.54C126.133 221.92 125.041 219.825 125.662 217.856C126.282 215.889 128.377 214.797 130.346 215.418C132.31 216.037 133.402 218.132 132.782 220.099Z" fill="#455A64"/>
<path d="M128.283 227.688L124.996 226.653L124.445 229.037L127.368 229.958L128.283 227.688Z" fill="#455A64"/>
<path d="M122.376 224.61L120.784 221.553L118.709 222.849L120.124 225.568L122.376 224.61Z" fill="#455A64"/>
<path d="M120.376 218.256L121.412 214.969L119.028 214.418L118.107 217.341L120.376 218.256Z" fill="#455A64"/>
<path d="M123.455 212.349L126.511 210.757L125.215 208.681L122.497 210.097L123.455 212.349Z" fill="#455A64"/>
<path d="M129.808 210.349L133.095 211.384L133.647 209.001L130.723 208.08L129.808 210.349Z" fill="#455A64"/>
<path d="M135.715 213.427L137.307 216.484L139.383 215.188L137.967 212.47L135.715 213.427Z" fill="#455A64"/>
<path d="M137.716 219.781L136.68 223.068L139.064 223.62L139.985 220.696L137.716 219.781Z" fill="#455A64"/>
<path d="M134.637 225.688L131.58 227.28L132.876 229.356L135.595 227.94L134.637 225.688Z" fill="#455A64"/>
<path d="M296.3 186.349C300.808 180.275 299.538 171.694 293.464 167.187C287.388 162.678 278.807 163.948 274.3 170.021C269.791 176.097 271.061 184.678 277.137 189.187C283.21 193.695 291.791 192.426 296.3 186.349ZM290.437 181.998C288.33 184.837 284.325 185.43 281.488 183.325C278.649 181.218 278.056 177.213 280.163 174.373C282.268 171.536 286.274 170.943 289.113 173.05C291.949 175.156 292.542 179.161 290.437 181.998Z" fill="#263238"/>
<path d="M279.589 190.299L275.359 187.16L273.371 190.328L277.133 193.12L279.589 190.299Z" fill="#263238"/>
<path d="M272.596 182.899L271.824 177.688L268.178 178.522L268.864 183.157L272.596 182.899Z" fill="#263238"/>
<path d="M272.883 172.721L276.023 168.491L272.855 166.503L270.063 170.265L272.883 172.721Z" fill="#263238"/>
<path d="M280.284 165.728L285.495 164.956L284.661 161.31L280.026 161.996L280.284 165.728Z" fill="#263238"/>
<path d="M290.462 166.015L294.692 169.155L296.68 165.987L292.918 163.195L290.462 166.015Z" fill="#263238"/>
<path d="M297.455 173.416L298.226 178.627L301.872 177.793L301.186 173.158L297.455 173.416Z" fill="#263238"/>
<path d="M297.168 183.594L294.028 187.824L297.196 189.812L299.988 186.05L297.168 183.594Z" fill="#263238"/>
<path d="M289.767 190.587L284.556 191.358L285.39 195.004L290.025 194.319L289.767 190.587Z" fill="#263238"/>
<path d="M280.393 178.843L283.303 182.513L287.937 181.825L289.657 177.472L286.75 173.804L282.116 174.488L280.393 178.843ZM285.909 176.965C286.569 177.455 286.706 178.382 286.216 179.042C285.728 179.699 284.799 179.839 284.139 179.349C283.482 178.861 283.344 177.929 283.832 177.272C284.322 176.613 285.252 176.478 285.909 176.965Z" fill="#263238"/>
<path d="M232.326 5.98788C230.365 5.36988 228.276 6.45888 227.658 8.41788C227.04 10.3809 228.129 12.4679 230.09 13.0859C232.049 13.7039 234.136 12.6159 234.754 10.6549C235.372 8.69588 234.285 6.60488 232.326 5.98788ZM234.323 10.5179C233.78 12.2409 231.947 13.1959 230.225 12.6539C228.504 12.1119 227.549 10.2779 228.091 8.55488C228.633 6.83388 230.467 5.87888 232.19 6.42088C233.91 6.96288 234.866 8.79688 234.323 10.5179ZM232.326 5.98788C230.365 5.36988 228.276 6.45888 227.658 8.41788C227.04 10.3809 228.129 12.4679 230.09 13.0859C232.049 13.7039 234.136 12.6159 234.754 10.6549C235.372 8.69588 234.285 6.60488 232.326 5.98788ZM234.323 10.5179C233.78 12.2409 231.947 13.1959 230.225 12.6539C228.504 12.1119 227.549 10.2779 228.091 8.55488C228.633 6.83388 230.467 5.87888 232.19 6.42088C233.91 6.96288 234.866 8.79688 234.323 10.5179ZM232.326 5.98788C230.365 5.36988 228.276 6.45888 227.658 8.41788C227.04 10.3809 228.129 12.4679 230.09 13.0859C232.049 13.7039 234.136 12.6159 234.754 10.6549C235.372 8.69588 234.285 6.60488 232.326 5.98788ZM234.323 10.5179C233.78 12.2409 231.947 13.1959 230.225 12.6539C228.504 12.1119 227.549 10.2779 228.091 8.55488C228.633 6.83388 230.467 5.87888 232.19 6.42088C233.91 6.96288 234.866 8.79688 234.323 10.5179ZM233.567 2.05688C229.433 0.754878 225.03 3.05188 223.728 7.17988C222.427 11.3099 224.719 15.7159 228.852 17.0169C232.981 18.3179 237.386 16.0239 238.687 11.8929C239.989 7.76488 237.695 3.35688 233.567 2.05688ZM235.308 10.8279C234.595 13.0899 232.177 14.3509 229.916 13.6379C227.655 12.9249 226.395 10.5069 227.108 8.24488C227.821 5.98288 230.241 4.72388 232.501 5.43688C234.76 6.14888 236.02 8.56688 235.308 10.8279ZM234.755 10.6549C235.373 8.69588 234.286 6.60488 232.327 5.98788C230.366 5.36988 228.277 6.45888 227.659 8.41788C227.041 10.3809 228.13 12.4679 230.091 13.0859C232.05 13.7029 234.137 12.6159 234.755 10.6549ZM234.323 10.5179C233.78 12.2409 231.947 13.1959 230.225 12.6539C228.504 12.1119 227.549 10.2779 228.091 8.55488C228.633 6.83388 230.467 5.87888 232.19 6.42088C233.91 6.96288 234.866 8.79688 234.323 10.5179ZM232.326 5.98788C230.365 5.36988 228.276 6.45888 227.658 8.41788C227.04 10.3809 228.129 12.4679 230.09 13.0859C232.049 13.7039 234.136 12.6159 234.754 10.6549C235.372 8.69588 234.285 6.60488 232.326 5.98788ZM234.323 10.5179C233.78 12.2409 231.947 13.1959 230.225 12.6539C228.504 12.1119 227.549 10.2779 228.091 8.55488C228.633 6.83388 230.467 5.87888 232.19 6.42088C233.91 6.96288 234.866 8.79688 234.323 10.5179ZM232.326 5.98788C230.365 5.36988 228.276 6.45888 227.658 8.41788C227.04 10.3809 228.129 12.4679 230.09 13.0859C232.049 13.7039 234.136 12.6159 234.754 10.6549C235.372 8.69588 234.285 6.60488 232.326 5.98788ZM234.323 10.5179C233.78 12.2409 231.947 13.1959 230.225 12.6539C228.504 12.1119 227.549 10.2779 228.091 8.55488C228.633 6.83388 230.467 5.87888 232.19 6.42088C233.91 6.96288 234.866 8.79688 234.323 10.5179Z" fill="#263238"/>
<path d="M230.386 17.1589L227.51 16.2529L227.028 18.3389L229.586 19.1449L230.386 17.1589Z" fill="#263238"/>
<path d="M225.217 14.465L223.824 11.791L222.008 12.924L223.247 15.303L225.217 14.465Z" fill="#263238"/>
<path d="M223.467 8.90511L224.374 6.02911L222.288 5.54712L221.482 8.10512L223.467 8.90511Z" fill="#263238"/>
<path d="M226.161 3.7361L228.836 2.3431L227.702 0.5271L225.323 1.7661L226.161 3.7361Z" fill="#263238"/>
<path d="M231.721 1.986L234.597 2.892L235.08 0.806L232.522 0L231.721 1.986Z" fill="#263238"/>
<path d="M236.89 4.68004L238.283 7.35504L240.099 6.22104L238.86 3.84204L236.89 4.68004Z" fill="#263238"/>
<path d="M238.64 10.24L237.734 13.116L239.82 13.599L240.626 11.041L238.64 10.24Z" fill="#263238"/>
<path d="M235.946 15.4089L233.272 16.8019L234.405 18.6179L236.784 17.3789L235.946 15.4089Z" fill="#263238"/>
<path d="M268.354 62.4659C266.393 61.8479 264.304 62.9369 263.686 64.8959C263.068 66.8589 264.157 68.9459 266.118 69.5639C268.077 70.1819 270.164 69.0939 270.782 67.1329C271.399 65.1739 270.313 63.0829 268.354 62.4659ZM270.35 66.9959C269.807 68.7189 267.974 69.6739 266.253 69.1319C264.532 68.5899 263.577 66.7559 264.119 65.0329C264.661 63.3119 266.495 62.3569 268.218 62.8989C269.937 63.4409 270.893 65.2749 270.35 66.9959ZM268.354 62.4659C266.393 61.8479 264.304 62.9369 263.686 64.8959C263.068 66.8589 264.157 68.9459 266.118 69.5639C268.077 70.1819 270.164 69.0939 270.782 67.1329C271.399 65.1739 270.313 63.0829 268.354 62.4659ZM270.35 66.9959C269.807 68.7189 267.974 69.6739 266.253 69.1319C264.532 68.5899 263.577 66.7559 264.119 65.0329C264.661 63.3119 266.495 62.3569 268.218 62.8989C269.937 63.4409 270.893 65.2749 270.35 66.9959ZM268.354 62.4659C266.393 61.8479 264.304 62.9369 263.686 64.8959C263.068 66.8589 264.157 68.9459 266.118 69.5639C268.077 70.1819 270.164 69.0939 270.782 67.1329C271.399 65.1739 270.313 63.0829 268.354 62.4659ZM270.35 66.9959C269.807 68.7189 267.974 69.6739 266.253 69.1319C264.532 68.5899 263.577 66.7559 264.119 65.0329C264.661 63.3119 266.495 62.3569 268.218 62.8989C269.937 63.4409 270.893 65.2749 270.35 66.9959ZM269.594 58.5349C265.46 57.2329 261.057 59.5299 259.755 63.6579C258.454 67.7889 260.746 72.1939 264.879 73.4949C269.008 74.7959 273.413 72.5019 274.714 68.3709C276.016 64.2429 273.722 59.8349 269.594 58.5349ZM271.335 67.3059C270.622 69.5679 268.204 70.8289 265.943 70.1159C263.683 69.4039 262.422 66.9849 263.135 64.7229C263.848 62.4609 266.268 61.2019 268.528 61.9149C270.787 62.6269 272.047 65.0449 271.335 67.3059ZM270.782 67.1329C271.399 65.1739 270.313 63.0829 268.354 62.4659C266.393 61.8479 264.304 62.9369 263.686 64.8959C263.068 66.8589 264.157 68.9459 266.118 69.5639C268.077 70.1819 270.164 69.0939 270.782 67.1329ZM270.35 66.9959C269.807 68.7189 267.974 69.6739 266.253 69.1319C264.532 68.5899 263.577 66.7559 264.119 65.0329C264.661 63.3119 266.495 62.3569 268.218 62.8989C269.937 63.4409 270.893 65.2749 270.35 66.9959ZM268.354 62.4659C266.393 61.8479 264.304 62.9369 263.686 64.8959C263.068 66.8589 264.157 68.9459 266.118 69.5639C268.077 70.1819 270.164 69.0939 270.782 67.1329C271.399 65.1739 270.313 63.0829 268.354 62.4659ZM270.35 66.9959C269.807 68.7189 267.974 69.6739 266.253 69.1319C264.532 68.5899 263.577 66.7559 264.119 65.0329C264.661 63.3119 266.495 62.3569 268.218 62.8989C269.937 63.4409 270.893 65.2749 270.35 66.9959ZM268.354 62.4659C266.393 61.8479 264.304 62.9369 263.686 64.8959C263.068 66.8589 264.157 68.9459 266.118 69.5639C268.077 70.1819 270.164 69.0939 270.782 67.1329C271.399 65.1739 270.313 63.0829 268.354 62.4659ZM270.35 66.9959C269.807 68.7189 267.974 69.6739 266.253 69.1319C264.532 68.5899 263.577 66.7559 264.119 65.0329C264.661 63.3119 266.495 62.3569 268.218 62.8989C269.937 63.4409 270.893 65.2749 270.35 66.9959Z" fill="#263238"/>
<path d="M266.413 73.6369L263.537 72.731L263.055 74.817L265.613 75.623L266.413 73.6369Z" fill="#263238"/>
<path d="M261.244 70.943L259.852 68.269L258.035 69.402L259.274 71.7811L261.244 70.943Z" fill="#263238"/>
<path d="M259.494 65.3829L260.401 62.5069L258.315 62.0249L257.509 64.5829L259.494 65.3829Z" fill="#263238"/>
<path d="M262.188 60.2139L264.863 58.8219L263.729 57.0049L261.35 58.2439L262.188 60.2139Z" fill="#263238"/>
<path d="M267.748 58.464L270.624 59.371L271.107 57.285L268.549 56.479L267.748 58.464Z" fill="#263238"/>
<path d="M272.917 61.1581L274.31 63.8331L276.126 62.6991L274.887 60.3201L272.917 61.1581Z" fill="#263238"/>
<path d="M274.667 66.718L273.761 69.594L275.847 70.077L276.653 67.519L274.667 66.718Z" fill="#263238"/>
<path d="M271.973 71.887L269.299 73.28L270.432 75.096L272.811 73.857L271.973 71.887Z" fill="#263238"/>
<path d="M87.8261 40.2349C89.3681 33.9069 85.4871 27.5259 79.1591 25.9839C72.8291 24.4419 66.4471 28.3229 64.9051 34.6509C63.3631 40.9809 67.2441 47.3629 73.5741 48.9049C79.9031 50.4459 86.2841 46.5649 87.8261 40.2349ZM81.7181 38.7469C80.9971 41.7049 78.0191 43.5169 75.0631 42.7959C72.1051 42.0749 70.2931 39.0969 71.0141 36.1389C71.7341 33.1829 74.7131 31.3719 77.6711 32.0929C80.6261 32.8129 82.4381 35.7909 81.7181 38.7469Z" fill="#263238"/>
<path d="M75.893 48.9651L71.486 47.8911L70.97 51.0701L74.889 52.0251L75.893 48.9651Z" fill="#263238"/>
<path d="M67.867 45.437L65.51 41.561L62.897 43.444L64.993 46.891L67.867 45.437Z" fill="#263238"/>
<path d="M64.686 37.266L65.76 32.86L62.581 32.343L61.626 36.263L64.686 37.266Z" fill="#263238"/>
<path d="M68.215 29.24L72.09 26.883L70.208 24.27L66.761 26.367L68.215 29.24Z" fill="#263238"/>
<path d="M76.385 26.06L80.792 27.134L81.309 23.955L77.389 23L76.385 26.06Z" fill="#263238"/>
<path d="M84.4109 29.588L86.7679 33.464L89.3809 31.581L87.2849 28.134L84.4109 29.588Z" fill="#263238"/>
<path d="M87.5921 37.759L86.5181 42.166L89.6971 42.682L90.6521 38.762L87.5921 37.759Z" fill="#263238"/>
<path d="M84.063 45.7849L80.188 48.1419L82.071 50.7549L85.518 48.6579L84.063 45.7849Z" fill="#263238"/>
<path d="M72.6941 39.6079L76.2311 41.5449L79.6761 39.4469L79.5831 35.4179L76.0481 33.4819L72.6011 35.5759L72.6941 39.6079ZM76.4411 36.2709C77.1291 36.4379 77.5481 37.1279 77.3801 37.8159C77.2131 38.5009 76.5231 38.9229 75.8351 38.7549C75.1501 38.5879 74.7291 37.8949 74.8961 37.2099C75.0641 36.5229 75.7561 36.1039 76.4411 36.2709Z" fill="#263238"/>
</svg>
