<svg width="482" height="462" viewBox="0 0 482 462" fill="none" xmlns="http://www.w3.org/2000/svg">
<path d="M108.659 119.035C108.279 120.32 101.743 130.616 92.3219 134.121C82.9009 137.626 75.8899 141.493 78.5079 146.109C81.1259 150.726 92.7009 148.207 92.7009 148.207C92.7009 148.207 69.2169 173.739 91.3249 188.327C118.288 206.119 146.463 142.434 146.463 142.434L108.659 119.035Z" fill="#EBEBEB"/>
<path d="M142.025 151.176C141.952 151.296 133.062 145.999 122.173 139.346C111.28 132.69 102.512 127.199 102.586 127.079C102.659 126.959 111.547 132.255 122.44 138.91C133.329 145.563 142.099 151.056 142.025 151.176Z" fill="#E0E0E0"/>
<path d="M137.851 158.812C137.778 158.933 128.176 153.298 116.407 146.228C104.634 139.155 95.1518 133.326 95.2238 133.205C95.2958 133.084 104.896 138.718 116.67 145.791C128.44 152.861 137.924 158.692 137.851 158.812Z" fill="#E0E0E0"/>
<path d="M132.813 166.049C132.74 166.17 121.959 159.826 108.734 151.882C95.5049 143.935 84.8439 137.397 84.9159 137.276C84.9889 137.155 95.7679 143.497 108.997 151.445C122.221 159.389 132.885 165.929 132.813 166.049Z" fill="#E0E0E0"/>
<path d="M126.523 175.004C126.448 175.123 118.092 170.027 107.862 163.623C97.628 157.216 89.395 151.928 89.47 151.808C89.545 151.688 97.899 156.783 108.133 163.19C118.364 169.594 126.598 174.884 126.523 175.004Z" fill="#E0E0E0"/>
<path d="M119.133 183.651C119.055 183.768 111.274 178.748 101.756 172.439C92.2348 166.128 84.5818 160.918 84.6598 160.8C84.7378 160.682 92.5168 165.702 102.038 172.013C111.556 178.323 119.211 183.534 119.133 183.651Z" fill="#E0E0E0"/>
<path d="M109.697 189.65C109.68 189.681 109.261 189.482 108.519 189.096C107.776 188.711 106.713 188.132 105.411 187.397C102.805 185.929 99.2499 183.82 95.4069 181.357C91.5639 178.892 88.1629 176.541 85.7409 174.786C84.5299 173.909 83.5599 173.185 82.8999 172.671C82.2399 172.158 81.8839 171.86 81.9049 171.832C81.9259 171.803 82.3199 172.046 83.0159 172.51C83.7919 173.035 84.7749 173.699 85.9479 174.491C88.4199 176.168 91.8459 178.467 95.6819 180.928C99.5179 183.386 103.037 185.54 105.593 187.086C106.803 187.821 107.817 188.437 108.617 188.924C109.329 189.362 109.714 189.619 109.697 189.65Z" fill="#E0E0E0"/>
<path d="M87.5849 148.789C87.5469 148.911 85.0628 148.123 82.3738 146.401C79.6758 144.693 77.9109 142.775 78.0059 142.689C78.1109 142.576 80.0019 144.296 82.6479 145.97C85.2849 147.66 87.6429 148.646 87.5849 148.789Z" fill="#E0E0E0"/>
<path d="M144.712 141.108C144.726 141.118 144.61 141.308 144.375 141.66C144.105 142.052 143.758 142.558 143.327 143.185C142.41 144.505 141.056 146.396 139.363 148.717C135.977 153.361 131.2 159.704 125.748 166.572C120.291 173.44 115.193 179.53 111.436 183.879C109.558 186.054 108.023 187.8 106.945 188.992C106.432 189.553 106.018 190.007 105.697 190.358C105.407 190.667 105.249 190.823 105.236 190.811C105.223 190.799 105.355 190.62 105.62 190.29C105.922 189.923 106.312 189.449 106.796 188.861C107.867 187.581 109.348 185.811 111.162 183.644C114.846 179.237 119.896 173.116 125.349 166.253C130.797 159.39 135.616 153.086 139.074 148.5C140.774 146.243 142.163 144.399 143.167 143.066C143.63 142.462 144.003 141.975 144.292 141.597C144.553 141.267 144.697 141.098 144.712 141.108Z" fill="#E0E0E0"/>
<path d="M137.069 135.66C137.18 135.747 127.815 147.968 116.154 162.953C104.489 177.944 94.945 190.022 94.834 189.935C94.723 189.848 104.086 177.63 115.751 162.639C127.412 147.654 136.957 135.574 137.069 135.66Z" fill="#E0E0E0"/>
<path d="M126.407 129.618C126.422 129.627 126.317 129.835 126.103 130.225C125.858 130.657 125.54 131.217 125.144 131.915C124.296 133.374 123.029 135.462 121.384 137.993C118.112 143.065 113.244 149.847 107.506 157.047C101.772 164.255 96.3499 170.584 92.4369 175.172C90.4979 177.422 88.9149 179.259 87.7749 180.582C87.2429 181.182 86.8159 181.665 86.4879 182.036C86.1889 182.365 86.0259 182.532 86.0129 182.52C85.9989 182.509 86.1359 182.319 86.4099 181.969C86.7199 181.582 87.1229 181.079 87.6239 180.453C88.7339 179.105 90.2749 177.232 92.1619 174.939C96.0039 170.291 101.381 163.927 107.107 156.729C112.837 149.538 117.74 142.806 121.083 137.794C122.763 135.293 124.075 133.238 124.974 131.812C125.404 131.135 125.749 130.591 126.015 130.173C126.257 129.8 126.392 129.609 126.407 129.618Z" fill="#E0E0E0"/>
<path d="M117.659 124.607C117.771 124.693 109.789 135.259 99.834 148.204C89.875 161.153 81.714 171.578 81.602 171.492C81.49 171.406 89.47 160.842 99.429 147.893C109.384 134.947 117.547 124.521 117.659 124.607Z" fill="#E0E0E0"/>
<path d="M111.078 120.321C111.108 120.34 110.808 120.841 110.238 121.731C109.958 122.18 109.603 122.72 109.153 123.322C108.708 123.927 108.225 124.635 107.618 125.36C106.454 126.852 104.951 128.535 103.179 130.303C101.385 132.047 99.3089 133.862 96.9859 135.583C94.6489 137.285 92.2959 138.724 90.0939 139.915C87.8769 141.077 85.8209 142.009 84.0489 142.673C83.1749 143.036 82.3549 143.285 81.6449 143.529C80.9369 143.778 80.3149 143.955 79.8029 144.088C78.7829 144.365 78.2159 144.501 78.2069 144.468C78.1979 144.434 78.7459 144.233 79.7449 143.898C80.2459 143.737 80.8559 143.532 81.5519 143.259C82.2499 142.991 83.0559 142.72 83.9159 142.337C85.6589 141.634 87.6839 140.676 89.8709 139.5C92.0419 138.296 94.3669 136.858 96.6839 135.171C98.9859 133.465 101.053 131.678 102.851 129.966C104.626 128.231 106.146 126.586 107.338 125.132C107.96 124.426 108.46 123.738 108.924 123.152C109.393 122.569 109.77 122.048 110.074 121.618C110.692 120.766 111.048 120.302 111.078 120.321Z" fill="#E0E0E0"/>
<path d="M156.824 106.25H31.418V119.491H156.824V106.25Z" fill="#E0E0E0"/>
<path d="M71.176 119.035C70.796 120.32 64.259 130.616 54.839 134.121C45.418 137.626 38.407 141.493 41.025 146.109C43.643 150.726 55.218 148.207 55.218 148.207C55.218 148.207 31.734 173.739 53.842 188.327C80.805 206.119 108.98 142.434 108.98 142.434L71.176 119.035Z" fill="#F5F5F5"/>
<path d="M104.542 151.176C104.468 151.296 95.579 145.999 84.69 139.346C73.797 132.69 65.029 127.199 65.103 127.079C65.177 126.959 74.064 132.255 84.957 138.91C95.846 145.563 104.616 151.056 104.542 151.176Z" fill="#E0E0E0"/>
<path d="M100.368 158.812C100.295 158.933 90.6939 153.298 78.9239 146.228C67.1509 139.155 57.6689 133.326 57.7409 133.205C57.8139 133.084 67.4139 138.718 79.1869 145.791C90.9559 152.861 100.441 158.692 100.368 158.812Z" fill="#E0E0E0"/>
<path d="M95.33 166.049C95.257 166.17 84.476 159.826 71.251 151.882C58.022 143.935 47.361 137.397 47.433 137.276C47.506 137.155 58.285 143.497 71.514 151.445C84.738 159.389 95.402 165.929 95.33 166.049Z" fill="#E0E0E0"/>
<path d="M89.0401 175.004C88.9651 175.123 80.6091 170.027 70.3791 163.623C60.1451 157.216 51.9121 151.928 51.9871 151.808C52.0621 151.688 60.4161 156.783 70.6501 163.19C80.8801 169.594 89.1151 174.884 89.0401 175.004Z" fill="#E0E0E0"/>
<path d="M81.6499 183.651C81.5719 183.768 73.7909 178.748 64.2729 172.439C54.7519 166.128 47.0989 160.918 47.1769 160.8C47.2549 160.682 55.0339 165.702 64.5549 172.013C74.0729 178.323 81.7279 183.534 81.6499 183.651Z" fill="#E0E0E0"/>
<path d="M72.214 189.65C72.197 189.681 71.778 189.482 71.036 189.096C70.293 188.711 69.231 188.132 67.928 187.397C65.322 185.929 61.767 183.82 57.924 181.357C54.081 178.892 50.68 176.541 48.258 174.786C47.047 173.909 46.077 173.185 45.417 172.671C44.757 172.158 44.401 171.86 44.422 171.832C44.443 171.803 44.837 172.046 45.533 172.51C46.309 173.035 47.292 173.699 48.465 174.491C50.937 176.168 54.363 178.467 58.199 180.928C62.035 183.386 65.554 185.54 68.11 187.086C69.32 187.821 70.334 188.437 71.134 188.924C71.846 189.362 72.231 189.619 72.214 189.65Z" fill="#E0E0E0"/>
<path d="M50.1019 148.789C50.0639 148.911 47.5799 148.123 44.8919 146.401C42.1939 144.693 40.4289 142.775 40.5239 142.689C40.6289 142.576 42.5199 144.296 45.1659 145.97C47.8019 147.66 50.1599 148.646 50.1019 148.789Z" fill="#E0E0E0"/>
<path d="M107.229 141.108C107.243 141.118 107.127 141.308 106.892 141.66C106.622 142.052 106.275 142.558 105.844 143.185C104.927 144.505 103.573 146.396 101.88 148.717C98.495 153.361 93.7181 159.704 88.2651 166.572C82.8081 173.44 77.71 179.53 73.954 183.879C72.076 186.054 70.541 187.8 69.463 188.992C68.95 189.553 68.536 190.007 68.215 190.358C67.925 190.667 67.767 190.823 67.754 190.811C67.741 190.799 67.873 190.62 68.138 190.29C68.44 189.923 68.83 189.449 69.314 188.861C70.385 187.581 71.866 185.811 73.68 183.644C77.364 179.237 82.414 173.116 87.867 166.253C93.316 159.39 98.134 153.086 101.592 148.5C103.292 146.243 104.681 144.399 105.685 143.066C106.148 142.462 106.521 141.975 106.811 141.597C107.07 141.267 107.214 141.098 107.229 141.108Z" fill="#E0E0E0"/>
<path d="M99.5861 135.66C99.6971 135.747 90.3321 147.968 78.6711 162.953C67.0061 177.944 57.4621 190.022 57.3511 189.935C57.2401 189.848 66.6031 177.63 78.2681 162.639C89.9291 147.654 99.4741 135.574 99.5861 135.66Z" fill="#E0E0E0"/>
<path d="M88.9239 129.618C88.9389 129.627 88.8339 129.835 88.6199 130.225C88.3749 130.657 88.0569 131.217 87.6609 131.915C86.8129 133.374 85.5459 135.462 83.9009 137.993C80.6289 143.065 75.7609 149.847 70.0229 157.047C64.2889 164.255 58.8669 170.584 54.9539 175.172C53.0149 177.422 51.4319 179.259 50.2919 180.582C49.7609 181.182 49.3329 181.665 49.0049 182.036C48.7059 182.365 48.5429 182.532 48.5299 182.52C48.5169 182.509 48.6539 182.319 48.9269 181.969C49.2369 181.582 49.6399 181.079 50.1409 180.453C51.2509 179.105 52.7909 177.232 54.6789 174.939C58.5209 170.291 63.8979 163.927 69.6239 156.729C75.3549 149.538 80.2569 142.806 83.6009 137.794C85.2809 135.293 86.5929 133.238 87.4919 131.812C87.9209 131.135 88.2669 130.591 88.5329 130.173C88.7739 129.8 88.9089 129.609 88.9239 129.618Z" fill="#E0E0E0"/>
<path d="M80.1761 124.607C80.2881 124.693 72.3061 135.259 62.3511 148.204C52.3921 161.153 44.2311 171.578 44.1191 171.492C44.0071 171.406 51.9871 160.842 61.9461 147.893C71.9011 134.947 80.0641 124.521 80.1761 124.607Z" fill="#E0E0E0"/>
<path d="M73.595 120.321C73.625 120.34 73.325 120.841 72.755 121.731C72.475 122.18 72.12 122.72 71.67 123.322C71.225 123.927 70.742 124.635 70.135 125.36C68.971 126.852 67.468 128.535 65.696 130.303C63.902 132.047 61.826 133.862 59.503 135.583C57.166 137.285 54.813 138.724 52.611 139.915C50.394 141.077 48.338 142.009 46.566 142.673C45.692 143.036 44.872 143.285 44.163 143.529C43.454 143.778 42.832 143.955 42.321 144.088C41.301 144.365 40.734 144.501 40.725 144.468C40.716 144.434 41.264 144.233 42.263 143.898C42.764 143.737 43.374 143.532 44.07 143.259C44.767 142.991 45.574 142.72 46.433 142.337C48.176 141.634 50.201 140.676 52.388 139.5C54.559 138.296 56.884 136.858 59.201 135.171C61.503 133.465 63.57 131.678 65.368 129.966C67.144 128.231 68.663 126.586 69.855 125.132C70.477 124.426 70.977 123.738 71.441 123.152C71.91 122.569 72.287 122.048 72.591 121.618C73.209 120.766 73.565 120.302 73.595 120.321Z" fill="#E0E0E0"/>
<path d="M98.2041 39.994H90.1841V48.014H98.2041V39.994Z" fill="#E0E0E0"/>
<path d="M131.755 58.687H57.0059V105.864H131.755V58.687Z" fill="#F5F5F5"/>
<path d="M57.0059 58.687C57.0059 58.687 68.4489 46.733 97.1399 47.211C125.831 47.689 131.754 58.687 131.754 58.687H57.0059Z" fill="#F5F5F5"/>
<path d="M131.466 59.455C131.466 59.596 114.662 59.71 93.938 59.71C73.207 59.71 56.407 59.596 56.407 59.455C56.407 59.314 73.207 59.2 93.938 59.2C114.662 59.199 131.466 59.314 131.466 59.455Z" fill="#E0E0E0"/>
<path d="M148.296 65.913H131.466V59.455H148.296C149.822 59.455 151.06 60.692 151.06 62.218V63.149C151.06 64.676 149.823 65.913 148.296 65.913Z" fill="#E0E0E0"/>
<path d="M40.453 59.455H57.283V65.913H40.453C38.927 65.913 37.689 64.676 37.689 63.149V62.218C37.689 60.692 38.926 59.455 40.453 59.455Z" fill="#E0E0E0"/>
<path d="M102.516 42.307H86.2439C85.1509 42.307 84.2649 41.421 84.2649 40.328V39.661C84.2649 38.568 85.1509 37.682 86.2439 37.682H102.517C103.61 37.682 104.496 38.568 104.496 39.661V40.328C104.495 41.421 103.609 42.307 102.516 42.307Z" fill="#E0E0E0"/>
<path d="M458.739 344.938H26.9851V460.757H458.739V344.938Z" fill="#F5F5F5"/>
<path d="M461.723 340.131H21.4919V354.224H461.723V340.131Z" fill="#E0E0E0"/>
<path d="M157.618 373.114H44.0581V408.184H157.618V373.114Z" fill="#EBEBEB"/>
<path d="M100.838 393.576C102.455 393.576 103.765 392.265 103.765 390.649C103.765 389.032 102.455 387.722 100.838 387.722C99.2216 387.722 97.9111 389.032 97.9111 390.649C97.9111 392.265 99.2216 393.576 100.838 393.576Z" fill="#E0E0E0"/>
<path d="M157.618 415.578H44.0581V450.648H157.618V415.578Z" fill="#EBEBEB"/>
<path d="M100.838 436.04C102.455 436.04 103.765 434.73 103.765 433.113C103.765 431.496 102.455 430.186 100.838 430.186C99.2216 430.186 97.9111 431.496 97.9111 433.113C97.9111 434.73 99.2216 436.04 100.838 436.04Z" fill="#E0E0E0"/>
<path d="M435.785 373.114H322.225V408.184H435.785V373.114Z" fill="#EBEBEB"/>
<path d="M379.005 393.576C380.622 393.576 381.932 392.265 381.932 390.649C381.932 389.032 380.622 387.722 379.005 387.722C377.389 387.722 376.078 389.032 376.078 390.649C376.078 392.265 377.389 393.576 379.005 393.576Z" fill="#E0E0E0"/>
<path d="M435.785 415.578H322.225V450.648H435.785V415.578Z" fill="#EBEBEB"/>
<path d="M379.005 436.04C380.622 436.04 381.932 434.73 381.932 433.113C381.932 431.496 380.622 430.186 379.005 430.186C377.389 430.186 376.078 431.496 376.078 433.113C376.078 434.73 377.389 436.04 379.005 436.04Z" fill="#E0E0E0"/>
<path d="M161.144 460.956C161.144 460.956 161.13 460.44 161.123 459.412C161.118 458.372 161.11 456.844 161.101 454.846C161.089 450.815 161.072 444.896 161.05 437.3C161.025 422.049 160.988 400.071 160.943 373.114V372.912H161.145C201.086 372.896 252.935 372.876 309.412 372.854H309.423H309.683V373.114C309.676 404.221 309.67 433.921 309.664 460.956V461.198H309.422C265.9 461.15 228.807 461.109 202.582 461.08C189.502 461.052 179.135 461.03 172.027 461.015C168.492 461.002 165.77 460.992 163.919 460.985C163.009 460.979 162.316 460.974 161.839 460.971C161.374 460.966 161.144 460.956 161.144 460.956C161.144 460.956 161.393 460.946 161.868 460.942C162.352 460.939 163.054 460.934 163.976 460.928C165.838 460.921 168.577 460.911 172.133 460.898C179.255 460.883 189.64 460.86 202.743 460.832C228.929 460.803 265.966 460.762 309.423 460.714L309.181 460.956C309.175 433.921 309.169 404.221 309.162 373.114L309.422 373.374H309.411C252.933 373.352 201.085 373.331 161.144 373.316L161.346 373.114C161.301 400.019 161.265 421.954 161.239 437.175C161.217 444.791 161.2 450.725 161.188 454.767C161.178 456.781 161.171 458.322 161.166 459.37C161.159 460.411 161.144 460.956 161.144 460.956Z" fill="#EBEBEB"/>
<path d="M94.3061 298.07C94.3061 304.193 89.3421 309.157 83.2191 309.157C77.0961 309.157 72.1311 304.193 72.1311 298.07C72.1311 291.946 77.0951 286.983 83.2191 286.983C89.3421 286.983 94.3061 291.947 94.3061 298.07Z" fill="#E0E0E0"/>
<path d="M104.851 308.975C110.975 308.975 115.939 304.011 115.939 297.887C115.939 291.763 110.975 286.799 104.851 286.799C98.7275 286.799 93.7632 291.763 93.7632 297.887C93.7632 304.011 98.7275 308.975 104.851 308.975Z" fill="#F5F5F5"/>
<path d="M61.586 308.974C67.7092 308.974 72.673 304.01 72.673 297.887C72.673 291.764 67.7092 286.8 61.586 286.8C55.4628 286.8 50.499 291.764 50.499 297.887C50.499 304.01 55.4628 308.974 61.586 308.974Z" fill="#F5F5F5"/>
<path d="M46.8491 300.273H119.269C119.269 300.273 118.524 330.137 99.0811 333.79L98.7781 340.132H66.1641V333.676C66.1641 333.676 46.8481 328.731 46.8491 300.273Z" fill="#EBEBEB"/>
<path d="M99.081 333.79C99.081 333.894 91.689 333.979 82.572 333.979C73.452 333.979 66.061 333.895 66.061 333.79C66.061 333.686 73.452 333.601 82.572 333.601C91.689 333.601 99.081 333.686 99.081 333.79Z" fill="white"/>
<path d="M116.465 315.662C116.465 315.662 116.308 315.688 116.001 315.719C115.68 315.746 115.227 315.785 114.636 315.836C113.441 315.903 111.636 316.06 109.378 315.581C108.258 315.341 107.02 314.93 105.837 314.165C104.667 313.403 103.519 312.298 102.834 310.785C102.5 310.029 102.313 309.176 102.328 308.287C102.365 307.401 102.652 306.484 103.244 305.735C103.54 305.364 103.92 305.04 104.373 304.834C104.827 304.634 105.347 304.563 105.851 304.638C106.861 304.809 107.759 305.498 108.276 306.419C108.8 307.354 108.887 308.49 108.692 309.56C108.5 310.639 108.038 311.669 107.445 312.63C106.23 314.535 104.348 316.141 102.052 316.986C99.768 317.855 97.078 317.845 94.651 316.907C93.438 316.44 92.288 315.753 91.289 314.859C90.32 313.954 89.394 312.884 89.007 311.515C88.815 310.841 88.804 310.094 89.018 309.406C89.226 308.721 89.68 308.072 90.346 307.722C91.701 307.029 93.399 307.543 94.374 308.637C95.38 309.735 95.828 311.194 96.064 312.627C96.297 314.077 96.236 315.58 95.931 317.038C95.317 319.947 93.709 322.741 91.246 324.622C90.024 325.565 88.599 326.261 87.086 326.66C85.569 327.045 83.976 327.147 82.404 326.974C79.259 326.646 76.269 325.127 74.27 322.762C73.278 321.582 72.537 320.171 72.275 318.652C72.002 317.139 72.333 315.52 73.201 314.271C74.037 313.018 75.474 312.085 77.022 312.165C78.528 312.254 79.964 313.159 80.583 314.53C80.907 315.209 80.927 316.008 80.73 316.713C80.522 317.422 80.103 318.049 79.586 318.54C78.551 319.533 77.232 320.122 75.915 320.471C70.609 321.919 64.965 320.309 61.511 316.872C60.657 316.005 59.957 314.991 59.558 313.871C59.145 312.757 59.087 311.537 59.362 310.428C59.632 309.32 60.242 308.294 61.142 307.638C62.034 306.967 63.177 306.747 64.215 306.889C65.259 307.029 66.227 307.558 66.858 308.343C67.489 309.123 67.828 310.092 67.837 311.04C67.854 311.992 67.514 312.901 66.989 313.612C66.466 314.331 65.783 314.875 65.082 315.298C63.67 316.152 62.181 316.557 60.834 316.896C59.476 317.222 58.213 317.412 57.072 317.521C54.787 317.735 53.001 317.615 51.804 317.49C50.606 317.357 49.988 317.214 49.988 317.214C49.988 317.214 50.146 317.225 50.452 317.265C50.757 317.307 51.213 317.361 51.812 317.414C53.007 317.515 54.788 317.61 57.058 317.375C58.191 317.255 59.446 317.055 60.792 316.721C62.129 316.374 63.599 315.961 64.973 315.118C65.655 314.701 66.312 314.169 66.807 313.48C67.304 312.797 67.618 311.939 67.598 311.044C67.586 310.151 67.259 309.234 66.663 308.504C66.068 307.771 65.164 307.281 64.18 307.153C63.202 307.024 62.135 307.235 61.309 307.863C60.474 308.477 59.899 309.443 59.647 310.497C59.39 311.555 59.447 312.706 59.844 313.768C60.229 314.837 60.904 315.813 61.736 316.653C65.105 319.991 70.651 321.563 75.825 320.136C77.107 319.796 78.372 319.221 79.341 318.287C79.825 317.826 80.203 317.252 80.389 316.617C80.563 315.978 80.546 315.285 80.257 314.678C79.711 313.452 78.372 312.605 77.008 312.531C76.322 312.484 75.638 312.7 75.029 313.036C74.432 313.396 73.903 313.887 73.51 314.481C72.698 315.657 72.388 317.158 72.647 318.592C72.896 320.029 73.603 321.384 74.562 322.523C76.493 324.805 79.392 326.283 82.45 326.601C83.977 326.768 85.525 326.67 86.995 326.297C88.461 325.91 89.837 325.239 91.02 324.327C93.405 322.509 94.973 319.791 95.572 316.965C95.869 315.548 95.93 314.09 95.706 312.686C95.481 311.294 95.04 309.893 94.113 308.884C93.23 307.879 91.675 307.437 90.516 308.036C89.946 308.334 89.545 308.895 89.356 309.511C89.163 310.132 89.169 310.8 89.345 311.424C89.696 312.686 90.583 313.73 91.52 314.607C92.484 315.473 93.597 316.141 94.773 316.597C97.128 317.513 99.729 317.529 101.946 316.693C104.176 315.88 106.015 314.322 107.201 312.475C107.78 311.543 108.232 310.543 108.419 309.51C108.61 308.487 108.525 307.411 108.045 306.549C107.569 305.69 106.728 305.045 105.812 304.888C105.354 304.818 104.888 304.88 104.474 305.059C104.062 305.244 103.71 305.539 103.432 305.885C102.875 306.581 102.593 307.456 102.554 308.297C102.536 309.144 102.709 309.969 103.027 310.701C103.68 312.168 104.794 313.26 105.936 314.015C107.09 314.774 108.303 315.189 109.411 315.438C111.638 315.935 113.438 315.804 114.632 315.761C115.223 315.727 115.678 315.7 115.999 315.682C116.306 315.662 116.465 315.662 116.465 315.662Z" fill="white"/>
<path d="M377.462 0H300.25V58.937H377.462V0Z" fill="#F5F5F5"/>
<path d="M208.971 123.255L300.25 58.936H377.462L472.674 123.255V132.22H208.971V123.255Z" fill="#F5F5F5"/>
<path d="M472.674 123.255H208.971V132.22H472.674V123.255Z" fill="#EBEBEB"/>
<path d="M316.534 59.506L277.104 123.255H342.643L331.006 59.506V0H316.214L316.534 59.506Z" fill="#FAFAFA"/>
<path d="M376.365 59.506C376.365 59.65 359.079 59.766 337.761 59.766C316.435 59.766 299.153 59.649 299.153 59.506C299.153 59.362 316.435 59.246 337.761 59.246C359.079 59.245 376.365 59.362 376.365 59.506Z" fill="#E0E0E0"/>
<path d="M26.985 210.541H0V237.526H26.985V210.541Z" fill="#FAFAFA"/>
<path d="M26.985 240.766H0V267.751H26.985V240.766Z" fill="#FAFAFA"/>
<path d="M57.389 210.541H30.4041V237.526H57.389V210.541Z" fill="#FAFAFA"/>
<path d="M57.389 240.766H30.4041V267.751H57.389V240.766Z" fill="#FAFAFA"/>
<path d="M87.7941 210.541H60.8091V237.526H87.7941V210.541Z" fill="#FAFAFA"/>
<path d="M87.7941 240.766H60.8091V267.751H87.7941V240.766Z" fill="#FAFAFA"/>
<path d="M118.198 210.541H91.2129V237.526H118.198V210.541Z" fill="#FAFAFA"/>
<path d="M118.198 240.766H91.2129V267.751H118.198V240.766Z" fill="#FAFAFA"/>
<path d="M148.137 210.541H121.152V237.526H148.137V210.541Z" fill="#FAFAFA"/>
<path d="M148.137 240.766H121.152V267.751H148.137V240.766Z" fill="#FAFAFA"/>
<path d="M178.541 210.541H151.556V237.526H178.541V210.541Z" fill="#FAFAFA"/>
<path d="M178.541 240.766H151.556V267.751H178.541V240.766Z" fill="#FAFAFA"/>
<path d="M208.946 210.541H181.961V237.526H208.946V210.541Z" fill="#FAFAFA"/>
<path d="M208.946 240.766H181.961V267.751H208.946V240.766Z" fill="#FAFAFA"/>
<path d="M239.35 210.541H212.365V237.526H239.35V210.541Z" fill="#FAFAFA"/>
<path d="M239.35 240.766H212.365V267.751H239.35V240.766Z" fill="#FAFAFA"/>
<path d="M269.289 210.541H242.304V237.526H269.289V210.541Z" fill="#FAFAFA"/>
<path d="M269.289 240.766H242.304V267.751H269.289V240.766Z" fill="#FAFAFA"/>
<path d="M299.693 210.541H272.708V237.526H299.693V210.541Z" fill="#FAFAFA"/>
<path d="M299.693 240.766H272.708V267.751H299.693V240.766Z" fill="#FAFAFA"/>
<path d="M330.098 210.541H303.113V237.526H330.098V210.541Z" fill="#FAFAFA"/>
<path d="M330.098 240.766H303.113V267.751H330.098V240.766Z" fill="#FAFAFA"/>
<path d="M360.502 210.541H333.517V237.526H360.502V210.541Z" fill="#FAFAFA"/>
<path d="M360.502 240.766H333.517V267.751H360.502V240.766Z" fill="#FAFAFA"/>
<path d="M390.441 210.541H363.456V237.526H390.441V210.541Z" fill="#FAFAFA"/>
<path d="M390.441 240.766H363.456V267.751H390.441V240.766Z" fill="#FAFAFA"/>
<path d="M420.845 210.541H393.86V237.526H420.845V210.541Z" fill="#FAFAFA"/>
<path d="M420.845 240.766H393.86V267.751H420.845V240.766Z" fill="#FAFAFA"/>
<path d="M451.25 210.541H424.265V237.526H451.25V210.541Z" fill="#FAFAFA"/>
<path d="M451.25 240.766H424.265V267.751H451.25V240.766Z" fill="#FAFAFA"/>
<path d="M481.654 210.541H454.669V237.526H481.654V210.541Z" fill="#FAFAFA"/>
<path d="M481.654 240.766H454.669V267.751H481.654V240.766Z" fill="#FAFAFA"/>
<path d="M235.467 128.94L160.074 133.437C155.376 150.173 154.703 166.332 159.833 182.914C161.297 187.647 163.459 192.645 168.434 195.398C172.884 197.861 178.661 198.007 184.079 197.949C210.351 197.669 236.607 194.587 261.949 188.808C256.956 186.034 254.087 180.962 254.746 176.072C256.905 180.858 263.034 184.133 269.354 184.331C275.674 184.529 281.923 181.862 285.793 177.792C264.354 168.033 235.978 148.88 235.467 128.94Z" fill="#263238"/>
<path d="M285.346 160.598C285.345 160.616 285.12 160.621 284.69 160.615C284.261 160.604 283.627 160.602 282.813 160.553C281.184 160.477 278.828 160.298 275.935 159.903C270.184 159.114 262.134 157.348 254.315 152.943C250.432 150.723 247.061 148.055 244.372 145.268C241.682 142.479 239.643 139.611 238.255 137.034C236.859 134.46 236.022 132.23 235.581 130.658C235.325 129.882 235.226 129.251 235.119 128.836C235.026 128.417 234.986 128.195 235.004 128.191C235.053 128.179 235.27 129.055 235.775 130.598C236.272 132.142 237.155 134.331 238.577 136.856C239.992 139.384 242.038 142.195 244.716 144.934C247.394 147.671 250.734 150.296 254.572 152.491C262.306 156.849 270.274 158.662 275.989 159.54C278.862 159.98 281.206 160.214 282.827 160.352C283.594 160.418 284.214 160.47 284.695 160.511C285.122 160.55 285.346 160.58 285.346 160.598Z" fill="#263238"/>
<path d="M298.394 306.472C298.116 306.547 276.158 299.566 276.158 299.566L269.254 305.013L288.083 313.193C288.083 313.193 296.394 314.14 300.379 316.49C304.364 318.84 298.394 306.472 298.394 306.472Z" fill="#263238"/>
<path d="M295.019 307.824C295.019 307.824 295.055 308.043 295.164 308.434C295.801 310.723 298.931 318.907 311.928 323.623C327.147 329.145 360.332 330.688 365.833 329.823C376.489 328.147 386.438 319.834 386.026 317.754" fill="#263238"/>
<path d="M386.027 317.754C385.658 321.138 364.986 321.659 339.855 318.917C314.724 316.175 294.651 311.209 295.02 307.825C295.389 304.441 316.061 303.92 341.192 306.662C366.322 309.404 386.396 314.37 386.027 317.754Z" fill="#455A64"/>
<path d="M354.113 315.397C355.784 313.716 358.154 312.719 356.914 310.768C356.576 311.425 354.905 311.411 354.323 311.921C353.742 312.431 352.131 311.824 351.34 311.616C350.363 311.36 349.832 310.375 349.892 309.486C349.951 308.597 350.461 307.786 350.973 307.017C352.016 305.449 353.115 303.91 354.269 302.403C354.688 301.856 355.126 301.287 355.226 300.635C355.326 299.982 354.971 299.223 354.249 299.031C353.602 298.859 352.932 299.18 352.365 299.501C349.872 300.912 347.434 302.701 346.521 305.172C345.947 306.726 346.026 308.435 345.332 309.951C344.638 311.467 342.637 312.774 340.962 312.042C339.931 311.592 339.438 310.553 339.168 309.574C338.898 308.595 338.743 307.55 338.066 306.735C337.389 305.92 335.943 305.474 335.073 306.131C333.587 307.252 335.485 309.715 334.211 311.02C333.669 311.575 332.698 311.685 331.9 311.464C331.102 311.244 330.441 310.755 329.828 310.257C325.636 306.852 322.555 302.414 321.037 297.597C320.843 296.981 320.667 296.345 320.259 295.815C319.851 295.285 319.146 294.874 318.422 294.958C317.27 295.093 316.752 296.311 316.75 297.326C316.744 300.195 318.853 302.7 320.867 304.972C323.185 307.587 325.503 310.201 327.82 312.816L330.981 316.467L344.564 319.455L353.759 317.557L354.113 315.397Z" fill="#E84C4F"/>
<g opacity="0.6">
<path d="M354.113 315.397C355.784 313.716 358.154 312.719 356.914 310.768C356.576 311.425 354.905 311.411 354.323 311.921C353.742 312.431 352.131 311.824 351.34 311.616C350.363 311.36 349.832 310.375 349.892 309.486C349.951 308.597 350.461 307.786 350.973 307.017C352.016 305.449 353.115 303.91 354.269 302.403C354.688 301.856 355.126 301.287 355.226 300.635C355.326 299.982 354.971 299.223 354.249 299.031C353.602 298.859 352.932 299.18 352.365 299.501C349.872 300.912 347.434 302.701 346.521 305.172C345.947 306.726 346.026 308.435 345.332 309.951C344.638 311.467 342.637 312.774 340.962 312.042C339.931 311.592 339.438 310.553 339.168 309.574C338.898 308.595 338.743 307.55 338.066 306.735C337.389 305.92 335.943 305.474 335.073 306.131C333.587 307.252 335.485 309.715 334.211 311.02C333.669 311.575 332.698 311.685 331.9 311.464C331.102 311.244 330.441 310.755 329.828 310.257C325.636 306.852 322.555 302.414 321.037 297.597C320.843 296.981 320.667 296.345 320.259 295.815C319.851 295.285 319.146 294.874 318.422 294.958C317.27 295.093 316.752 296.311 316.75 297.326C316.744 300.195 318.853 302.7 320.867 304.972C323.185 307.587 325.503 310.201 327.82 312.816L330.981 316.467L344.564 319.455L353.759 317.557L354.113 315.397Z" fill="white"/>
</g>
<path d="M357.963 320.71C358.262 318.879 359.924 317.278 361.981 316.84C362.674 316.692 363.418 316.66 364.037 316.351C364.656 316.041 365.085 315.304 364.686 314.786C364.293 314.275 363.433 314.317 362.739 314.417C361.153 314.645 359.568 314.873 357.982 315.101C359.26 313.817 360.538 312.534 361.815 311.25C362.32 310.742 362.855 310.047 362.488 309.454C362.133 308.881 361.205 308.864 360.475 308.993C357.98 309.435 355.692 310.709 354.181 312.498C352.831 314.097 352.066 316.097 350.348 317.399C348.796 318.576 346.549 319.012 344.568 318.521C342.587 318.03 340.933 316.627 340.312 314.912C340.049 314.184 339.94 313.372 339.364 312.797C338.272 311.706 336.05 312.174 335.095 313.355C334.14 314.536 334.123 316.098 334.258 317.541C329.893 311.856 325.019 305.911 317.729 303.404C316.448 302.963 315.057 302.637 313.703 302.846C312.349 303.055 311.053 303.923 310.835 305.109C310.581 306.488 311.789 307.752 313.095 308.562C315.583 310.105 318.634 310.774 321.323 312.034C324.012 313.294 326.934 315.177 326.765 317.835C326.765 317.835 339.886 319.826 346.385 319.996C352.885 320.165 357.963 320.71 357.963 320.71Z" fill="#E84C4F"/>
<g opacity="0.8">
<path d="M357.963 320.71C358.262 318.879 359.924 317.278 361.981 316.84C362.674 316.692 363.418 316.66 364.037 316.351C364.656 316.041 365.085 315.304 364.686 314.786C364.293 314.275 363.433 314.317 362.739 314.417C361.153 314.645 359.568 314.873 357.982 315.101C359.26 313.817 360.538 312.534 361.815 311.25C362.32 310.742 362.855 310.047 362.488 309.454C362.133 308.881 361.205 308.864 360.475 308.993C357.98 309.435 355.692 310.709 354.181 312.498C352.831 314.097 352.066 316.097 350.348 317.399C348.796 318.576 346.549 319.012 344.568 318.521C342.587 318.03 340.933 316.627 340.312 314.912C340.049 314.184 339.94 313.372 339.364 312.797C338.272 311.706 336.05 312.174 335.095 313.355C334.14 314.536 334.123 316.098 334.258 317.541C329.893 311.856 325.019 305.911 317.729 303.404C316.448 302.963 315.057 302.637 313.703 302.846C312.349 303.055 311.053 303.923 310.835 305.109C310.581 306.488 311.789 307.752 313.095 308.562C315.583 310.105 318.634 310.774 321.323 312.034C324.012 313.294 326.934 315.177 326.765 317.835C326.765 317.835 339.886 319.826 346.385 319.996C352.885 320.165 357.963 320.71 357.963 320.71Z" fill="white"/>
</g>
<path d="M309.891 328.926C309.881 328.986 309.143 328.935 307.999 328.607C306.857 328.283 305.321 327.633 303.824 326.59C302.33 325.542 301.192 324.323 300.495 323.362C299.794 322.4 299.492 321.725 299.545 321.695C299.681 321.593 301.192 324.144 304.123 326.164C307.025 328.221 309.941 328.764 309.891 328.926Z" fill="#263238"/>
<path d="M307.407 331.286C307.397 331.346 306.659 331.294 305.514 330.966C304.372 330.642 302.836 329.992 301.339 328.949C299.845 327.901 298.707 326.682 298.009 325.721C297.308 324.759 297.006 324.084 297.059 324.054C297.195 323.952 298.706 326.503 301.637 328.523C304.54 330.581 307.456 331.124 307.407 331.286Z" fill="#263238"/>
<path d="M395.335 321.341C395.368 321.355 395.276 321.63 395.081 322.116C394.893 322.604 394.565 323.289 394.112 324.109C393.213 325.751 391.712 327.898 389.653 329.899C387.587 331.894 385.393 333.325 383.723 334.171C382.889 334.597 382.194 334.903 381.7 335.075C381.208 335.254 380.931 335.337 380.918 335.304C380.884 335.222 381.944 334.77 383.546 333.848C385.148 332.93 387.264 331.481 389.29 329.525C391.309 327.563 392.825 325.495 393.794 323.923C394.768 322.35 395.255 321.305 395.335 321.341Z" fill="#263238"/>
<path d="M400.136 323.401C400.195 323.425 399.991 324.122 399.474 325.173C398.96 326.223 398.101 327.611 396.918 328.958C395.732 330.302 394.464 331.331 393.487 331.974C392.51 332.62 391.844 332.91 391.813 332.855C391.722 332.716 394.221 331.259 396.526 328.614C398.858 325.993 399.987 323.328 400.136 323.401Z" fill="#263238"/>
<path d="M376.058 257.514L385.343 254.941C385.343 254.941 393.011 256.097 394.988 254.626C396.964 253.155 396.032 252.309 396.032 252.309C400.208 250.731 398.719 248.877 398.719 248.877C398.719 248.877 402.872 248.559 402.946 245.283C402.989 243.378 387.112 240.216 387.112 240.216C387.112 240.216 387.26 238.163 388.88 237.002C390.5 235.842 399.858 238.088 402.731 237.214C405.604 236.341 405.397 233.514 405.397 233.514C405.397 233.514 385.759 229.522 381.622 231.245C377.485 232.968 357.628 241.241 354.605 245.251L361.209 259.025C361.209 259.025 361.614 259.23 364.9 260.127C368.187 261.024 376.058 257.514 376.058 257.514Z" fill="#FFBF9D"/>
<path d="M365.388 254.113C365.39 254.038 366.153 254.052 367.5 253.868C368.838 253.675 370.787 253.252 372.926 252.125C373.993 251.567 375.097 250.829 376.145 249.885C376.679 249.423 377.172 248.884 377.66 248.316C378.146 247.74 378.615 247.083 379.249 246.491C379.853 245.899 380.775 245.38 381.751 245.422C382.671 245.434 383.532 245.611 384.409 245.791C386.167 246.155 387.89 246.749 389.651 246.486C390.795 246.331 391.894 245.885 392.699 245.163C393.514 244.488 394.019 243.363 393.597 242.659L393.851 242.844C388.261 241.49 383.271 240.894 379.749 240.376C378.11 240.137 376.734 239.936 375.611 239.772C374.647 239.616 374.126 239.507 374.132 239.458C374.138 239.408 374.67 239.423 375.644 239.491C376.618 239.559 378.036 239.678 379.812 239.853C383.359 240.228 388.369 240.714 394.051 242.038L394.215 242.076L394.306 242.223C394.693 242.85 394.641 243.628 394.4 244.231C394.161 244.852 393.753 245.375 393.271 245.799C392.312 246.663 391.054 247.165 389.765 247.341C388.779 247.485 387.799 247.382 386.865 247.22C385.974 247.016 385.097 246.815 384.233 246.617C383.384 246.435 382.533 246.262 381.751 246.246C380.998 246.211 380.35 246.562 379.788 247.078C379.224 247.587 378.754 248.216 378.241 248.807C377.717 249.396 377.188 249.951 376.619 250.423C375.501 251.389 374.33 252.127 373.204 252.67C370.947 253.77 368.915 254.109 367.538 254.203C366.147 254.285 365.385 254.156 365.388 254.113Z" fill="#FF9A6C"/>
<path d="M384.378 246.425C384.598 246.501 384.149 248.357 383.136 250.465C382.128 252.577 380.963 254.09 380.766 253.966C380.559 253.839 381.374 252.158 382.359 250.093C383.35 248.032 384.149 246.344 384.378 246.425Z" fill="#FF9A6C"/>
<path d="M395.156 251.923C395.11 252.162 392.537 251.856 389.372 251.507C386.207 251.151 383.63 250.883 383.638 250.64C383.644 250.408 386.263 250.291 389.468 250.651C392.672 251.004 395.202 251.695 395.156 251.923Z" fill="#FF9A6C"/>
<path d="M399.928 249.048C399.895 249.284 396.608 249.012 392.589 248.441C388.568 247.87 385.337 247.216 385.37 246.981C385.403 246.746 388.689 247.017 392.71 247.589C396.73 248.159 399.962 248.813 399.928 249.048Z" fill="#FF9A6C"/>
<path d="M386.754 235.704C386.989 235.706 387.166 236.903 386.989 238.363C386.815 239.824 386.359 240.945 386.13 240.891C385.895 240.837 385.966 239.671 386.134 238.26C386.305 236.851 386.513 235.701 386.754 235.704Z" fill="#FF9A6C"/>
<path d="M276.395 240.201L303.599 254.635L356.695 244.332L364.238 259.946C364.238 259.946 315.712 281.21 302.159 281.442C288.606 281.674 263.972 265.697 263.972 265.697L276.395 240.201Z" fill="#FFBF9D"/>
<path d="M341.99 255.345C341.99 255.345 335.542 254.094 334.375 258.913C333.208 263.732 338.991 264.944 338.991 264.944C338.991 264.944 337.926 268.275 343.5 270.017C349.075 271.759 350.163 265.705 350.163 265.705C350.163 265.705 355.405 267.424 355.8 264.048C356.392 259.043 352.317 258.637 352.317 258.637C352.317 258.637 356.336 253.739 349.769 251.794C343.202 249.85 341.99 255.345 341.99 255.345ZM348.957 253.919C352.751 254.719 350.253 259.449 350.253 259.449C350.253 259.449 354.542 260.424 353.697 262.955C352.852 265.486 348.624 263.834 348.624 263.834C348.624 263.834 350.174 268.157 344.977 268.208C339.78 268.259 341.928 263.783 341.928 263.783C341.928 263.783 337.712 264.178 336.816 260.164C335.92 256.151 343.208 257.346 343.208 257.346C343.427 253.948 345.158 253.113 348.957 253.919Z" fill="#E84C4F"/>
<g opacity="0.3">
<path d="M341.99 255.345C341.99 255.345 335.542 254.094 334.375 258.913C333.208 263.732 338.991 264.944 338.991 264.944C338.991 264.944 337.926 268.275 343.5 270.017C349.075 271.759 350.163 265.705 350.163 265.705C350.163 265.705 355.405 267.424 355.8 264.048C356.392 259.043 352.317 258.637 352.317 258.637C352.317 258.637 356.336 253.739 349.769 251.794C343.202 249.85 341.99 255.345 341.99 255.345ZM348.957 253.919C352.751 254.719 350.253 259.449 350.253 259.449C350.253 259.449 354.542 260.424 353.697 262.955C352.852 265.486 348.624 263.834 348.624 263.834C348.624 263.834 350.174 268.157 344.977 268.208C339.78 268.259 341.928 263.783 341.928 263.783C341.928 263.783 337.712 264.178 336.816 260.164C335.92 256.151 343.208 257.346 343.208 257.346C343.427 253.948 345.158 253.113 348.957 253.919Z" fill="black"/>
</g>
<path d="M342.086 254.1C342.086 254.1 335.638 252.843 334.471 257.662C333.304 262.481 339.087 263.693 339.087 263.693C339.087 263.693 338.022 267.024 343.596 268.766C349.171 270.508 350.264 264.46 350.264 264.46C350.264 264.46 355.506 266.179 355.901 262.803C356.493 257.792 352.418 257.392 352.418 257.392C352.418 257.392 356.437 252.494 349.87 250.549C343.303 248.604 342.086 254.1 342.086 254.1ZM349.053 252.668C352.852 253.474 350.349 258.203 350.349 258.203C350.349 258.203 354.639 259.178 353.793 261.703C352.948 264.228 348.72 262.582 348.72 262.582C348.72 262.582 350.27 266.905 345.073 266.962C339.876 267.018 342.024 262.532 342.024 262.532C342.024 262.532 337.808 262.927 336.912 258.919C336.016 254.911 343.304 256.101 343.304 256.101C343.501 252.702 345.254 251.867 349.053 252.668Z" fill="#E84C4F"/>
<path d="M345.023 209.389C345.023 209.389 338.535 210.413 339.082 215.341C339.63 220.269 345.479 219.435 345.479 219.435C345.479 219.435 345.614 222.93 351.449 222.665C357.283 222.4 356.241 216.338 356.241 216.338C356.241 216.338 361.755 216.165 360.974 212.857C359.822 207.95 355.853 208.959 355.853 208.959C355.853 208.959 357.96 202.983 351.123 203.396C344.287 203.809 345.023 209.389 345.023 209.389ZM351.086 205.671C354.925 205.129 354.191 210.427 354.191 210.427C354.191 210.427 358.556 209.88 358.625 212.548C358.694 215.215 354.156 215.105 354.156 215.105C354.156 215.105 357.088 218.64 352.22 220.461C347.352 222.282 347.844 217.342 347.844 217.342C347.844 217.342 344.015 219.152 341.804 215.685C339.592 212.218 346.851 210.855 346.851 210.855C345.897 207.584 347.239 206.21 351.086 205.671Z" fill="#E84C4F"/>
<g opacity="0.3">
<path d="M345.023 209.389C345.023 209.389 338.535 210.413 339.082 215.341C339.63 220.269 345.479 219.435 345.479 219.435C345.479 219.435 345.614 222.93 351.449 222.665C357.283 222.4 356.241 216.338 356.241 216.338C356.241 216.338 361.755 216.165 360.974 212.857C359.822 207.95 355.853 208.959 355.853 208.959C355.853 208.959 357.96 202.983 351.123 203.396C344.287 203.809 345.023 209.389 345.023 209.389ZM351.086 205.671C354.925 205.129 354.191 210.427 354.191 210.427C354.191 210.427 358.556 209.88 358.625 212.548C358.694 215.215 354.156 215.105 354.156 215.105C354.156 215.105 357.088 218.64 352.22 220.461C347.352 222.282 347.844 217.342 347.844 217.342C347.844 217.342 344.015 219.152 341.804 215.685C339.592 212.218 346.851 210.855 346.851 210.855C345.897 207.584 347.239 206.21 351.086 205.671Z" fill="black"/>
</g>
<path d="M344.688 208.185C344.688 208.185 338.198 209.204 338.745 214.132C339.293 219.06 345.142 218.226 345.142 218.226C345.142 218.226 345.277 221.721 351.112 221.456C356.946 221.191 355.911 215.133 355.911 215.133C355.911 215.133 361.425 214.96 360.644 211.652C359.491 206.74 355.523 207.754 355.523 207.754C355.523 207.754 357.63 201.778 350.793 202.191C343.958 202.604 344.688 208.185 344.688 208.185ZM350.749 204.462C354.595 203.923 353.856 209.223 353.856 209.223C353.856 209.223 358.221 208.676 358.288 211.338C358.355 214 353.819 213.895 353.819 213.895C353.819 213.895 356.751 217.43 351.885 219.256C347.019 221.082 347.507 216.132 347.507 216.132C347.507 216.132 343.678 217.941 341.468 214.48C339.258 211.019 346.515 209.65 346.515 209.65C345.541 206.388 346.904 205.006 350.749 204.462Z" fill="#E84C4F"/>
<path d="M334.874 233.121C334.874 233.121 330.777 233.299 330.532 236.268C330.287 239.237 331.434 244.101 338.549 245.162C345.664 246.223 346.523 237.366 346.523 237.366C346.523 237.366 344.467 232.723 334.874 233.121Z" fill="#E0E0E0"/>
<g opacity="0.21">
<path d="M338.91 241.126C342.848 241.31 345.191 239.611 346.362 238.36C346.485 237.747 346.528 237.366 346.528 237.366C346.528 237.366 344.467 232.723 334.874 233.121C334.874 233.121 330.777 233.299 330.532 236.267C330.532 236.469 330.532 236.678 330.501 236.88C331.998 238.519 334.862 240.929 338.91 241.126Z" fill="#263238"/>
</g>
<path d="M335.659 231.183L334.487 236.317C334.487 236.317 336.53 238.728 339.504 238.562C342.478 238.396 342.473 237.28 342.473 237.28L343.7 232.024C343.7 232.024 341.069 230.098 338.18 230.018C335.291 229.938 335.659 231.183 335.659 231.183Z" fill="#E0E0E0"/>
<path d="M313.493 267.697C313.493 267.697 310.894 270.87 312.944 273.032C314.993 275.194 319.384 277.581 324.917 272.985C330.451 268.389 324.421 261.845 324.421 261.845C324.421 261.845 319.59 260.28 313.493 267.697Z" fill="#E0E0E0"/>
<g opacity="0.21">
<path d="M322.15 270.024C324.912 267.211 325.207 264.332 325.056 262.625C324.68 262.125 324.426 261.839 324.426 261.839C324.426 261.839 319.591 260.28 313.494 267.697C313.494 267.697 310.895 270.87 312.945 273.031C313.096 273.166 313.251 273.305 313.382 273.463C315.599 273.439 319.305 272.911 322.15 270.024Z" fill="#263238"/>
</g>
<path d="M312.571 265.82L315.617 270.115C315.617 270.115 318.775 270.199 320.635 267.871C322.494 265.543 321.658 264.803 321.658 264.803L318.557 260.385C318.557 260.385 315.367 261.063 313.382 263.163C311.398 265.264 312.571 265.82 312.571 265.82Z" fill="#E0E0E0"/>
<path d="M359.511 267.474C359.511 267.474 362.286 269.43 363.944 267.613C365.602 265.795 367.316 262.021 363.181 257.72C359.046 253.419 354.009 258.802 354.009 258.802C354.009 258.802 353.017 262.887 359.511 267.474Z" fill="#E0E0E0"/>
<g opacity="0.21">
<path d="M360.905 260.189C359.213 258.62 356.903 257.901 354.619 258.233C354.237 258.559 354.008 258.802 354.008 258.802C354.008 258.802 353.016 262.888 359.51 267.474C359.51 267.474 362.285 269.43 363.943 267.613C364.054 267.488 364.165 267.356 364.276 267.211C364.121 264.517 362.91 261.994 360.905 260.189Z" fill="#263238"/>
</g>
<path d="M358.012 268.382L361.377 265.607C361.265 264.023 360.479 262.564 359.219 261.597C357.179 260.209 356.624 260.938 356.624 260.938L353.155 263.769C353.645 265.346 354.542 266.765 355.757 267.883C357.631 269.361 358.012 268.382 358.012 268.382Z" fill="#E0E0E0"/>
<path d="M343.322 301.831C343.322 301.831 336.254 304.643 331.533 295.686C326.811 286.729 327.524 278.351 333.931 276.441C340.339 274.531 342.439 277.744 343.754 280.061C345.069 282.378 348.207 287.563 348.771 292.246C349.065 294.887 347.6 300.505 343.322 301.831Z" fill="#AE7461"/>
<path opacity="0.3" d="M343.207 299.24C344.581 298.625 345.711 297.569 346.418 296.239L346.383 296.293L346.431 296.218L346.54 296.048C346.612 295.936 346.655 295.801 346.707 295.676L346.77 295.578L346.716 295.663C347.122 294.485 347.227 293.223 347.019 291.995C346.943 291.259 346.76 290.539 346.475 289.856C346.191 289.172 345.662 288.618 344.992 288.302C344.221 288.008 343.356 288.091 342.655 288.527C341.964 288.963 341.432 289.611 341.137 290.373C340.849 291.069 340.725 291.822 340.466 292.532C340.252 293.263 339.758 293.881 339.092 294.25C338.524 294.508 337.862 294.467 337.273 294.683C336.236 295.105 335.664 296.223 335.929 297.311C336.198 298.302 337.127 298.974 338.083 299.342C339.738 299.982 341.578 299.945 343.207 299.24Z" fill="#6F4439"/>
<path opacity="0.3" d="M335.958 277.469C334.472 277.689 333.102 278.397 332.064 279.482L332.099 279.428L332.051 279.503L331.914 279.65C331.84 279.765 331.734 279.856 331.652 279.961L331.589 280.059L331.643 279.974C330.923 280.983 330.465 282.156 330.313 283.386C330.183 284.109 330.158 284.848 330.238 285.578C330.324 286.314 330.681 286.992 331.24 287.479C331.9 287.972 332.752 288.131 333.545 287.908C334.33 287.676 335.019 287.199 335.514 286.547C335.983 285.957 336.307 285.265 336.734 284.644C337.141 283.999 337.786 283.542 338.53 283.373C339.141 283.286 339.774 283.5 340.396 283.449C341.51 283.333 342.37 282.415 342.413 281.295C342.425 280.269 341.728 279.377 340.9 278.75C339.483 277.695 337.71 277.236 335.958 277.469Z" fill="#6F4439"/>
<path opacity="0.3" d="M337.114 289.189C336.833 289.193 336.556 289.251 336.297 289.359L334.676 289.909C334.258 290.053 333.784 290.247 333.647 290.685C333.565 290.973 333.671 291.281 333.912 291.458C334.149 291.629 334.45 291.683 334.732 291.605L334.663 291.609C335.55 291.565 336.411 291.293 337.162 290.817C337.379 290.693 337.565 290.524 337.71 290.321C337.854 290.113 337.885 289.847 337.791 289.612C337.66 289.358 337.4 289.195 337.114 289.189Z" fill="#6F4439"/>
<path d="M330.247 280.824C330.277 280.844 330.074 281.355 329.855 282.219C329.284 284.486 329.343 286.865 330.025 289.101C330.285 289.957 330.519 290.466 330.484 290.476C330.405 290.372 330.34 290.258 330.29 290.136C330.134 289.816 329.999 289.486 329.884 289.148C329.112 286.898 329.052 284.465 329.713 282.179C329.811 281.837 329.93 281.501 330.071 281.173C330.11 281.05 330.17 280.932 330.247 280.824Z" fill="white"/>
<path d="M332.157 278.426C332.204 278.456 331.994 278.748 331.7 279.057C331.406 279.366 331.138 279.568 331.077 279.529C331.016 279.49 331.24 279.208 331.54 278.897C331.839 278.586 332.116 278.385 332.157 278.426Z" fill="white"/>
<path d="M333.863 297.219C333.19 296.812 332.711 296.15 332.537 295.383C332.776 295.676 332.993 295.986 333.186 296.311C333.433 296.597 333.66 296.9 333.863 297.219Z" fill="white"/>
<path d="M352.437 233.578C352.437 233.578 346.892 230.979 349.548 223.273C352.204 215.567 357.515 211.369 362.166 214.078C366.817 216.787 366.088 219.79 365.453 221.838C364.818 223.886 363.503 228.585 361.065 231.496C359.677 233.123 355.572 235.358 352.437 233.578Z" fill="#AE7461"/>
<path opacity="0.3" d="M353.894 232.083C355.012 232.551 356.255 232.632 357.425 232.314L357.374 232.324L357.444 232.311L357.604 232.281C357.709 232.261 357.812 232.213 357.914 232.174L358.006 232.157L357.926 232.172C358.841 231.761 359.639 231.128 360.246 230.328C360.636 229.878 360.958 229.374 361.202 228.831C361.447 228.287 361.481 227.672 361.297 227.104C361.045 226.489 360.52 226.028 359.877 225.857C359.24 225.692 358.567 225.736 357.957 225.983C357.39 226.197 356.879 226.54 356.32 226.779C355.773 227.056 355.138 227.107 354.554 226.919C354.09 226.728 353.749 226.316 353.298 226.09C352.479 225.714 351.508 225.994 351.015 226.749C350.582 227.453 350.699 228.368 351.009 229.132C351.547 230.456 352.583 231.515 353.894 232.083Z" fill="#6F4439"/>
<path opacity="0.3" d="M362.68 215.833C361.733 215.082 360.562 214.668 359.353 214.656L359.404 214.647L359.334 214.66H359.172C359.063 214.68 358.952 214.668 358.845 214.678L358.753 214.695L358.833 214.68C357.844 214.813 356.903 215.191 356.097 215.779C355.601 216.101 355.154 216.493 354.769 216.943C354.384 217.399 354.183 217.982 354.205 218.579C354.279 219.238 354.655 219.825 355.223 220.168C355.792 220.501 356.451 220.643 357.107 220.574C357.711 220.524 358.296 220.333 358.896 220.241C359.499 220.124 360.123 220.252 360.631 220.595C361.019 220.906 361.242 221.396 361.614 221.732C362.296 222.322 363.308 222.321 363.989 221.729C364.598 221.17 364.737 220.27 364.649 219.439C364.488 218.027 363.781 216.733 362.68 215.833Z" fill="#6F4439"/>
<path opacity="0.3" d="M356.437 222.969C356.28 222.807 356.093 222.676 355.887 222.583L354.671 221.935C354.356 221.769 353.981 221.598 353.648 221.759C353.434 221.87 353.312 222.102 353.34 222.341C353.37 222.574 353.504 222.781 353.705 222.903L353.665 222.864C354.179 223.361 354.814 223.716 355.506 223.894C355.698 223.953 355.9 223.969 356.099 223.942C356.301 223.912 356.474 223.784 356.56 223.599C356.639 223.383 356.591 223.141 356.437 222.969Z" fill="#6F4439"/>
<path d="M357.563 214.33C357.568 214.359 357.156 214.521 356.528 214.869C354.883 215.783 353.519 217.128 352.582 218.76C352.223 219.384 352.053 219.802 352.027 219.787C352.045 219.683 352.076 219.582 352.119 219.486C352.221 219.218 352.34 218.957 352.475 218.704C353.371 217.011 354.766 215.636 356.471 214.764C356.726 214.633 356.989 214.518 357.258 214.42C357.356 214.374 357.458 214.344 357.563 214.33Z" fill="white"/>
<path d="M360.024 214.13C360.032 214.175 359.745 214.211 359.402 214.209C359.058 214.207 358.793 214.161 358.782 214.103C358.771 214.046 359.061 214.022 359.408 214.026C359.755 214.031 360.025 214.083 360.024 214.13Z" fill="white"/>
<path d="M349.932 225.485C349.8 224.866 349.925 224.22 350.279 223.695C350.239 223.997 350.176 224.295 350.092 224.588C350.061 224.89 350.007 225.19 349.932 225.485Z" fill="white"/>
<path d="M329.373 233.942C326.129 235.686 322.085 234.469 320.341 231.225C318.597 227.981 319.814 223.937 323.058 222.193C326.287 220.457 330.312 221.654 332.069 224.872C333.834 228.105 332.644 232.157 329.411 233.921C329.398 233.929 329.385 233.935 329.373 233.942Z" fill="#FF9A6C"/>
<g opacity="0.5">
<path d="M329.373 233.942C326.129 235.686 322.085 234.469 320.341 231.225C318.597 227.981 319.814 223.937 323.058 222.193C326.287 220.457 330.312 221.654 332.069 224.872C333.834 228.105 332.644 232.157 329.411 233.921C329.398 233.929 329.385 233.935 329.373 233.942Z" fill="#E84C4F"/>
</g>
<path d="M328.753 232.799C325.509 234.543 321.465 233.326 319.721 230.082C317.977 226.838 319.194 222.794 322.438 221.05C325.667 219.314 329.692 220.511 331.449 223.729C333.214 226.962 332.024 231.014 328.791 232.778C328.779 232.785 328.766 232.792 328.753 232.799Z" fill="#FF9A6C"/>
<g opacity="0.3">
<path d="M327.448 230.417C325.561 231.441 323.202 230.742 322.177 228.856C321.153 226.969 321.852 224.609 323.738 223.585C325.625 222.561 327.985 223.26 329.009 225.146L329.01 225.148C330.033 227.035 329.334 229.393 327.448 230.417Z" fill="white"/>
</g>
<path d="M326.781 229.15C324.908 229.516 323.404 229.069 323.423 228.152C322.771 226.949 323.218 225.446 324.421 224.794C325.624 224.142 327.127 224.589 327.779 225.792C327.78 225.794 327.781 225.796 327.781 225.796C328.432 226.993 327.99 228.491 326.793 229.143C326.789 229.146 326.785 229.148 326.781 229.15Z" fill="#FF9A6C"/>
<path d="M365.161 237.739C368.106 236.286 371.67 237.496 373.123 240.44C374.576 243.385 373.366 246.949 370.422 248.402C367.477 249.855 363.913 248.645 362.46 245.701C361.006 242.756 362.216 239.191 365.161 237.739Z" fill="#FF9A6C"/>
<g opacity="0.5">
<path d="M365.161 237.739C368.106 236.286 371.67 237.496 373.123 240.44C374.576 243.385 373.366 246.949 370.422 248.402C367.477 249.855 363.913 248.645 362.46 245.701C361.006 242.756 362.216 239.191 365.161 237.739Z" fill="#E84C4F"/>
</g>
<path d="M370.07 247.311C367.186 248.861 363.591 247.78 362.041 244.896C360.491 242.012 361.572 238.417 364.456 236.867C367.327 235.324 370.905 236.388 372.466 239.248C374.035 242.122 372.977 245.723 370.103 247.292C370.092 247.298 370.081 247.305 370.07 247.311Z" fill="#FF9A6C"/>
<g opacity="0.3">
<path d="M363.971 241.146C364.517 239.322 366.439 238.287 368.262 238.833C370.086 239.379 371.121 241.301 370.575 243.124C370.029 244.948 368.107 245.983 366.284 245.437C364.46 244.89 363.425 242.969 363.971 241.146Z" fill="white"/>
</g>
<path d="M368.317 244.067C367.247 244.644 365.911 244.245 365.334 243.174C364.757 242.104 365.156 240.768 366.227 240.191C367.295 239.615 368.628 240.011 369.207 241.078C369.788 242.146 369.392 243.483 368.324 244.064C368.321 244.065 368.319 244.066 368.317 244.067Z" fill="#FF9A6C"/>
<path d="M310.745 279.768C310.443 282.948 311.654 286.085 314.014 288.237C316.25 290.356 319.379 291.254 322.399 290.642C322.664 284.885 318.212 280.004 312.455 279.74C311.884 279.714 311.312 279.734 310.745 279.802V279.768Z" fill="#455A64"/>
<path d="M313.354 281.961C313.456 281.885 315.251 284.222 317.868 286.721C320.485 289.219 322.873 290.956 322.797 291.049C322.203 290.79 321.648 290.451 321.146 290.041C318.611 288.214 316.35 286.036 314.43 283.571C313.993 283.09 313.63 282.548 313.354 281.961Z" fill="#263238"/>
<path d="M332.345 200.878C330.203 203.248 329.3 206.487 329.907 209.623C330.434 212.659 332.407 215.247 335.194 216.561C338.845 212.103 338.191 205.529 333.733 201.877C333.291 201.515 332.82 201.19 332.325 200.905L332.345 200.878Z" fill="#455A64"/>
<path d="M333.127 204.195C333.254 204.195 333.297 207.142 333.903 210.709C334.509 214.276 335.387 217.095 335.27 217.124C334.949 216.561 334.706 215.957 334.548 215.329C333.607 212.35 333.095 209.252 333.028 206.128C332.965 205.483 332.998 204.831 333.127 204.195Z" fill="#263238"/>
<path d="M394.364 257.215C391.102 254.698 386.849 253.854 382.873 254.937C379.01 255.923 375.867 258.722 374.442 262.445C380.571 266.716 389.001 265.211 393.273 259.082C393.686 258.49 394.051 257.865 394.364 257.215Z" fill="#455A64"/>
<path d="M390.195 258.558C390.216 258.73 386.428 259.047 381.886 260.205C377.344 261.363 373.802 262.764 373.737 262.606C374.434 262.136 375.193 261.765 375.993 261.504C377.864 260.747 379.787 260.126 381.747 259.648C383.704 259.15 385.695 258.793 387.704 258.581C388.529 258.456 389.368 258.449 390.195 258.558Z" fill="#263238"/>
<path d="M327.237 251.759C327.215 253.182 325.007 254.298 322.307 254.255C319.607 254.212 317.435 253.022 317.456 251.617C317.405 252.158 317.395 252.703 317.428 253.245C317.406 254.668 319.576 255.854 322.273 255.899C324.97 255.944 327.184 254.824 327.206 253.402C327.251 252.856 327.261 252.307 327.237 251.759Z" fill="#455A64"/>
<path d="M322.364 250.733C324.526 250.766 326.345 251.534 326.972 252.569C327.137 252.331 327.229 252.049 327.237 251.759C327.259 250.336 325.089 249.15 322.392 249.105C319.695 249.06 317.481 250.18 317.457 251.617C317.456 251.907 317.539 252.191 317.697 252.434C318.366 251.411 320.205 250.698 322.364 250.733Z" fill="#263238"/>
<path d="M356.073 239.095C356.638 239.639 356.257 240.947 355.224 242.018C354.192 243.089 352.896 243.516 352.338 242.979C352.537 243.203 352.752 243.412 352.983 243.603C353.548 244.147 354.841 243.719 355.873 242.65C356.905 241.581 357.287 240.269 356.722 239.725C356.52 239.501 356.303 239.291 356.073 239.095Z" fill="#455A64"/>
<path d="M353.828 240.671C354.654 239.813 355.647 239.369 356.3 239.506C356.266 239.35 356.187 239.207 356.074 239.095C355.509 238.551 354.216 238.979 353.184 240.048C352.152 241.117 351.77 242.429 352.34 242.98C352.456 243.089 352.602 243.162 352.759 243.19C352.598 242.536 353.002 241.527 353.828 240.671Z" fill="#263238"/>
<path d="M363.603 188.589C363.985 189.694 362.593 191.175 360.495 191.899C358.398 192.623 356.386 192.314 356.009 191.222C356.121 191.654 356.267 192.077 356.444 192.488C356.826 193.593 358.835 193.901 360.931 193.179C363.027 192.458 364.423 190.972 364.04 189.866C363.921 189.432 363.775 189.006 363.603 188.589Z" fill="#455A64"/>
<path d="M359.551 189.164C361.23 188.583 362.851 188.666 363.625 189.289C363.685 189.059 363.678 188.815 363.603 188.589C363.221 187.484 361.212 187.176 359.116 187.898C357.02 188.619 355.625 190.105 356.009 191.223C356.09 191.447 356.234 191.643 356.423 191.787C356.653 190.809 357.873 189.742 359.551 189.164Z" fill="#263238"/>
<path d="M367.877 270.359L354.033 281.517C353.607 281.86 353.518 282.475 353.832 282.923C354.727 284.199 356.093 285.42 358.06 286.509C368.06 292.043 374.34 281.674 372.951 275.63C372.505 273.691 371.118 271.71 369.125 270.313C368.748 270.049 368.237 270.069 367.877 270.359Z" fill="#E84C4F"/>
<path opacity="0.3" d="M367.877 270.359L354.033 281.517C353.607 281.86 353.518 282.475 353.832 282.923C354.727 284.199 356.093 285.42 358.06 286.509C368.06 292.043 374.34 281.674 372.951 275.63C372.505 273.691 371.118 271.71 369.125 270.313C368.748 270.049 368.237 270.069 367.877 270.359Z" fill="black"/>
<path d="M367.144 269.689L353.3 280.847C352.874 281.19 352.785 281.805 353.099 282.254C353.994 283.53 355.36 284.751 357.327 285.84C367.327 291.374 373.607 281.005 372.218 274.961C371.772 273.022 370.385 271.041 368.392 269.644C368.014 269.378 367.503 269.399 367.144 269.689Z" fill="#E84C4F"/>
<path opacity="0.3" d="M365.98 271.022C366.338 270.504 370.851 272.126 370.832 275.889C370.814 279.652 369.753 282.461 368.084 282.551C366.415 282.641 364.327 279.572 364.243 276.758C364.158 273.943 365.552 271.642 365.98 271.022Z" fill="black"/>
<path opacity="0.3" d="M354.742 280.653C354.768 279.922 358.569 277.846 361.094 278.313C363.619 278.78 366.542 282.956 366.437 284.065C366.328 285.213 361.621 285.824 359.269 285.028C356.917 284.231 354.703 281.733 354.742 280.653Z" fill="black"/>
<path d="M359.346 279.511C359.042 279.19 356.139 281.115 356.79 281.772C357.442 282.43 360.001 280.204 359.346 279.511Z" fill="#E84C4F"/>
<path d="M363.114 281.057C363.522 280.942 364.952 284.05 363.89 284.095C362.828 284.14 362.707 281.173 363.114 281.057Z" fill="#E84C4F"/>
<path d="M361.396 280.177C361.901 280.277 361.441 284.34 360.075 284.199C358.708 284.058 360.891 280.076 361.396 280.177Z" fill="#E84C4F"/>
<path d="M365.807 275.512C365.561 274.74 369.296 273.821 369.407 274.629C369.518 275.437 366.134 276.536 365.807 275.512Z" fill="#E84C4F"/>
<path d="M365.78 274.015C366.196 274.36 368.111 272.815 367.562 272.334C367.012 271.853 365.365 273.67 365.78 274.015Z" fill="#E84C4F"/>
<path d="M365.588 277.085C365.553 277.393 368.906 278.166 368.803 277.508C368.7 276.851 365.675 276.314 365.588 277.085Z" fill="#E84C4F"/>
<path d="M365.145 278.362C364.777 278.949 366.798 281.196 367.317 280.719C367.838 280.243 365.671 277.524 365.145 278.362Z" fill="#E84C4F"/>
<path d="M364.377 272.4C364.383 272.406 364.302 272.502 364.149 272.671C363.997 272.84 363.77 273.079 363.484 273.369C362.912 273.948 362.094 274.721 361.14 275.518C360.185 276.314 359.279 276.982 358.607 277.441C358.271 277.671 357.996 277.851 357.802 277.971C357.609 278.091 357.5 278.154 357.495 278.147C357.49 278.14 357.59 278.063 357.775 277.931C357.978 277.785 358.241 277.596 358.556 277.369C359.213 276.892 360.108 276.216 361.06 275.422C362.01 274.628 362.836 273.868 363.422 273.306C363.701 273.036 363.934 272.812 364.114 272.638C364.278 272.478 364.371 272.393 364.377 272.4Z" fill="white"/>
<path d="M233.527 190.539C233.527 190.539 247.466 201.615 251.899 208.51C256.332 215.405 291.793 239.555 291.3 240.409C290.807 241.263 269.629 276.231 269.629 276.231L257.861 270.286L233.526 191.764" fill="#E84C4F"/>
<path d="M183.988 319.743C183.988 319.743 157.551 361.459 154.878 377.351L183.988 389.27V319.743Z" fill="#E84C4F"/>
<path d="M166.427 184.772C166.427 185.82 161.447 198.926 161.447 198.926L135.498 227.496L185.561 309.012L190.541 321.331L267.601 316.875C267.601 316.875 256.592 258.424 255.806 248.726C255.02 239.028 233.527 190.537 233.527 190.537L207.578 193.42L199.977 190.799L166.427 184.772Z" fill="#E84C4F"/>
<path d="M182.385 320.143C181.414 319.755 176.378 336.587 167.818 367.365C159.258 398.144 165.115 461.039 165.115 461.039H298.013C298.013 461.039 289.223 391.407 277.741 357.552C266.409 324.14 267.007 303.143 264.49 303.361C261.973 303.578 182.385 320.143 182.385 320.143Z" fill="#263238"/>
<path d="M259.641 273.159C259.632 273.16 259.609 273.085 259.572 272.936C259.532 272.756 259.482 272.538 259.422 272.273C259.302 271.688 259.12 270.826 258.859 269.722C258.338 267.516 257.526 264.333 256.22 260.496C254.916 256.665 253.197 252.131 250.697 247.407C248.069 242.75 244.826 237.812 241.15 232.842C233.805 222.879 226.062 214.71 220.021 209.312C217.026 206.578 214.418 204.583 212.63 203.189C211.741 202.543 211.036 202.031 210.517 201.655C210.3 201.491 210.121 201.356 209.974 201.245C209.853 201.15 209.794 201.098 209.799 201.09C209.804 201.083 209.873 201.12 210.004 201.2C210.159 201.3 210.347 201.421 210.576 201.568C211.11 201.926 211.835 202.412 212.75 203.026C214.58 204.372 217.231 206.33 220.267 209.037C226.39 214.382 234.202 222.539 241.57 232.533C245.259 237.522 248.495 242.474 251.121 247.179C253.621 251.96 255.306 256.518 256.572 260.38C257.838 264.246 258.598 267.454 259.06 269.679C259.292 270.792 259.442 271.662 259.529 272.254C259.568 272.524 259.601 272.745 259.628 272.927C259.644 273.079 259.65 273.158 259.641 273.159Z" fill="#263238"/>
<path d="M135.498 227.496C135.498 227.496 130.605 233.133 132.393 245.846C134.181 258.559 154.877 316.141 154.877 316.141L200.241 300.845L176.205 253.051L159.548 232.172L135.498 227.496Z" fill="#E84C4F"/>
<path d="M257.854 260.959C257.837 260.963 257.782 260.808 257.693 260.51C257.594 260.152 257.474 259.72 257.33 259.2C257.003 257.98 256.566 256.351 256.036 254.375C254.931 250.305 253.315 244.707 251.295 238.6C249.269 232.492 247.223 227.036 245.68 223.112C244.925 221.21 244.303 219.643 243.837 218.469C243.642 217.966 243.48 217.548 243.346 217.202C243.239 216.91 243.191 216.753 243.207 216.746C243.223 216.739 243.304 216.882 243.442 217.16C243.601 217.496 243.793 217.902 244.023 218.389C244.521 219.46 245.205 221.026 246.021 222.974C247.654 226.869 249.759 232.316 251.789 238.437C253.814 244.557 255.376 250.183 256.392 254.283C256.901 256.332 257.286 257.998 257.526 259.154C257.632 259.683 257.721 260.123 257.794 260.487C257.851 260.792 257.872 260.955 257.854 260.959Z" fill="#263238"/>
<path d="M154.877 316.142C154.875 316.135 154.946 316.104 155.088 316.049C155.251 315.988 155.46 315.911 155.723 315.814C156.312 315.606 157.139 315.313 158.2 314.938C160.398 314.18 163.56 313.089 167.538 311.716C175.573 308.982 186.895 305.13 200.163 300.616L200.024 300.955C196.146 293.315 191.889 284.928 187.434 276.149C185.073 271.486 182.769 266.934 180.543 262.538C179.477 260.311 178.212 258.258 177.059 256.183C175.89 254.121 174.733 252.111 173.584 250.163C171.283 246.269 168.982 242.634 166.565 239.428C165.344 237.836 164.09 236.358 162.777 235.045C161.47 233.724 160.025 232.676 158.577 231.781C155.681 229.988 152.755 228.9 150.129 228.261C147.499 227.607 145.156 227.409 143.25 227.391C141.339 227.358 139.864 227.562 138.864 227.668C138.387 227.743 138.012 227.803 137.733 227.847C137.477 227.885 137.345 227.9 137.343 227.891C137.341 227.882 137.47 227.85 137.722 227.795C138.001 227.738 138.373 227.662 138.848 227.565C139.846 227.425 141.326 227.188 143.25 227.189C145.169 227.175 147.534 227.345 150.196 227.978C152.853 228.597 155.822 229.672 158.768 231.468C160.235 232.361 161.722 233.426 163.056 234.759C164.395 236.082 165.669 237.569 166.906 239.167C169.355 242.384 171.677 246.024 173.995 249.919C175.152 251.868 176.316 253.878 177.49 255.938C178.644 258.004 179.925 260.077 180.991 262.298C183.221 266.694 185.529 271.246 187.894 275.908C192.34 284.695 196.587 293.09 200.456 300.738L200.583 300.988L200.318 301.077C187.025 305.518 175.682 309.309 167.633 311.998C163.636 313.314 160.459 314.361 158.251 315.089C157.179 315.433 156.344 315.701 155.749 315.892C155.481 315.974 155.268 316.038 155.101 316.089C154.955 316.13 154.879 316.149 154.877 316.142Z" fill="#263238"/>
<path d="M197.864 217.541C197.798 217.669 189.629 213.589 179.62 208.431C169.607 203.27 161.547 198.985 161.612 198.857C161.678 198.729 169.845 202.808 179.858 207.968C189.868 213.126 197.93 217.413 197.864 217.541Z" fill="#263238"/>
<path d="M207.717 194.08C207.86 194.069 208.302 198.385 208.703 203.719C209.104 209.054 209.313 213.387 209.17 213.398C209.027 213.409 208.585 209.094 208.184 203.758C207.782 198.424 207.573 194.091 207.717 194.08Z" fill="#263238"/>
<path d="M219.81 212.042C219.813 212.051 219.705 212.092 219.491 212.164C219.251 212.242 218.938 212.343 218.542 212.472C217.705 212.731 216.477 213.137 214.902 213.674C211.753 214.751 207.232 216.421 201.734 218.701C196.236 220.981 189.753 223.854 182.656 227.256C180.892 228.151 178.931 228.766 177.254 229.873C176.437 230.436 175.7 231.167 175.402 232.11C175.072 233.042 175.189 234.101 175.574 235.042C176.384 236.963 178.071 238.424 179.554 240.059C180.308 240.872 181.068 241.691 181.833 242.516C182.562 243.372 183.295 244.235 184.033 245.102C186.931 248.615 189.611 252.17 191.999 255.737C194.427 259.277 196.598 262.804 198.604 266.197C202.588 273.002 205.831 279.321 208.441 284.677C211.044 290.038 213.027 294.433 214.364 297.484C215.013 298.99 215.522 300.171 215.882 301.007C216.041 301.392 216.167 301.696 216.263 301.929C216.346 302.138 216.385 302.247 216.376 302.25C216.368 302.254 216.313 302.152 216.214 301.95C216.106 301.722 215.964 301.425 215.786 301.049C215.405 300.223 214.866 299.056 214.179 297.567C212.786 294.542 210.752 290.173 208.11 284.839C205.461 279.509 202.188 273.217 198.19 266.44C196.177 263.061 194.003 259.548 191.576 256.024C189.19 252.472 186.517 248.933 183.632 245.435C182.898 244.572 182.168 243.714 181.443 242.861C180.683 242.04 179.927 241.225 179.177 240.416C177.716 238.792 175.983 237.317 175.101 235.236C174.681 234.208 174.544 233.016 174.923 231.95C175.272 230.864 176.109 230.054 176.974 229.462C178.757 228.298 180.704 227.705 182.449 226.823C189.566 223.441 196.071 220.6 201.594 218.36C207.118 216.121 211.665 214.501 214.838 213.482C216.425 212.974 217.664 212.599 218.512 212.372C218.914 212.264 219.233 212.179 219.476 212.114C219.695 212.058 219.807 212.034 219.81 212.042Z" fill="#263238"/>
<path opacity="0.3" d="M198.084 247.796C199.998 247.796 201.549 246.244 201.549 244.331C201.549 242.417 199.998 240.866 198.084 240.866C196.17 240.866 194.619 242.417 194.619 244.331C194.619 246.244 196.17 247.796 198.084 247.796Z" fill="black"/>
<path opacity="0.3" d="M230.587 234.354C232.501 234.354 234.052 232.802 234.052 230.889C234.052 228.975 232.501 227.424 230.587 227.424C228.673 227.424 227.122 228.975 227.122 230.889C227.122 232.802 228.673 234.354 230.587 234.354Z" fill="black"/>
<path opacity="0.3" d="M219.81 277.979C219.81 279.893 218.259 281.444 216.345 281.444C214.431 281.444 212.88 279.892 212.88 277.979C212.88 276.065 214.432 274.513 216.345 274.513C218.258 274.513 219.81 276.065 219.81 277.979Z" fill="black"/>
<path opacity="0.3" d="M248.499 270.397C250.413 270.397 251.964 268.845 251.964 266.932C251.964 265.018 250.413 263.467 248.499 263.467C246.585 263.467 245.034 265.018 245.034 266.932C245.034 268.845 246.585 270.397 248.499 270.397Z" fill="black"/>
<path d="M272.789 320.918C272.85 320.783 273.882 321.127 275.165 321.473C276.447 321.825 277.511 322.051 277.495 322.198C277.483 322.337 276.357 322.339 275.029 321.976C273.699 321.616 272.729 321.044 272.789 320.918Z" fill="#FF9A6C"/>
<path d="M162.042 313.726C162.211 314.627 176.813 335.331 188.495 335.331C200.176 335.331 257.739 318.078 257.739 318.078L251.079 300.238L193.476 308.894L190.636 304.085L162.042 313.726Z" fill="#FFBF9D"/>
<path d="M251.079 300.238C251.376 299.99 262.065 295.367 267.97 294.076C273.875 292.785 277.726 293.324 281.618 295.383C285.51 297.442 294.028 299.762 295.882 301.657C297.286 303.092 295.999 305.596 293.38 305.341C290.761 305.087 280.692 302.837 280.479 302.861C280.436 302.866 280.383 302.971 280.325 303.136C279.872 304.427 280.262 305.866 281.261 306.801L288.083 313.194C288.083 313.194 288.179 316.056 286.294 316.585C284.408 317.114 282.878 317.929 282.878 317.929C282.878 317.929 282.111 321.791 279.124 322.117C276.137 322.443 267.076 319.544 266.638 319.484C266.2 319.424 257.74 318.079 257.74 318.079L251.079 300.238Z" fill="#FFBF9D"/>
<path d="M276.156 316.42C276.22 316.283 277.668 316.852 279.51 317.33C281.351 317.819 282.891 318.035 282.879 318.185C282.874 318.321 281.273 318.336 279.378 317.833C277.481 317.341 276.094 316.542 276.156 316.42Z" fill="#FF9A6C"/>
<path d="M263.373 318.474C266.607 319.98 269.84 321.486 273.074 322.991C273.767 323.314 274.521 323.645 275.271 323.494C276.394 323.268 277.018 322.093 277.488 321.048" fill="#FFBF9D"/>
<path d="M168.77 104.296C178.808 96.5947 188.953 95.2417 201.787 95.4377C209.028 95.5487 210.151 91.3987 215.319 92.9607C220.486 94.5227 225.101 97.4497 228.071 101.933C231.599 107.257 234.516 113.187 235.013 119.541C235.524 126.068 236.034 132.639 235.333 139.148C235.326 139.213 235.319 139.278 235.312 139.343C234.168 149.583 226.116 157.693 215.912 159.123L211.803 159.699C202.564 159.719 193.197 159.722 184.272 157.345C175.347 154.968 171.136 178.883 167.765 170.336C156.362 141.422 158.612 112.088 168.77 104.296Z" fill="#263238"/>
<path d="M205.803 98.2088L199.13 97.2178L173.17 106.595C169.461 106.665 166.422 109.561 166.175 113.263L168.184 185.376L200.158 205.538V216.561L208.347 213.831L204.59 204.438C204.617 197.643 204.555 189.023 204.555 189.023C204.555 189.023 221.76 187.894 226.73 167.935C229.201 158.009 230.128 141.462 230.448 127.899C230.736 115.69 220.87 98.7398 205.803 98.2088Z" fill="#FFBF9D"/>
<path d="M220.799 144.501C220.728 145.877 219.506 146.95 218.068 146.903C216.634 146.856 215.525 145.706 215.596 144.331C215.666 142.956 216.889 141.881 218.323 141.928C219.761 141.974 220.869 143.126 220.799 144.501Z" fill="#263238"/>
<path d="M225.639 134.531C225.288 134.841 223.448 133.216 220.654 132.98C217.867 132.705 215.692 133.965 215.419 133.596C215.283 133.432 215.665 132.85 216.613 132.277C217.548 131.706 219.101 131.207 220.84 131.365C222.579 131.526 223.987 132.293 224.771 133.022C225.573 133.756 225.811 134.394 225.639 134.531Z" fill="#263238"/>
<path d="M206.963 155.904C206.963 155.744 208.726 155.595 211.57 155.479C212.289 155.467 212.977 155.384 213.14 154.908C213.352 154.407 213.121 153.613 212.847 152.753C212.326 150.969 211.781 149.099 211.209 147.139C208.952 139.153 207.382 132.61 207.704 132.523C208.027 132.435 210.119 138.837 212.377 146.823C212.916 148.791 213.433 150.667 213.923 152.461C214.123 153.295 214.507 154.255 214.05 155.293C213.811 155.809 213.255 156.15 212.786 156.234C212.317 156.334 211.916 156.306 211.561 156.297C208.717 156.204 206.959 156.064 206.963 155.904Z" fill="#263238"/>
<path d="M204.588 189.001C204.588 189.001 190.897 188.698 178.111 179.419C178.111 179.419 184.114 194.074 204.535 193.937L204.588 189.001Z" fill="#FF9A6C"/>
<path d="M224.997 124.702C224.469 125.343 222.369 124.702 219.852 124.693C217.336 124.603 215.208 125.162 214.712 124.5C214.493 124.179 214.824 123.538 215.75 122.927C216.663 122.318 218.193 121.814 219.923 121.847C221.652 121.883 223.156 122.445 224.037 123.09C224.932 123.737 225.23 124.39 224.997 124.702Z" fill="#263238"/>
<path d="M189.715 142.499C189.599 143.871 190.664 145.1 192.095 145.247C193.522 145.395 194.777 144.405 194.893 143.033C195.009 141.661 193.943 140.43 192.516 140.283C191.085 140.136 189.831 141.128 189.715 142.499Z" fill="#263238"/>
<path d="M187.809 132.248C188.115 132.603 190.158 131.242 192.958 131.386C195.757 131.491 197.741 133.033 198.062 132.704C198.219 132.56 197.919 131.931 197.057 131.235C196.208 130.543 194.736 129.838 192.992 129.76C191.247 129.684 189.748 130.254 188.873 130.869C187.979 131.488 187.657 132.087 187.809 132.248Z" fill="#263238"/>
<path d="M189.775 123.336C190.295 123.999 192.488 123.446 195.087 123.542C197.689 123.557 199.864 124.205 200.402 123.565C200.64 123.253 200.325 122.599 199.393 121.949C198.475 121.303 196.916 120.735 195.128 120.695C193.341 120.658 191.765 121.158 190.83 121.765C189.881 122.373 189.548 123.014 189.775 123.336Z" fill="#263238"/>
<path d="M168.576 147.443C168.703 145.936 167.27 142.231 165.801 141.869C161.88 140.905 154.688 140.602 153.745 150.691C152.457 164.482 168.522 162.687 168.583 162.294C168.632 161.987 168.137 152.648 168.576 147.443Z" fill="#FFBF9D"/>
<path d="M163.297 157.144C163.241 157.094 163.041 157.29 162.618 157.438C162.205 157.582 161.512 157.644 160.818 157.307C159.411 156.636 158.401 154.209 158.567 151.717C158.649 150.458 159.023 149.288 159.56 148.339C160.076 147.37 160.794 146.726 161.54 146.665C162.285 146.564 162.763 147.052 162.897 147.455C163.046 147.858 162.932 148.126 163.003 148.156C163.038 148.195 163.321 147.953 163.263 147.374C163.231 147.094 163.1 146.754 162.801 146.458C162.496 146.158 162.022 145.976 161.505 145.983C160.434 145.958 159.386 146.846 158.796 147.887C158.147 148.927 157.697 150.24 157.604 151.653C157.433 154.44 158.612 157.173 160.553 157.936C161.499 158.279 162.336 158.063 162.784 157.776C163.241 157.476 163.342 157.174 163.297 157.144Z" fill="#FF9A6C"/>
<path d="M165.236 142.278L168.631 146.031C184.252 132 215.034 96.6058 213.312 98.7178C213.312 98.7178 203.061 94.1168 191.727 95.6798C180.393 97.2428 158.832 102.207 158.738 115.513C158.645 128.819 165.236 142.278 165.236 142.278Z" fill="#263238"/>
<path d="M231.259 110.178C230.087 107.623 231.37 104.532 233.551 102.648C235.732 100.764 238.627 99.8278 241.447 98.9918C244.268 98.1558 247.179 97.3338 249.504 95.6098C254.116 92.1908 255.338 86.0018 254.696 80.5108C253.469 70.0168 246.614 60.5368 237.516 54.3928C228.418 48.2488 217.266 45.2078 206.109 44.2828C182.904 42.3578 162 50.3848 144.216 64.6048C141.297 66.9388 139.461 70.5258 139.3 74.1268C139.172 76.9838 140.851 79.6078 142.589 81.9478C147.941 89.1548 154.215 94.1418 161.584 99.5388L159.517 111.322L231.259 110.178Z" fill="#E84C4F"/>
<path d="M248.126 75.4287C248.148 75.4497 247.907 75.7767 247.398 76.3037C246.89 76.8317 246.102 77.5457 245.057 78.3357C244.012 79.1247 242.706 79.9787 241.233 80.8727C239.763 81.7707 238.128 82.7197 236.499 83.8307C234.873 84.9437 233.417 86.1407 232.294 87.4117C231.166 88.6787 230.366 89.9997 229.863 91.1767C228.851 93.5577 229.045 95.2337 228.932 95.2197C228.908 95.2217 228.83 94.8187 228.858 94.0817C228.884 93.3467 229.05 92.2767 229.521 91.0387C229.996 89.8047 230.79 88.4197 231.932 87.0957C233.071 85.7667 234.554 84.5307 236.204 83.4017C237.857 82.2747 239.507 81.3347 240.986 80.4617C242.468 79.5917 243.78 78.7797 244.84 78.0377C246.969 76.5597 248.063 75.3667 248.126 75.4287Z" fill="#263238"/>
<path d="M236.836 63.6598C236.896 63.7528 235.201 64.7388 232.835 66.7968C232.247 67.3148 231.607 67.8858 230.976 68.5568C230.31 69.1938 229.682 69.9518 229.001 70.7298C227.696 72.3338 226.381 74.1958 225.22 76.2828C224.083 78.3838 223.218 80.4928 222.566 82.4558C222.276 83.4488 221.974 84.3858 221.794 85.2888C221.566 86.1818 221.429 87.0288 221.308 87.8028C220.843 90.9038 220.922 92.8628 220.811 92.8618C220.775 92.8628 220.747 92.3758 220.726 91.4918C220.709 91.0488 220.705 90.5078 220.757 89.8808C220.801 89.2538 220.815 88.5348 220.943 87.7528C221.042 86.9658 221.16 86.1058 221.372 85.1968C221.536 84.2768 221.826 83.3228 222.108 82.3118C222.743 80.3128 223.609 78.1648 224.763 76.0318C225.941 73.9138 227.289 72.0298 228.633 70.4208C229.334 69.6398 229.983 68.8828 230.671 68.2508C231.324 67.5838 231.986 67.0218 232.596 66.5158C233.187 65.9878 233.786 65.5898 234.291 65.2158C234.792 64.8358 235.251 64.5478 235.634 64.3248C236.391 63.8668 236.817 63.6288 236.836 63.6598Z" fill="#263238"/>
<path d="M210.816 58.2997C210.852 58.3047 210.827 58.7597 210.751 59.5757C210.671 60.3917 210.567 61.5727 210.457 63.0317C210.235 65.9497 210.064 69.9927 210.215 74.4537C210.373 78.9157 210.824 82.9377 211.247 85.8337C211.457 87.2817 211.643 88.4527 211.779 89.2607C211.911 90.0697 211.967 90.5207 211.932 90.5287C211.897 90.5357 211.773 90.0987 211.58 89.3007C211.382 88.5027 211.141 87.3387 210.883 85.8917C210.365 82.9997 209.853 78.9597 209.694 74.4717C209.542 69.9847 209.773 65.9197 210.09 62.9987C210.247 61.5377 210.407 60.3587 210.549 59.5497C210.688 58.7397 210.781 58.2947 210.816 58.2997Z" fill="#263238"/>
<path d="M193.84 53.1638C193.876 53.1658 193.887 53.7378 193.877 54.7688C193.861 55.7998 193.858 57.2918 193.883 59.1338C193.928 62.8168 194.176 67.9048 194.898 73.4778C195.628 79.0508 196.692 84.0338 197.593 87.6048C198.041 89.3908 198.426 90.8328 198.706 91.8248C198.98 92.8188 199.116 93.3748 199.081 93.3858C199.047 93.3968 198.846 92.8618 198.512 91.8838C198.172 90.9078 197.732 89.4788 197.237 87.6978C196.243 84.1388 195.116 79.1438 194.382 73.5438C193.657 67.9448 193.466 62.8288 193.515 59.1338C193.538 57.2858 193.596 55.7908 193.675 54.7608C193.747 53.7308 193.804 53.1628 193.84 53.1638Z" fill="#263238"/>
<path d="M161.781 64.9107C161.808 64.8867 162.187 65.2717 162.849 65.9877C163.514 66.7017 164.445 67.7617 165.568 69.0967C167.816 71.7637 170.786 75.5677 173.783 79.9697C176.776 84.3767 179.221 88.5387 180.874 91.6097C181.702 93.1447 182.346 94.4007 182.765 95.2817C183.188 96.1607 183.406 96.6537 183.374 96.6707C183.342 96.6867 183.063 96.2247 182.586 95.3757C182.059 94.4457 181.376 93.2397 180.553 91.7887C178.821 88.7707 176.336 84.6537 173.353 80.2617C170.367 75.8737 167.453 72.0487 165.283 69.3287C164.236 68.0307 163.366 66.9507 162.695 66.1187C162.081 65.3647 161.754 64.9347 161.781 64.9107Z" fill="#263238"/>
<path d="M160.074 133.437C156.26 120.395 158.264 111.321 160.767 102.016C160.767 102.016 191.636 83.5957 217.079 89.4167C217.079 89.4167 232.971 92.6087 235.02 100.854L235.467 128.94C235.467 128.94 233.733 117.826 210.593 116.946C187.453 116.066 160.074 133.437 160.074 133.437Z" fill="#E84C4F"/>
<path d="M195.075 162.614C195.264 161.695 195.839 160.911 196.537 160.395C197.934 159.362 199.867 159.391 201.206 160.464C202.546 161.537 203.211 163.588 202.813 165.421C201.944 166.451 200.681 167.097 199.334 167.117C199.124 167.12 198.915 167.113 198.705 167.092C197.691 166.993 196.682 166.576 195.96 165.771C195.238 164.967 194.842 163.748 195.075 162.614Z" fill="#FF9A6C"/>
<path d="M197.125 158.103C197.525 158.131 197.194 160.781 199.226 162.951C201.252 165.127 204.117 165.189 204.091 165.561C204.107 165.732 203.396 165.996 202.199 165.877C201.023 165.768 199.361 165.175 198.119 163.848C196.88 162.519 196.48 160.904 196.527 159.805C196.567 158.684 196.946 158.065 197.125 158.103Z" fill="#263238"/>
<path d="M234.359 100.962C234.343 100.969 234.201 100.725 233.947 100.256C233.812 100.026 233.683 99.7208 233.467 99.3968C233.247 99.0668 233 98.6938 232.724 98.2798C231.546 96.6538 229.422 94.5428 226.219 92.8728C223.039 91.1718 218.862 89.9118 214.129 89.2728C209.396 88.6228 204.097 88.5358 198.628 89.2738C195.892 89.6308 193.25 90.1848 190.731 90.8378C188.212 91.4878 185.827 92.2968 183.551 93.0528C179.006 94.5828 174.97 96.1258 171.606 97.4828C168.24 98.8378 165.545 100.005 163.68 100.805C162.782 101.189 162.066 101.496 161.531 101.725C161.038 101.932 160.775 102.032 160.768 102.016C160.761 102 161.008 101.867 161.488 101.63C162.014 101.379 162.716 101.042 163.598 100.621C165.439 99.7628 168.114 98.5438 171.468 97.1428C174.82 95.7398 178.851 94.1578 183.398 92.5988C185.673 91.8298 188.063 91.0078 190.602 90.3448C193.138 89.6808 195.801 89.1178 198.56 88.7578C204.076 88.0128 209.426 88.1158 214.197 88.7978C218.97 89.4688 223.188 90.7798 226.395 92.5478C229.625 94.2858 231.75 96.4788 232.891 98.1618C233.155 98.5908 233.392 98.9758 233.602 99.3178C233.805 99.6538 233.922 99.9688 234.042 100.208C234.266 100.697 234.375 100.955 234.359 100.962Z" fill="#263238"/>
<path d="M2.04004 461.418H480.709" stroke="#263238" stroke-miterlimit="10"/>
</svg>
