<svg width="355" height="377" viewBox="0 0 355 377" fill="none" xmlns="http://www.w3.org/2000/svg">
<path d="M186.574 203.149H116.774C115.343 203.149 114.183 201.989 114.183 200.557V200.13C114.183 198.699 115.343 197.538 116.774 197.538H186.574C188.005 197.538 189.166 198.698 189.166 200.13V200.557C189.166 201.989 188.005 203.149 186.574 203.149Z" fill="#E0E0E0"/>
<path d="M205.262 154.881H158.199C156.471 154.881 154.994 156.127 154.704 157.831L146.975 203.149H198.24C199.968 203.149 201.445 201.903 201.735 200.199L208.758 159.023C209.126 156.858 207.458 154.881 205.262 154.881Z" fill="#E0E0E0"/>
<path d="M159.104 154.881C159.246 154.904 157.616 165.805 155.464 179.227C153.311 192.653 151.451 203.515 151.309 203.492C151.167 203.469 152.797 192.57 154.949 179.144C157.102 165.723 158.962 154.858 159.104 154.881Z" fill="#263238"/>
<path d="M183.697 179.544C183.264 181.287 181.638 182.384 180.064 181.993C178.49 181.602 177.565 179.872 177.998 178.129C178.431 176.386 180.057 175.289 181.631 175.68C183.205 176.071 184.13 177.8 183.697 179.544Z" fill="white"/>
<path d="M265.913 214.648H114.718C111.596 214.648 109.065 212.117 109.065 208.995C109.065 205.873 111.596 203.342 114.718 203.342H265.913C269.035 203.342 271.566 205.873 271.566 208.995C271.566 212.117 269.035 214.648 265.913 214.648Z" fill="#263238"/>
<path d="M230.123 371.944H150.507V374.466H230.123V371.944Z" fill="#E0E0E0"/>
<path d="M195.978 214.648H184.652V373.205H195.978V214.648Z" fill="#E0E0E0"/>
<path d="M282.632 21.5873C280.461 21.7239 278.328 20.0264 277.974 17.8805C277.619 15.7346 279.094 13.4418 281.193 12.8731C279.92 11.43 279.698 9.15691 280.668 7.49434C281.637 5.83177 283.724 4.90613 285.608 5.30234C285.783 3.41093 287.008 1.65016 288.721 0.828695C290.434 0.0072305 292.574 0.154957 294.159 1.20271C296.345 -0.488039 299.728 -0.383864 301.806 1.43753C303.666 1.19075 305.626 2.27351 306.406 3.97963C307.187 5.68575 306.725 7.87689 305.322 9.1219" fill="#263238"/>
<path d="M302.538 5.8606L301.564 5.81193C291.762 5.32435 283.229 12.4451 281.956 22.1755C280.772 31.2261 279.58 41.2399 279.398 46.1183C279.021 56.2184 289.038 58.29 289.038 58.29L287.583 70.3746L312.118 70.8331L316.47 26.9591C317.895 16.5234 313.009 6.99631 302.538 5.8606Z" fill="#AE7461"/>
<path d="M288.956 58.2722C288.956 58.2722 295.382 58.9801 302.374 55.0581C302.374 55.0581 298.903 62.1678 288.875 60.758L288.956 58.2722Z" fill="#6F4439"/>
<path d="M284.519 32.6778C284.454 33.4378 285.044 34.1192 285.836 34.2012C286.627 34.2832 287.322 33.7358 287.387 32.975C287.452 32.215 286.862 31.5327 286.071 31.4507C285.279 31.3688 284.584 31.9178 284.519 32.6778Z" fill="#263238"/>
<path d="M283.881 27.2231C284.05 27.4203 285.183 26.6654 286.733 26.7474C288.284 26.8063 289.383 27.6611 289.56 27.4792C289.647 27.399 289.481 27.0506 289.004 26.6654C288.533 26.282 287.719 25.891 286.752 25.8474C285.785 25.8047 284.955 26.1198 284.469 26.4605C283.976 26.8021 283.797 27.1342 283.881 27.2231Z" fill="#263238"/>
<path d="M297.66 33.2629C297.595 34.0229 298.185 34.7043 298.977 34.7863C299.768 34.8683 300.463 34.3209 300.528 33.5601C300.593 32.8001 300.003 32.1178 299.211 32.0358C298.42 31.953 297.725 32.5029 297.66 33.2629Z" fill="#263238"/>
<path d="M299.114 28.2698C299.284 28.4662 300.417 27.7131 301.967 27.7942C303.517 27.8531 304.616 28.7079 304.793 28.526C304.88 28.4457 304.716 28.0973 304.236 27.7122C303.767 27.3288 302.952 26.9377 301.985 26.8933C301.019 26.8506 300.189 27.1657 299.703 27.5064C299.209 27.8488 299.03 28.181 299.114 28.2698Z" fill="#263238"/>
<path d="M292.913 39.4936C292.925 39.4057 291.968 39.1913 290.416 38.9138C290.022 38.8541 289.651 38.7558 289.598 38.4826C289.519 38.1923 289.705 37.773 289.921 37.3213C290.341 36.3811 290.781 35.3957 291.242 34.3633C293.082 30.1501 294.434 26.6773 294.265 26.6047C294.094 26.5321 292.464 29.888 290.624 34.102C290.18 35.1412 289.755 36.1326 289.351 37.0805C289.179 37.5237 288.896 38.0206 289.068 38.6252C289.161 38.9266 289.441 39.1563 289.691 39.2366C289.941 39.3263 290.163 39.3425 290.359 39.363C291.927 39.5252 292.903 39.5807 292.913 39.4936Z" fill="#263238"/>
<path d="M298.065 22.2344C298.251 22.6374 299.601 22.2771 301.24 22.3061C302.88 22.2976 304.244 22.6742 304.413 22.2728C304.488 22.0815 304.214 21.7135 303.641 21.3694C303.071 21.0253 302.194 20.7375 301.21 20.7315C300.227 20.7264 299.361 21.0031 298.804 21.3404C298.243 21.6776 297.983 22.0423 298.065 22.2344Z" fill="#263238"/>
<path d="M284.124 20.8231C284.433 21.192 285.731 20.8897 287.272 20.9486C288.813 20.9631 290.103 21.3269 290.421 20.9734C290.561 20.8009 290.374 20.438 289.821 20.0759C289.276 19.7156 288.35 19.397 287.292 19.3714C286.233 19.3467 285.299 19.6208 284.746 19.9547C284.185 20.2902 283.988 20.6438 284.124 20.8231Z" fill="#263238"/>
<path d="M283.158 17.5953C283.158 17.5953 286.135 11.4061 289.256 10.0825C293.034 8.48059 294.422 12.6093 297.987 11.8015C301.553 10.9937 305.161 9.4549 308.619 12.3514C312.405 15.522 310.458 17.5184 310.479 22.0091C310.562 40.2163 313.623 45.5156 314.991 37.0098C315.141 36.0782 317.778 35.4617 318.36 31.5226C319.115 26.4136 319.622 20.1903 318.658 16.4903C317.845 13.3718 316.199 11.1627 313.175 8.66845C308.403 4.7302 301.6 4.31264 296.954 4.54832C292.307 4.78229 283.13 9.65984 283.158 17.5953Z" fill="#263238"/>
<path d="M314.361 36.7031C314.502 35.1481 315.905 33.9851 317.45 34.2097C319.324 34.4821 321.365 35.6554 321.048 39.539C320.484 46.4292 313.683 44.4421 313.688 44.2432C313.69 44.1091 314.099 39.5842 314.361 36.7031Z" fill="#AE7461"/>
<path d="M315.399 41.7738C315.431 41.7542 315.512 41.8678 315.707 41.9771C315.897 42.0838 316.232 42.1743 316.603 42.0684C317.352 41.8609 318.059 40.7551 318.194 39.5161C318.263 38.891 318.181 38.283 317.999 37.7707C317.83 37.2489 317.533 36.8707 317.171 36.7759C316.814 36.6615 316.536 36.8596 316.436 37.0466C316.328 37.2319 316.36 37.3728 316.323 37.3822C316.303 37.3975 316.185 37.2541 316.264 36.974C316.304 36.8399 316.397 36.6837 316.57 36.565C316.747 36.4437 316.996 36.395 317.248 36.4437C317.777 36.524 318.215 37.0517 318.415 37.6144C318.644 38.1823 318.751 38.8663 318.674 39.569C318.516 40.9541 317.7 42.1948 316.68 42.4015C316.185 42.4886 315.793 42.3092 315.598 42.1299C315.397 41.9421 315.374 41.7849 315.399 41.7738Z" fill="#6F4439"/>
<path d="M314.89 23.3259C313.963 23.8929 312.985 24.4769 311.9 24.5299C310.815 24.5828 309.611 23.9014 309.482 22.8229C309.424 22.3387 309.569 21.7871 309.272 21.4003C308.917 20.9383 308.215 21.0425 307.633 21.0758C305.616 21.1885 303.383 18.8565 302.968 16.8788C302.419 17.6192 301.286 17.7951 300.536 17.258C299.787 16.72 299.519 16.4211 298.947 15.697C298.376 14.9729 297.556 14.3103 296.638 14.3939C296.123 14.4409 295.632 14.721 295.12 14.6501C294.218 14.5246 293.828 13.441 293.736 12.535C293.644 11.629 293.589 10.5744 292.846 10.0467C292.157 9.55823 291.223 9.77427 290.382 9.85539C289.541 9.93737 288.474 9.68717 288.301 8.86144C288.21 8.42765 288.416 7.98703 288.671 7.62497C289.83 5.98717 292.211 5.35186 294.031 6.19552C294.82 3.94888 297.041 2.28033 299.418 2.14797C301.795 2.01562 304.187 3.42799 305.219 5.57387C306.744 4.32289 308.89 3.87288 310.789 4.40657C312.687 4.94027 314.285 6.4423 314.935 8.30383C316.636 7.94604 318.516 8.6898 319.512 10.115C320.507 11.5393 320.559 13.5622 319.637 15.0361C320.842 15.8063 321.842 17.0915 321.797 18.5218C321.752 19.9512 320.29 21.3055 318.93 20.8615C319.431 22.0014 318.903 23.4881 317.795 24.056C316.687 24.6238 315.171 24.1841 314.539 23.1107" fill="#263238"/>
<path d="M293.417 8.20136C293.411 8.20136 293.41 8.24406 293.413 8.32774C293.418 8.41057 293.417 8.53695 293.439 8.69834C293.487 9.02026 293.591 9.49845 293.873 10.0526C294.159 10.5991 294.611 11.2362 295.322 11.7605C296.018 12.289 296.989 12.7126 298.11 12.7066L298 12.5478C297.757 13.1276 297.78 13.8389 298.044 14.4597C298.292 15.0907 298.703 15.6594 299.14 16.2153C299.366 16.4835 299.556 16.7943 299.873 17.0453C300.181 17.287 300.557 17.4364 300.946 17.5056C301.72 17.6439 302.61 17.4467 303.207 16.8199L302.953 16.7337C303.061 18.1144 303.773 19.526 304.97 20.4243C305.603 20.9306 306.399 21.2611 307.2 21.279C307.999 21.3106 308.753 21.1134 309.457 20.8999L309.277 20.8094C309.605 21.6855 310.139 22.4455 310.805 23.021C311.457 23.594 312.347 23.9552 313.176 23.7955C314.822 23.5317 315.97 22.2311 316.251 20.9665L316.091 21.0314C316.878 21.5122 317.743 21.5975 318.446 21.4976C319.158 21.4037 319.726 21.1245 320.136 20.8418C320.548 20.5532 320.797 20.2484 320.949 20.0366C321.09 19.8154 321.149 19.6925 321.142 19.6882C321.109 19.6583 320.888 20.2014 320.071 20.7445C319.665 21.0032 319.109 21.256 318.425 21.3303C317.75 21.4114 316.931 21.3106 316.206 20.8521L316.08 20.7727L316.046 20.9178C315.768 22.0971 314.664 23.3088 313.139 23.5368C312.388 23.6743 311.607 23.3515 310.987 22.8093C310.366 22.2679 309.858 21.5352 309.553 20.712L309.505 20.5814L309.373 20.6215C308.679 20.8299 307.952 21.0143 307.213 20.9819C306.474 20.9614 305.758 20.6668 305.155 20.1869C304.024 19.3364 303.355 18.0162 303.247 16.7089L303.219 16.3801L302.992 16.6226C302.488 17.1589 301.691 17.3502 300.996 17.2272C300.647 17.1674 300.313 17.0359 300.044 16.8276C299.782 16.6278 299.581 16.3195 299.353 16.0488C298.916 15.5023 298.515 14.9541 298.279 14.3675C298.027 13.786 298.005 13.1609 298.215 12.6357L298.28 12.4735L298.105 12.476C297.05 12.4948 296.114 12.108 295.433 11.611C294.737 11.12 294.283 10.5138 293.989 9.99116C293.411 8.91779 293.468 8.1877 293.417 8.20136Z" fill="#525772"/>
<path d="M292.988 44.8178C293.039 44.5625 294.72 45.0014 296.29 43.8785C297.864 42.759 298.147 40.9188 298.385 40.9675C298.497 40.9718 298.606 41.4525 298.427 42.2134C298.257 42.9614 297.734 43.981 296.773 44.6684C295.811 45.3523 294.737 45.4727 294.033 45.3481C293.314 45.2268 292.947 44.9305 292.988 44.8178Z" fill="#263238"/>
<path d="M231.052 135.768L265.168 125.619L272.229 142.301L235.883 146.446L233.255 135.428" fill="#AE7461"/>
<path d="M232.216 149.442C229.832 150.405 227.21 151.584 227.21 151.584L224.826 152.508C224.934 152.64 225.063 152.757 225.193 152.867C225.44 153.076 225.702 153.294 225.815 153.597C226.029 154.173 225.624 154.804 225.141 155.191C224.131 155.999 222.683 156.215 221.491 155.735C220.346 155.274 219.489 154.186 219.285 152.968C219.029 152.767 218.792 152.512 218.598 152.172C217.405 150.088 218.959 146.964 218.959 146.964L218.079 147.171C218.079 147.171 215.818 148.815 216.628 153.396C216.748 154.08 216.641 154.803 216.274 155.396C216.05 155.759 215.728 156.071 215.279 156.139C214.161 156.308 213.756 155.56 213.211 152.707C212.666 149.854 213.086 146.918 214.406 145.477C215.725 144.036 216.333 143.558 216.333 143.558C216.333 143.558 208.293 144.96 207.78 145.028C206.298 145.225 204.973 144.728 204.751 143.753C204.608 143.127 204.892 142.231 206.61 141.948C208.098 141.703 223.029 137.255 223.029 137.255L229.748 135.674L235.501 135.271L237.871 143.947L236.274 145.776C235.395 147.436 233.958 148.738 232.216 149.442Z" fill="#AE7461"/>
<path d="M230.415 154.729L230.248 156.792L228.429 155.691L214.332 126.581L216.319 125.619L230.415 154.729Z" fill="#263238"/>
<path d="M218.984 146.85C219.008 146.911 218.28 146.921 217.518 147.634C217.147 147.985 216.839 148.533 216.724 149.202C216.6 149.871 216.646 150.632 216.754 151.427C216.859 152.225 216.971 153.007 216.914 153.732C216.856 154.452 216.664 155.099 216.337 155.562C216.01 156.037 215.522 156.212 215.218 156.213C214.906 156.218 214.749 156.146 214.752 156.134C214.756 156.103 214.922 156.13 215.206 156.087C215.485 156.045 215.881 155.868 216.148 155.434C216.418 155.01 216.579 154.395 216.617 153.715C216.655 153.032 216.54 152.276 216.433 151.471C216.324 150.667 216.281 149.863 216.432 149.147C216.571 148.428 216.939 147.825 217.365 147.466C217.786 147.099 218.219 146.942 218.515 146.876C218.815 146.814 218.984 146.831 218.984 146.85Z" fill="#6F4439"/>
<path d="M207.208 145.095C207.204 145.049 207.816 144.954 208.805 144.805C209.905 144.634 211.215 144.431 212.664 144.207C214.11 143.96 215.417 143.737 216.514 143.55C217.499 143.377 218.109 143.272 218.12 143.318C218.129 143.359 217.535 143.543 216.558 143.774C215.582 144.005 214.222 144.279 212.713 144.525C211.203 144.77 209.828 144.942 208.83 145.031C207.832 145.124 207.212 145.137 207.208 145.095Z" fill="#6F4439"/>
<path d="M221.085 148.363C221.108 148.371 221.055 148.547 220.977 148.86C220.909 149.16 220.803 149.667 221.113 150.106C221.262 150.32 221.529 150.433 221.848 150.411C222.164 150.4 222.5 150.277 222.877 150.163C223.243 150.051 223.714 149.942 224.167 150.144C224.604 150.347 224.909 150.78 224.997 151.263C225.088 151.76 224.918 152.251 224.65 152.613C224.376 152.977 224.027 153.25 223.625 153.393C222.855 153.638 222.153 153.69 221.56 153.703C220.967 153.706 220.485 153.63 220.171 153.514C219.855 153.397 219.717 153.263 219.727 153.252C219.744 153.227 219.898 153.32 220.207 153.394C220.516 153.467 220.981 153.507 221.555 153.475C222.123 153.436 222.824 153.355 223.525 153.114C224.169 152.871 224.817 152.122 224.679 151.324C224.61 150.934 224.359 150.585 224.033 150.432C223.705 150.278 223.317 150.345 222.957 150.449C222.593 150.55 222.227 150.677 221.852 150.679C221.484 150.7 221.097 150.524 220.927 150.239C220.576 149.669 220.757 149.119 220.858 148.825C220.975 148.514 221.066 148.357 221.085 148.363Z" fill="#6F4439"/>
<path d="M228.891 146.09C228.862 146.096 228.757 145.816 228.78 145.319C228.8 144.831 228.983 144.108 229.529 143.476L229.651 143.733C229.307 143.754 228.934 143.757 228.55 143.734C226.404 143.611 224.876 142.696 224.929 142.634C224.965 142.542 226.507 143.296 228.572 143.412C228.944 143.434 229.305 143.436 229.638 143.424L230.006 143.412L229.76 143.682C229.255 144.236 229.045 144.883 228.973 145.338C228.899 145.799 228.933 146.084 228.891 146.09Z" fill="#6F4439"/>
<path d="M215.216 148.517C215.242 148.435 215.868 148.649 216.282 149.306C216.702 149.959 216.634 150.62 216.549 150.609C216.455 150.615 216.378 150.047 216.009 149.482C215.652 148.908 215.171 148.6 215.216 148.517Z" fill="#6F4439"/>
<path d="M284.325 68.7447C279.849 69.0205 267.536 76.3402 264.107 82.7454C261.485 87.6409 260.888 101.767 261.273 123.047C261.308 125.041 257.405 123.443 258.076 127.729L271.318 144.359L281.856 126.175L326.958 116.112L334.679 73.6957C334.678 73.6948 288.801 68.4689 284.325 68.7447Z" fill="#E0E0E0"/>
<path d="M229.405 137.087C229.769 137.892 229.288 138.859 228.612 139.438C227.938 140.018 227.088 140.353 226.373 140.882C224.237 142.465 223.584 145.545 221.375 147.025C221.066 147.231 220.623 147.389 220.358 147.134C220.113 146.896 220.213 146.489 220.33 146.166C221.33 143.408 222.331 140.65 223.331 137.892" fill="#AE7461"/>
<path d="M223.565 137.892C223.532 137.88 223.385 138.188 223.149 138.754C222.911 139.32 222.584 140.145 222.189 141.167C221.785 142.234 221.327 143.446 220.826 144.768C220.7 145.109 220.571 145.458 220.439 145.812C220.342 146.152 220.064 146.553 220.281 147.119C220.404 147.397 220.748 147.545 221.01 147.51C221.274 147.488 221.49 147.388 221.688 147.269C222.05 147.022 222.385 146.753 222.683 146.433C223.881 145.157 224.524 143.661 225.365 142.517C225.776 141.939 226.223 141.436 226.716 141.061C227.207 140.684 227.743 140.41 228.211 140.106C229.183 139.538 229.753 138.675 229.824 138.034C229.912 137.378 229.647 137.066 229.639 137.087C229.59 137.099 229.771 137.424 229.633 137.997C229.501 138.572 228.979 139.294 228.027 139.805C227.565 140.08 227.015 140.335 226.469 140.728C225.922 141.121 225.431 141.651 224.992 142.246C224.101 143.426 223.436 144.911 222.323 146.086C222.051 146.381 221.736 146.631 221.427 146.845C221.121 147.044 220.783 147.08 220.719 146.896C220.619 146.705 220.756 146.324 220.888 145.971C221.014 145.615 221.138 145.265 221.259 144.922C221.723 143.587 222.147 142.363 222.521 141.285C222.874 140.248 223.151 139.405 223.332 138.818C223.513 138.233 223.597 137.904 223.565 137.892Z" fill="#6F4439"/>
<path d="M267.554 129.871C267.442 129.934 266.766 128.91 265.811 127.75C264.862 126.584 263.993 125.718 264.077 125.621C264.151 125.53 265.178 126.268 266.155 127.468C267.138 128.664 267.658 129.816 267.554 129.871Z" fill="#263238"/>
<path d="M334.678 73.6949L315.971 65.4469L313.875 57.3792L292.038 67.7021L287.465 62.6486L285.55 68.3442L280.764 69.9086L269.581 89.5776L269.616 131.49L269.778 167.462V173.352L289.812 176.308C292.003 176.631 294.229 176.633 296.42 176.315L338.912 169.392L338.134 157.722L333.791 124.799L334.678 73.6949Z" fill="#E0E0E0"/>
<path d="M315.808 65.8961C315.821 65.9234 315.44 66.148 314.736 66.5306C313.954 66.9439 312.947 67.4759 311.738 68.1146C309.197 69.4356 305.673 71.2322 301.768 73.1928C299.109 74.5147 296.623 75.7503 294.497 76.8074L294.307 76.9022L294.238 76.7049C293.456 74.4839 293.216 72.566 292.884 71.2647C292.59 69.9539 292.325 69.2332 292.368 69.217C292.385 69.2101 292.475 69.3818 292.61 69.7182C292.746 70.0547 292.915 70.5593 293.099 71.21C293.493 72.5003 293.797 74.4284 294.593 76.5666L294.334 76.4641C296.45 75.3916 298.925 74.1364 301.572 72.7949C305.475 70.836 309.019 69.0838 311.595 67.8353C312.83 67.2479 313.859 66.7577 314.657 66.3777C315.384 66.0421 315.793 65.8688 315.808 65.8961Z" fill="#263238"/>
<path d="M285.55 69.0874C285.606 69.06 286.081 69.8414 286.806 71.1248C287.531 72.4082 288.505 74.1938 289.556 76.1791C289.619 76.2995 289.682 76.4191 289.741 76.5301L289.337 76.5599C289.91 74.5191 290.429 72.6209 290.871 71.3007C291.302 69.9677 291.663 69.1796 291.718 69.2026C291.774 69.2248 291.518 70.0386 291.166 71.3887C290.797 72.7421 290.345 74.5951 289.755 76.7128L289.611 77.232L289.352 76.7435C289.293 76.6325 289.23 76.5121 289.166 76.3926C288.113 74.403 287.181 72.5901 286.526 71.2683C285.872 69.9447 285.495 69.1147 285.55 69.0874Z" fill="#263238"/>
<path d="M269.002 88.9451C269.092 88.9451 269.165 100.972 269.165 115.803C269.165 130.64 269.092 142.664 269.002 142.664C268.913 142.664 268.841 130.64 268.841 115.803C268.84 100.972 268.913 88.9451 269.002 88.9451Z" fill="#263238"/>
<path d="M224.384 152.523C224.379 152.509 224.543 152.436 224.846 152.492C225.138 152.548 225.58 152.77 225.82 153.289C226.054 153.797 225.997 154.544 225.553 155.141C225.115 155.739 224.371 156.143 223.559 156.279C222.743 156.416 221.936 156.27 221.303 155.949C220.662 155.63 220.21 155.149 219.924 154.705C219.637 154.257 219.508 153.84 219.451 153.551C219.397 153.261 219.406 153.097 219.425 153.094C219.485 153.076 219.526 153.752 220.113 154.574C220.405 154.976 220.841 155.403 221.434 155.68C222.022 155.961 222.764 156.084 223.508 155.96C224.25 155.836 224.926 155.473 225.316 154.964C225.71 154.459 225.782 153.818 225.609 153.378C225.435 152.931 225.066 152.698 224.813 152.614C224.551 152.526 224.386 152.551 224.384 152.523Z" fill="#6F4439"/>
<path d="M289.11 333.069L289.857 352.69C289.857 352.69 270.163 360.038 269.948 363.678L308.044 363.597L308.136 332.977L289.11 333.069Z" fill="#263238"/>
<path d="M301.634 351.015C302.371 351.215 302.882 352.043 302.713 352.788C302.543 353.534 301.706 354.061 300.965 353.874C300.224 353.687 299.58 352.712 299.832 351.99C300.084 351.268 301.101 350.703 301.775 351.063" fill="#E0E0E0"/>
<path d="M308.044 363.597L307.932 360.51L271.448 361.742C271.448 361.742 269.754 362.483 269.948 363.678L308.044 363.597Z" fill="#525772"/>
<path d="M289.238 352.497C289.245 352.683 290.175 352.765 291.092 353.361C292.025 353.933 292.498 354.739 292.669 354.664C292.84 354.628 292.56 353.517 291.438 352.814C290.322 352.103 289.198 352.327 289.238 352.497Z" fill="white"/>
<path d="M285.246 354.158C285.204 354.338 286.01 354.653 286.644 355.439C287.301 356.206 287.461 357.056 287.647 357.048C287.822 357.077 287.949 355.987 287.143 355.026C286.344 354.056 285.25 353.981 285.246 354.158Z" fill="white"/>
<path d="M282.987 358.946C283.156 358.985 283.413 358.055 282.933 357.038C282.46 356.016 281.582 355.616 281.504 355.771C281.399 355.924 281.966 356.47 282.346 357.312C282.748 358.143 282.802 358.927 282.987 358.946Z" fill="white"/>
<path d="M289.564 348.007C289.643 348.176 290.496 347.919 291.547 347.988C292.6 348.036 293.419 348.387 293.515 348.227C293.623 348.092 292.823 347.405 291.583 347.341C290.345 347.267 289.473 347.861 289.564 348.007Z" fill="white"/>
<path d="M335.746 330.401L337.809 354.067L334.043 373.256C333.772 374.639 334.728 375.963 336.127 376.14C336.91 376.239 337.687 375.958 338.22 375.376C341.615 371.675 354.037 357.995 353.789 356.271C353.502 354.275 353.271 331.162 353.271 331.162L335.746 330.401Z" fill="#263238"/>
<path d="M336.126 376.138L353.686 354.67L353.75 355.674C353.805 356.543 353.555 357.403 353.035 358.1C351.643 359.966 347.687 365.033 338.291 375.371C337.744 375.973 336.929 376.262 336.126 376.138Z" fill="#525772"/>
<g opacity="0.6">
<path d="M348.33 347.335C347.762 347.784 347.626 348.695 348.051 349.281C348.476 349.866 349.401 350.013 349.976 349.574C350.552 349.136 350.749 348.048 350.262 347.513C349.773 346.979 348.678 346.866 348.225 347.429" fill="white"/>
</g>
<path d="M340.88 365.433C340.75 365.507 340.136 364.3 338.682 363.723C337.247 363.102 335.958 363.52 335.919 363.375C335.894 363.319 336.183 363.115 336.733 363.001C337.278 362.885 338.085 362.911 338.882 363.24C339.678 363.572 340.267 364.125 340.57 364.592C340.878 365.063 340.938 365.41 340.88 365.433Z" fill="white"/>
<path d="M339.395 368.716C339.288 368.826 338.478 368.103 337.229 367.831C335.986 367.53 334.942 367.826 334.895 367.681C334.819 367.564 335.927 366.988 337.346 367.322C338.769 367.642 339.514 368.644 339.395 368.716Z" fill="white"/>
<path d="M343.762 361.163C343.657 361.282 342.417 360.165 340.512 359.572C338.617 358.949 336.958 359.135 336.943 358.978C336.896 358.854 338.636 358.411 340.671 359.075C342.712 359.717 343.872 361.088 343.762 361.163Z" fill="white"/>
<path d="M343.736 353.915C343.682 354.061 342.337 353.599 340.628 353.646C338.92 353.671 337.595 354.19 337.536 354.047C337.463 353.935 338.781 353.155 340.617 353.126C342.453 353.078 343.804 353.801 343.736 353.915Z" fill="white"/>
<path d="M343.306 346.953C343.242 347.095 341.874 346.39 340.079 346.587C338.28 346.745 337.078 347.705 336.987 347.579C336.945 347.532 337.184 347.217 337.711 346.866C338.232 346.515 339.061 346.165 340.028 346.068C340.996 345.974 341.877 346.155 342.457 346.397C343.042 346.638 343.338 346.899 343.306 346.953Z" fill="white"/>
<path d="M340.037 345.26C340.007 345.263 339.933 344.947 339.947 344.365C339.963 343.788 340.075 342.933 340.509 341.971C340.737 341.514 340.968 340.931 341.609 340.576C341.928 340.396 342.422 340.427 342.723 340.723C343.022 341.01 343.135 341.394 343.167 341.77C343.239 343.276 342.041 344.815 340.362 345.139C338.675 345.434 337.073 344.564 336.316 343.307C336.147 342.98 336.019 342.575 336.177 342.162C336.333 341.746 336.804 341.555 337.147 341.591C337.859 341.651 338.328 342.028 338.761 342.302C339.62 342.907 340.17 343.565 340.497 344.04C340.826 344.519 340.94 344.821 340.914 344.836C340.835 344.903 340.24 343.71 338.556 342.609C338.134 342.358 337.643 342.038 337.135 342.023C336.886 342.015 336.679 342.126 336.604 342.331C336.526 342.529 336.595 342.823 336.74 343.079C337.377 344.106 338.843 344.898 340.266 344.627C341.683 344.367 342.734 343.014 342.688 341.8C342.673 341.508 342.577 341.22 342.409 341.056C342.245 340.896 342.009 340.864 341.795 340.967C341.346 341.182 341.069 341.699 340.842 342.131C339.954 343.935 340.144 345.277 340.037 345.26Z" fill="white"/>
<path d="M270.76 167.664C270.76 167.664 267.871 178.847 268.92 192.472C269.325 197.744 287.117 343.596 287.117 343.596H311.137L304.385 206.516L306.352 206.943C306.352 206.943 319.464 265.408 320.534 274.873C321.496 283.381 332.554 345.194 332.554 345.194L354.517 345.447L347.503 263.686L339.34 185.235L336.269 162.399L270.76 167.664Z" fill="#263238"/>
<path d="M268.686 97.2131L314.761 98.0935C314.761 98.0935 308.016 153.113 337.315 151.52L338.835 166.892C338.835 166.892 330.801 165.513 331.323 173.906C331.846 182.298 340.596 287.64 340.596 287.64L268.977 286.801L268.991 146.416L268.686 97.2131Z" fill="#525772"/>
<path d="M319.708 66.6448L305.853 97.8433L310.521 97.9279C310.544 97.9287 310.56 97.9099 310.566 97.8877C310.858 96.5787 323.005 68.0367 323.005 68.0367L319.708 66.6448Z" fill="#263238"/>
<path d="M285.053 68.5065L276.765 97.4362L272.334 97.3406L280.764 69.9086C280.764 69.9086 283.088 68.4903 285.053 68.5065Z" fill="#263238"/>
<path d="M314.828 173.663C314.836 173.663 314.846 173.742 314.859 173.895C314.871 174.075 314.887 174.299 314.904 174.578C314.934 175.214 314.974 176.093 315.025 177.209C315.089 179.493 315.22 182.814 314.817 186.898C314.609 188.936 314.252 191.167 313.572 193.488C312.9 195.808 311.862 198.212 310.351 200.482C308.854 202.751 306.861 204.902 304.33 206.483C303.068 207.27 301.679 207.921 300.19 208.325C298.697 208.709 297.135 208.91 295.551 208.857C293.971 208.775 292.429 208.484 290.959 208.031C289.505 207.535 288.118 206.915 286.839 206.158C284.299 204.622 282.126 202.68 280.476 200.509C277.149 196.139 275.794 191.258 275.133 187.244C274.49 183.187 274.529 179.852 274.599 177.57C274.642 176.426 274.698 175.54 274.753 174.94C274.779 174.661 274.8 174.437 274.817 174.257C274.834 174.104 274.846 174.026 274.853 174.026C274.861 174.027 274.864 174.106 274.862 174.26C274.857 174.439 274.85 174.665 274.842 174.944C274.816 175.545 274.788 176.431 274.772 177.572C274.755 179.851 274.765 183.171 275.443 187.191C275.786 189.196 276.311 191.372 277.15 193.609C277.982 195.844 279.165 198.138 280.8 200.257C282.428 202.382 284.569 204.281 287.061 205.781C288.316 206.521 289.673 207.125 291.094 207.608C292.529 208.048 294.032 208.33 295.568 208.411C297.107 208.462 298.623 208.266 300.071 207.896C301.517 207.506 302.868 206.875 304.099 206.111C306.569 204.576 308.529 202.477 310.01 200.252C313.017 195.773 314.057 190.879 314.503 186.861C314.945 182.809 314.862 179.492 314.852 177.21C314.836 176.094 314.823 175.214 314.815 174.578C314.814 174.299 314.814 174.074 314.813 173.894C314.816 173.743 314.821 173.663 314.828 173.663Z" fill="#263238"/>
<path d="M312.836 173.336C312.84 173.459 304.406 173.798 294.001 174.094C283.593 174.391 275.156 174.531 275.152 174.408C275.149 174.285 283.58 173.946 293.989 173.649C304.393 173.353 312.833 173.213 312.836 173.336Z" fill="#263238"/>
<g opacity="0.3">
<path d="M337.677 155.871C336.709 154.634 334.894 154.566 333.323 154.609C321.505 154.929 309.689 155.319 297.875 155.777L268.503 161.098C272.594 163.792 277.869 163.58 282.763 163.363C293.82 162.869 304.898 162.839 315.958 163.273C321.85 163.503 327.88 163.849 333.519 162.128C334.935 161.695 336.372 161.094 337.325 159.961C338.279 158.828 338.59 157.038 337.677 155.871Z" fill="black"/>
</g>
<path d="M265.112 149.836H246.586V152.465H265.112V149.836Z" fill="#E0E0E0"/>
<path d="M334.678 73.6948C334.678 73.6948 346.015 78.0575 347.108 88.2455C347.414 91.0942 351.348 130.471 352.024 135.753C352.699 141.035 353.376 150.912 349.096 154.132C344.816 157.352 332.778 159.768 332.778 159.768L323.005 139.155L330.159 133.63L327.049 100.231" fill="#E0E0E0"/>
<path d="M327.05 100.232C327.05 100.232 327.086 100.434 327.132 100.831C327.177 101.246 327.24 101.83 327.321 102.585C327.477 104.145 327.705 106.407 327.994 109.294C328.555 115.117 329.358 123.459 330.335 133.615L330.345 133.711L330.267 133.771C327.998 135.529 325.612 137.38 323.123 139.308L323.18 139.073C326.161 145.344 329.469 152.304 332.973 159.675L332.735 159.555C335.762 158.915 338.86 158.126 341.953 157.13C343.495 156.62 345.04 156.057 346.529 155.354C347.999 154.636 349.507 153.834 350.352 152.407C351.111 151.199 351.559 149.808 351.828 148.406C352.101 147.001 352.227 145.576 352.279 144.158C352.363 141.32 352.151 138.515 351.808 135.782C351.243 130.282 350.699 124.976 350.18 119.921C349.151 109.815 348.226 100.713 347.448 93.0608C347.235 91.1549 347.116 89.3164 346.855 87.6197C346.779 87.1987 346.721 86.7794 346.635 86.373C346.514 85.9751 346.393 85.5831 346.275 85.1963C346.176 84.8035 346.006 84.4431 345.846 84.0862C345.68 83.7327 345.548 83.3681 345.363 83.0385C343.909 80.3717 342.011 78.4871 340.347 77.1567C338.666 75.8272 337.214 74.9946 336.221 74.4626C335.722 74.197 335.333 74.0117 335.072 73.8871C334.81 73.7641 334.678 73.6958 334.678 73.6958C334.678 73.6958 334.822 73.7359 335.091 73.8452C335.359 73.9571 335.755 74.1296 336.262 74.3832C337.272 74.8913 338.745 75.7033 340.454 77.0209C342.147 78.3411 344.084 80.224 345.582 82.9223C345.772 83.2562 345.911 83.6251 346.082 83.9837C346.248 84.3458 346.422 84.7113 346.526 85.1109C346.649 85.5037 346.774 85.9025 346.9 86.3072C346.991 86.7205 347.054 87.1475 347.134 87.577C347.409 89.2985 347.536 91.1173 347.759 93.0275C348.564 100.674 349.521 109.772 350.584 119.872C351.111 124.925 351.664 130.229 352.238 135.727C352.587 138.477 352.802 141.301 352.72 144.173C352.668 145.609 352.541 147.056 352.262 148.494C351.986 149.928 351.53 151.367 350.725 152.648C350.484 153.006 350.213 153.353 349.925 153.677C349.595 153.958 349.299 154.3 348.929 154.512C348.575 154.754 348.219 154.989 347.842 155.181C347.474 155.392 347.101 155.586 346.718 155.757C345.2 156.472 343.642 157.039 342.089 157.552C338.971 158.553 335.869 159.341 332.819 159.982L332.653 160.017L332.58 159.862C329.091 152.484 325.798 145.518 322.83 139.24L322.763 139.1L322.886 139.006C325.381 137.085 327.775 135.244 330.049 133.494L329.981 133.65C329.067 123.488 328.316 115.141 327.792 109.314C327.544 106.424 327.349 104.159 327.215 102.597C327.156 101.84 327.11 101.254 327.077 100.838C327.051 100.438 327.05 100.232 327.05 100.232Z" fill="#263238"/>
<path d="M261.805 153.39C261.805 153.39 259.578 150.596 263.738 149.53C267.898 148.463 276.987 146.883 282.107 147.31C287.228 147.737 288.721 152.004 288.721 152.004L276.154 153.39C276.154 153.39 272.934 152.217 270.908 152.217C268.88 152.216 261.805 153.39 261.805 153.39Z" fill="#AE7461"/>
<path d="M249.672 154.659C249.672 154.659 249.119 151.807 253.06 151.924C257.001 152.04 271.443 152.465 271.443 152.465L289.807 149.837L290.279 159.679C290.279 159.679 272.65 161.777 271.955 161.545C271.398 161.359 263.542 160.578 260.446 160.275C259.632 160.195 258.853 159.902 258.187 159.425L252.249 155.169L249.672 154.659Z" fill="#AE7461"/>
<path d="M272.579 157.991C272.596 158.001 272.427 158.272 271.939 158.526C271.459 158.764 270.679 159.046 269.677 158.853C269.552 158.826 269.424 158.78 269.297 158.71C269.177 158.657 269.093 158.641 268.978 158.602C268.729 158.546 268.476 158.477 268.203 158.423C267.652 158.31 267.073 158.191 266.469 158.068C265.229 157.828 263.887 157.569 262.479 157.296C259.708 156.752 257.204 156.26 255.23 155.873C253.378 155.492 252.238 155.231 252.249 155.17C252.26 155.109 253.42 155.262 255.288 155.564C257.155 155.866 259.729 156.315 262.564 156.86C263.981 157.132 265.329 157.406 266.553 157.668C267.164 157.801 267.745 157.932 268.287 158.065C268.558 158.127 268.821 158.207 269.072 158.273C269.202 158.318 269.361 158.377 269.464 158.428C269.551 158.481 269.651 158.523 269.756 158.55C270.621 158.759 271.401 158.551 271.865 158.371C272.347 158.178 272.552 157.96 272.579 157.991Z" fill="#6F4439"/>
<path d="M281.799 150.544L323.393 139.97C323.393 139.97 334.733 159.609 332.778 159.768C330.822 159.926 285.324 159.768 285.324 159.768L281.799 150.544Z" fill="#AE7461"/>
<path d="M278.206 152.736C278.178 152.812 277.283 152.42 275.746 152.276C274.211 152.105 272.077 152.311 269.723 152.652C267.367 152.993 265.158 153.101 263.597 152.784C262.818 152.637 262.206 152.432 261.805 152.247C261.403 152.064 261.199 151.929 261.211 151.905C261.242 151.829 262.116 152.273 263.646 152.473C265.173 152.701 267.313 152.551 269.664 152.21C272.017 151.869 274.214 151.705 275.784 151.963C276.567 152.08 277.187 152.257 277.596 152.422C278.005 152.587 278.216 152.711 278.206 152.736Z" fill="#6F4439"/>
<path d="M332.429 78.2992C332.483 78.353 331.773 79.0891 330.794 80.4041C329.814 81.7157 328.613 83.6498 327.689 85.9699C326.771 88.2943 326.321 90.5255 326.135 92.1522C325.947 93.7807 325.959 94.8036 325.883 94.8053C325.852 94.8062 325.822 94.5517 325.795 94.0881C325.76 93.6252 325.766 92.9515 325.822 92.1232C325.929 90.4666 326.339 88.1764 327.274 85.8068C328.217 83.4406 329.487 81.492 330.545 80.212C331.073 79.5698 331.529 79.0763 331.872 78.762C332.211 78.4427 332.406 78.2779 332.429 78.2992Z" fill="#263238"/>
<path d="M346.816 149.113C346.741 149.146 346.222 147.919 345.129 146.082C344.042 144.245 342.304 141.837 339.951 139.583C337.591 137.335 335.105 135.708 333.221 134.706C331.336 133.698 330.087 133.236 330.116 133.16C330.126 133.131 330.446 133.227 331.015 133.425C331.588 133.615 332.395 133.954 333.365 134.427C334.339 134.895 335.456 135.54 336.643 136.337C337.819 137.151 339.059 138.125 340.259 139.261C341.448 140.407 342.478 141.6 343.344 142.738C344.194 143.888 344.89 144.973 345.402 145.925C345.919 146.873 346.294 147.662 346.51 148.226C346.734 148.788 346.844 149.101 346.816 149.113Z" fill="#263238"/>
<path d="M72.8139 72.012C70.1679 70.332 69.5289 66.435 70.9619 63.648C72.3959 60.861 75.4399 59.168 78.5339 58.669C83.0129 57.946 87.8019 59.534 90.9629 62.788C92.6709 64.547 94.0549 66.841 96.3699 67.647C98.4049 68.355 100.657 67.716 102.795 67.993C105.66 68.364 108.116 70.401 109.585 72.889C111.054 75.377 111.66 78.278 112 81.147C112.311 83.78 112.517 86.67 114.344 88.592C116.126 90.466 118.94 90.863 121.155 92.196C125.323 94.704 126.674 100.917 123.924 104.93C123.047 106.209 121.788 107.382 121.686 108.93C121.593 110.343 122.506 111.601 122.934 112.951C124.035 116.427 121.19 120.556 117.55 120.765C115.712 120.871 113.744 120.154 112.096 120.976C110.46 121.792 109.851 123.765 108.804 125.265C106.745 128.214 102.439 129.326 99.2099 127.743C97.8579 127.08 96.5819 125.986 95.0799 126.087C93.5809 126.188 92.4009 127.468 90.9259 127.753C88.9949 128.127 87.1619 126.704 86.0129 125.108C84.8649 123.511 84.0649 121.63 82.5949 120.323C80.6709 118.612 77.9679 118.189 75.5329 117.351C70.1589 115.5 65.6679 111.235 63.5429 105.964C61.4179 100.692 61.6949 94.505 64.2829 89.445" fill="#3E4462"/>
<path d="M100.815 106.616C101.365 106.024 102.154 105.47 102.963 105.203L102.799 105.193C102.95 105.151 103.105 105.134 103.259 105.115C103.851 104.975 104.439 105.005 104.937 105.323L104.921 105.322C105.84 105.66 106.651 106.334 107.094 107.214C107.865 108.744 107.579 110.696 106.54 112.059C105.637 113.243 104.084 114.019 102.637 113.668C101.308 113.345 100.322 112.139 99.945 110.824C99.533 109.384 99.797 107.713 100.815 106.616Z" fill="#525772"/>
<path d="M65.7278 131.705L63.0818 83.1381C62.9728 80.8651 64.6198 78.8871 66.8748 78.5841L89.9538 72.0481C97.3758 71.0491 102.587 80.0761 103.27 87.5341C104.029 95.8201 104.629 105.966 103.821 112.188C102.197 124.698 91.9478 126.592 91.9478 126.592C91.9438 126.55 91.8728 129.739 91.9478 134.266L87.2378 149.657L65.7278 131.705Z" fill="#FFBF9D"/>
<path d="M100.663 97.0341C100.717 97.8771 100.048 98.6171 99.1688 98.6891C98.2918 98.7611 97.5358 98.1391 97.4808 97.2961C97.4268 96.4541 98.0958 95.7121 98.9728 95.6401C99.8528 95.5671 100.609 96.1911 100.663 97.0341Z" fill="#3E4462"/>
<path d="M101.218 92.878C101.026 93.092 99.7898 92.231 98.0718 92.284C96.3548 92.313 95.1178 93.233 94.9258 93.028C94.8318 92.937 95.0228 92.556 95.5608 92.14C96.0898 91.727 97.0018 91.313 98.0718 91.287C99.1428 91.263 100.055 91.631 100.584 92.02C101.123 92.411 101.313 92.782 101.218 92.878Z" fill="#3E4462"/>
<path d="M84.8947 97.762C84.9487 98.605 84.2797 99.345 83.4007 99.417C82.5237 99.489 81.7677 98.866 81.7137 98.024C81.6597 97.181 82.3297 96.44 83.2067 96.368C84.0857 96.296 84.8417 96.92 84.8947 97.762Z" fill="#3E4462"/>
<path d="M84.3327 93.679C84.1397 93.893 82.9027 93.0321 81.1857 93.0851C79.4687 93.1131 78.2317 94.034 78.0397 93.828C77.9457 93.737 78.1347 93.356 78.6747 92.94C79.2037 92.526 80.1147 92.1131 81.1857 92.0871C82.2567 92.0631 83.1677 92.4311 83.6977 92.8201C84.2357 93.2121 84.4267 93.583 84.3327 93.679Z" fill="#3E4462"/>
<path d="M90.9319 106.248C90.9209 106.151 91.9839 105.935 93.7089 105.665C94.1469 105.607 94.5589 105.508 94.6249 105.207C94.7199 104.887 94.5229 104.419 94.2949 103.914C93.8519 102.864 93.3889 101.763 92.9019 100.609C90.9639 95.9019 89.5479 92.0259 89.7389 91.9499C89.9289 91.8729 91.6539 95.6269 93.5919 100.334C94.0589 101.495 94.5059 102.602 94.9309 103.661C95.1109 104.155 95.4129 104.713 95.2079 105.377C95.0989 105.708 94.7839 105.955 94.5039 106.039C94.2249 106.133 93.9779 106.145 93.7609 106.164C92.0229 106.307 90.9419 106.346 90.9319 106.248Z" fill="#3E4462"/>
<path d="M91.9489 126.591C91.9489 126.591 84.3348 127.331 75.8918 122.578C75.8918 122.578 79.4968 131.841 91.9288 130.322L91.9489 126.591Z" fill="#FF9A6C"/>
<path d="M90.7938 110.342C89.9288 109.19 88.5497 108.508 87.2597 108.594C86.3647 108.653 85.4988 109.093 85.0328 109.889C84.5668 110.684 84.5718 111.851 85.1528 112.665C85.8068 113.583 87.0058 113.852 87.9698 113.589C88.9338 113.326 89.7167 112.639 90.4557 111.952C90.6607 111.762 90.8688 111.563 90.9808 111.293C91.0938 111.024 91.0868 110.662 90.8888 110.423" fill="#FF9A6C"/>
<path d="M85.9079 107.581C86.1869 107.557 86.2439 109.422 87.8779 110.701C89.5089 111.984 91.4919 111.718 91.5139 111.978C91.5429 112.095 91.0809 112.353 90.2429 112.4C89.4199 112.452 88.2109 112.221 87.2099 111.439C86.2129 110.655 85.7629 109.583 85.6779 108.819C85.5849 108.042 85.7799 107.574 85.9079 107.581Z" fill="#3E4462"/>
<path d="M84.8908 86.582C84.7348 87.054 83.0128 86.881 81.0028 87.182C78.9868 87.442 77.3778 88.078 77.0978 87.667C76.9728 87.47 77.2438 87.022 77.8888 86.551C78.5278 86.081 79.5548 85.622 80.7618 85.453C81.9688 85.286 83.0818 85.447 83.8248 85.725C84.5748 86.001 84.9578 86.358 84.8908 86.582Z" fill="#3E4462"/>
<path d="M100.445 86.981C100.154 87.38 98.9578 87.0079 97.5338 87.0299C96.1088 87.0019 94.9118 87.3669 94.6228 86.9669C94.4958 86.7719 94.6747 86.3759 95.1907 85.9909C95.6997 85.6079 96.5588 85.2819 97.5388 85.2839C98.5178 85.2869 99.3758 85.617 99.8818 86.003C100.396 86.389 100.573 86.786 100.445 86.981Z" fill="#3E4462"/>
<path d="M111.667 84.917C111.087 83.051 110.019 81.27 108.382 80.204C107.485 79.619 106.443 79.263 105.609 78.591C103.809 77.138 103.392 74.609 102.281 72.581C100.849 69.966 98.081 68.13 95.115 67.827C92.647 67.575 90.104 68.315 87.699 67.709C85.921 67.261 84.3679 66.106 82.5659 65.764C79.0579 65.097 75.796 67.615 73.253 70.122C73.244 72.633 75.244 74.313 77.17 75.924C79.096 77.536 81.752 78.237 84.222 77.785C86.138 77.435 88.2389 76.466 89.8979 77.487C91.6429 78.561 91.7149 81.191 93.2619 82.535C95.4739 84.454 98.99 82.653 101.798 83.486C103.966 84.129 105.321 86.201 106.761 87.945C108.201 89.689 110.359 91.346 112.527 90.703C112.389 88.752 112.247 86.783 111.667 84.917Z" fill="#3E4462"/>
<path d="M85.3238 74.3021C83.7508 73.8521 80.5328 72.8341 79.6898 71.4691C77.8578 68.5061 74.6278 66.4831 71.3278 66.6641C68.0278 66.8441 64.8598 69.4501 64.1838 72.9351C60.1908 72.9651 56.2948 75.4731 54.3778 79.2471C54.1388 79.7191 53.9308 80.2081 53.7558 80.7111C52.5118 82.8991 52.2728 85.6441 53.1748 87.9981C53.7188 89.4181 54.6458 90.9991 53.9158 92.3331C53.1728 93.6911 51.2928 93.7341 49.8288 94.2381C47.2818 95.1151 45.6318 98.0421 46.1978 100.675C46.4008 101.62 46.8528 102.563 46.6558 103.51C46.4508 104.495 45.6078 105.191 44.9598 105.961C43.3508 107.873 42.8528 110.659 43.7008 113.01C44.5478 115.361 46.7078 117.189 49.1668 117.636C50.2858 117.839 51.4988 117.792 52.4668 118.389C53.5768 119.073 54.0628 120.409 54.8468 121.451C56.3498 123.45 59.1768 124.335 61.5508 123.551C62.0318 123.392 62.4778 123.152 62.8978 122.873C63.6468 123.913 64.8228 124.616 66.8338 124.616L66.3718 98.3551C66.6218 98.9091 67.1018 99.4071 67.9638 99.6021C72.1778 100.556 72.7948 91.8701 71.8538 89.5161C73.3788 88.1621 74.9198 86.7891 76.0828 85.0691C77.2458 83.3491 78.2708 78.6591 78.0228 76.5481C79.5438 76.6371 86.0148 74.5001 85.3238 74.3021Z" fill="#3E4462"/>
<path d="M67.5338 100.49C67.4008 97.821 64.1338 97.25 61.8208 98.587C60.5508 99.321 59.5788 100.797 59.6958 103.631C60.0068 111.188 67.5298 109.317 67.5338 109.099C67.5358 108.966 67.6898 103.616 67.5338 100.49Z" fill="#FFBF9D"/>
<path d="M65.1079 106.332C65.0739 106.309 64.9799 106.43 64.7619 106.541C64.5489 106.649 64.1789 106.733 63.7789 106.602C62.9689 106.342 62.2439 105.102 62.1509 103.741C62.1039 103.054 62.2209 102.393 62.4419 101.841C62.6499 101.279 62.9909 100.877 63.3899 100.79C63.7859 100.681 64.0809 100.91 64.1819 101.119C64.2919 101.326 64.2499 101.479 64.2909 101.49C64.3129 101.508 64.4479 101.357 64.3739 101.047C64.3369 100.898 64.2409 100.724 64.0569 100.586C63.8699 100.446 63.5999 100.382 63.3209 100.424C62.7399 100.488 62.2369 101.046 61.9939 101.652C61.7189 102.262 61.5709 103.006 61.6239 103.777C61.7349 105.298 62.5729 106.69 63.6789 106.961C64.2159 107.078 64.6529 106.899 64.8749 106.712C65.1019 106.516 65.1339 106.345 65.1079 106.332Z" fill="#FF9A6C"/>
<path d="M62.2847 109.161C62.8337 108.569 63.6237 108.015 64.4327 107.748L64.2687 107.738C64.4197 107.696 64.5747 107.679 64.7287 107.66C65.3207 107.52 65.9087 107.55 66.4067 107.868L66.3907 107.867C67.3097 108.205 68.1207 108.879 68.5637 109.758C69.3357 111.288 69.0487 113.24 68.0097 114.603C67.1067 115.787 65.5547 116.563 64.1067 116.212C62.7777 115.889 61.7917 114.683 61.4147 113.368C61.0037 111.929 61.2667 110.259 62.2847 109.161Z" fill="#525772"/>
<path d="M138.416 337.205L136.69 361.323C136.69 361.323 160.521 370.671 160.636 375.159L113.856 373.999L115.004 336.309L138.416 337.205Z" fill="#525772"/>
<path d="M122.574 358.873C121.651 359.091 120.983 360.095 121.162 361.026C121.342 361.957 122.358 362.645 123.284 362.444C124.21 362.243 125.05 361.061 124.767 360.156C124.485 359.251 123.248 358.508 122.396 358.926" fill="#E0E0E0"/>
<path d="M113.856 373.996L113.948 370.994L159.329 373.033C159.329 373.033 160.787 374.001 160.862 375.418L113.856 373.996Z" fill="#3E4462"/>
<path d="M137.11 361.491C137.094 361.721 135.937 361.785 134.777 362.486C133.598 363.157 132.977 364.135 132.769 364.036C132.558 363.984 132.951 362.618 134.371 361.793C135.784 360.957 137.168 361.281 137.11 361.491Z" fill="#3E4462"/>
<path d="M141.99 363.716C142.035 363.942 141.022 364.298 140.205 365.245C139.359 366.168 139.124 367.216 138.895 367.198C138.677 367.227 138.565 365.87 139.604 364.712C140.633 363.544 141.993 363.496 141.99 363.716Z" fill="#3E4462"/>
<path d="M144.592 369.743C144.381 369.785 144.1 368.621 144.738 367.379C145.366 366.133 146.471 365.673 146.562 365.869C146.686 366.063 145.962 366.716 145.454 367.744C144.923 368.759 144.822 369.729 144.592 369.743Z" fill="#3E4462"/>
<path d="M136.892 355.912C136.788 356.118 135.741 355.763 134.435 355.805C133.128 355.82 132.098 356.222 131.985 356.02C131.858 355.849 132.878 355.03 134.418 355.002C135.956 354.962 137.012 355.734 136.892 355.912Z" fill="#3E4462"/>
<path d="M137.918 350.739C137.917 350.834 137.001 350.944 135.553 350.643C134.833 350.491 133.987 350.224 133.106 349.795C132.666 349.58 132.217 349.325 131.773 349.026C131.56 348.878 131.307 348.728 131.079 348.444C130.832 348.195 130.709 347.578 131.017 347.214C131.272 346.86 131.705 346.718 132.046 346.723C132.394 346.724 132.674 346.804 132.928 346.877C133.449 347.023 133.936 347.215 134.38 347.434C135.268 347.877 135.982 348.422 136.51 348.943C137.569 349.996 137.913 350.871 137.832 350.913C137.725 350.985 137.217 350.245 136.132 349.368C135.591 348.931 134.896 348.476 134.065 348.104C133.649 347.921 133.199 347.76 132.722 347.637C132.226 347.488 131.801 347.469 131.665 347.687C131.616 347.77 131.608 347.803 131.708 347.954C131.811 348.093 132.009 348.232 132.219 348.378C132.627 348.665 133.039 348.917 133.443 349.136C134.252 349.574 135.03 349.881 135.698 350.094C137.038 350.519 137.927 350.614 137.918 350.739Z" fill="#3E4462"/>
<path d="M186.771 288.257L200.057 308.459C200.057 308.459 224.663 301.399 227.482 304.894L189.627 332.402L167.633 301.774L186.771 288.257Z" fill="#525772"/>
<path d="M187.359 315.093C186.758 315.827 186.839 317.03 187.546 317.661C188.254 318.291 189.48 318.22 190.093 317.497C190.706 316.775 190.655 315.326 189.88 314.779C189.106 314.232 187.672 314.394 187.25 315.243" fill="#E0E0E0"/>
<path d="M189.626 332.4L187.874 329.96L225.153 304C225.153 304 226.899 303.883 227.82 304.962L189.626 332.4Z" fill="#3E4462"/>
<path d="M200.494 308.337C200.622 308.53 199.741 309.283 199.246 310.545C198.717 311.795 198.819 312.948 198.593 312.996C198.394 313.083 197.875 311.759 198.502 310.242C199.115 308.719 200.412 308.136 200.494 308.337Z" fill="#3E4462"/>
<path d="M205.721 307.138C205.894 307.29 205.306 308.189 205.233 309.438C205.122 310.685 205.572 311.66 205.379 311.784C205.223 311.939 204.31 310.93 204.432 309.379C204.539 307.827 205.589 306.962 205.721 307.138Z" fill="#3E4462"/>
<path d="M211.451 310.344C211.309 310.505 210.379 309.752 210.13 308.378C209.871 307.007 210.47 305.97 210.661 306.07C210.877 306.149 210.699 307.108 210.92 308.232C211.115 309.361 211.624 310.193 211.451 310.344Z" fill="#3E4462"/>
<path d="M196.93 304.039C196.972 304.266 195.926 304.62 194.914 305.447C193.885 306.254 193.311 307.198 193.099 307.107C192.894 307.048 193.207 305.778 194.412 304.82C195.61 303.853 196.917 303.825 196.93 304.039Z" fill="#3E4462"/>
<path d="M194.601 299.307C194.658 299.383 193.997 300.028 192.665 300.668C192.001 300.986 191.167 301.287 190.206 301.482C189.726 301.579 189.214 301.649 188.681 301.681C188.422 301.693 188.13 301.728 187.776 301.641C187.428 301.593 186.956 301.178 186.979 300.702C186.966 300.266 187.224 299.89 187.498 299.686C187.775 299.475 188.046 299.369 188.292 299.272C188.795 299.071 189.298 298.928 189.784 298.831C190.758 298.643 191.657 298.642 192.392 298.735C193.873 298.928 194.678 299.414 194.639 299.496C194.598 299.618 193.745 299.339 192.35 299.302C191.655 299.284 190.826 299.344 189.941 299.554C189.499 299.662 189.044 299.807 188.591 299.999C188.107 300.182 187.758 300.426 187.782 300.681C187.794 300.777 187.808 300.808 187.978 300.867C188.144 300.914 188.386 300.905 188.641 300.894C189.14 300.875 189.62 300.824 190.074 300.753C190.983 300.609 191.787 300.38 192.447 300.143C193.769 299.668 194.532 299.203 194.601 299.307Z" fill="#3E4462"/>
<path d="M67.935 224.136C68.852 224.12 64.681 236.342 96.864 240.069C129.047 243.796 141.222 248.277 147.47 255.817C153.718 263.356 139.377 350.48 139.377 350.48L113.575 350.003C113.575 350.003 114.506 306.813 115.012 300.687C115.518 294.56 119.452 278.382 119.452 278.382L51.536 280.246C51.139 280.257 50.743 280.259 50.349 280.254C35.179 280.032 23.045 260.761 24.037 245.621L25.393 237.394L67.935 224.136Z" fill="#3E4462"/>
<path d="M68.4961 229.989C68.4961 229.989 99.8401 220.578 116.633 218.758C133.425 216.939 143.231 219.531 146.145 222.574C152.928 229.657 197.999 300.044 197.999 300.044L174.883 316.514C174.883 316.514 135.44 262.787 124.489 248.6L120.723 244.284L68.1731 237.967L68.4961 229.989Z" fill="#3E4462"/>
<path d="M72.5501 235.604C72.5491 235.611 72.6271 235.633 72.7821 235.668C72.9601 235.706 73.187 235.754 73.469 235.813C74.105 235.937 74.9911 236.111 76.1181 236.331C78.4531 236.768 81.7781 237.391 85.8751 238.158C94.1471 239.665 105.525 241.737 118.093 244.027C118.981 244.187 119.863 244.346 120.685 244.494L120.525 244.364C125.517 255.575 132.417 264.29 137.942 269.886C140.744 272.662 143.173 274.722 144.914 276.053C145.778 276.688 146.457 277.188 146.946 277.547C147.165 277.702 147.34 277.827 147.479 277.926C147.6 278.009 147.664 278.049 147.669 278.043C147.673 278.037 147.617 277.986 147.504 277.891C147.371 277.783 147.204 277.648 146.995 277.479C146.518 277.105 145.856 276.586 145.014 275.926C143.307 274.559 140.916 272.471 138.152 269.679C135.415 266.861 132.366 263.281 129.351 259.009C126.366 254.727 123.354 249.762 120.921 244.203L120.873 244.093L120.761 244.073C119.939 243.925 119.057 243.766 118.169 243.606C105.593 241.365 94.2071 239.336 85.9291 237.861C81.8231 237.15 78.4891 236.573 76.1481 236.168C75.0151 235.981 74.1241 235.834 73.4851 235.729C73.2001 235.686 72.971 235.652 72.79 235.625C72.633 235.604 72.5511 235.597 72.5501 235.604Z" fill="#525772"/>
<path d="M128.415 154.181L142.943 127.9L152.562 133.037L143.968 163.35L128.415 154.181Z" fill="#FFBF9D"/>
<path d="M158.326 131.376C159.884 128.8 161.736 125.988 161.736 125.988L163.248 123.404C163.38 123.553 163.491 123.725 163.594 123.895C163.79 124.219 163.993 124.563 164.323 124.75C164.948 125.105 165.755 124.754 166.291 124.268C167.413 123.251 167.933 121.616 167.6 120.149C167.28 118.739 166.182 117.546 164.812 117.083C164.628 116.749 164.376 116.428 164.02 116.14C161.834 114.372 157.932 115.587 157.932 115.587L158.335 114.609C158.335 114.609 160.658 112.301 165.804 114.091C166.572 114.358 167.427 114.369 168.182 114.055C168.644 113.863 169.064 113.55 169.226 113.043C169.63 111.781 168.84 111.174 165.644 110.012C162.448 108.851 158.974 108.789 157.062 110.045C155.15 111.301 154.483 111.915 154.483 111.915C154.483 111.915 157.603 102.88 157.777 102.301C158.282 100.624 157.954 98.999 156.867 98.561C156.17 98.28 155.081 98.441 154.433 100.375C153.872 102.049 145.946 118.483 145.946 118.483L142.866 125.956L141.328 132.532L150.917 136.889L153.329 135.383C155.415 134.677 157.188 133.258 158.326 131.376Z" fill="#FFBF9D"/>
<path d="M144.565 125.823C145.428 126.394 146.636 126.018 147.432 125.345C148.228 124.673 148.773 123.753 149.519 123.026C151.748 120.851 155.43 120.67 157.553 118.391C157.849 118.073 158.115 117.59 157.868 117.237C157.64 116.91 157.149 116.949 156.755 117.024C153.38 117.666 150.005 118.309 146.629 118.951" fill="#FFBF9D"/>
<path d="M146.628 118.95C146.621 118.91 147.004 118.798 147.702 118.63C148.401 118.461 149.415 118.236 150.671 117.97C151.979 117.702 153.466 117.398 155.088 117.066C155.506 116.983 155.932 116.899 156.366 116.813C156.777 116.764 157.293 116.517 157.907 116.874C158.205 117.067 158.312 117.493 158.223 117.79C158.148 118.092 157.992 118.322 157.817 118.529C157.464 118.902 157.09 119.238 156.665 119.523C154.967 120.67 153.117 121.135 151.638 121.894C150.893 122.261 150.229 122.685 149.703 123.184C149.176 123.682 148.759 124.25 148.321 124.735C147.483 125.754 146.379 126.252 145.624 126.214C144.849 126.194 144.539 125.829 144.564 125.823C144.588 125.769 144.929 126.039 145.617 125.986C146.307 125.941 147.239 125.472 148.007 124.466C148.411 123.983 148.808 123.395 149.365 122.837C149.922 122.279 150.626 121.81 151.396 121.414C152.926 120.603 154.767 120.111 156.333 119.043C156.724 118.783 157.072 118.466 157.377 118.149C157.664 117.831 157.769 117.447 157.567 117.34C157.365 117.188 156.9 117.276 156.467 117.363C156.032 117.443 155.604 117.521 155.185 117.597C153.554 117.884 152.06 118.147 150.745 118.378C149.48 118.592 148.454 118.755 147.742 118.855C147.033 118.954 146.636 118.99 146.628 118.95Z" fill="#FF9A6C"/>
<path d="M157.794 115.595C157.86 115.634 158.008 114.794 158.975 114.046C159.45 113.682 160.14 113.429 160.936 113.42C161.733 113.4 162.603 113.595 163.504 113.869C164.407 114.139 165.29 114.414 166.138 114.483C166.981 114.55 167.765 114.45 168.361 114.156C168.971 113.868 169.264 113.335 169.322 112.985C169.386 112.626 169.333 112.431 169.318 112.432C169.281 112.43 169.281 112.628 169.179 112.948C169.078 113.263 168.799 113.687 168.248 113.915C167.707 114.147 166.966 114.22 166.173 114.137C165.376 114.054 164.524 113.78 163.612 113.507C162.702 113.231 161.782 113.031 160.925 113.073C160.069 113.1 159.302 113.413 158.808 113.838C158.305 114.258 158.042 114.729 157.912 115.058C157.785 115.391 157.773 115.59 157.794 115.595Z" fill="#FF9A6C"/>
<path d="M157.961 101.653C157.908 101.64 157.685 102.33 157.329 103.445C156.927 104.685 156.448 106.162 155.918 107.795C155.364 109.42 154.862 110.891 154.441 112.124C154.058 113.23 153.823 113.917 153.873 113.937C153.92 113.956 154.243 113.303 154.691 112.217C155.141 111.132 155.71 109.612 156.277 107.912C156.842 106.212 157.296 104.655 157.586 103.518C157.878 102.38 158.01 101.665 157.961 101.653Z" fill="#FF9A6C"/>
<path d="M159.154 118.305C159.159 118.333 159.372 118.305 159.749 118.273C160.108 118.25 160.714 118.222 161.164 118.662C161.383 118.874 161.463 119.204 161.38 119.568C161.308 119.931 161.104 120.298 160.901 120.711C160.703 121.114 160.49 121.638 160.639 122.199C160.792 122.742 161.236 123.176 161.779 123.367C162.335 123.565 162.935 123.461 163.404 123.218C163.877 122.969 164.258 122.617 164.497 122.178C164.924 121.334 165.115 120.533 165.24 119.849C165.354 119.164 165.356 118.593 165.281 118.208C165.204 117.821 165.075 117.637 165.06 117.647C165.028 117.661 165.106 117.857 165.134 118.228C165.162 118.599 165.12 119.144 164.976 119.801C164.825 120.45 164.6 121.245 164.191 122.012C163.79 122.711 162.804 123.322 161.906 123.013C161.468 122.861 161.111 122.505 160.995 122.1C160.879 121.692 161.027 121.257 161.215 120.859C161.4 120.458 161.615 120.057 161.687 119.624C161.779 119.202 161.648 118.722 161.35 118.472C160.757 117.96 160.087 118.067 159.729 118.129C159.348 118.206 159.15 118.283 159.154 118.305Z" fill="#FF9A6C"/>
<path d="M163.348 122.895C163.332 122.886 163.217 123.062 163.226 123.423C163.236 123.77 163.41 124.323 163.966 124.697C164.51 125.062 165.384 125.136 166.157 124.734C166.93 124.339 167.535 123.554 167.844 122.641C168.154 121.723 168.136 120.762 167.882 119.97C167.633 119.17 167.161 118.558 166.701 118.145C166.236 117.728 165.778 117.502 165.456 117.383C165.131 117.266 164.939 117.246 164.933 117.268C164.901 117.335 165.674 117.508 166.515 118.34C166.925 118.753 167.338 119.337 167.548 120.074C167.763 120.805 167.768 121.686 167.485 122.525C167.204 123.36 166.658 124.073 165.996 124.429C165.339 124.791 164.584 124.755 164.108 124.472C163.625 124.187 163.423 123.717 163.373 123.41C163.321 123.089 163.38 122.903 163.348 122.895Z" fill="#FF9A6C"/>
<path d="M155.07 126.906C155.083 126.874 154.779 126.702 154.2 126.634C153.631 126.567 152.762 126.643 151.929 127.157L152.204 127.345C152.292 126.952 152.365 126.521 152.41 126.072C152.669 123.568 151.895 121.631 151.813 121.681C151.7 121.706 152.285 123.628 152.033 126.038C151.99 126.472 151.925 126.89 151.849 127.272L151.765 127.695L152.123 127.461C152.858 126.981 153.646 126.858 154.185 126.861C154.732 126.862 155.055 126.954 155.07 126.906Z" fill="#FF9A6C"/>
<path d="M160.425 111.548C160.325 111.562 160.457 112.326 161.139 112.927C161.815 113.535 162.593 113.579 162.595 113.479C162.619 113.372 161.978 113.177 161.392 112.645C160.796 112.125 160.53 111.512 160.425 111.548Z" fill="#FF9A6C"/>
<path d="M92.5488 135.556C92.5488 135.556 100.945 137.136 105.052 139.963C107.008 141.309 122.776 160.16 122.776 160.16L134.894 142.195L151.801 152.272C151.801 152.272 139.27 179.308 137.13 182.875C134.99 186.442 128.284 192.694 121.829 189.853C116.677 187.585 94.9908 172.453 94.9908 172.453L92.5488 135.556Z" fill="#E84C4F"/>
<path d="M62.6539 132.063L47.9469 136.899C44.0279 156.493 35.1469 165.198 35.1469 165.198L37.1039 212.308C33.2799 220.912 24.3449 232.661 23.1699 242.003L23.0029 243.331L96.3039 222.57L92.6899 214.717L100.026 192.079C102.824 185.967 105.423 175.03 103.576 166.581L94.3349 137.802L92.1589 130.171L85.8469 139.096L65.1999 126.826L62.6539 132.063Z" fill="#E84C4F"/>
<path d="M84.1709 216.099C84.1559 215.984 77.1729 216.812 68.5769 217.947C59.9769 219.083 53.0209 220.096 53.0359 220.211C53.0509 220.326 60.0319 219.498 68.6319 218.363C77.2279 217.228 84.1859 216.214 84.1709 216.099Z" fill="#3E4462"/>
<path d="M99.5329 154.751C99.5659 154.738 99.7979 155.247 100.185 156.181C100.57 157.115 101.115 158.472 101.729 160.173C102.337 161.875 103.021 163.925 103.57 166.262C104.118 168.598 104.486 171.229 104.548 174.002C104.67 179.565 103.459 184.531 102.176 187.91C101.551 189.614 100.898 190.93 100.438 191.831C99.9489 192.718 99.6649 193.199 99.6329 193.182C99.6009 193.165 99.8249 192.652 100.256 191.742C100.658 190.819 101.255 189.489 101.83 187.786C103.013 184.406 104.148 179.499 104.028 174.014C103.946 168.523 102.516 163.702 101.382 160.295C100.82 158.656 100.354 157.296 99.9959 156.255C99.6669 155.297 99.4989 154.764 99.5329 154.751Z" fill="#3E4462"/>
<path d="M125.9 171.953C125.762 171.993 124.922 169.527 124.024 166.446C123.126 163.364 122.51 160.833 122.648 160.793C122.786 160.753 123.626 163.218 124.524 166.301C125.422 169.381 126.038 171.912 125.9 171.953Z" fill="#3E4462"/>
<path d="M84.9829 140.726C84.9449 140.771 84.0879 140.116 82.6519 138.957L82.9019 138.889C82.4939 140.153 81.7169 141.792 80.3459 143.333L80.2299 143.463L80.0689 143.386C78.3759 142.573 76.4689 141.582 74.4979 140.454C71.0639 138.487 68.1019 136.463 66.0299 134.909C64.9919 134.134 64.1739 133.479 63.6189 133.014C63.0659 132.546 62.7719 132.274 62.7939 132.246C62.8159 132.218 63.1529 132.436 63.7429 132.854C64.4259 133.333 65.2619 133.92 66.2459 134.611C68.3649 136.083 71.3419 138.047 74.7579 140.003C76.7189 141.125 78.6059 142.128 80.2759 142.967L79.9999 143.019C81.3469 141.558 82.1479 139.997 82.6059 138.785L82.6879 138.568L82.8559 138.717C84.2349 139.943 85.0209 140.681 84.9829 140.726Z" fill="#3E4462"/>
<path d="M93.9299 137.711C94.0369 137.79 92.7429 139.853 90.9629 142.455L90.6719 142.881L90.5089 142.378C90.4299 142.136 90.3459 141.881 90.2489 141.626C89.6799 140.095 88.8959 138.814 88.2429 137.921L88.5029 137.96C87.4619 138.643 87.1479 139.441 87.0659 139.387C87.0109 139.388 87.1919 138.49 88.2859 137.643L88.4219 137.538L88.5459 137.683C89.2849 138.547 90.1459 139.852 90.7369 141.443C90.8379 141.707 90.9239 141.973 91.0029 142.225L90.5479 142.148C92.3529 139.565 93.8229 137.632 93.9299 137.711Z" fill="#3E4462"/>
<path d="M140.274 137.281L115.933 137.088L117.648 150.49C117.648 150.49 119.184 157.095 122.884 157.124L133.433 157.208C133.433 157.208 137.716 154.837 138.618 150.034L140.274 137.281Z" fill="#E0E0E0"/>
<path d="M140.274 137.281C140.266 137.288 140.241 137.432 140.198 137.705C140.153 138.005 140.094 138.4 140.02 138.897C139.868 139.962 139.653 141.462 139.384 143.349C139.116 145.256 138.795 147.55 138.428 150.166C137.909 152.731 136.076 155.373 133.343 157.044L133.435 157.021C130.799 156.995 127.971 156.967 125.001 156.938C124.263 156.924 123.496 156.939 122.758 156.903C122.043 156.891 121.366 156.54 120.81 156.057C119.685 155.072 118.954 153.636 118.396 152.17C118.183 151.602 117.995 151.019 117.851 150.444L117.855 150.465C117.243 145.731 116.66 141.218 116.124 137.065L115.931 137.283C123.032 137.3 129.083 137.314 133.397 137.324C135.529 137.319 137.231 137.315 138.436 137.312C139.002 137.307 139.451 137.303 139.79 137.3C140.101 137.294 140.266 137.288 140.274 137.281C140.282 137.274 140.133 137.266 139.838 137.256C139.51 137.248 139.075 137.237 138.526 137.223C137.332 137.201 135.647 137.171 133.535 137.132C129.187 137.073 123.09 136.991 115.934 136.895L115.713 136.892L115.741 137.113C116.268 141.267 116.84 145.782 117.44 150.517L117.442 150.529L117.444 150.538C117.596 151.144 117.785 151.73 118.004 152.316C118.58 153.819 119.319 155.3 120.54 156.373C121.142 156.897 121.915 157.3 122.736 157.315C123.512 157.351 124.252 157.334 124.998 157.346C127.968 157.364 130.796 157.381 133.432 157.396H133.486L133.524 157.372C136.363 155.614 138.209 152.901 138.732 150.222C139.102 147.548 139.36 145.205 139.596 143.283C139.816 141.396 139.992 139.895 140.116 138.83C140.169 138.345 140.212 137.96 140.244 137.667C140.271 137.405 140.281 137.274 140.274 137.281Z" fill="#3E4462"/>
<path d="M117.709 144.007C117.591 143.974 117.472 143.946 117.353 143.917C117.325 143.911 117.122 143.872 117.307 143.904C117.504 143.938 117.248 143.9 117.199 143.896C116.932 143.875 116.673 143.895 116.407 143.901C116.666 143.895 116.445 143.895 116.314 143.921C116.174 143.948 116.035 143.982 115.898 144.021C115.78 144.054 115.666 144.101 115.549 144.134C115.391 144.179 115.596 144.112 115.617 144.102C115.543 144.136 115.468 144.169 115.395 144.205C115.156 144.323 114.936 144.467 114.715 144.614C114.577 144.705 114.756 144.586 114.771 144.572C114.726 144.613 114.677 144.651 114.632 144.691C114.525 144.785 114.423 144.884 114.326 144.988C114.253 145.066 114.098 145.27 114.244 145.066C114.16 145.183 114.079 145.299 114.005 145.422C113.941 145.529 113.89 145.644 113.826 145.751C113.743 145.891 113.841 145.71 113.85 145.686C113.82 145.763 113.79 145.841 113.763 145.919C113.716 146.056 113.676 146.196 113.643 146.337C113.63 146.393 113.565 146.741 113.59 146.57C113.616 146.399 113.577 146.751 113.574 146.809C113.566 146.954 113.564 147.1 113.569 147.246C113.572 147.329 113.578 147.412 113.583 147.495C113.585 147.524 113.616 147.727 113.587 147.548C113.56 147.377 113.625 147.727 113.638 147.783C113.665 147.905 113.697 148.025 113.733 148.145C113.762 148.24 113.897 148.574 113.781 148.319C113.893 148.565 114.018 148.803 114.168 149.028C114.203 149.08 114.238 149.131 114.275 149.181C114.258 149.158 114.126 149.016 114.241 149.127C114.359 149.241 114.461 149.371 114.581 149.484C114.624 149.524 114.885 149.731 114.76 149.643C114.632 149.553 114.915 149.742 114.962 149.771C115.065 149.836 115.171 149.896 115.279 149.953C115.333 149.981 115.389 150.007 115.443 150.035C115.263 149.941 115.354 150 115.488 150.05C115.759 150.151 116.035 150.204 116.313 150.277C116.477 150.32 116.246 150.271 116.226 150.269C116.307 150.277 116.388 150.287 116.47 150.293C116.633 150.305 116.796 150.309 116.959 150.305C117.02 150.303 117.081 150.3 117.142 150.297C117.177 150.295 117.442 150.268 117.25 150.292C117.064 150.316 117.267 150.287 117.296 150.282C117.376 150.265 117.456 150.251 117.535 150.233C117.694 150.196 117.848 150.147 118.003 150.097C118.028 150.089 118.215 150.012 118.054 150.081C117.87 150.16 118.211 150 118.211 150C118.896 149.655 119.836 149.812 120.215 150.542C120.564 151.216 120.405 152.177 119.673 152.545C116.813 153.984 113.086 153.065 111.46 150.227C110.661 148.832 110.456 147.156 110.805 145.597C111.151 144.05 112.176 142.732 113.507 141.9C114.979 140.98 116.844 140.714 118.512 141.185C119.251 141.393 119.772 142.247 119.523 142.998C119.271 143.752 118.501 144.23 117.709 144.007Z" fill="#E0E0E0"/>
<path d="M117.709 144.007C117.709 144.007 117.868 144.106 118.21 144.099C118.539 144.095 119.09 143.924 119.446 143.355C119.851 142.828 119.752 141.752 118.909 141.233C118.474 140.985 118.002 140.931 117.49 140.857C116.978 140.802 116.429 140.801 115.862 140.883C114.731 141.039 113.514 141.536 112.503 142.44C111.491 143.325 110.685 144.653 110.506 146.178C110.304 147.679 110.593 149.364 111.548 150.744C112.483 152.132 114.08 153.108 115.827 153.349C116.592 153.462 117.368 153.442 118.11 153.296C118.482 153.222 118.841 153.112 119.192 152.985L119.702 152.759C119.876 152.681 120.061 152.552 120.195 152.398C120.741 151.757 120.71 150.812 120.22 150.189C119.687 149.556 118.774 149.494 118.122 149.825L118.407 149.999C118.418 149.981 118.376 149.826 118.236 149.808C118.12 149.806 118.116 149.836 118.122 149.826L118.117 149.828L118.107 149.833L118.088 149.842L118.05 149.86L117.974 149.897L117.934 149.917L117.905 149.932L117.875 149.952C117.857 149.841 117.72 150.257 117.958 150.296C118.034 150.306 118.033 150.294 118.036 150.297L118.043 150.296L118.056 150.292L118.084 150.282L118.167 150.247L118.188 150.238L118.196 150.234L118.201 150.232L118.204 150.231C118.206 150.225 118.2 150.245 118.265 150.184C118.368 149.753 117.965 149.874 118.086 149.863C118.033 149.875 118.047 149.875 118.039 149.877L117.998 149.893L117.933 149.918L117.781 149.963C117.584 150.026 117.368 150.084 117.173 150.111L117.151 150.115C117.131 150.131 117.19 150.079 117.041 150.167C117.035 150.184 116.975 150.2 116.985 150.343C117.034 150.498 117.14 150.491 117.151 150.497C117.207 150.5 117.188 150.496 117.192 150.497H117.196L117.204 150.496L117.246 150.491L117.33 150.48L117.344 150.478C117.34 150.479 117.384 150.47 117.399 150.461C117.409 150.455 117.397 150.466 117.436 150.438C117.435 150.429 117.546 150.384 117.487 150.202C117.395 150.074 117.349 150.111 117.334 150.098L117.307 150.097L117.277 150.099L117.235 150.103L117.155 150.111C117.06 150.117 116.952 150.125 116.852 150.12C116.648 150.116 116.447 150.115 116.243 150.09L116.205 150.462L116.273 150.475L116.319 150.483L116.334 150.485L116.351 150.487L116.371 150.488C116.39 150.485 116.428 150.493 116.494 150.44C116.569 150.379 116.563 150.26 116.544 150.233C116.508 150.161 116.514 150.186 116.503 150.169C116.396 150.093 116.433 150.132 116.417 150.119L116.402 150.115L116.237 150.071L115.92 149.985L115.606 149.9C115.551 149.887 115.509 149.87 115.465 149.85L115.437 149.837C115.445 149.845 115.41 149.815 115.471 149.863C115.555 149.785 115.516 150.225 115.366 150.172C115.311 150.176 115.309 150.168 115.305 150.169L115.3 150.168L115.291 150.166L115.276 150.161L115.278 150.162L115.292 150.168L115.361 150.203L115.527 149.882C115.379 149.813 115.247 149.735 115.114 149.66C115.047 149.624 114.987 149.582 114.918 149.538L114.868 149.506L114.842 149.489L114.826 149.479L114.815 149.472C114.784 149.454 114.739 149.446 114.703 149.452C114.688 149.457 114.666 149.448 114.603 149.504C114.516 149.58 114.571 149.743 114.6 149.747L114.627 149.771L114.685 149.812L114.697 149.82L114.703 149.824C114.703 149.824 114.748 149.855 114.814 149.846C114.889 149.84 114.946 149.772 114.956 149.74C115.014 149.642 114.886 149.502 114.913 149.542L114.903 149.532L114.876 149.509C114.745 149.409 114.653 149.322 114.544 149.202L114.387 149.039L114.346 148.998L114.321 148.975C114.312 148.968 114.32 148.971 114.283 148.947L114.278 148.944L114.254 148.933C114.257 148.914 114.071 148.903 114.03 149.046C114.023 149.213 114.041 149.137 114.036 149.16L114.041 149.17L114.06 149.2L114.069 149.212L114.138 149.29L114.413 149.088C114.219 148.817 114.09 148.524 113.932 148.259L113.633 148.394L113.658 148.448L113.673 148.478C113.679 148.487 113.671 148.479 113.697 148.517L113.713 148.536C113.729 148.539 113.719 148.572 113.838 148.581C114.015 148.542 113.99 148.397 113.99 148.403L113.987 148.382L113.982 148.362L113.939 148.245C113.911 148.169 113.888 148.115 113.871 148.042C113.834 147.899 113.791 147.77 113.766 147.625L113.744 147.516L113.738 147.487L113.736 147.477L113.735 147.472C113.73 147.474 113.742 147.44 113.673 147.382C113.636 147.35 113.555 147.344 113.518 147.366C113.479 147.384 113.467 147.402 113.457 147.413C113.42 147.454 113.424 147.528 113.426 147.533L113.427 147.542L113.436 147.6L113.441 147.627L113.443 147.641L113.445 147.649L113.446 147.654L113.451 147.674C113.34 147.797 113.901 147.74 113.753 147.65L113.755 147.63L113.746 147.552C113.74 147.509 113.737 147.495 113.735 147.457C113.723 147.317 113.718 147.18 113.722 147.046C113.721 146.907 113.721 146.785 113.737 146.648L113.745 146.53C113.742 146.515 113.75 146.463 113.676 146.407C113.591 146.361 113.536 146.398 113.523 146.404C113.499 146.419 113.487 146.433 113.473 146.455C113.445 146.513 113.452 146.51 113.452 146.51L113.449 146.527L113.445 146.554L113.441 146.581L113.439 146.598C113.44 146.607 113.436 146.584 113.44 146.643C113.443 146.664 113.451 146.685 113.461 146.702C113.468 146.707 113.472 146.734 113.539 146.76C113.627 146.794 113.717 146.706 113.715 146.684C113.754 146.549 113.748 146.532 113.766 146.453C113.824 146.21 113.888 145.967 113.976 145.739L113.721 145.642L113.697 145.69L113.682 145.721L113.674 145.739L113.667 145.756L113.663 145.767L113.661 145.772L113.657 145.795C113.657 145.795 113.636 145.901 113.77 145.942C113.87 145.944 113.867 145.913 113.881 145.911C113.897 145.896 113.895 145.896 113.903 145.887C113.942 145.828 113.952 145.803 113.975 145.761C114.015 145.685 114.055 145.611 114.093 145.538C114.175 145.397 114.264 145.273 114.345 145.146L114.14 144.999L114.102 145.054L114.081 145.085L114.078 145.09L114.076 145.093C114.076 145.093 114.039 145.149 114.071 145.215C114.208 145.379 114.304 145.198 114.278 145.24L114.292 145.224L114.371 145.127C114.417 145.069 114.477 145.017 114.529 144.963C114.634 144.857 114.736 144.756 114.848 144.662L114.692 144.493L114.635 144.534L114.598 144.56L114.596 144.561C114.591 144.568 114.608 144.546 114.57 144.587C114.824 144.936 114.674 144.668 114.72 144.751L114.721 144.75L114.725 144.747L114.731 144.743L114.74 144.737L114.758 144.725L114.897 144.638C114.988 144.582 115.076 144.527 115.161 144.474C115.33 144.365 115.491 144.268 115.656 144.196L115.575 144.018L115.491 144.049L115.467 144.058L115.446 144.067L115.423 144.083C115.403 144.071 115.369 144.202 115.435 144.232C115.472 144.253 115.478 144.246 115.484 144.249H115.489L115.507 144.247L115.52 144.244L115.57 144.23L115.744 144.17C115.857 144.129 115.966 144.094 116.071 144.07C116.174 144.045 116.278 144.013 116.369 143.995L116.51 143.978L116.528 143.977H116.53H116.531C116.463 143.952 116.658 144.056 116.533 143.826H116.525H116.52H116.511L116.476 143.828L116.407 143.831L116.41 143.977C116.67 143.969 116.902 143.962 117.111 143.955C117.163 143.953 117.208 143.95 117.253 143.957L117.321 143.964L117.354 143.967L117.372 143.968H117.378H117.381C117.367 143.959 117.427 143.997 117.421 143.897C117.384 143.862 117.403 143.883 117.397 143.877L117.393 143.876L117.381 143.873L117.26 143.856L117.245 143.854H117.241H117.239C117.251 143.867 117.214 143.818 117.192 143.906C117.224 143.954 117.227 143.929 117.228 143.937L117.256 143.942L117.308 143.95C117.57 143.996 117.706 144.02 117.709 144.007C117.712 143.995 117.585 143.948 117.322 143.873L117.271 143.86L117.246 143.853C117.242 143.855 117.243 143.841 117.259 143.884C117.264 143.965 117.209 143.921 117.228 143.933H117.229L117.232 143.934L117.245 143.937L117.361 143.962L117.364 143.963C117.366 143.958 117.358 143.977 117.371 143.942C117.375 143.926 117.385 143.922 117.37 143.925C117.379 143.887 117.381 143.905 117.38 143.879C117.38 143.865 117.378 143.872 117.378 143.872L117.364 143.87L117.332 143.865L117.265 143.854C117.219 143.844 117.167 143.843 117.117 143.843C116.905 143.839 116.669 143.835 116.405 143.83L116.408 143.976H116.478H116.514H116.523H116.527C116.524 143.985 116.535 143.961 116.52 143.976C116.395 143.746 116.589 143.85 116.52 143.825H116.519L116.501 143.826L116.348 143.838C116.241 143.854 116.142 143.881 116.031 143.904C115.92 143.925 115.809 143.956 115.695 143.993L115.519 144.047L115.477 144.057C115.537 144.315 115.544 144.217 115.557 144.229L115.656 144.196L115.575 144.017C115.403 144.086 115.234 144.18 115.056 144.287C114.966 144.339 114.874 144.393 114.778 144.449L114.633 144.535L114.615 144.546L114.606 144.552L114.603 144.554L114.653 144.637C114.668 144.662 114.607 144.56 114.694 144.674C114.689 144.698 114.691 144.687 114.705 144.711C114.752 144.775 114.718 144.729 114.729 144.743L114.763 144.72L114.847 144.66L114.691 144.491C114.582 144.577 114.473 144.68 114.358 144.79C114.302 144.846 114.24 144.896 114.182 144.966L114.101 145.061L114.094 145.069C114.073 145.052 114.146 145.12 114.164 145.116C114.177 145.124 114.183 145.138 114.182 145.151C114.178 145.167 114.188 145.13 114.207 145.143C114.229 145.153 114.225 145.177 114.242 145.19C114.269 145.205 114.301 145.224 114.29 145.218L114.291 145.217L114.306 145.196L114.344 145.145L114.139 144.998C114.051 145.128 113.954 145.26 113.867 145.402C113.827 145.474 113.786 145.548 113.744 145.623C113.738 145.666 113.668 145.689 113.713 145.745C113.741 145.761 113.768 145.784 113.788 145.806C113.806 145.814 113.849 145.823 113.875 145.838C113.957 145.879 113.899 145.847 113.917 145.856L113.923 145.844L113.938 145.815L113.974 145.741L113.719 145.644C113.623 145.879 113.549 146.13 113.482 146.399L113.462 146.496L113.452 146.544L113.447 146.567L113.445 146.578L113.444 146.58C113.444 146.58 113.419 146.584 113.532 146.597C113.542 146.591 113.58 146.579 113.591 146.599C113.603 146.612 113.577 146.629 113.588 146.621C113.61 146.606 113.639 146.601 113.667 146.608C113.743 146.641 113.729 146.631 113.729 146.631L113.73 146.623L113.733 146.6L113.737 146.577L113.738 146.569V146.567C113.697 146.554 113.68 146.579 113.651 146.569C113.628 146.568 113.6 146.54 113.598 146.536C113.621 146.569 113.543 146.563 113.535 146.536C113.409 146.533 113.46 146.535 113.449 146.535V146.537L113.448 146.548L113.446 146.572L113.441 146.621C113.423 146.753 113.419 146.906 113.418 147.044C113.412 147.188 113.415 147.332 113.425 147.477C113.426 147.511 113.432 147.567 113.436 147.595L113.439 147.622L113.441 147.635L113.443 147.641L113.442 147.643C113.414 147.645 113.491 147.624 113.567 147.628C113.531 147.632 113.755 147.596 113.749 147.596L113.748 147.59L113.746 147.578L113.742 147.552L113.735 147.502L113.734 147.497C113.734 147.497 113.736 147.493 113.733 147.508C113.715 147.519 113.695 147.526 113.675 147.53C113.645 147.545 113.573 147.508 113.588 147.519C113.352 147.565 113.448 147.555 113.428 147.558L113.433 147.582L113.453 147.688C113.476 147.832 113.522 147.986 113.558 148.134C113.574 148.208 113.606 148.294 113.631 148.36L113.666 148.458C114.086 148.294 113.933 148.336 113.951 148.31L113.928 148.26L113.629 148.395C113.793 148.682 113.928 148.994 114.134 149.29L114.409 149.088L114.331 148.996C114.326 149 114.356 148.979 114.269 149.043C114.222 149.092 114.2 149.077 114.178 149.12C114.166 149.14 114.152 149.158 114.136 149.175C114.13 149.176 114.072 149.251 114.088 149.231L114.09 149.233L114.107 149.249L114.146 149.289L114.303 149.456C114.397 149.565 114.528 149.689 114.645 149.779L114.662 149.794C114.67 149.785 114.643 149.813 114.681 149.775C114.753 149.71 114.758 149.66 114.782 149.671C114.756 149.654 114.8 149.63 114.818 149.616L114.873 149.519L114.835 149.492L114.834 149.491C114.849 149.474 114.777 149.552 114.799 149.563C114.804 149.584 114.794 149.659 114.754 149.659C114.727 149.67 114.718 149.602 114.725 149.644C114.73 149.686 114.704 149.729 114.661 149.753C114.613 149.812 114.649 149.77 114.638 149.784L114.647 149.79L114.67 149.805L114.718 149.837C114.782 149.878 114.85 149.928 114.923 149.968C115.065 150.051 115.21 150.137 115.355 150.206L115.521 149.885L115.444 149.846L115.42 149.835L115.412 149.831L115.393 149.824L115.382 149.821L115.376 149.82C115.371 149.821 115.369 149.813 115.315 149.817C115.165 149.764 115.126 150.205 115.21 150.127C115.277 150.179 115.248 150.153 115.262 150.163L115.307 150.185C115.363 150.211 115.423 150.235 115.475 150.248L115.801 150.34L116.131 150.433L116.292 150.478C116.307 150.457 116.271 150.56 116.353 150.316C116.365 150.328 116.375 150.096 116.382 150.121L116.376 150.12L116.338 150.113L116.238 150.095L116.2 150.467C116.41 150.495 116.629 150.499 116.849 150.504C116.961 150.51 117.066 150.503 117.184 150.496L117.264 150.489L117.302 150.486C117.305 150.472 117.318 150.516 117.311 150.455C117.308 150.367 117.306 150.272 117.298 150.27C117.269 150.221 117.285 150.158 117.273 150.107L117.267 150.108L117.191 150.117L117.153 150.122H117.151C117.152 150.133 117.148 150.098 117.152 150.146C117.156 150.192 117.155 150.236 117.174 150.244C117.179 150.253 117.207 150.266 117.208 150.305C117.2 150.338 117.182 150.33 117.177 150.326C117.154 150.298 117.206 150.379 117.195 150.407C117.195 150.426 117.188 150.444 117.202 150.499L117.203 150.501H117.205L117.223 150.498C117.456 150.465 117.661 150.41 117.881 150.343L118.044 150.296L118.133 150.263L118.169 150.249L118.172 150.248H118.173L118.144 150.182C118.128 150.147 118.114 150.091 118.11 150.069C117.968 149.788 118.041 149.921 118.02 149.889L118.003 149.896L117.933 149.925L117.93 149.926C117.929 149.933 117.933 149.899 117.958 149.977C117.981 150.023 117.979 150.104 118.006 150.127L118.095 150.277C118.088 150.281 118.103 150.273 118.103 150.273L118.138 150.256L118.212 150.221L118.249 150.203L118.268 150.194L118.277 150.19L118.282 150.188C118.29 150.177 118.287 150.207 118.173 150.203C118.119 150.199 118.051 150.149 118.031 150.104C118.019 150.082 118.014 150.062 118.011 150.047C117.992 150.035 117.994 150.014 118.16 150.008L118.293 150.183C118.807 149.922 119.533 149.994 119.902 150.453C120.266 150.901 120.285 151.685 119.881 152.131C119.701 152.356 119.356 152.454 119.036 152.605C118.707 152.723 118.37 152.825 118.022 152.894C117.327 153.03 116.599 153.048 115.881 152.942C114.241 152.715 112.752 151.806 111.879 150.519C110.985 149.239 110.701 147.656 110.882 146.236C111.041 144.801 111.778 143.561 112.728 142.706C113.677 141.838 114.82 141.352 115.899 141.184C116.964 141.026 118.032 141.107 118.781 141.442C119.136 141.65 119.367 142 119.448 142.343C119.537 142.691 119.449 143.023 119.299 143.28C118.998 143.807 118.505 143.994 118.197 144.023C117.884 144.049 117.713 143.984 117.709 144.007Z" fill="#3E4462"/>
<path d="M63.092 186.659C63.21 186.402 83.279 156.914 83.279 156.914L95.198 166.465L78.673 201.458C78.673 201.458 64.836 196.375 63.054 187.014" fill="#FFBF9D"/>
<path d="M100.958 137.958C100.958 137.958 93.069 142.774 90.948 145.782C88.827 148.79 83.2791 156.914 83.2791 156.914L95.198 166.465L97.885 161.54C97.885 161.54 110.296 159.817 111.652 158.075C113.008 156.333 112.12 153.72 112.12 153.72C112.12 153.72 114.215 151.788 114.022 150.239C114.022 150.239 119.301 149.637 119.473 148.038C119.645 146.438 119.026 144.664 117.062 144.543C115.097 144.422 110.657 144.754 112.104 143.831C113.552 142.908 118.855 143.747 119.281 141.456C119.707 139.164 118.536 137.51 116.159 137.884C113.782 138.258 112.953 138.439 112.953 138.439C112.953 138.439 116.484 137.304 116.415 134.151C116.403 133.596 115.822 133.233 115.309 133.448C114.692 133.707 113.875 134.084 113.171 134.524C110.214 136.369 102.677 136.864 100.958 137.958Z" fill="#FFBF9D"/>
<path d="M113.915 138.401C113.92 138.569 110.367 138.513 106.179 139.613C101.981 140.679 98.9 142.449 98.823 142.299C98.791 142.244 99.519 141.732 100.798 141.078C102.075 140.423 103.921 139.66 106.048 139.109C108.176 138.562 110.16 138.336 111.595 138.29C113.031 138.242 113.916 138.338 113.915 138.401Z" fill="#FF9A6C"/>
<path d="M114.024 149.989C114.027 150.135 113.479 150.264 112.814 150.393C112.148 150.519 111.591 150.602 111.54 150.465C111.489 150.333 112.002 150.017 112.716 149.881C113.429 149.744 114.022 149.848 114.024 149.989Z" fill="#FF9A6C"/>
<path d="M112.188 153.73C112.233 153.867 111.952 154.083 111.56 154.213C111.167 154.343 110.813 154.338 110.768 154.202C110.723 154.065 111.004 153.849 111.396 153.719C111.788 153.589 112.142 153.594 112.188 153.73Z" fill="#FF9A6C"/>
<path d="M53.7599 134.974C53.7599 134.974 31.0469 138.435 35.1469 165.198C37.9629 183.578 41.9379 208.328 53.6319 215.956C69.8259 226.52 81.8169 196.157 81.8169 196.157L67.0969 178.735L63.1169 185.114L58.2349 159.278L53.7599 134.974Z" fill="#E84C4F"/>
<path d="M62.749 185.344C62.608 185.371 60.951 177.347 59.048 167.424C57.145 157.498 55.717 149.431 55.858 149.404C55.999 149.377 57.656 157.399 59.559 167.326C61.463 177.249 62.891 185.317 62.749 185.344Z" fill="#3E4462"/>
<path d="M36.839 173.966C36.848 173.965 36.87 174.07 36.906 174.275C36.943 174.509 36.99 174.81 37.049 175.189C37.166 175.993 37.35 177.178 37.612 178.698C38.14 181.737 38.991 186.127 40.508 191.43C41.263 194.081 42.191 196.957 43.319 199.995C44.477 203.015 45.694 206.284 47.455 209.449C48.352 211.018 49.429 212.544 50.797 213.835C52.169 215.115 53.831 216.135 55.68 216.769C57.533 217.386 59.536 217.652 61.555 217.569C63.572 217.458 65.606 217.02 67.525 216.227C68.548 215.781 69.553 215.276 70.433 214.632C71.31 213.977 72.106 213.22 72.808 212.387C74.224 210.731 75.366 208.887 76.384 207.035C78.415 203.317 79.94 199.531 81.606 196.054L81.639 196.309C75.814 189.367 70.793 183.384 66.978 178.837L67.223 178.834C64.719 182.009 63.096 184.792 61.979 186.67C61.454 187.6 61.043 188.327 60.747 188.852C60.62 189.082 60.517 189.268 60.435 189.416C60.363 189.542 60.323 189.604 60.317 189.601C60.31 189.598 60.337 189.529 60.396 189.396C60.468 189.242 60.558 189.05 60.67 188.811C60.919 188.299 61.303 187.548 61.832 186.585C62.907 184.674 64.486 181.865 66.977 178.635L67.095 178.482L67.222 178.632C71.068 183.152 76.129 189.101 82.002 196.003L82.101 196.119L82.035 196.258C80.393 199.72 78.875 203.522 76.833 207.278C75.808 209.15 74.655 211.022 73.203 212.724C72.484 213.579 71.66 214.366 70.743 215.051C69.81 215.733 68.786 216.245 67.729 216.706C65.753 217.524 63.661 217.973 61.583 218.085C59.503 218.168 57.436 217.892 55.519 217.25C53.607 216.592 51.876 215.525 50.459 214.195C49.047 212.855 47.948 211.284 47.041 209.685C45.262 206.455 44.064 203.184 42.917 200.143C41.802 197.087 40.891 194.195 40.157 191.528C38.681 186.195 37.883 181.782 37.416 178.728C37.185 177.2 37.033 176.009 36.949 175.2C36.911 174.818 36.88 174.515 36.857 174.279C36.835 174.073 36.83 173.967 36.839 173.966Z" fill="#3E4462"/>
<path d="M28.0201 282.462H23.1501C20.5871 282.462 18.4241 280.545 18.1161 278.004C17.1561 270.057 15.2461 247.934 15.2271 247.711L18.7001 247.411C18.7191 247.633 20.6231 269.697 21.5771 277.585C21.6731 278.378 22.3491 278.975 23.1501 278.975H28.0201V282.462Z" fill="#E0E0E0"/>
<path d="M28.02 282.462C28.025 282.467 28.03 282.396 28.036 282.25C28.041 282.078 28.047 281.862 28.055 281.591C28.066 280.965 28.082 280.093 28.102 278.976L28.103 278.895L28.02 278.894C27.233 278.886 26.327 278.878 25.31 278.868C24.798 278.864 24.258 278.86 23.692 278.856C23.41 278.846 23.108 278.874 22.849 278.818C22.583 278.759 22.324 278.625 22.125 278.42C21.923 278.219 21.78 277.952 21.729 277.661C21.688 277.358 21.667 277.016 21.634 276.685C21.574 276.015 21.511 275.321 21.446 274.604C21.315 273.168 21.175 271.64 21.028 270.03C20.424 263.577 19.697 255.81 18.909 247.393L18.889 247.185L18.682 247.203C17.865 247.273 16.989 247.349 16.107 247.425C15.799 247.451 15.493 247.478 15.209 247.502L14.998 247.52L15.018 247.728C16.164 259.486 17.197 270.086 17.947 277.785C18.105 279.776 19.4 281.337 20.795 282.009C21.494 282.363 22.221 282.518 22.885 282.547C23.551 282.566 24.155 282.541 24.699 282.539C25.753 282.52 26.582 282.505 27.181 282.494C27.44 282.487 27.648 282.481 27.813 282.476C27.956 282.472 28.025 282.467 28.02 282.462C28.015 282.457 27.936 282.452 27.786 282.447C27.615 282.442 27.399 282.437 27.132 282.429C26.537 282.418 25.711 282.403 24.663 282.384C23.617 282.335 22.249 282.533 20.902 281.804C19.577 281.136 18.373 279.657 18.24 277.751C17.522 270.053 16.533 259.452 15.437 247.694L15.246 247.92C15.529 247.896 15.836 247.869 16.144 247.843C17.026 247.767 17.902 247.691 18.719 247.621L18.493 247.431C19.31 255.849 20.064 263.616 20.69 270.07C20.85 271.679 21.002 273.206 21.144 274.642C21.216 275.358 21.285 276.052 21.352 276.721C21.389 277.059 21.41 277.376 21.46 277.713C21.525 278.059 21.699 278.374 21.94 278.608C22.178 278.846 22.484 279.001 22.797 279.065C23.123 279.127 23.409 279.089 23.692 279.097C24.259 279.093 24.798 279.089 25.31 279.085C26.327 279.075 27.233 279.067 28.02 279.059L27.938 278.977C27.958 280.074 27.973 280.93 27.985 281.545C27.993 281.823 27.999 282.046 28.004 282.222C28.01 282.376 28.015 282.457 28.02 282.462Z" fill="#3E4462"/>
<path d="M105.628 286.72H27.8429C24.9449 286.72 22.5959 284.371 22.5959 281.473C22.5959 278.575 24.9449 276.226 27.8429 276.226H105.628C108.526 276.226 110.875 278.575 110.875 281.473C110.875 284.371 108.526 286.72 105.628 286.72Z" fill="#525772"/>
<path d="M11.204 250.314L0.589961 167.047C0.223961 164.173 2.25696 161.545 5.13096 161.179C8.00496 160.812 10.633 162.846 10.999 165.72L21.613 248.987C21.979 251.862 19.946 254.489 17.072 254.855C14.198 255.222 11.57 253.189 11.204 250.314Z" fill="#525772"/>
<path d="M105.114 283.471L118.008 374.87L113.397 374.868L94.7869 286.72L105.114 283.471Z" fill="#525772"/>
<path d="M28.7479 283.471L15.7649 374.87L20.3759 374.868L39.0749 286.72L28.7479 283.471Z" fill="#525772"/>
<path d="M106.275 286.72C106.275 286.604 88.4719 286.511 66.5169 286.511C44.5539 286.511 26.7549 286.605 26.7549 286.72C26.7549 286.836 44.5539 286.929 66.5169 286.929C88.4729 286.929 106.275 286.835 106.275 286.72Z" fill="#3E4462"/>
</svg>
