<svg width="42" height="42" viewBox="0 0 42 42" fill="none" xmlns="http://www.w3.org/2000/svg">
<rect width="42" height="42" fill="#E84C4F"/>
<path d="M13 28.16V13.64H16.64V28.16H13ZM13 13.64C13 12.1733 13.3333 10.88 14 9.76C14.6667 8.61333 15.6 7.73333 16.8 7.12C18 6.48 19.3733 6.16 20.92 6.16V9.32C19.5867 9.32 18.5333 9.69333 17.76 10.44C17.0133 11.1867 16.64 12.2533 16.64 13.64H13ZM13 28.12H16.64C16.64 29.5067 17.0133 30.5867 17.76 31.36C18.5333 32.1067 19.5867 32.48 20.92 32.48V35.64C19.3733 35.64 18 35.32 16.8 34.68C15.6 34.04 14.6667 33.16 14 32.04C13.3333 30.92 13 29.6133 13 28.12ZM25.68 14.68C25.52 13 25.0133 11.6933 24.16 10.76C23.3333 9.8 22.24 9.32 20.88 9.32V6.16C23.1467 6.16 24.9867 6.85333 26.4 8.24C27.84 9.62667 28.7067 11.5467 29 14L25.68 14.68ZM25.68 27.12L29 27.76C28.7067 30.24 27.84 32.1733 26.4 33.56C24.9867 34.9467 23.1467 35.64 20.88 35.64V32.48C22.24 32.48 23.3333 32.0133 24.16 31.08C25.0133 30.12 25.52 28.8 25.68 27.12Z" fill="white"/>
</svg>
