<svg width="101" height="38" viewBox="0 0 101 38" fill="none" xmlns="http://www.w3.org/2000/svg">
<path d="M2 22.16V7.64H5.64V22.16H2ZM2 7.64C2 6.17333 2.33333 4.88 3 3.76C3.66667 2.61333 4.6 1.73333 5.8 1.12C7 0.479999 8.37333 0.159999 9.92 0.159999V3.32C8.58667 3.32 7.53333 3.69333 6.76 4.44C6.01333 5.18667 5.64 6.25333 5.64 7.64H2ZM2 22.12H5.64C5.64 23.5067 6.01333 24.5867 6.76 25.36C7.53333 26.1067 8.58667 26.48 9.92 26.48V29.64C8.37333 29.64 7 29.32 5.8 28.68C4.6 28.04 3.66667 27.16 3 26.04C2.33333 24.92 2 23.6133 2 22.12ZM14.68 8.68C14.52 7 14.0133 5.69333 13.16 4.76C12.3333 3.8 11.24 3.32 9.88 3.32V0.159999C12.1467 0.159999 13.9867 0.853333 15.4 2.24C16.84 3.62667 17.7067 5.54667 18 8L14.68 8.68ZM14.68 21.12L18 21.76C17.7067 24.24 16.84 26.1733 15.4 27.56C13.9867 28.9467 12.1467 29.64 9.88 29.64V26.48C11.24 26.48 12.3333 26.0133 13.16 25.08C14.0133 24.12 14.52 22.8 14.68 21.12ZM21.6188 29V8.8H25.2588V29H21.6188ZM32.8588 29V15.24H36.4988V29H32.8588ZM32.8588 15.24C32.8588 14.12 32.5121 13.2133 31.8188 12.52C31.1254 11.8 30.2321 11.44 29.1388 11.44L30.0588 8.2C31.2854 8.2 32.3788 8.50667 33.3388 9.12C34.3254 9.73333 35.0988 10.5733 35.6588 11.64C36.2188 12.7067 36.4988 13.9067 36.4988 15.24H32.8588ZM23.6588 15.32C23.6588 13.96 23.9388 12.7467 24.4987 11.68C25.0588 10.5867 25.8188 9.73333 26.7788 9.12C27.7388 8.50667 28.8321 8.2 30.0588 8.2L29.1388 11.44C27.9921 11.44 27.0588 11.8 26.3388 12.52C25.6188 13.24 25.2588 14.1733 25.2588 15.32H23.6588ZM21.6188 29V0.199999H25.2588V29H21.6188ZM40.9975 20V17.4H54.6375V20H40.9975ZM47.1975 29.64V26.48H47.3975V29.64H47.1975ZM39.8375 21.84V15.96H43.4775V21.84H39.8375ZM50.9975 17.4V15.32H54.6375V17.4H50.9975ZM54.6375 15.32H50.9975C50.9975 14.1467 50.6375 13.1867 49.9175 12.44C49.2242 11.6933 48.3175 11.32 47.1975 11.32V8.2C48.6375 8.2 49.9042 8.50667 50.9975 9.12C52.1175 9.73333 52.9975 10.5867 53.6375 11.68C54.3042 12.7467 54.6375 13.96 54.6375 15.32ZM51.1575 23L54.5575 23.68C54.3975 24.8267 53.9842 25.8533 53.3175 26.76C52.6508 27.6667 51.8108 28.3733 50.7975 28.88C49.7842 29.3867 48.6508 29.64 47.3975 29.64V26.48C48.3575 26.48 49.1842 26.2 49.8775 25.64C50.5975 25.0533 51.0242 24.1733 51.1575 23ZM39.8375 16C39.8375 14.48 40.1575 13.1467 40.7975 12C41.4642 10.8267 42.3442 9.90667 43.4375 9.24C44.5575 8.54667 45.8242 8.2 47.2375 8.2V11.32C46.0642 11.32 45.1442 11.7333 44.4775 12.56C43.8108 13.36 43.4775 14.5067 43.4775 16H39.8375ZM39.8375 21.84H43.4775C43.4775 23.3067 43.8108 24.4533 44.4775 25.28C45.1442 26.08 46.0642 26.48 47.2375 26.48V29.64C45.8242 29.64 44.5575 29.3067 43.4375 28.64C42.3442 27.9467 41.4642 27.0133 40.7975 25.84C40.1575 24.6667 39.8375 23.3333 39.8375 21.84ZM62.3775 11.8V8.8H73.2975V11.8H62.3775ZM59.2575 29V6.92H62.8975V29H59.2575ZM56.9375 11.8V8.8H67.8175V11.8H56.9375ZM59.2575 6.92C59.2575 4.81333 59.7908 3.17333 60.8575 2C61.9242 0.799999 63.3908 0.199999 65.2575 0.199999L65.5775 3.32C65.0175 3.32 64.5375 3.46667 64.1375 3.76C63.7375 4.05333 63.4308 4.46667 63.2175 5C63.0042 5.53333 62.8975 6.17333 62.8975 6.92H59.2575ZM67.4575 4C67.1642 3.78667 66.8575 3.62667 66.5375 3.52C66.2442 3.38667 65.9242 3.32 65.5775 3.32L65.2575 0.199999C65.8975 0.199999 66.5242 0.293332 67.1375 0.479998C67.7775 0.666665 68.3642 0.986666 68.8975 1.44L67.4575 4ZM70.9375 29V6.92H74.5775V29H70.9375ZM68.6175 11.8V8.8H79.5375V11.8H68.6175ZM70.9375 6.92C70.9375 4.81333 71.4708 3.17333 72.5375 2C73.6042 0.799999 75.0708 0.199999 76.9375 0.199999L77.2975 3.32C76.7375 3.32 76.2575 3.46667 75.8575 3.76C75.4575 4.05333 75.1375 4.46667 74.8975 5C74.6842 5.53333 74.5775 6.17333 74.5775 6.92H70.9375ZM79.1375 4C78.8442 3.78667 78.5508 3.62667 78.2575 3.52C77.9642 3.38667 77.6442 3.32 77.2975 3.32L76.9375 0.199999C77.5775 0.199999 78.2042 0.293332 78.8175 0.479998C79.4575 0.666665 80.0442 0.986666 80.5775 1.44L79.1375 4ZM83.5366 36.4L84.2966 33.4C85.3366 33.6667 86.2032 33.6 86.8966 33.2C87.5899 32.8 88.1366 31.9733 88.5366 30.72H91.8966C91.0966 33.2267 89.9899 34.9333 88.5766 35.84C87.1899 36.7467 85.5099 36.9333 83.5366 36.4ZM88.5366 30.72L95.3766 8.8H99.0166L91.8966 30.72H88.5366ZM89.2166 30.48L82.1766 8.8H85.8166L91.0166 25.4L89.2166 30.48Z" fill="#E84C4F"/>
</svg>
