<svg width="99" height="99" viewBox="0 0 99 99" fill="none" xmlns="http://www.w3.org/2000/svg">
<path d="M94.8749 21.562L94.8418 21.5951C96.7927 23.965 97.7921 26.9762 97.6452 30.0424C97.4983 33.1087 96.2158 36.0105 94.0472 38.1831C92.9035 39.3321 91.544 40.2439 90.0469 40.8661C88.5499 41.4882 86.9446 41.8085 85.3235 41.8085C83.7023 41.8085 82.097 41.4882 80.6 40.8661C79.1029 40.2439 77.7435 39.3321 76.5997 38.1831C74.5695 36.1617 73.3074 33.4956 73.0308 30.644L69.1572 34.5178L75.4244 40.7855C88.2601 53.6255 83.0126 75.511 65.724 81.1099L13.5868 97.9959C5.81659 100.512 -1.51665 93.185 1.00611 85.4142L17.8908 33.2663C23.4859 16.0161 45.3631 10.7251 58.2087 23.5684L64.4759 29.8361L68.1508 26.1576C65.4699 25.8015 62.9817 24.5701 61.0725 22.6546C59.9235 21.5108 59.0118 20.1512 58.3897 18.654C57.7676 17.1568 57.4473 15.5515 57.4473 13.9302C57.4473 12.3088 57.7676 10.7035 58.3897 9.20631C59.0118 7.70911 59.9235 6.34957 61.0725 5.20574C63.1973 3.08108 66.0242 1.80458 69.023 1.61561C72.0217 1.42665 74.9865 2.3382 77.3612 4.17933L77.4274 4.11311C82.2279 -0.720912 90.0412 -0.687802 94.8749 4.11311C96.0238 5.25695 96.9355 6.61649 97.5576 8.11369C98.1797 9.61088 98.5 11.2162 98.5 12.8375C98.5 14.4589 98.1797 16.0642 97.5576 17.5614C96.9355 19.0586 96.0238 20.4181 94.8749 21.562ZM20.0957 47.9438L7.3031 87.457C7.10825 88.0473 7.0811 88.6801 7.22467 89.2849C7.36824 89.8897 7.67689 90.4428 8.11623 90.8825C8.55557 91.3222 9.10836 91.6313 9.71301 91.7754C10.3177 91.9194 10.9504 91.8928 11.5408 91.6984L30.1901 85.6592L25.6412 81.1066C24.0189 79.4511 24.0189 76.8354 25.6412 75.213C26.0256 74.8276 26.4823 74.5218 26.985 74.3132C27.4878 74.1045 28.0268 73.9971 28.5711 73.9971C29.1155 73.9971 29.6545 74.1045 30.1573 74.3132C30.66 74.5218 31.1167 74.8276 31.5011 75.213L39.0694 82.7852L63.6846 74.8124C64.5149 74.5442 65.3248 74.2167 66.108 73.8324L51.0013 58.7244C49.379 57.0689 49.379 54.4532 51.0013 52.8308C52.6235 51.2085 55.239 51.2085 56.8943 52.8639L72.501 68.4752C77.3678 61.8069 77.2917 52.0196 70.7397 45.4705L53.524 28.2535C44.1878 18.9165 28.2599 22.7572 24.1878 35.3125L22.9694 39.0704L38.1557 54.2546C39.7779 55.91 39.7779 58.5257 38.1557 60.1481C36.5334 61.7705 33.8848 61.7705 32.2626 60.115L20.0957 47.9471V47.9438Z" fill="#EDA345"/>
</svg>
