<svg width="97" height="96" viewBox="0 0 97 96" fill="none" xmlns="http://www.w3.org/2000/svg">
<path d="M52.9614 0.50155C48.8858 0.600434 42.6292 4.86342 37.7605 9.36593C36.7471 10.302 35.8218 11.214 34.9627 12.0885C47.3437 12.6269 59.0197 12.0094 70.6077 11.1634C69.4841 10.0823 68.1843 8.89349 66.7304 7.67832C62.2141 3.89656 56.4642 0.415851 52.9614 0.50155ZM88.254 13.7981C66.2237 15.4022 44.4797 17.8853 19.1008 14.743C17.9553 15.8637 17.3604 16.8525 17.1842 17.6656C17.03 18.4566 17.1401 19.1818 17.6689 20.1047C42.6733 25.6642 67.6777 25.796 89.752 18.6544C89.8622 18.0391 89.7741 17.4019 89.5097 16.5888C89.2453 15.7538 88.7827 14.8089 88.254 13.7981ZM85.5002 24.0381C65.8712 29.2899 44.4137 29.246 22.9121 25.2247C17.6468 45.5069 7.49086 63.7674 10.3702 85.1483L10.6258 87.038L8.73777 87.3677C6.5722 87.7192 3.48795 89.631 1.69909 91.6087C0.802459 92.5975 0.247295 93.5863 0.117316 94.1357C-0.0126628 94.6631 -0.0897693 94.4433 0.190016 94.6191C1.33119 95.3882 4.81638 95.8057 8.52408 95.2344C12.2318 94.6631 16.1928 93.2787 18.5941 91.7625L19.255 91.345L20.0261 91.4988C39.2365 95.1245 56.7066 96.9484 75.9831 92.2899L76.9304 92.0481L77.7014 92.6634C78.9351 93.6742 82.9226 94.5093 87.0423 94.6411C90.7875 94.7729 94.4885 94.5312 97 94.4214C96.7577 93.7621 96.273 92.7513 95.546 91.6746C94.6207 90.3561 93.4531 88.9937 92.3516 87.961C91.2281 86.9282 90.0604 86.3349 89.9062 86.2909L87.9455 85.9174L88.3421 83.9617C92.3296 64.3607 94.1801 44.518 85.5002 24.0381ZM51.904 31.8169C64.9679 31.8169 75.3001 43.8368 75.3001 58.3178C75.3001 72.7988 64.9679 84.8186 51.904 84.8186C38.84 84.8186 28.5078 72.7988 28.5078 58.3178C28.5078 43.8368 38.84 31.8169 51.904 31.8169ZM51.904 35.7723C41.3074 35.7723 32.4732 45.7046 32.4732 58.3178C32.4732 69.8982 39.9195 79.2152 49.3484 80.6655L49.7891 72.0736C43.0037 70.7552 41.021 63.4158 40.999 60.713C43.0478 60.9327 47.608 62.5368 50.0975 66.1626L50.3839 60.8009C43.5765 59.5044 41.5938 52.1431 41.5717 49.4402C43.5985 49.66 48.2029 51.2641 50.6923 54.9338L50.9787 49.594C47.0573 47.968 45.8456 43.1996 45.8236 41.3537C47.586 41.5295 51.8599 43.1556 53.2919 46.9571C55.1424 43.3534 59.5264 42.1888 61.2668 42.1888C61.0686 44.1225 59.2841 48.9128 54.9221 49.9676L54.6577 55.0876C57.4997 51.7255 62.2141 50.6049 64.285 50.6268C63.9545 53.2857 61.2448 60.4053 54.3493 60.9986L54.0629 66.4043C56.9048 63.0203 61.6414 61.8996 63.6902 61.8996C63.4038 64.5585 60.672 71.7001 53.7545 72.2714L53.3139 80.7974C63.2716 79.9623 71.3347 70.3596 71.3347 58.3178C71.3347 45.7046 62.5005 35.7723 51.904 35.7723Z" fill="#EDA345"/>
</svg>
