<svg width="87" height="95" viewBox="0 0 87 95" fill="none" xmlns="http://www.w3.org/2000/svg">
<path d="M43.5 0C35.3953 0 28.2521 5.42195 25.9626 13.3C23.5358 12.1878 20.9716 11.5854 18.3158 11.5854C13.4581 11.5854 8.79945 13.5383 5.36457 17.0146C1.92969 20.4909 0 25.2057 0 30.122C0.0108489 34.227 1.3645 38.213 3.84961 41.4574C6.33471 44.7018 9.8114 47.0222 13.7368 48.0561V81.0976H73.2632V48.0561C81.3221 45.9244 87 38.5561 87 30.122C87 25.2057 85.0703 20.4909 81.6354 17.0146C78.2006 13.5383 73.5419 11.5854 68.6842 11.5854C66.0284 11.5854 63.4642 12.1878 61.0374 13.3C58.7479 5.42195 51.6047 0 43.5 0ZM41.2105 41.7073H45.7895V74.1463H41.2105V41.7073ZM27.4737 50.9756H32.0526V74.1463H27.4737V50.9756ZM54.9474 50.9756H59.5263V74.1463H54.9474V50.9756ZM13.7368 85.7317V90.3659C13.7368 91.5949 14.2193 92.7736 15.078 93.6427C15.9367 94.5118 17.1014 95 18.3158 95H68.6842C69.8986 95 71.0633 94.5118 71.922 93.6427C72.7807 92.7736 73.2632 91.5949 73.2632 90.3659V85.7317H13.7368Z" fill="#EDA345"/>
</svg>
