<svg width="67" height="96" viewBox="0 0 67 96" fill="none" xmlns="http://www.w3.org/2000/svg">
<path d="M18.7891 0.5H48.1786C57.8494 0.5 65.0922 7.698 63.1245 15.3713C62.4965 17.748 59.9008 19.4457 56.9284 19.4457H10.0811C7.06678 19.4457 4.51299 17.748 3.88501 15.3713C3.42182 13.5744 3.45864 11.7162 3.99276 9.93227C4.52689 8.14829 5.54489 6.48338 6.97263 5.05878C8.40036 3.63418 10.2019 2.48575 12.246 1.69712C14.2902 0.908498 16.5254 0.499529 18.7891 0.5ZM20.8823 7.93567C21.4819 7.93567 22.057 7.7425 22.4809 7.39866C22.9049 7.05482 23.1431 6.58848 23.1431 6.10222C23.1431 5.61595 22.9049 5.14961 22.4809 4.80577C22.057 4.46193 21.4819 4.26876 20.8823 4.26876C20.2828 4.26876 19.7077 4.46193 19.2838 4.80577C18.8598 5.14961 18.6216 5.61595 18.6216 6.10222C18.6216 6.58848 18.8598 7.05482 19.2838 7.39866C19.7077 7.7425 20.2828 7.93567 20.8823 7.93567ZM46.3365 7.93567C46.9361 7.93567 47.5111 7.7425 47.9351 7.39866C48.359 7.05482 48.5972 6.58848 48.5972 6.10222C48.5972 5.61595 48.359 5.14961 47.9351 4.80577C47.5111 4.46193 46.9361 4.26876 46.3365 4.26876C45.7369 4.26876 45.1619 4.46193 44.7379 4.80577C44.3139 5.14961 44.0757 5.61595 44.0757 6.10222C44.0757 6.58848 44.3139 7.05482 44.7379 7.39866C45.1619 7.7425 45.7369 7.93567 46.3365 7.93567ZM29.7997 12.044C29.7997 11.5577 29.5615 11.0914 29.1375 10.7475C28.7135 10.4037 28.1385 10.2105 27.5389 10.2105C26.9394 10.2105 26.3643 10.4037 25.9404 10.7475C25.5164 11.0914 25.2782 11.5577 25.2782 12.044C25.2782 12.5302 25.5164 12.9966 25.9404 13.3404C26.3643 13.6842 26.9394 13.8774 27.5389 13.8774C28.1385 13.8774 28.7135 13.6842 29.1375 13.3404C29.5615 12.9966 29.7997 12.5302 29.7997 12.044ZM41.8987 12.044C41.8987 11.5577 41.6606 11.0914 41.2366 10.7475C40.8126 10.4037 40.2376 10.2105 39.638 10.2105C39.0384 10.2105 38.4634 10.4037 38.0394 10.7475C37.6155 11.0914 37.3773 11.5577 37.3773 12.044C37.3773 12.5302 37.6155 12.9966 38.0394 13.3404C38.4634 13.6842 39.0384 13.8774 39.638 13.8774C40.2376 13.8774 40.8126 13.6842 41.2366 13.3404C41.6606 12.9966 41.8987 12.5302 41.8987 12.044ZM35.8701 6.10222C35.8701 5.61595 35.632 5.14961 35.208 4.80577C34.784 4.46193 34.209 4.26876 33.6094 4.26876C33.0098 4.26876 32.4348 4.46193 32.0108 4.80577C31.5869 5.14961 31.3487 5.61595 31.3487 6.10222C31.3487 6.58848 31.5869 7.05482 32.0108 7.39866C32.4348 7.7425 33.0098 7.93567 33.6094 7.93567C34.209 7.93567 34.784 7.7425 35.208 7.39866C35.632 7.05482 35.8701 6.58848 35.8701 6.10222ZM52.7419 95.5H14.2676C5.47589 95.5 -1.26443 89.0829 0.20086 82.0547L10.416 32.2798H10.73L10.416 32.2459V23.1194H56.6354V32.2459L56.3256 32.2798H56.5935L66.8086 82.0207C68.2321 89.0829 61.5336 95.5 52.7419 95.5ZM49.0159 54.3492H17.9936C16.4028 54.3492 15.0212 55.2999 14.77 56.5561L10.2067 78.7613C9.20191 83.6844 13.8908 88.1662 20.045 88.1662H46.9645C53.1187 88.1662 57.8076 83.6844 56.8028 78.7613L52.2395 56.5561C52.1015 55.942 51.7044 55.3859 51.1163 54.9832C50.5281 54.5806 49.7855 54.3564 49.0159 54.3492Z" fill="#EDA345"/>
</svg>
