<svg width="67" height="45" viewBox="0 0 67 45" fill="none" xmlns="http://www.w3.org/2000/svg">
<rect x="1.0675" y="1.0675" width="64.1808" height="42.865" rx="7.4725" fill="white" stroke="#F3F3F3" stroke-width="2.135"/>
<path d="M39.2292 32.5986H27.394V11.8263H39.2292V32.5986Z" fill="#FF5F00"/>
<path d="M28.1523 22.2107C28.1523 17.997 30.1725 14.2435 33.3184 11.8246C31.0179 10.0557 28.1145 8.99999 24.9591 8.99999C17.489 8.99999 11.4336 14.9145 11.4336 22.2107C11.4336 29.5069 17.489 35.4214 24.9591 35.4214C28.1145 35.4214 31.0179 34.3657 33.3184 32.5969C30.1725 30.178 28.1523 26.4245 28.1523 22.2107Z" fill="#EB001B"/>
<path d="M55.1914 22.2107C55.1914 29.5069 49.136 35.4214 41.6659 35.4214C38.5105 35.4214 35.6071 34.3657 33.3057 32.5969C36.4525 30.178 38.4726 26.4245 38.4726 22.2107C38.4726 17.997 36.4525 14.2435 33.3057 11.8246C35.6071 10.0557 38.5105 8.99999 41.6659 8.99999C49.136 8.99999 55.1914 14.9145 55.1914 22.2107Z" fill="#F79E1B"/>
</svg>
