<svg width="67" height="45" viewBox="0 0 67 45" fill="none" xmlns="http://www.w3.org/2000/svg">
<rect x="1.0675" y="1.0675" width="64.1808" height="42.865" rx="7.4725" fill="white" stroke="#F3F3F3" stroke-width="2.135"/>
<path d="M29.4439 30.8624H25.0288L27.7903 15.1116H32.2052L29.4439 30.8624Z" fill="#15195A"/>
<path d="M45.4488 15.4967C44.5779 15.178 43.1967 14.8261 41.4887 14.8261C37.1287 14.8261 34.0583 16.9708 34.0395 20.037C34.0033 22.2993 36.2378 23.5558 37.909 24.3101C39.6171 25.0809 40.1978 25.584 40.1978 26.2711C40.1804 27.3263 38.8175 27.8127 37.5463 27.8127C35.7836 27.8127 34.8391 27.5619 33.4038 26.9748L32.8224 26.7232L32.2046 30.2589C33.2401 30.6941 35.1479 31.0802 37.1287 31.0972C41.7613 31.0972 44.7773 28.9857 44.8131 25.7181C44.8307 23.9251 43.6508 22.5512 41.107 21.4285C39.5628 20.7078 38.6171 20.2219 38.6171 19.4845C38.6352 18.8141 39.417 18.1275 41.1602 18.1275C42.5955 18.0939 43.6501 18.4122 44.449 18.7306L44.8483 18.8979L45.4488 15.4967Z" fill="#15195A"/>
<path fill-rule="evenodd" clip-rule="evenodd" d="M53.3521 15.1116H56.7672L60.3291 30.8622H56.2411C56.2411 30.8622 55.841 29.0525 55.7143 28.4995H50.0456C49.8817 28.9182 49.119 30.8622 49.119 30.8622H44.4863L51.0444 16.4185C51.4988 15.3963 52.2989 15.1116 53.3521 15.1116ZM53.0799 20.8756C53.0799 20.8756 51.6808 24.3776 51.3172 25.2825H54.987C54.8055 24.495 53.9694 20.7248 53.9694 20.7248L53.6608 19.3676C53.5309 19.7171 53.343 20.1976 53.2163 20.5216C53.1303 20.7413 53.0725 20.8892 53.0799 20.8756Z" fill="#15195A"/>
<path fill-rule="evenodd" clip-rule="evenodd" d="M5.89884 15.1116H13.0024C13.9652 15.1448 14.7465 15.4297 15.0007 16.4356L16.5446 23.6727C16.5447 23.6731 16.5448 23.6735 16.5449 23.6739L17.0174 25.8522L21.3413 15.1116H26.0099L19.0701 30.8457H14.4012L10.466 17.1597C9.10825 16.4274 7.55868 15.8386 5.82617 15.4299L5.89884 15.1116Z" fill="#15195A"/>
</svg>
